<!--?xml version="1.0" encoding="utf-8"?-->
<!-- Generator: Adobe Illustrator 19.0.0, SVG Export Plug-In . SVG Version: 6.00 Build 0)  -->
<svg version="1.1" id="Layer_1" xmlns="http://www.w3.org/2000/svg" xmlns:xlink="http://www.w3.org/1999/xlink" x="0px" y="0px" viewBox="0 0 133.5 131.2" style="" xml:space="preserve">
<style type="text/css">
	.st0{fill:none;stroke:#C6B667;stroke-linecap:round;stroke-linejoin:round;stroke-miterlimit:10;}
</style>
<g>
	<path id="XMLID_2_" class="st0 rIlmBHyz_0" d="M114.5,68.7c0.1,0.3,1.2,3.9,1.7,6.7"></path>
	<path id="XMLID_1099_" class="st0 rIlmBHyz_1" d="M111.5,68.4c3.1,2.4,3.3,3.5,4.7,7"></path>
	<path id="XMLID_1120_" class="st0 rIlmBHyz_2" d="M97.7,73.6c0.9-2.4,6.2-7.6,7.1-7.6h0.1c2,0,7,1.9,7.8,2.6"></path>
	<path id="XMLID_1130_" class="st0 rIlmBHyz_3" d="M97.7,77.6c0.3-1.7,4.2-9,7.6-11.3"></path>
	<path id="XMLID_1146_" class="st0 rIlmBHyz_4" d="M95.1,75.3c0.1-1.8,1.6-4.6,2.3-5.4"></path>
	<path id="XMLID_1193_" class="st0 rIlmBHyz_5" d="M97.3,69.8c3.2-3.2,3.5-3.1,5.6-4.5"></path>
	<path id="XMLID_1212_" class="st0 rIlmBHyz_6" d="M102.8,65.3c0.9-0.4,1.7-0.6,2.7-0.6c3.1,0,7.3,2.2,8.8,3.8"></path>
	<path id="XMLID_1543_" class="st0 rIlmBHyz_7" d="M16.3,87.9c-0.3-0.1-0.5-0.2-0.8-0.2"></path>
	<path id="XMLID_1548_" class="st0 rIlmBHyz_8" d="M26.5,92.7c-0.2-0.2-4.2-3.2-8.7-4.6"></path>
	<path id="XMLID_1555_" class="st0 rIlmBHyz_9" d="M19.6,84.7c-0.5-0.1-1.1-0.1-1.6-0.1c-3.6,0-7.9,1-12,3.1"></path>
	<path id="XMLID_1561_" class="st0 rIlmBHyz_10" d="M15.7,83.2c-2.1,0.4-7.4,2.5-10,4.7"></path>
	<path id="XMLID_1566_" class="st0 rIlmBHyz_11" d="M22.9,84.2c-1-0.3-3.8-0.6-5.1-0.6c-0.3,0-0.7,0-1,0"></path>
	<path id="XMLID_1572_" class="st0 rIlmBHyz_12" d="M27.4,88.4c-1.8-1.9-4.2-2.9-6.7-3.5"></path>
	<path id="XMLID_1577_" class="st0 rIlmBHyz_13" d="M26.6,86.1c-0.7-0.5-1.4-0.9-2.1-1.2"></path>
	<path id="XMLID_1583_" class="st0 rIlmBHyz_14" d="M27.7,92.1c-1.6-2.2-7.6-6-12.7-6.5"></path>
	<path id="XMLID_1803_" class="st0 rIlmBHyz_15" d="M45.3,111.3c-2-4.5-8.9-13.4-14.1-15.8c0.1,0,0.3,0.1,0.4,0.2"></path>
	<path id="XMLID_1809_" class="st0 rIlmBHyz_16" d="M52.3,110.3c-1.7-1.1-2.7-2.2-7.6-4.4"></path>
	<path id="XMLID_1814_" class="st0 rIlmBHyz_17" d="M60.2,116.6c-4.9-6.3-11.8-9.3-15.5-11.4"></path>
	<path id="XMLID_1820_" class="st0 rIlmBHyz_18" d="M60.6,113.6c-6.2-7-13.5-8.5-15.9-9.5"></path>
	<path id="XMLID_1826_" class="st0 rIlmBHyz_19" d="M62.3,114.9c-0.1-0.1-0.3-0.3-0.4-0.4"></path>
	<path id="XMLID_1831_" class="st0 rIlmBHyz_20" d="M49.1,102.5c-0.8-1.9-8.1-7.5-8.2-7.6"></path>
	<path id="XMLID_1837_" class="st0 rIlmBHyz_21" d="M48.8,104.4c-2.6-3.2-5.5-6.5-10.8-9.3"></path>
	<path id="XMLID_1843_" class="st0 rIlmBHyz_22" d="M49.4,105.3c-2-1.5-4.1-2.5-6.3-3.6"></path>
	<path id="XMLID_1849_" class="st0 rIlmBHyz_23" d="M45,107.5c-2.7-3.6-4.6-7.8-11.3-12.3"></path>
	<path id="XMLID_1854_" class="st0 rIlmBHyz_24" d="M48.3,111.2c-0.3-0.9-6.5-12.3-12.9-15.7"></path>
	<path id="XMLID_1860_" class="st0 rIlmBHyz_25" d="M45.6,94.2c-0.3-0.3-0.6-0.6-0.9-0.8"></path>
	<path id="XMLID_1866_" class="st0 rIlmBHyz_26" d="M50.5,99.1c-1.2-1.4-2.4-2.9-3.9-3.9"></path>
	<path id="XMLID_1871_" class="st0 rIlmBHyz_27" d="M50.3,100.8c-0.6-0.8-5.1-5.7-6.1-6.3"></path>
	<path id="XMLID_1883_" class="st0 rIlmBHyz_28" d="M49.6,95.5c-0.9-1-2-2.2-3.3-2.7"></path>
	<path id="XMLID_1911_" class="st0 rIlmBHyz_29" d="M66.4,109.7c-0.6-0.9-8.8-10-10.3-11.4"></path>
	<path id="XMLID_1917_" class="st0 rIlmBHyz_30" d="M65.4,111.3c-2.1-3.9-5.4-7.1-8.7-10.1"></path>
	<path id="XMLID_1923_" class="st0 rIlmBHyz_31" d="M55.8,100.5c-0.9-1.4-2.1-2.5-3.4-3.5"></path>
	<path id="XMLID_1929_" class="st0 rIlmBHyz_32" d="M55,102.5c-0.8-0.8-1.5-1.7-2.5-2.4"></path>
	<path id="XMLID_21_" class="st0 rIlmBHyz_33" d="M58.9,106.9c-0.8-1.2-1.7-2.2-2.7-3.2"></path>
	<path id="XMLID_22_" class="st0 rIlmBHyz_34" d="M63.3,112.5c-1.4-2.3-1.5-2.8-3.5-4.7"></path>
	<path id="XMLID_41_" class="st0 rIlmBHyz_35" d="M59,109.6c-1.6-2.7-4-5-6.2-7.1"></path>
	<path id="XMLID_208_" class="st0 rIlmBHyz_36" d="M29.8,99.8c-3.1-3-10.2-4.3-14.8-4.6"></path>
	<path id="XMLID_243_" class="st0 rIlmBHyz_37" d="M26.4,97.5c-3.8-2.4-7.5-3.8-13.3-3.8c-0.2,0-0.3,0-0.5,0"></path>
	<path id="XMLID_249_" class="st0 rIlmBHyz_38" d="M40.1,112.8C38.2,108,27.6,95,16.6,89.7"></path>
</g>
<g>
	<path id="XMLID_1389_" class="st0 rIlmBHyz_39" d="M75.8,111.1c0.2-3.3,3.6-11,6.7-11.6"></path>
	<path id="XMLID_1401_" class="st0 rIlmBHyz_40" d="M74.5,110.5L74.5,110.5c0-4.3,5.1-12.5,9.5-12.5c1.2,0,2.4,0.7,2.7,1.9"></path>
	<path id="XMLID_1481_" class="st0 rIlmBHyz_41" d="M73.8,110.5c0-6,4.4-20.1,10.7-24.4"></path>
	<path id="XMLID_1493_" class="st0 rIlmBHyz_42" d="M78.3,101.4c0.8-6,4.4-11.8,6-13.2"></path>
	<path id="XMLID_1516_" class="st0 rIlmBHyz_43" d="M59.1,95.3c-0.9-0.7-2-1.1-3-1.6c-5.8-2.8-2.2-5.5-6.7-10.4"></path>
	<path id="XMLID_1521_" class="st0 rIlmBHyz_44" d="M58.3,96.9c-0.6-0.7-1.5-0.9-2.3-1.3c-6.6-3-3.2-7.4-7.3-11.2"></path>
	<path id="XMLID_1527_" class="st0 rIlmBHyz_45" d="M65.1,103.9c-0.5-1.1-1.2-2-2-2.8"></path>
	<path id="XMLID_1532_" class="st0 rIlmBHyz_46" d="M64.5,100.6c3.7,2.6,4.6,6.6,4.6,11.1c0,0.1,0,0.2,0,0.4"></path>
	<path id="XMLID_1538_" class="st0 rIlmBHyz_47" d="M66.5,113.2c0-0.9,0.1-1.7,0.1-2.6v-0.1c0-0.6-0.2-4.1-0.7-5.3"></path>
</g>
<g>
	<path id="XMLID_1676_" class="st0 rIlmBHyz_48" d="M70.6,113.5c0.1-0.5,0.1-1,0.1-1.5c0-0.2,0-0.3,0-0.5c0-0.3,0-0.4,0-0.9
		c0-4.5-0.9-6.6-0.9-10.1c0-4,0.9-5.8,2.3-9.3"></path>
	<path id="XMLID_1716_" class="st0 rIlmBHyz_49" d="M72.6,79.9c-0.2-1.2-0.7-2.5-1.2-3.7"></path>
	<path id="XMLID_1721_" class="st0 rIlmBHyz_50" d="M73.3,87c0-0.8-0.1-5.2-0.4-6.4"></path>
	<path id="XMLID_1727_" class="st0 rIlmBHyz_51" d="M71.5,75.1c-0.1-0.2-0.3-0.3-0.4-0.5"></path>
	<path id="XMLID_1732_" class="st0 rIlmBHyz_52" d="M74.9,85.6c0-0.1,0-0.1,0-0.2c0-5.3-2.7-9.9-2.7-10"></path>
	<path id="XMLID_1742_" class="st0 rIlmBHyz_53" d="M72.7,86.6c-0.2-0.4-0.5-0.6-0.9-0.6c-0.6,0-1.9,0.5-2.6,1.8"></path>
	<path id="XMLID_1728_" class="st0 rIlmBHyz_54" d="M73,90.2c0.1-0.5,0.2-1,0.2-1.5c0-0.1,0-0.3,0-0.5"></path>
	<path id="XMLID_1784_" class="st0 rIlmBHyz_55" d="M73.5,105.7c0-10.3,1.7-11.8,1.7-16.4c0-0.9-0.1-1.7-0.3-2.6"></path>
	<path id="XMLID_1792_" class="st0 rIlmBHyz_56" d="M71.9,110.1c-0.6-1.6-0.8-5.7-0.8-7.4c0-6.7,1.5-8.6,2-11.3"></path>
	<path id="XMLID_1797_" class="st0 rIlmBHyz_57" d="M72.2,102.2c0-0.1,0-0.1,0-0.2c0-2.7,0.8-5.4,1-8.1"></path>
	<path id="XMLID_1737_" class="st0 rIlmBHyz_58" d="M72.1,88.6c-0.2-0.4-0.5-0.8-0.9-0.8c-1.9,0-3.2,5.5-3.6,7.4"></path>
</g>
<g>
	<path id="XMLID_268_" class="st0 rIlmBHyz_59" d="M36.8,86.1c-1.7,1.3-3.1,3-4.3,4.7"></path>
	<path id="XMLID_284_" class="st0 rIlmBHyz_60" d="M44.6,82.2c-1.9,0.4-5.4,1.7-7.1,3.1"></path>
	<path id="XMLID_311_" class="st0 rIlmBHyz_61" d="M46.7,80.2c0.7-4.6,6.2-9.2,7-11.8"></path>
	<path id="XMLID_345_" class="st0 rIlmBHyz_62" d="M54.1,67.2c0.2-0.7,0.3-1.5,0.3-2.2"></path>
	<path id="XMLID_369_" class="st0 rIlmBHyz_63" d="M31.2,70.8c-0.3-0.2-0.6-0.4-0.9-0.6"></path>
	<path id="XMLID_394_" class="st0 rIlmBHyz_64" d="M45.5,80.7c-3.7-5-11.3-8.2-13.1-9.3"></path>
	<path id="XMLID_419_" class="st0 rIlmBHyz_65" d="M33.5,81.1C33,81.7,31.6,82,30.8,82c-2.6,0-3.6-2.1-3.6-4.7c0-2.7,1.2-5.4,1.2-7
		c0-0.8-0.2-1.5-1-1.8"></path>
	<path id="XMLID_433_" class="st0 rIlmBHyz_66" d="M45.8,70.7c0.3-0.5,0.5-1.2,0.5-1.8c0-1.9-1.9-3.8-5-3.8c-5,0-9,3.3-12.4,3.3
		c-0.6,0-1.3-0.1-1.7-0.6"></path>
	<path id="XMLID_456_" class="st0 rIlmBHyz_67" d="M46.2,66.3L46.2,66.3c0-3.6,9.5-3.9,10.7-5.4"></path>
	<path id="XMLID_484_" class="st0 rIlmBHyz_68" d="M48.4,82.3c0.4-0.9,1.5-1.5,2.5-1.5c0,0,0,0,0.1,0c0.7,0,1.5,0.2,2.2,0.2
		c3.4,0,6.4-2.8,6.4-7.6c0-3.2-2.7-8.7-2.7-11c0-0.5,0.1-1,0.4-1.5"></path>
	<path id="XMLID_497_" class="st0 rIlmBHyz_69" d="M30.2,83.3c-0.8,0.7-1.8,2.3-1.8,4.5c0,1.7,0.4,2.9,0.4,4.4c0,0.8-0.2,2.3-0.9,2.9"></path>
	<path id="XMLID_509_" class="st0 rIlmBHyz_70" d="M48.2,82.3c-0.4,0.3-0.5,0.8-0.5,1.3c0,0.4,0.2,3.7,0.2,4.3c0,4.5-4.6,6.7-8.5,6.7
		c-2.8,0-6.4-0.7-7.2-0.7c-1.5,0-2.8,0.6-3.9,1.4"></path>
	<path id="XMLID_787_" class="st0 rIlmBHyz_71" d="M61.1,30.9c0.1-1.3,0.4-2.6,1-3.8"></path>
	<path id="XMLID_823_" class="st0 rIlmBHyz_72" d="M62.5,50.9c0.4-1.2,0.6-2.5,0.6-3.7c0-4.7-2.1-10.8-2.1-14.1"></path>
	<path id="XMLID_854_" class="st0 rIlmBHyz_73" d="M43.5,48.1c-0.5,0-0.9-0.1-1.4-0.3"></path>
	<path id="XMLID_862_" class="st0 rIlmBHyz_74" d="M57.4,48.9c-1.7-0.8-3.4-1-5.2-1c-2.1,0-4.3,0.3-6.4,0.3"></path>
	<path id="XMLID_884_" class="st0 rIlmBHyz_75" d="M60.7,50.6c-0.7-0.5-1.4-0.9-2.2-1.3"></path>
	<path id="XMLID_910_" class="st0 rIlmBHyz_76" d="M65.2,49.5c0.6-0.6,1.3-1.1,1.9-1.7"></path>
	<path id="XMLID_994_" class="st0 rIlmBHyz_77" d="M61.2,53.1L61.2,53.1c0-0.7-0.7-1.1-1.4-1.1c-3.1,0-3.5,6.6-9.5,6.6c-6.9,0-8.4-10-12.7-11.1"></path>
	<path id="XMLID_5_" class="st0 rIlmBHyz_78" d="M54,42c-0.9-2.2-4.9-1.6-4.9-5.8c0-7.8,11.4-8.1,12-12.5"></path>
	<path id="XMLID_1048_" class="st0 rIlmBHyz_79" d="M53.9,42.5c-0.4,0.3-0.8,0.4-1.3,0.4c-1.3,0-4-0.9-5.3-0.9c-3.9,0-6,5.2-9.8,5.2
		c-0.1,0-0.3,0-0.4,0"></path>
	<path id="XMLID_1087_" class="st0 rIlmBHyz_80" d="M71.4,30.9c-0.8-5.2-9-5.6-10.3-7.8"></path>
	<path id="XMLID_1244_" class="st0 rIlmBHyz_81" d="M98.3,88.8c0.3,0.6,0.4,1.1,0.4,1.7c0,3-3.6,5.2-6.1,5.2s-2.9-1.2-7.8-1.8"></path>
	<path id="XMLID_1254_" class="st0 rIlmBHyz_82" d="M98.1,80.4c-1.3-0.8-2.6-3.1-5.3-3.1c-3.2,0-7.9,3.3-8,11.6V89c0,0.8,0.1,1.7,0.1,2.6
		c0,0.7-0.1,1.5-0.4,2.2"></path>
	<path id="XMLID_1259_" class="st0 rIlmBHyz_83" d="M98.3,80.4c0.1,0,0.2,0,0.3,0c2.5,0,2.2-5.6,6.4-5.6c1.5,0,8.9,2.1,13.7,8"></path>
	<path id="XMLID_3_" class="st0 rIlmBHyz_84" d="M107.9,85c0,1.8,5.3,0.6,5.3,5.3c0,2.4-4.2,5-4.8,8.6"></path>
	<path id="XMLID_1266_" class="st0 rIlmBHyz_85" d="M107.9,85c0-0.4,0.6-0.7,1.2-0.7c1.6,0,2.1,1.5,4.1,1.5c1.6,0,4.1-1.2,5.5-2.9"></path>
	<path id="XMLID_1271_" class="st0 rIlmBHyz_86" d="M98.2,93.1c1.1,3.5,8.7,1.5,10,5.9"></path>
	<path id="XMLID_1288_" class="st0 rIlmBHyz_87" d="M100,81.3c0.5,0.3,1.1,0.5,1.5,0.9"></path>
	<path id="XMLID_1258_" class="st0 rIlmBHyz_88" d="M102.4,83c2.8,1.3,2.4,5.3,3.2,6.6c1,1.6,3,2.1,3,4.3"></path>
	<path id="XMLID_1268_" class="st0 rIlmBHyz_89" d="M88.3,89.9c0.6-0.2,1.2-0.6,1.7-1.1"></path>
	<path id="XMLID_1287_" class="st0 rIlmBHyz_90" d="M90.9,87.5c0.3-0.3,0.5-0.7,0.8-1"></path>
	<path id="XMLID_1339_" class="st0 rIlmBHyz_91" d="M92.1,85.7c1.3-1.6,4.4-4,6.5-4.2"></path>
	<path id="XMLID_1354_" class="st0 rIlmBHyz_92" d="M101.1,81c1.4,0.4,3,0.3,4.2,1.2"></path>
	<path id="XMLID_1369_" class="st0 rIlmBHyz_93" d="M101,80.5c1.6-0.4,3.2-1.3,6-1.3c0.5,0,1,0,1.4,0.1"></path>
	<path id="XMLID_1379_" class="st0 rIlmBHyz_94" d="M109.8,79.5c0.4,0.1,0.7,0.2,1.1,0.4"></path>
	<path id="XMLID_1411_" class="st0 rIlmBHyz_95" d="M79.7,108.8c0.4-0.4,0.7-0.9,0.7-1.6c0-0.8-0.3-1.4-0.3-2.3c0-5.5,5.7-2.2,8.2-6.2
		c0.5-0.7,1.2-1.2,2.1-1.2c1.3,0,2.7,0.8,4.6,0.8c0.3,0,0.6,0,0.9-0.2"></path>
	<path id="XMLID_1421_" class="st0 rIlmBHyz_96" d="M79.7,108.9c0.5-0.5,1.1-0.6,1.8-0.6c0.5,0,0.9,0.1,1.3,0.1c2.6,0,3.3-2.1,3.6-2.1
		c0.1,0,0.1,0,0.2,0.1"></path>
	<path id="XMLID_1431_" class="st0 rIlmBHyz_97" d="M86.8,106.1c-0.1,0.3-0.2,0.7-0.2,1l0,0c0,1.4,0.8,1.8,2.1,1.8c0.7,0,1.4-0.1,2.1-0.1
		c1.1,0,2.1,0.4,2.8,1.5"></path>
	<path id="XMLID_1442_" class="st0 rIlmBHyz_98" d="M92.6,102.9c0.2,0.1,2.5,0,2.5,1.9c0,1.4-1.4,2.5-1.4,4.6c0,0.4,0.1,0.8,0.2,1.2"></path>
	<path id="XMLID_1447_" class="st0 rIlmBHyz_99" d="M92.6,102.5c0.2,0.1,0.4,0.1,0.6,0.1c3,0,1.3-3.3,3-4.6"></path>
	<path id="XMLID_1452_" class="st0 rIlmBHyz_100" d="M87.3,101.6L87.3,101.6c2.5,0,2,3.7,4.8,6.3"></path>
	<path id="XMLID_1464_" class="st0 rIlmBHyz_101" d="M88.6,101.7C88.6,101.7,88.7,101.7,88.6,101.7c1.4,0,3.5-2.1,4.5-2.1l0,0"></path>
	<path id="XMLID_1476_" class="st0 rIlmBHyz_102" d="M87.8,102.1c-0.2,0-0.3,0-0.5,0c-1.7,0-4.2,1.7-4.6,2.8"></path>
</g>
<g>
	<path id="XMLID_1681_" class="st0 rIlmBHyz_103" d="M70.5,74.2c-0.6-0.2-1.8-0.7-2.5-0.7c-1.2,0-4.8,3.2-4.8,5.6c0,0.3,0,0.6,0.1,0.9"></path>
	<path id="XMLID_1686_" class="st0 rIlmBHyz_104" d="M70.8,75.2c-0.7,2.8-1.4,5.9-4.2,6.6"></path>
	<path id="XMLID_47_" class="st0 rIlmBHyz_105" d="M67.3,82c-0.3,0.2-0.7,0.3-1,0.3c-0.1,0-0.3,0-0.4-0.1"></path>
	<path id="XMLID_4_" class="st0 rIlmBHyz_106" d="M67.6,77c0,0.2,0.1,0.4,0.1,0.6c0,0.8-1,3.8-1.8,4.6"></path>
	<path id="XMLID_1691_" class="st0 rIlmBHyz_107" d="M67.5,76.9c-1.1,0-3.9,1.4-4.1,3.3"></path>
	<path id="XMLID_1747_" class="st0 rIlmBHyz_108" d="M68.8,89.8c-0.1-0.6-0.3-1.1-0.9-1.1c-1,0-0.8,1-2.3,1c-0.1,0-0.2,0-0.2,0
		c-3.7,0-6.1,5.6-6.9,9.4"></path>
	<path id="XMLID_1752_" class="st0 rIlmBHyz_109" d="M65.4,92.1c-1.6,0.9-2.4,2.7-3.6,4c-1.6,1.6-2.2,1-3.1,2.9"></path>
	<path id="XMLID_1758_" class="st0 rIlmBHyz_110" d="M62.4,96.3c-0.6,0.6-2,2.3-2.3,3.2"></path>
	<path id="XMLID_1763_" class="st0 rIlmBHyz_111" d="M65.4,94.8c-1.6,3.5-5,2.8-5.5,6.6"></path>
	<path id="XMLID_1769_" class="st0 rIlmBHyz_112" d="M67.4,96.4c-1.9,5.2-6.1,4.8-7.4,5"></path>
	<path id="XMLID_1696_" class="st0 rIlmBHyz_113" d="M63.7,79.7c-0.5,0.8-0.9,1.8-0.9,2.8c0,0,0,0.1,0,0.2"></path>
	<path id="XMLID_1701_" class="st0 rIlmBHyz_114" d="M65.9,77.9c-0.7,0.7-2,2.9-2.7,5"></path>
	<path id="XMLID_1706_" class="st0 rIlmBHyz_115" d="M67,78c-1.4,1.5-2.5,3.2-3.7,4.8"></path>
	<path id="XMLID_1711_" class="st0 rIlmBHyz_116" d="M66.6,79.6c-0.3,0.6-1.7,2.3-3,3"></path>
	<path id="XMLID_1717_" class="st0 rIlmBHyz_117" d="M65.9,82c-0.5,0.5-1.3,0.8-2,0.9"></path>
</g>
<style data-made-with="vivus-instant">.rIlmBHyz_0{stroke-dasharray:7 9;stroke-dashoffset:8;animation:rIlmBHyz_draw 2000ms ease 0ms forwards;}.rIlmBHyz_1{stroke-dasharray:9 11;stroke-dashoffset:10;animation:rIlmBHyz_draw 2000ms ease 25ms forwards;}.rIlmBHyz_2{stroke-dasharray:19 21;stroke-dashoffset:20;animation:rIlmBHyz_draw 2000ms ease 51ms forwards;}.rIlmBHyz_3{stroke-dasharray:14 16;stroke-dashoffset:15;animation:rIlmBHyz_draw 2000ms ease 76ms forwards;}.rIlmBHyz_4{stroke-dasharray:6 8;stroke-dashoffset:7;animation:rIlmBHyz_draw 2000ms ease 102ms forwards;}.rIlmBHyz_5{stroke-dasharray:8 10;stroke-dashoffset:9;animation:rIlmBHyz_draw 2000ms ease 128ms forwards;}.rIlmBHyz_6{stroke-dasharray:13 15;stroke-dashoffset:14;animation:rIlmBHyz_draw 2000ms ease 153ms forwards;}.rIlmBHyz_7{stroke-dasharray:1 3;stroke-dashoffset:2;animation:rIlmBHyz_draw 2000ms ease 179ms forwards;}.rIlmBHyz_8{stroke-dasharray:10 12;stroke-dashoffset:11;animation:rIlmBHyz_draw 2000ms ease 205ms forwards;}.rIlmBHyz_9{stroke-dasharray:15 17;stroke-dashoffset:16;animation:rIlmBHyz_draw 2000ms ease 230ms forwards;}.rIlmBHyz_10{stroke-dasharray:12 14;stroke-dashoffset:13;animation:rIlmBHyz_draw 2000ms ease 256ms forwards;}.rIlmBHyz_11{stroke-dasharray:7 9;stroke-dashoffset:8;animation:rIlmBHyz_draw 2000ms ease 282ms forwards;}.rIlmBHyz_12{stroke-dasharray:8 10;stroke-dashoffset:9;animation:rIlmBHyz_draw 2000ms ease 307ms forwards;}.rIlmBHyz_13{stroke-dasharray:3 5;stroke-dashoffset:4;animation:rIlmBHyz_draw 2000ms ease 333ms forwards;}.rIlmBHyz_14{stroke-dasharray:15 17;stroke-dashoffset:16;animation:rIlmBHyz_draw 2000ms ease 358ms forwards;}.rIlmBHyz_15{stroke-dasharray:22 24;stroke-dashoffset:23;animation:rIlmBHyz_draw 2000ms ease 384ms forwards;}.rIlmBHyz_16{stroke-dasharray:9 11;stroke-dashoffset:10;animation:rIlmBHyz_draw 2000ms ease 410ms forwards;}.rIlmBHyz_17{stroke-dasharray:20 22;stroke-dashoffset:21;animation:rIlmBHyz_draw 2000ms ease 435ms forwards;}.rIlmBHyz_18{stroke-dasharray:19 21;stroke-dashoffset:20;animation:rIlmBHyz_draw 2000ms ease 461ms forwards;}.rIlmBHyz_19{stroke-dasharray:1 3;stroke-dashoffset:2;animation:rIlmBHyz_draw 2000ms ease 487ms forwards;}.rIlmBHyz_20{stroke-dasharray:12 14;stroke-dashoffset:13;animation:rIlmBHyz_draw 2000ms ease 512ms forwards;}.rIlmBHyz_21{stroke-dasharray:15 17;stroke-dashoffset:16;animation:rIlmBHyz_draw 2000ms ease 538ms forwards;}.rIlmBHyz_22{stroke-dasharray:8 10;stroke-dashoffset:9;animation:rIlmBHyz_draw 2000ms ease 564ms forwards;}.rIlmBHyz_23{stroke-dasharray:17 19;stroke-dashoffset:18;animation:rIlmBHyz_draw 2000ms ease 589ms forwards;}.rIlmBHyz_24{stroke-dasharray:21 23;stroke-dashoffset:22;animation:rIlmBHyz_draw 2000ms ease 615ms forwards;}.rIlmBHyz_25{stroke-dasharray:2 4;stroke-dashoffset:3;animation:rIlmBHyz_draw 2000ms ease 641ms forwards;}.rIlmBHyz_26{stroke-dasharray:6 8;stroke-dashoffset:7;animation:rIlmBHyz_draw 2000ms ease 666ms forwards;}.rIlmBHyz_27{stroke-dasharray:9 11;stroke-dashoffset:10;animation:rIlmBHyz_draw 2000ms ease 692ms forwards;}.rIlmBHyz_28{stroke-dasharray:5 7;stroke-dashoffset:6;animation:rIlmBHyz_draw 2000ms ease 717ms forwards;}.rIlmBHyz_29{stroke-dasharray:16 18;stroke-dashoffset:17;animation:rIlmBHyz_draw 2000ms ease 743ms forwards;}.rIlmBHyz_30{stroke-dasharray:14 16;stroke-dashoffset:15;animation:rIlmBHyz_draw 2000ms ease 769ms forwards;}.rIlmBHyz_31{stroke-dasharray:5 7;stroke-dashoffset:6;animation:rIlmBHyz_draw 2000ms ease 794ms forwards;}.rIlmBHyz_32{stroke-dasharray:4 6;stroke-dashoffset:5;animation:rIlmBHyz_draw 2000ms ease 820ms forwards;}.rIlmBHyz_33{stroke-dasharray:5 7;stroke-dashoffset:6;animation:rIlmBHyz_draw 2000ms ease 846ms forwards;}.rIlmBHyz_34{stroke-dasharray:6 8;stroke-dashoffset:7;animation:rIlmBHyz_draw 2000ms ease 871ms forwards;}.rIlmBHyz_35{stroke-dasharray:10 12;stroke-dashoffset:11;animation:rIlmBHyz_draw 2000ms ease 897ms forwards;}.rIlmBHyz_36{stroke-dasharray:16 18;stroke-dashoffset:17;animation:rIlmBHyz_draw 2000ms ease 923ms forwards;}.rIlmBHyz_37{stroke-dasharray:15 17;stroke-dashoffset:16;animation:rIlmBHyz_draw 2000ms ease 948ms forwards;}.rIlmBHyz_38{stroke-dasharray:34 36;stroke-dashoffset:35;animation:rIlmBHyz_draw 2000ms ease 974ms forwards;}.rIlmBHyz_39{stroke-dasharray:14 16;stroke-dashoffset:15;animation:rIlmBHyz_draw 2000ms ease 1000ms forwards;}.rIlmBHyz_40{stroke-dasharray:21 23;stroke-dashoffset:22;animation:rIlmBHyz_draw 2000ms ease 1025ms forwards;}.rIlmBHyz_41{stroke-dasharray:28 30;stroke-dashoffset:29;animation:rIlmBHyz_draw 2000ms ease 1051ms forwards;}.rIlmBHyz_42{stroke-dasharray:15 17;stroke-dashoffset:16;animation:rIlmBHyz_draw 2000ms ease 1076ms forwards;}.rIlmBHyz_43{stroke-dasharray:17 19;stroke-dashoffset:18;animation:rIlmBHyz_draw 2000ms ease 1102ms forwards;}.rIlmBHyz_44{stroke-dasharray:17 19;stroke-dashoffset:18;animation:rIlmBHyz_draw 2000ms ease 1128ms forwards;}.rIlmBHyz_45{stroke-dasharray:4 6;stroke-dashoffset:5;animation:rIlmBHyz_draw 2000ms ease 1153ms forwards;}.rIlmBHyz_46{stroke-dasharray:13 15;stroke-dashoffset:14;animation:rIlmBHyz_draw 2000ms ease 1179ms forwards;}.rIlmBHyz_47{stroke-dasharray:9 11;stroke-dashoffset:10;animation:rIlmBHyz_draw 2000ms ease 1205ms forwards;}.rIlmBHyz_48{stroke-dasharray:23 25;stroke-dashoffset:24;animation:rIlmBHyz_draw 2000ms ease 1230ms forwards;}.rIlmBHyz_49{stroke-dasharray:4 6;stroke-dashoffset:5;animation:rIlmBHyz_draw 2000ms ease 1256ms forwards;}.rIlmBHyz_50{stroke-dasharray:7 9;stroke-dashoffset:8;animation:rIlmBHyz_draw 2000ms ease 1282ms forwards;}.rIlmBHyz_51{stroke-dasharray:1 3;stroke-dashoffset:2;animation:rIlmBHyz_draw 2000ms ease 1307ms forwards;}.rIlmBHyz_52{stroke-dasharray:11 13;stroke-dashoffset:12;animation:rIlmBHyz_draw 2000ms ease 1333ms forwards;}.rIlmBHyz_53{stroke-dasharray:5 7;stroke-dashoffset:6;animation:rIlmBHyz_draw 2000ms ease 1358ms forwards;}.rIlmBHyz_54{stroke-dasharray:3 5;stroke-dashoffset:4;animation:rIlmBHyz_draw 2000ms ease 1384ms forwards;}.rIlmBHyz_55{stroke-dasharray:20 22;stroke-dashoffset:21;animation:rIlmBHyz_draw 2000ms ease 1410ms forwards;}.rIlmBHyz_56{stroke-dasharray:20 22;stroke-dashoffset:21;animation:rIlmBHyz_draw 2000ms ease 1435ms forwards;}.rIlmBHyz_57{stroke-dasharray:9 11;stroke-dashoffset:10;animation:rIlmBHyz_draw 2000ms ease 1461ms forwards;}.rIlmBHyz_58{stroke-dasharray:10 12;stroke-dashoffset:11;animation:rIlmBHyz_draw 2000ms ease 1487ms forwards;}.rIlmBHyz_59{stroke-dasharray:7 9;stroke-dashoffset:8;animation:rIlmBHyz_draw 2000ms ease 1512ms forwards;}.rIlmBHyz_60{stroke-dasharray:8 10;stroke-dashoffset:9;animation:rIlmBHyz_draw 2000ms ease 1538ms forwards;}.rIlmBHyz_61{stroke-dasharray:14 16;stroke-dashoffset:15;animation:rIlmBHyz_draw 2000ms ease 1564ms forwards;}.rIlmBHyz_62{stroke-dasharray:3 5;stroke-dashoffset:4;animation:rIlmBHyz_draw 2000ms ease 1589ms forwards;}.rIlmBHyz_63{stroke-dasharray:2 4;stroke-dashoffset:3;animation:rIlmBHyz_draw 2000ms ease 1615ms forwards;}.rIlmBHyz_64{stroke-dasharray:17 19;stroke-dashoffset:18;animation:rIlmBHyz_draw 2000ms ease 1641ms forwards;}.rIlmBHyz_65{stroke-dasharray:19 21;stroke-dashoffset:20;animation:rIlmBHyz_draw 2000ms ease 1666ms forwards;}.rIlmBHyz_66{stroke-dasharray:24 26;stroke-dashoffset:25;animation:rIlmBHyz_draw 2000ms ease 1692ms forwards;}.rIlmBHyz_67{stroke-dasharray:13 15;stroke-dashoffset:14;animation:rIlmBHyz_draw 2000ms ease 1717ms forwards;}.rIlmBHyz_68{stroke-dasharray:30 32;stroke-dashoffset:31;animation:rIlmBHyz_draw 2000ms ease 1743ms forwards;}.rIlmBHyz_69{stroke-dasharray:13 15;stroke-dashoffset:14;animation:rIlmBHyz_draw 2000ms ease 1769ms forwards;}.rIlmBHyz_70{stroke-dasharray:30 32;stroke-dashoffset:31;animation:rIlmBHyz_draw 2000ms ease 1794ms forwards;}.rIlmBHyz_71{stroke-dasharray:4 6;stroke-dashoffset:5;animation:rIlmBHyz_draw 2000ms ease 1820ms forwards;}.rIlmBHyz_72{stroke-dasharray:19 21;stroke-dashoffset:20;animation:rIlmBHyz_draw 2000ms ease 1846ms forwards;}.rIlmBHyz_73{stroke-dasharray:2 4;stroke-dashoffset:3;animation:rIlmBHyz_draw 2000ms ease 1871ms forwards;}.rIlmBHyz_74{stroke-dasharray:12 14;stroke-dashoffset:13;animation:rIlmBHyz_draw 2000ms ease 1897ms forwards;}.rIlmBHyz_75{stroke-dasharray:3 5;stroke-dashoffset:4;animation:rIlmBHyz_draw 2000ms ease 1923ms forwards;}.rIlmBHyz_76{stroke-dasharray:3 5;stroke-dashoffset:4;animation:rIlmBHyz_draw 2000ms ease 1948ms forwards;}.rIlmBHyz_77{stroke-dasharray:32 34;stroke-dashoffset:33;animation:rIlmBHyz_draw 2000ms ease 1974ms forwards;}.rIlmBHyz_78{stroke-dasharray:27 29;stroke-dashoffset:28;animation:rIlmBHyz_draw 2000ms ease 2000ms forwards;}.rIlmBHyz_79{stroke-dasharray:19 21;stroke-dashoffset:20;animation:rIlmBHyz_draw 2000ms ease 2025ms forwards;}.rIlmBHyz_80{stroke-dasharray:14 16;stroke-dashoffset:15;animation:rIlmBHyz_draw 2000ms ease 2051ms forwards;}.rIlmBHyz_81{stroke-dasharray:19 21;stroke-dashoffset:20;animation:rIlmBHyz_draw 2000ms ease 2076ms forwards;}.rIlmBHyz_82{stroke-dasharray:27 29;stroke-dashoffset:28;animation:rIlmBHyz_draw 2000ms ease 2102ms forwards;}.rIlmBHyz_83{stroke-dasharray:26 28;stroke-dashoffset:27;animation:rIlmBHyz_draw 2000ms ease 2128ms forwards;}.rIlmBHyz_84{stroke-dasharray:19 21;stroke-dashoffset:20;animation:rIlmBHyz_draw 2000ms ease 2153ms forwards;}.rIlmBHyz_85{stroke-dasharray:13 15;stroke-dashoffset:14;animation:rIlmBHyz_draw 2000ms ease 2179ms forwards;}.rIlmBHyz_86{stroke-dasharray:13 15;stroke-dashoffset:14;animation:rIlmBHyz_draw 2000ms ease 2205ms forwards;}.rIlmBHyz_87{stroke-dasharray:2 4;stroke-dashoffset:3;animation:rIlmBHyz_draw 2000ms ease 2230ms forwards;}.rIlmBHyz_88{stroke-dasharray:14 16;stroke-dashoffset:15;animation:rIlmBHyz_draw 2000ms ease 2256ms forwards;}.rIlmBHyz_89{stroke-dasharray:3 5;stroke-dashoffset:4;animation:rIlmBHyz_draw 2000ms ease 2282ms forwards;}.rIlmBHyz_90{stroke-dasharray:2 4;stroke-dashoffset:3;animation:rIlmBHyz_draw 2000ms ease 2307ms forwards;}.rIlmBHyz_91{stroke-dasharray:8 10;stroke-dashoffset:9;animation:rIlmBHyz_draw 2000ms ease 2333ms forwards;}.rIlmBHyz_92{stroke-dasharray:5 7;stroke-dashoffset:6;animation:rIlmBHyz_draw 2000ms ease 2358ms forwards;}.rIlmBHyz_93{stroke-dasharray:8 10;stroke-dashoffset:9;animation:rIlmBHyz_draw 2000ms ease 2384ms forwards;}.rIlmBHyz_94{stroke-dasharray:2 4;stroke-dashoffset:3;animation:rIlmBHyz_draw 2000ms ease 2410ms forwards;}.rIlmBHyz_95{stroke-dasharray:24 26;stroke-dashoffset:25;animation:rIlmBHyz_draw 2000ms ease 2435ms forwards;}.rIlmBHyz_96{stroke-dasharray:8 10;stroke-dashoffset:9;animation:rIlmBHyz_draw 2000ms ease 2461ms forwards;}.rIlmBHyz_97{stroke-dasharray:10 12;stroke-dashoffset:11;animation:rIlmBHyz_draw 2000ms ease 2487ms forwards;}.rIlmBHyz_98{stroke-dasharray:10 12;stroke-dashoffset:11;animation:rIlmBHyz_draw 2000ms ease 2512ms forwards;}.rIlmBHyz_99{stroke-dasharray:7 9;stroke-dashoffset:8;animation:rIlmBHyz_draw 2000ms ease 2538ms forwards;}.rIlmBHyz_100{stroke-dasharray:9 11;stroke-dashoffset:10;animation:rIlmBHyz_draw 2000ms ease 2564ms forwards;}.rIlmBHyz_101{stroke-dasharray:6 8;stroke-dashoffset:7;animation:rIlmBHyz_draw 2000ms ease 2589ms forwards;}.rIlmBHyz_102{stroke-dasharray:7 9;stroke-dashoffset:8;animation:rIlmBHyz_draw 2000ms ease 2615ms forwards;}.rIlmBHyz_103{stroke-dasharray:12 14;stroke-dashoffset:13;animation:rIlmBHyz_draw 2000ms ease 2641ms forwards;}.rIlmBHyz_104{stroke-dasharray:9 11;stroke-dashoffset:10;animation:rIlmBHyz_draw 2000ms ease 2666ms forwards;}.rIlmBHyz_105{stroke-dasharray:2 4;stroke-dashoffset:3;animation:rIlmBHyz_draw 2000ms ease 2692ms forwards;}.rIlmBHyz_106{stroke-dasharray:6 8;stroke-dashoffset:7;animation:rIlmBHyz_draw 2000ms ease 2717ms forwards;}.rIlmBHyz_107{stroke-dasharray:6 8;stroke-dashoffset:7;animation:rIlmBHyz_draw 2000ms ease 2743ms forwards;}.rIlmBHyz_108{stroke-dasharray:17 19;stroke-dashoffset:18;animation:rIlmBHyz_draw 2000ms ease 2769ms forwards;}.rIlmBHyz_109{stroke-dasharray:10 12;stroke-dashoffset:11;animation:rIlmBHyz_draw 2000ms ease 2794ms forwards;}.rIlmBHyz_110{stroke-dasharray:4 6;stroke-dashoffset:5;animation:rIlmBHyz_draw 2000ms ease 2820ms forwards;}.rIlmBHyz_111{stroke-dasharray:9 11;stroke-dashoffset:10;animation:rIlmBHyz_draw 2000ms ease 2846ms forwards;}.rIlmBHyz_112{stroke-dasharray:10 12;stroke-dashoffset:11;animation:rIlmBHyz_draw 2000ms ease 2871ms forwards;}.rIlmBHyz_113{stroke-dasharray:4 6;stroke-dashoffset:5;animation:rIlmBHyz_draw 2000ms ease 2897ms forwards;}.rIlmBHyz_114{stroke-dasharray:6 8;stroke-dashoffset:7;animation:rIlmBHyz_draw 2000ms ease 2923ms forwards;}.rIlmBHyz_115{stroke-dasharray:7 9;stroke-dashoffset:8;animation:rIlmBHyz_draw 2000ms ease 2948ms forwards;}.rIlmBHyz_116{stroke-dasharray:5 7;stroke-dashoffset:6;animation:rIlmBHyz_draw 2000ms ease 2974ms forwards;}.rIlmBHyz_117{stroke-dasharray:3 5;stroke-dashoffset:4;animation:rIlmBHyz_draw 2000ms ease 3000ms forwards;}@keyframes rIlmBHyz_draw{100%{stroke-dashoffset:0;}}@keyframes rIlmBHyz_fade{0%{stroke-opacity:1;}99.05660377358491%{stroke-opacity:1;}100%{stroke-opacity:0;}}</style></svg>
