<!--?xml version="1.0" encoding="utf-8"?-->
<!-- Generator: Adobe Illustrator 19.0.0, SVG Export Plug-In . SVG Version: 6.00 Build 0)  -->
<svg version="1.1" id="Layer_1" xmlns="http://www.w3.org/2000/svg" xmlns:xlink="http://www.w3.org/1999/xlink" x="0px" y="0px" viewBox="-386 217.9 186.4 126.1"  xml:space="preserve">
<style type="text/css">
	.st0{fill:none;stroke:#C6B667;stroke-linecap:round;stroke-linejoin:round;stroke-miterlimit:10;}
</style>
<g id="XMLID_185_">
	<g id="XMLID_209_">
		<g id="XMLID_274_">
			<path id="XMLID_285_" class="st0 rAsYlEmF_0" d="M-349.9,269c-2.3-1.6-6.7-2.6-10.6-2.7c-2.6,0-5.1,0.3-6.7,1.2"></path>
			<path id="XMLID_284_" class="st0 rAsYlEmF_1" d="M-352.7,275.3c5-5.1,11.2-8.3,18.3-8.2c3.2,0.1,8.6,0.9,10.6,3.5"></path>
			<path id="XMLID_283_" class="st0 rAsYlEmF_2" d="M-353.8,277.4c-0.2-0.1-0.4-0.1-0.5-0.1c-0.6,0-0.9,0.4-0.9,0.7c0,0.3,0.2,0.6,0.6,0.6
				c0.2,0,0.4,0,0.6-0.1"></path>
			<path id="XMLID_282_" class="st0 rAsYlEmF_3" d="M-352.1,277.3c0.8-0.8,2.1-1.3,3.3-1.2h0.1"></path>
			<path id="XMLID_281_" class="st0 rAsYlEmF_4" d="M-351.9,278c0.7-0.2,1.4-0.4,2.1-0.4c0.1,0,0.3,0,0.4,0"></path>
			<path id="XMLID_280_" class="st0 rAsYlEmF_5" d="M-352.9,276.4c-0.1,0-0.2,0.1-0.3,0.1"></path>
			<path id="XMLID_279_" class="st0 rAsYlEmF_6" d="M-356.3,276.7c-0.5-0.3-1.1-0.5-1.7-0.5c-0.2,0-0.4,0-0.7,0"></path>
			<path id="XMLID_278_" class="st0 rAsYlEmF_7" d="M-357.2,277.6c-1,0-2.1,0.4-3,1"></path>
			<path id="XMLID_277_" class="st0 rAsYlEmF_8" d="M-357.1,279.1c-0.5,0.2-1,0.6-1.3,1.1"></path>
			<path id="XMLID_276_" class="st0 rAsYlEmF_9" d="M-356,280.3c-0.1,0.3-0.2,0.6-0.3,0.9"></path>
			<path id="XMLID_275_" class="st0 rAsYlEmF_10" d="M-350.1,279.8c4.1,0.5,9.2,2.1,11.2,5.7"></path>
		</g>
		<g id="XMLID_264_">
			<path id="XMLID_273_" class="st0 rAsYlEmF_11" d="M-352.1,298.6c-3,1.3-5.6,3.7-7.1,6.5"></path>
			<path id="XMLID_272_" class="st0 rAsYlEmF_12" d="M-351.3,290.9c-2.3-1.9-5.5-2.8-8.9-2.9c-4.3-0.1-8.7,1.3-11.4,3.7"></path>
			<path id="XMLID_271_" class="st0 rAsYlEmF_13" d="M-349.2,296c-0.3-0.3-0.6-0.4-0.8-0.4c-0.5,0-0.9,0.4-0.9,0.8c0,0.3,0.2,0.5,0.8,0.5
				c0.1,0,0.1,0,0.2,0"></path>
			<path id="XMLID_270_" class="st0 rAsYlEmF_14" d="M-347.1,294.3c0.6-0.5,1.4-0.8,2.2-0.9"></path>
			<path id="XMLID_269_" class="st0 rAsYlEmF_15" d="M-347.4,295.7c0.7-0.1,1.3-0.1,2-0.1c0.6,0,1.2,0.1,1.8,0.3"></path>
			<path id="XMLID_268_" class="st0 rAsYlEmF_16" d="M-347.3,297.2c1.1,0.3,2.3,0.6,3.2,1.3"></path>
			<path id="XMLID_267_" class="st0 rAsYlEmF_17" d="M-352.9,295.1c-0.7-0.2-1.5-0.3-2.2-0.4"></path>
			<path id="XMLID_266_" class="st0 rAsYlEmF_18" d="M-352.8,295.9c-0.2,0-0.3,0-0.5,0c-1.1,0-2.3,0.4-3.3,0.8"></path>
			<path id="XMLID_265_" class="st0 rAsYlEmF_19" d="M-349.2,291.4c3.6-2.9,11.6-4.1,16.3-4c11.6,0.2,21.9,10.2,23,12.3"></path>
		</g>
		<g id="XMLID_256_">
			<path id="XMLID_263_" class="st0 rAsYlEmF_20" d="M-311.8,302.4c-0.2-0.2-0.5-0.3-0.8-0.3c-0.6,0-1.1,0.3-1.1,1c0.2,0.3,0.3,0.4,1.1,0.5
				c0.4,0,0.8-0.1,1.1-0.2"></path>
			<path id="XMLID_262_" class="st0 rAsYlEmF_21" d="M-309.7,303c0.9-0.1,1.8-0.3,2.7-0.3c0.4,0,0.9,0.1,1.3,0.2"></path>
			<path id="XMLID_261_" class="st0 rAsYlEmF_22" d="M-309.6,304c1,0,2.2,0.1,3,0.7"></path>
			<path id="XMLID_260_" class="st0 rAsYlEmF_23" d="M-314.5,301.4c-0.8-0.4-1.5-0.8-2.4-0.9"></path>
			<path id="XMLID_259_" class="st0 rAsYlEmF_24" d="M-315.6,302.2c-1.3,0-2.9,0.2-4,1"></path>
			<path id="XMLID_258_" class="st0 rAsYlEmF_25" d="M-315.6,303.7c-1.6,0.5-3.1,2.2-3.3,2.8"></path>
			<path id="XMLID_257_" class="st0 rAsYlEmF_26" d="M-309.6,301.5c2.4-2.3,7.2-4.4,8.9-4.5"></path>
		</g>
		<g id="XMLID_247_">
			<path id="XMLID_255_" class="st0 rAsYlEmF_27" d="M-289.6,312.8c-0.1-0.2-0.3-0.3-0.5-0.3c-0.4,0-0.9,0.3-1,0.6c0.1,0.4,0.6,0.6,1,0.6
				c0.1,0,0.3,0,0.4-0.1"></path>
			<path id="XMLID_254_" class="st0 rAsYlEmF_28" d="M-288.8,310.8c0.8-0.5,1.6-0.9,2.4-1.2"></path>
			<path id="XMLID_253_" class="st0 rAsYlEmF_29" d="M-287.9,312.2c1.1-0.7,3.9-1.2,4.2-1.2c0.1,0,0.2,0,0.3,0"></path>
			<path id="XMLID_252_" class="st0 rAsYlEmF_30" d="M-287.2,313c2.4,0.1,2.7,0.4,2.9,0.5"></path>
			<path id="XMLID_251_" class="st0 rAsYlEmF_31" d="M-287.3,313.9c0.5,0.2,1,0.4,1.6,0.5"></path>
			<path id="XMLID_250_" class="st0 rAsYlEmF_32" d="M-292.8,311.8c-1.1-0.4-2.1-0.6-3.3-0.7"></path>
			<path id="XMLID_249_" class="st0 rAsYlEmF_33" d="M-293.5,313.3c-1.2,0-3.5,0.3-4,1"></path>
			<path id="XMLID_248_" class="st0 rAsYlEmF_34" d="M-292.8,314.3c-0.5,0.2-2.1,0.8-2.3,1.2"></path>
		</g>
		<path id="XMLID_246_" class="st0 rAsYlEmF_35" d="M-271.8,265.7c-0.5,0.2-1.1,0.5-1.5,0.9"></path>
		<path id="XMLID_245_" class="st0 rAsYlEmF_36" d="M-263.2,265.4c-1.1-0.5-2.3-0.7-3.6-0.7c-1.2,0-2.4,0.1-3.5,0.4"></path>
		<path id="XMLID_244_" class="st0 rAsYlEmF_37" d="M-240.9,266.1c-1.2-0.5-2.4-0.8-3.7-0.8c-2.2,0-4.5,0.7-6.5,1.7"></path>
		<path id="XMLID_243_" class="st0 rAsYlEmF_38" d="M-225.9,266.5c-0.6-0.4-1.5-0.6-2.4-0.6c-1.4,0-2.9,0.4-3.8,1.1"></path>
		<path id="XMLID_242_" class="st0 rAsYlEmF_39" d="M-245,273.4c1.6-1.6,6.7-3.4,9.1-3.4c2.4,0,6.2,1,7.9,2.8"></path>
		<path id="XMLID_241_" class="st0 rAsYlEmF_40" d="M-226.9,274c0.1,0.1,0.2,0.2,0.3,0.3"></path>
		<path id="XMLID_240_" class="st0 rAsYlEmF_41" d="M-262.8,270.6c-2,0.6-3.7,1.5-5.4,3.2"></path>
		<path id="XMLID_239_" class="st0 rAsYlEmF_42" d="M-253.1,269.6c-0.4-0.1-2.4-0.2-3.2-0.3c-1.4,0-3.7,0.2-4.9,0.8"></path>
		<path id="XMLID_238_" class="st0 rAsYlEmF_43" d="M-247.3,271.7c-0.8-0.7-3.2-1.4-4-1.6"></path>
		<path id="XMLID_237_" class="st0 rAsYlEmF_44" d="M-245.7,275.1c-0.2-0.2-0.4-0.3-0.8-0.3c-0.5,0-0.9,0.1-1.1,0.6c0,0.1,0,0.2,0,0.4
			c0.1,0.1,0.2,0.4,1.1,0.4c0.3,0,1-0.1,1.2-0.4"></path>
		<path id="XMLID_236_" class="st0 rAsYlEmF_45" d="M-244.1,275.1c0.8-0.2,1.6-0.3,2.3-0.3c0.2,0,0.4,0,0.7,0"></path>
		<path id="XMLID_235_" class="st0 rAsYlEmF_46" d="M-243.8,276.1c0.1,0,0.2,0,0.2,0c0.6,0,1.5,0.1,2,0.5"></path>
		<path id="XMLID_234_" class="st0 rAsYlEmF_47" d="M-243.6,277.3c0.4,0.2,0.7,0.4,1,0.8"></path>
		<path id="XMLID_233_" class="st0 rAsYlEmF_48" d="M-248.6,278c-0.7,0.5-1.4,1.1-1.6,2"></path>
		<path id="XMLID_232_" class="st0 rAsYlEmF_49" d="M-249.1,275.9c-0.7,0.3-2.1,0.9-2.6,1.5"></path>
		<path id="XMLID_231_" class="st0 rAsYlEmF_50" d="M-249.3,274.8c-0.4-0.2-1.3-0.3-1.6-0.3c-0.1,0-0.1,0-0.2,0"></path>
		<g id="XMLID_221_">
			<path id="XMLID_230_" class="st0 rAsYlEmF_51" d="M-224.9,274.6c2-1.7,5-3.2,7.8-3.2c0.2,0,0.4,0,0.6,0"></path>
			<path id="XMLID_229_" class="st0 rAsYlEmF_52" d="M-224.2,279.5c-0.2-0.1-0.5-0.2-0.8-0.2c-0.6,0-0.9,0.3-0.9,0.7v0.1
				c0.1,0.2,0.2,0.5,0.9,0.5c0.2,0,0.5,0,0.6-0.1"></path>
			<path id="XMLID_228_" class="st0 rAsYlEmF_53" d="M-224.6,276.5c-0.2,0.3-0.3,0.6-0.4,0.9"></path>
			<path id="XMLID_227_" class="st0 rAsYlEmF_54" d="M-223.7,278.4c0.3,0,0.5-0.1,0.8-0.1c0.5,0,1.6,0.1,2.1,0.3"></path>
			<path id="XMLID_226_" class="st0 rAsYlEmF_55" d="M-222.5,279.5c0.6,0.2,1.2,0.5,1.7,0.8"></path>
			<path id="XMLID_225_" class="st0 rAsYlEmF_56" d="M-226.6,277.9c-0.6-0.7-1.5-0.9-2.3-1.1"></path>
			<path id="XMLID_224_" class="st0 rAsYlEmF_57" d="M-227.2,278.8c-0.5-0.1-1-0.2-1.6-0.2s-1.6,0.1-2.5,0.4"></path>
			<path id="XMLID_223_" class="st0 rAsYlEmF_58" d="M-227.7,280.5c-0.2,0-0.3,0-0.5,0c-4.3-0.1-11.1,2.2-13.6,5.5"></path>
			<path id="XMLID_222_" class="st0 rAsYlEmF_59" d="M-220.2,281.6c2.3,0.1,7.1,1.3,8.8,4.6"></path>
		</g>
		<path id="XMLID_220_" class="st0 rAsYlEmF_60" d="M-249.4,293.6c2.3-1.1,5.4-1.3,7.9-1.3c3.1,0.1,7.5,0.8,9.7,3"></path>
		<g id="XMLID_210_">
			<path id="XMLID_219_" class="st0 rAsYlEmF_61" d="M-249.6,313.1c0-0.2-0.2-0.2-0.4-0.2c-0.4,0-0.9,0.3-0.9,0.7c0.1,0.1,0.1,0.1,0.2,0.2
				c0.1,0,0.2,0.1,0.4,0.1c0.4,0,0.9-0.1,0.9-0.5c0-0.1,0-0.1,0-0.2"></path>
			<path id="XMLID_218_" class="st0 rAsYlEmF_62" d="M-249.2,311.3c1.7-2.2,8-3.4,11.1-3.3c0.1,0,0.3,0,0.3,0.1"></path>
			<path id="XMLID_217_" class="st0 rAsYlEmF_63" d="M-247.7,311.8c0.6-0.4,2.6-0.6,3.3-0.6c0.4,0,0.7,0,1,0.1"></path>
			<path id="XMLID_216_" class="st0 rAsYlEmF_64" d="M-247.5,312.6c0.5-0.2,1.1-0.3,1.7-0.2c0.5,0,1.1,0.1,1.6,0.3"></path>
			<path id="XMLID_215_" class="st0 rAsYlEmF_65" d="M-247.5,313.3c1.8,0.3,2.8,1,3,1.2"></path>
			<path id="XMLID_214_" class="st0 rAsYlEmF_66" d="M-251.8,312c-0.6-0.4-1.4-0.8-2.1-1"></path>
			<path id="XMLID_213_" class="st0 rAsYlEmF_67" d="M-252.4,313c-0.6-0.1-1.3-0.1-1.9-0.2c-0.1,0-0.2,0-0.3,0c0,0,0,0-0.1,0c-0.2,0-0.3,0-0.5,0
				c-0.1,0-0.2,0-0.3,0"></path>
			<path id="XMLID_212_" class="st0 rAsYlEmF_68" d="M-252.6,314.2c-1.2,0-2.8,1-3.1,1.4"></path>
			<path id="XMLID_211_" class="st0 rAsYlEmF_69" d="M-248.9,310.3c-2.1-2.8-4.8-3.1-5.3-3.3"></path>
		</g>
	</g>
	<g id="XMLID_1_">
		<g id="XMLID_204_">
			<path id="XMLID_208_" class="st0 rAsYlEmF_70" d="M-337.2,285.1c1.1-3.6,6.6-7.5,9.8-8.1"></path>
			<path id="XMLID_207_" class="st0 rAsYlEmF_71" d="M-333.4,284.9c0.9-2.3,4.2-5.8,6.2-6.5"></path>
			<path id="XMLID_206_" class="st0 rAsYlEmF_72" d="M-308.6,277.7c2.5,2.6,8.5,10.6,9.2,18.3"></path>
			<path id="XMLID_205_" class="st0 rAsYlEmF_73" d="M-304.2,279.8c1.9,2.4,3.2,5.3,4,8.2"></path>
		</g>
		<path id="XMLID_203_" class="st0 rAsYlEmF_74" d="M-327.3,286.7c-0.2-6.1,3.8-26.3,26.4-25.9c18.3,0.3,30.3,16.9,30.3,16.9"></path>
		<g id="XMLID_190_">
			<path id="XMLID_202_" class="st0 rAsYlEmF_75" d="M-284.8,283.4c-1,2-1.8,5.6-1.8,6.9c0,0.3,0,0.5,0,0.8"></path>
			<path id="XMLID_201_" class="st0 rAsYlEmF_76" d="M-295.3,281.3C-295.3,281.2-295.3,281.2-295.3,281.3c-0.2,1-0.3,2-0.3,3.1
				c-0.2,9.4,5.3,16.7,11.9,19.6"></path>
			<path id="XMLID_200_" class="st0 rAsYlEmF_77" d="M-287,291.1c3.1,2.4,5,10.6,12,12.6"></path>
			<path id="XMLID_199_" class="st0 rAsYlEmF_78" d="M-279.9,301c-1.2,0.5-3.1,2.2-3.8,4.2"></path>
			<path id="XMLID_198_" class="st0 rAsYlEmF_79" d="M-273.8,304c0.8,0.6,2.3,2,2.3,3v0.1c0,0.1,0,0.1-0.1,0.2c-0.6-0.1-2.1-1.7-2.9-2.1"></path>
			<path id="XMLID_197_" class="st0 rAsYlEmF_80" d="M-275.8,304.3c0.2,0.1,3.9,3.4,3.8,4.8v0.1c0,0,0,0-0.1,0.1c-1.5,0-3.1-3.4-4.9-4"></path>
			<path id="XMLID_196_" class="st0 rAsYlEmF_81" d="M-277.5,305.7c0.6,0.3,3.5,3.1,3.4,4.5c0,0.1,0,0.3,0,0.4l-0.1,0.1c-0.1,0-3.5-3.9-3.6-4"></path>
			<path id="XMLID_195_" class="st0 rAsYlEmF_82" d="M-282,304.5c2.4,1,5.9,5.6,6,5.7"></path>
			<path id="XMLID_194_" class="st0 rAsYlEmF_83" d="M-292.1,296.9c-0.4-0.2-2-0.5-3-0.5c-0.6,0-1.7,0.1-2.1,0.4"></path>
			<path id="XMLID_193_" class="st0 rAsYlEmF_84" d="M-292.8,298c-0.9-0.4-2.6-0.5-3.5-0.6c-0.8,0-2.2,0-2.8,0.5v0.1c0.9,1,4.3,0.3,6.6,1.3"></path>
			<path id="XMLID_192_" class="st0 rAsYlEmF_85" d="M-293.4,299.5c-0.7-0.2-1.6-0.2-2.7-0.2c-0.7,0-2.8,0.1-3.2,0.5c0,0,0,0,0,0.1
				s0.1,0.1,0.1,0.2c0.3,0.1,0.5,0.2,1.2,0.3c0.7,0,1.1-0.1,2.2-0.1s2.9,0.2,3.8,0.7"></path>
			<path id="XMLID_191_" class="st0 rAsYlEmF_86" d="M-294.4,300.7c-0.9,0-2.7,0.1-3.5,0.5l0,0c0.3,0.2,8.6,0.4,12.2,2.2"></path>
		</g>
		<g id="XMLID_2_">
			<path id="XMLID_189_" class="st0 rAsYlEmF_87" d="M-282.7,286c-0.2-0.5-0.2-1.1-0.2-1.7c0,0,0,0,0-0.1c0.1-4,6.3-4.8,8.9-4.8
				c0.9,0,2.3,0.2,3,0.7"></path>
			<path id="XMLID_188_" class="st0 rAsYlEmF_88" d="M-282.8,295.9c0-0.1-2-4-2-6.6c0-0.7,7.1-8.5,13.8-8.4c0.3,0,1,0,1.3,0.2"></path>
			<path id="XMLID_187_" class="st0 rAsYlEmF_89" d="M-269.7,279.3c0.2-0.7,1.1-1.4,2.3-1.4c0.5,0,1.4,0.1,1.9,0.4"></path>
			<path id="XMLID_186_" class="st0 rAsYlEmF_90" d="M-266.7,280.2c0.9,0.7,8,2.5,9.6,8.6"></path>
			<path id="XMLID_176_" class="st0 rAsYlEmF_91" d="M-264.2,285.5c0,0.1,3.1,10.3,6,14"></path>
			<path id="XMLID_165_" class="st0 rAsYlEmF_92" d="M-266,284.3c2.1,7.8,5.9,14.1,6.9,15.4"></path>
			<path id="XMLID_164_" class="st0 rAsYlEmF_93" d="M-265.7,288.5c0.7,2.5,3.6,11.2,6.2,12.3"></path>
			<path id="XMLID_163_" class="st0 rAsYlEmF_94" d="M-265.4,294.4c1.7,2.5,2,4.7,3.8,6"></path>
			<path id="XMLID_162_" class="st0 rAsYlEmF_95" d="M-267.1,297.7c2.1,2.2,5,3.3,5.6,3.6"></path>
			<path id="XMLID_161_" class="st0 rAsYlEmF_96" d="M-269,299.3c1.4,0.7,3.5,2.4,8.9,3.3"></path>
			<path id="XMLID_160_" class="st0 rAsYlEmF_97" d="M-271,303.3c1.9,0.6,6.8,0.8,8.9,0.8c0.3,0,0.6,0,0.9-0.1"></path>
			<path id="XMLID_159_" class="st0 rAsYlEmF_98" d="M-261,304.1c0.4,0.6,0.9,1.2,1.5,1.7"></path>
			<path id="XMLID_158_" class="st0 rAsYlEmF_99" d="M-272.3,304.4c0.8,0.2,2,0.7,4.6,0.7c0.9,0,5.3-0.1,6-0.2"></path>
			<path id="XMLID_157_" class="st0 rAsYlEmF_100" d="M-270.9,305.9c1,0,2.1,0.2,3.1,0.2c2,0,6.4-0.8,6.5-0.8"></path>
			<path id="XMLID_156_" class="st0 rAsYlEmF_101" d="M-267.9,307.4c3.3,0.1,6.4-0.8,7.4-1.3"></path>
			<path id="XMLID_155_" class="st0 rAsYlEmF_102" d="M-269.6,308.5c0.5-0.2,1-0.4,1.5-0.4c0.1,0,0.1,0,0.2,0"></path>
			<path id="XMLID_154_" class="st0 rAsYlEmF_103" d="M-258.8,303.8c0.5,0.7,1,1.4,1.7,2"></path>
			<path id="XMLID_153_" class="st0 rAsYlEmF_104" d="M-258.3,302.4c0.6,1.2,2.2,3.8,2.5,4"></path>
			<path id="XMLID_152_" class="st0 rAsYlEmF_105" d="M-257.9,302.5c0.3,0.4,2.5,3.7,3.3,4.2"></path>
			<path id="XMLID_151_" class="st0 rAsYlEmF_106" d="M-257.7,302.4c1.2,1.2,2.3,2.4,3.6,3.5"></path>
			<path id="XMLID_150_" class="st0 rAsYlEmF_107" d="M-257.5,302.1c0.6,0.7,1.3,1.2,2,1.9c1.1,1.1,2.1,2.1,3.3,3"></path>
			<path id="XMLID_149_" class="st0 rAsYlEmF_108" d="M-256.9,302.1c2.1,2.1,7.8,5.7,9,7.6"></path>
			<path id="XMLID_135_" class="st0 rAsYlEmF_109" d="M-256.8,301.2c3.1,1,5.6,3.8,7.7,6.2"></path>
			<path id="XMLID_130_" class="st0 rAsYlEmF_110" d="M-255.9,300.2c2.9,0.2,9.3,9,9.4,9.1"></path>
			<path id="XMLID_129_" class="st0 rAsYlEmF_111" d="M-253.2,300.5c0.4,0.4,5.3,3.5,6.4,6.8"></path>
			<path id="XMLID_128_" class="st0 rAsYlEmF_112" d="M-255.4,299.2c0.1-0.3,0.6-0.4,0.9-0.4c2.5,0,5.8,2.6,6.2,3.2"></path>
			<path id="XMLID_124_" class="st0 rAsYlEmF_113" d="M-255.4,298.4c0-0.6,1-0.8,1.7-0.8h0.1c3,0.1,7.1,2.4,8.2,5.2"></path>
			<path id="XMLID_103_" class="st0 rAsYlEmF_114" d="M-255.4,297.8v-0.1c0-0.9,1.5-1.2,2.5-1.2c0.8,0,2.1,0.1,2.8,0.6"></path>
			<path id="XMLID_100_" class="st0 rAsYlEmF_115" d="M-254.4,295.9c0.5-0.1,1-0.2,1.5-0.1c6.5,0.1,11.2,5.9,11.1,10.8c0,0.4,0,0.8-0.1,1.1"></path>
			<path id="XMLID_73_" class="st0 rAsYlEmF_116" d="M-263.1,278.8c3.2,0.6,6.2,3.5,7.1,5.4"></path>
			<path id="XMLID_71_" class="st0 rAsYlEmF_117" d="M-268.1,279.9c0.5-0.1,1-0.2,1.6-0.2c5.5,0.1,13,5.5,12.9,12.1c0,1-0.3,3.1-1.1,3.7"></path>
			<path id="XMLID_52_" class="st0 rAsYlEmF_118" d="M-268.6,280.8c5.1,1,10.7,6.6,11.9,11"></path>
			<path id="XMLID_47_" class="st0 rAsYlEmF_119" d="M-265.4,283.4c4.9,2.1,7.1,7.8,7.1,10.3c0,0.1,0,0.1,0,0.2"></path>
			<path id="XMLID_40_" class="st0 rAsYlEmF_120" d="M-266.3,291.1c0.2,0.6,0.2,1.3,0.2,2c0,1.5-0.3,2.2-1,3.6"></path>
			<path id="XMLID_17_" class="st0 rAsYlEmF_121" d="M-273.7,302.3c1.2,0,2.7-0.8,3.5-1.5"></path>
			<path id="XMLID_15_" class="st0 rAsYlEmF_122" d="M-275.5,300.8L-275.5,300.8c-0.1-0.5-0.2-1.1-0.2-1.5c0-1.2,1-1,2-1.4"></path>
			<path id="XMLID_14_" class="st0 rAsYlEmF_123" d="M-271.4,293.9c-0.4-1.1-0.4-2.7-0.4-2.7v-0.1c0.2-0.5,1.4-1,1.9-1"></path>
			<path id="XMLID_13_" class="st0 rAsYlEmF_124" d="M-278.6,296.4c0.1,0.3,0.3,0.5,0.6,0.5c1,0,1.7-1.3,2.8-1.3c0.2,0,0.3,0,0.5,0.1"></path>
			<path id="XMLID_8_" class="st0 rAsYlEmF_125" d="M-276.4,293.5c-0.1,0-0.1,0-0.2,0"></path>
			<path id="XMLID_7_" class="st0 rAsYlEmF_126" d="M-278,294.8c0,0.1,0,0.1-0.1,0.2"></path>
			<path id="XMLID_6_" class="st0 rAsYlEmF_127" d="M-279.7,290.5c-0.7,1,0.4,2.5-1.7,2.8"></path>
			<path id="XMLID_5_" class="st0 rAsYlEmF_128" d="M-282.2,292.4c0-0.2-0.1-0.5-0.1-0.7c0-0.1,0-0.1,0-0.1c0.1-0.8,0.6-0.9,1.8-1.5"></path>
			<path id="XMLID_4_" class="st0 rAsYlEmF_129" d="M-281,291.9c0.1-1.2,1.8-2.9,3-3.5"></path>
			<path id="XMLID_3_" class="st0 rAsYlEmF_130" d="M-281,292c-0.8,0.3-1.4,1.5-1.4,2.2c0,0.1,0,0.3,0.1,0.4"></path>
		</g>
	</g>
</g>
<style data-made-with="vivus-instant">.rAsYlEmF_0{stroke-dasharray:18 20;stroke-dashoffset:19;animation:rAsYlEmF_draw 2000ms ease 0ms forwards;}.rAsYlEmF_1{stroke-dasharray:33 35;stroke-dashoffset:34;animation:rAsYlEmF_draw 2000ms ease 15ms forwards;}.rAsYlEmF_2{stroke-dasharray:4 6;stroke-dashoffset:5;animation:rAsYlEmF_draw 2000ms ease 30ms forwards;}.rAsYlEmF_3{stroke-dasharray:4 6;stroke-dashoffset:5;animation:rAsYlEmF_draw 2000ms ease 46ms forwards;}.rAsYlEmF_4{stroke-dasharray:3 5;stroke-dashoffset:4;animation:rAsYlEmF_draw 2000ms ease 61ms forwards;}.rAsYlEmF_5{stroke-dasharray:1 3;stroke-dashoffset:2;animation:rAsYlEmF_draw 2000ms ease 76ms forwards;}.rAsYlEmF_6{stroke-dasharray:3 5;stroke-dashoffset:4;animation:rAsYlEmF_draw 2000ms ease 92ms forwards;}.rAsYlEmF_7{stroke-dasharray:4 6;stroke-dashoffset:5;animation:rAsYlEmF_draw 2000ms ease 107ms forwards;}.rAsYlEmF_8{stroke-dasharray:2 4;stroke-dashoffset:3;animation:rAsYlEmF_draw 2000ms ease 123ms forwards;}.rAsYlEmF_9{stroke-dasharray:1 3;stroke-dashoffset:2;animation:rAsYlEmF_draw 2000ms ease 138ms forwards;}.rAsYlEmF_10{stroke-dasharray:14 16;stroke-dashoffset:15;animation:rAsYlEmF_draw 2000ms ease 153ms forwards;}.rAsYlEmF_11{stroke-dasharray:10 12;stroke-dashoffset:11;animation:rAsYlEmF_draw 2000ms ease 169ms forwards;}.rAsYlEmF_12{stroke-dasharray:22 24;stroke-dashoffset:23;animation:rAsYlEmF_draw 2000ms ease 184ms forwards;}.rAsYlEmF_13{stroke-dasharray:4 6;stroke-dashoffset:5;animation:rAsYlEmF_draw 2000ms ease 200ms forwards;}.rAsYlEmF_14{stroke-dasharray:3 5;stroke-dashoffset:4;animation:rAsYlEmF_draw 2000ms ease 215ms forwards;}.rAsYlEmF_15{stroke-dasharray:4 6;stroke-dashoffset:5;animation:rAsYlEmF_draw 2000ms ease 230ms forwards;}.rAsYlEmF_16{stroke-dasharray:4 6;stroke-dashoffset:5;animation:rAsYlEmF_draw 2000ms ease 246ms forwards;}.rAsYlEmF_17{stroke-dasharray:3 5;stroke-dashoffset:4;animation:rAsYlEmF_draw 2000ms ease 261ms forwards;}.rAsYlEmF_18{stroke-dasharray:4 6;stroke-dashoffset:5;animation:rAsYlEmF_draw 2000ms ease 276ms forwards;}.rAsYlEmF_19{stroke-dasharray:44 46;stroke-dashoffset:45;animation:rAsYlEmF_draw 2000ms ease 292ms forwards;}.rAsYlEmF_20{stroke-dasharray:5 7;stroke-dashoffset:6;animation:rAsYlEmF_draw 2000ms ease 307ms forwards;}.rAsYlEmF_21{stroke-dasharray:5 7;stroke-dashoffset:6;animation:rAsYlEmF_draw 2000ms ease 323ms forwards;}.rAsYlEmF_22{stroke-dasharray:4 6;stroke-dashoffset:5;animation:rAsYlEmF_draw 2000ms ease 338ms forwards;}.rAsYlEmF_23{stroke-dasharray:3 5;stroke-dashoffset:4;animation:rAsYlEmF_draw 2000ms ease 353ms forwards;}.rAsYlEmF_24{stroke-dasharray:5 7;stroke-dashoffset:6;animation:rAsYlEmF_draw 2000ms ease 369ms forwards;}.rAsYlEmF_25{stroke-dasharray:5 7;stroke-dashoffset:6;animation:rAsYlEmF_draw 2000ms ease 384ms forwards;}.rAsYlEmF_26{stroke-dasharray:11 13;stroke-dashoffset:12;animation:rAsYlEmF_draw 2000ms ease 400ms forwards;}.rAsYlEmF_27{stroke-dasharray:4 6;stroke-dashoffset:5;animation:rAsYlEmF_draw 2000ms ease 415ms forwards;}.rAsYlEmF_28{stroke-dasharray:3 5;stroke-dashoffset:4;animation:rAsYlEmF_draw 2000ms ease 430ms forwards;}.rAsYlEmF_29{stroke-dasharray:5 7;stroke-dashoffset:6;animation:rAsYlEmF_draw 2000ms ease 446ms forwards;}.rAsYlEmF_30{stroke-dasharray:3 5;stroke-dashoffset:4;animation:rAsYlEmF_draw 2000ms ease 461ms forwards;}.rAsYlEmF_31{stroke-dasharray:2 4;stroke-dashoffset:3;animation:rAsYlEmF_draw 2000ms ease 476ms forwards;}.rAsYlEmF_32{stroke-dasharray:4 6;stroke-dashoffset:5;animation:rAsYlEmF_draw 2000ms ease 492ms forwards;}.rAsYlEmF_33{stroke-dasharray:5 7;stroke-dashoffset:6;animation:rAsYlEmF_draw 2000ms ease 507ms forwards;}.rAsYlEmF_34{stroke-dasharray:3 5;stroke-dashoffset:4;animation:rAsYlEmF_draw 2000ms ease 523ms forwards;}.rAsYlEmF_35{stroke-dasharray:2 4;stroke-dashoffset:3;animation:rAsYlEmF_draw 2000ms ease 538ms forwards;}.rAsYlEmF_36{stroke-dasharray:8 10;stroke-dashoffset:9;animation:rAsYlEmF_draw 2000ms ease 553ms forwards;}.rAsYlEmF_37{stroke-dasharray:11 13;stroke-dashoffset:12;animation:rAsYlEmF_draw 2000ms ease 569ms forwards;}.rAsYlEmF_38{stroke-dasharray:7 9;stroke-dashoffset:8;animation:rAsYlEmF_draw 2000ms ease 584ms forwards;}.rAsYlEmF_39{stroke-dasharray:19 21;stroke-dashoffset:20;animation:rAsYlEmF_draw 2000ms ease 600ms forwards;}.rAsYlEmF_40{stroke-dasharray:1 3;stroke-dashoffset:2;animation:rAsYlEmF_draw 2000ms ease 615ms forwards;}.rAsYlEmF_41{stroke-dasharray:7 9;stroke-dashoffset:8;animation:rAsYlEmF_draw 2000ms ease 630ms forwards;}.rAsYlEmF_42{stroke-dasharray:9 11;stroke-dashoffset:10;animation:rAsYlEmF_draw 2000ms ease 646ms forwards;}.rAsYlEmF_43{stroke-dasharray:5 7;stroke-dashoffset:6;animation:rAsYlEmF_draw 2000ms ease 661ms forwards;}.rAsYlEmF_44{stroke-dasharray:6 8;stroke-dashoffset:7;animation:rAsYlEmF_draw 2000ms ease 676ms forwards;}.rAsYlEmF_45{stroke-dasharray:4 6;stroke-dashoffset:5;animation:rAsYlEmF_draw 2000ms ease 692ms forwards;}.rAsYlEmF_46{stroke-dasharray:3 5;stroke-dashoffset:4;animation:rAsYlEmF_draw 2000ms ease 707ms forwards;}.rAsYlEmF_47{stroke-dasharray:2 4;stroke-dashoffset:3;animation:rAsYlEmF_draw 2000ms ease 723ms forwards;}.rAsYlEmF_48{stroke-dasharray:3 5;stroke-dashoffset:4;animation:rAsYlEmF_draw 2000ms ease 738ms forwards;}.rAsYlEmF_49{stroke-dasharray:4 6;stroke-dashoffset:5;animation:rAsYlEmF_draw 2000ms ease 753ms forwards;}.rAsYlEmF_50{stroke-dasharray:2 4;stroke-dashoffset:3;animation:rAsYlEmF_draw 2000ms ease 769ms forwards;}.rAsYlEmF_51{stroke-dasharray:10 12;stroke-dashoffset:11;animation:rAsYlEmF_draw 2000ms ease 784ms forwards;}.rAsYlEmF_52{stroke-dasharray:4 6;stroke-dashoffset:5;animation:rAsYlEmF_draw 2000ms ease 800ms forwards;}.rAsYlEmF_53{stroke-dasharray:1 3;stroke-dashoffset:2;animation:rAsYlEmF_draw 2000ms ease 815ms forwards;}.rAsYlEmF_54{stroke-dasharray:3 5;stroke-dashoffset:4;animation:rAsYlEmF_draw 2000ms ease 830ms forwards;}.rAsYlEmF_55{stroke-dasharray:2 4;stroke-dashoffset:3;animation:rAsYlEmF_draw 2000ms ease 846ms forwards;}.rAsYlEmF_56{stroke-dasharray:3 5;stroke-dashoffset:4;animation:rAsYlEmF_draw 2000ms ease 861ms forwards;}.rAsYlEmF_57{stroke-dasharray:5 7;stroke-dashoffset:6;animation:rAsYlEmF_draw 2000ms ease 876ms forwards;}.rAsYlEmF_58{stroke-dasharray:16 18;stroke-dashoffset:17;animation:rAsYlEmF_draw 2000ms ease 892ms forwards;}.rAsYlEmF_59{stroke-dasharray:11 13;stroke-dashoffset:12;animation:rAsYlEmF_draw 2000ms ease 907ms forwards;}.rAsYlEmF_60{stroke-dasharray:19 21;stroke-dashoffset:20;animation:rAsYlEmF_draw 2000ms ease 923ms forwards;}.rAsYlEmF_61{stroke-dasharray:4 6;stroke-dashoffset:5;animation:rAsYlEmF_draw 2000ms ease 938ms forwards;}.rAsYlEmF_62{stroke-dasharray:13 15;stroke-dashoffset:14;animation:rAsYlEmF_draw 2000ms ease 953ms forwards;}.rAsYlEmF_63{stroke-dasharray:5 7;stroke-dashoffset:6;animation:rAsYlEmF_draw 2000ms ease 969ms forwards;}.rAsYlEmF_64{stroke-dasharray:4 6;stroke-dashoffset:5;animation:rAsYlEmF_draw 2000ms ease 984ms forwards;}.rAsYlEmF_65{stroke-dasharray:4 6;stroke-dashoffset:5;animation:rAsYlEmF_draw 2000ms ease 1000ms forwards;}.rAsYlEmF_66{stroke-dasharray:3 5;stroke-dashoffset:4;animation:rAsYlEmF_draw 2000ms ease 1015ms forwards;}.rAsYlEmF_67{stroke-dasharray:4 6;stroke-dashoffset:5;animation:rAsYlEmF_draw 2000ms ease 1030ms forwards;}.rAsYlEmF_68{stroke-dasharray:4 6;stroke-dashoffset:5;animation:rAsYlEmF_draw 2000ms ease 1046ms forwards;}.rAsYlEmF_69{stroke-dasharray:7 9;stroke-dashoffset:8;animation:rAsYlEmF_draw 2000ms ease 1061ms forwards;}.rAsYlEmF_70{stroke-dasharray:14 16;stroke-dashoffset:15;animation:rAsYlEmF_draw 2000ms ease 1076ms forwards;}.rAsYlEmF_71{stroke-dasharray:10 12;stroke-dashoffset:11;animation:rAsYlEmF_draw 2000ms ease 1092ms forwards;}.rAsYlEmF_72{stroke-dasharray:21 23;stroke-dashoffset:22;animation:rAsYlEmF_draw 2000ms ease 1107ms forwards;}.rAsYlEmF_73{stroke-dasharray:10 12;stroke-dashoffset:11;animation:rAsYlEmF_draw 2000ms ease 1123ms forwards;}.rAsYlEmF_74{stroke-dasharray:78 80;stroke-dashoffset:79;animation:rAsYlEmF_draw 2000ms ease 1138ms forwards;}.rAsYlEmF_75{stroke-dasharray:8 10;stroke-dashoffset:9;animation:rAsYlEmF_draw 2000ms ease 1153ms forwards;}.rAsYlEmF_76{stroke-dasharray:28 30;stroke-dashoffset:29;animation:rAsYlEmF_draw 2000ms ease 1169ms forwards;}.rAsYlEmF_77{stroke-dasharray:18 20;stroke-dashoffset:19;animation:rAsYlEmF_draw 2000ms ease 1184ms forwards;}.rAsYlEmF_78{stroke-dasharray:6 8;stroke-dashoffset:7;animation:rAsYlEmF_draw 2000ms ease 1200ms forwards;}.rAsYlEmF_79{stroke-dasharray:8 10;stroke-dashoffset:9;animation:rAsYlEmF_draw 2000ms ease 1215ms forwards;}.rAsYlEmF_80{stroke-dasharray:13 15;stroke-dashoffset:14;animation:rAsYlEmF_draw 2000ms ease 1230ms forwards;}.rAsYlEmF_81{stroke-dasharray:12 14;stroke-dashoffset:13;animation:rAsYlEmF_draw 2000ms ease 1246ms forwards;}.rAsYlEmF_82{stroke-dasharray:9 11;stroke-dashoffset:10;animation:rAsYlEmF_draw 2000ms ease 1261ms forwards;}.rAsYlEmF_83{stroke-dasharray:6 8;stroke-dashoffset:7;animation:rAsYlEmF_draw 2000ms ease 1276ms forwards;}.rAsYlEmF_84{stroke-dasharray:14 16;stroke-dashoffset:15;animation:rAsYlEmF_draw 2000ms ease 1292ms forwards;}.rAsYlEmF_85{stroke-dasharray:14 16;stroke-dashoffset:15;animation:rAsYlEmF_draw 2000ms ease 1307ms forwards;}.rAsYlEmF_86{stroke-dasharray:17 19;stroke-dashoffset:18;animation:rAsYlEmF_draw 2000ms ease 1323ms forwards;}.rAsYlEmF_87{stroke-dasharray:17 19;stroke-dashoffset:18;animation:rAsYlEmF_draw 2000ms ease 1338ms forwards;}.rAsYlEmF_88{stroke-dasharray:25 27;stroke-dashoffset:26;animation:rAsYlEmF_draw 2000ms ease 1353ms forwards;}.rAsYlEmF_89{stroke-dasharray:5 7;stroke-dashoffset:6;animation:rAsYlEmF_draw 2000ms ease 1369ms forwards;}.rAsYlEmF_90{stroke-dasharray:14 16;stroke-dashoffset:15;animation:rAsYlEmF_draw 2000ms ease 1384ms forwards;}.rAsYlEmF_91{stroke-dasharray:16 18;stroke-dashoffset:17;animation:rAsYlEmF_draw 2000ms ease 1400ms forwards;}.rAsYlEmF_92{stroke-dasharray:17 19;stroke-dashoffset:18;animation:rAsYlEmF_draw 2000ms ease 1415ms forwards;}.rAsYlEmF_93{stroke-dasharray:15 17;stroke-dashoffset:16;animation:rAsYlEmF_draw 2000ms ease 1430ms forwards;}.rAsYlEmF_94{stroke-dasharray:8 10;stroke-dashoffset:9;animation:rAsYlEmF_draw 2000ms ease 1446ms forwards;}.rAsYlEmF_95{stroke-dasharray:7 9;stroke-dashoffset:8;animation:rAsYlEmF_draw 2000ms ease 1461ms forwards;}.rAsYlEmF_96{stroke-dasharray:10 12;stroke-dashoffset:11;animation:rAsYlEmF_draw 2000ms ease 1476ms forwards;}.rAsYlEmF_97{stroke-dasharray:10 12;stroke-dashoffset:11;animation:rAsYlEmF_draw 2000ms ease 1492ms forwards;}.rAsYlEmF_98{stroke-dasharray:3 5;stroke-dashoffset:4;animation:rAsYlEmF_draw 2000ms ease 1507ms forwards;}.rAsYlEmF_99{stroke-dasharray:11 13;stroke-dashoffset:12;animation:rAsYlEmF_draw 2000ms ease 1523ms forwards;}.rAsYlEmF_100{stroke-dasharray:10 12;stroke-dashoffset:11;animation:rAsYlEmF_draw 2000ms ease 1538ms forwards;}.rAsYlEmF_101{stroke-dasharray:8 10;stroke-dashoffset:9;animation:rAsYlEmF_draw 2000ms ease 1553ms forwards;}.rAsYlEmF_102{stroke-dasharray:2 4;stroke-dashoffset:3;animation:rAsYlEmF_draw 2000ms ease 1569ms forwards;}.rAsYlEmF_103{stroke-dasharray:3 5;stroke-dashoffset:4;animation:rAsYlEmF_draw 2000ms ease 1584ms forwards;}.rAsYlEmF_104{stroke-dasharray:5 7;stroke-dashoffset:6;animation:rAsYlEmF_draw 2000ms ease 1600ms forwards;}.rAsYlEmF_105{stroke-dasharray:6 8;stroke-dashoffset:7;animation:rAsYlEmF_draw 2000ms ease 1615ms forwards;}.rAsYlEmF_106{stroke-dasharray:6 8;stroke-dashoffset:7;animation:rAsYlEmF_draw 2000ms ease 1630ms forwards;}.rAsYlEmF_107{stroke-dasharray:8 10;stroke-dashoffset:9;animation:rAsYlEmF_draw 2000ms ease 1646ms forwards;}.rAsYlEmF_108{stroke-dasharray:12 14;stroke-dashoffset:13;animation:rAsYlEmF_draw 2000ms ease 1661ms forwards;}.rAsYlEmF_109{stroke-dasharray:11 13;stroke-dashoffset:12;animation:rAsYlEmF_draw 2000ms ease 1676ms forwards;}.rAsYlEmF_110{stroke-dasharray:14 16;stroke-dashoffset:15;animation:rAsYlEmF_draw 2000ms ease 1692ms forwards;}.rAsYlEmF_111{stroke-dasharray:10 12;stroke-dashoffset:11;animation:rAsYlEmF_draw 2000ms ease 1707ms forwards;}.rAsYlEmF_112{stroke-dasharray:9 11;stroke-dashoffset:10;animation:rAsYlEmF_draw 2000ms ease 1723ms forwards;}.rAsYlEmF_113{stroke-dasharray:13 15;stroke-dashoffset:14;animation:rAsYlEmF_draw 2000ms ease 1738ms forwards;}.rAsYlEmF_114{stroke-dasharray:7 9;stroke-dashoffset:8;animation:rAsYlEmF_draw 2000ms ease 1753ms forwards;}.rAsYlEmF_115{stroke-dasharray:20 22;stroke-dashoffset:21;animation:rAsYlEmF_draw 2000ms ease 1769ms forwards;}.rAsYlEmF_116{stroke-dasharray:10 12;stroke-dashoffset:11;animation:rAsYlEmF_draw 2000ms ease 1784ms forwards;}.rAsYlEmF_117{stroke-dasharray:25 27;stroke-dashoffset:26;animation:rAsYlEmF_draw 2000ms ease 1800ms forwards;}.rAsYlEmF_118{stroke-dasharray:17 19;stroke-dashoffset:18;animation:rAsYlEmF_draw 2000ms ease 1815ms forwards;}.rAsYlEmF_119{stroke-dasharray:14 16;stroke-dashoffset:15;animation:rAsYlEmF_draw 2000ms ease 1830ms forwards;}.rAsYlEmF_120{stroke-dasharray:6 8;stroke-dashoffset:7;animation:rAsYlEmF_draw 2000ms ease 1846ms forwards;}.rAsYlEmF_121{stroke-dasharray:4 6;stroke-dashoffset:5;animation:rAsYlEmF_draw 2000ms ease 1861ms forwards;}.rAsYlEmF_122{stroke-dasharray:5 7;stroke-dashoffset:6;animation:rAsYlEmF_draw 2000ms ease 1876ms forwards;}.rAsYlEmF_123{stroke-dasharray:6 8;stroke-dashoffset:7;animation:rAsYlEmF_draw 2000ms ease 1892ms forwards;}.rAsYlEmF_124{stroke-dasharray:5 7;stroke-dashoffset:6;animation:rAsYlEmF_draw 2000ms ease 1907ms forwards;}.rAsYlEmF_125{stroke-dasharray:1 3;stroke-dashoffset:2;animation:rAsYlEmF_draw 2000ms ease 1923ms forwards;}.rAsYlEmF_126{stroke-dasharray:1 3;stroke-dashoffset:2;animation:rAsYlEmF_draw 2000ms ease 1938ms forwards;}.rAsYlEmF_127{stroke-dasharray:4 6;stroke-dashoffset:5;animation:rAsYlEmF_draw 2000ms ease 1953ms forwards;}.rAsYlEmF_128{stroke-dasharray:4 6;stroke-dashoffset:5;animation:rAsYlEmF_draw 2000ms ease 1969ms forwards;}.rAsYlEmF_129{stroke-dasharray:5 7;stroke-dashoffset:6;animation:rAsYlEmF_draw 2000ms ease 1984ms forwards;}.rAsYlEmF_130{stroke-dasharray:4 6;stroke-dashoffset:5;animation:rAsYlEmF_draw 2000ms ease 2000ms forwards;}@keyframes rAsYlEmF_draw{100%{stroke-dashoffset:0;}}@keyframes rAsYlEmF_fade{0%{stroke-opacity:1;}95.1219512195122%{stroke-opacity:1;}100%{stroke-opacity:0;}}</style></svg>
