<!--?xml version="1.0" encoding="utf-8"?-->
<!-- Generator: Adobe Illustrator 19.0.0, SVG Export Plug-In . SVG Version: 6.00 Build 0)  -->
<svg version="1.1" id="Layer_1" xmlns="http://www.w3.org/2000/svg" xmlns:xlink="http://www.w3.org/1999/xlink" x="0px" y="0px" viewBox="0 0 133.5 131.2" style="" xml:space="preserve">
<style type="text/css">
	.st0{fill:none;stroke:#C6B667;stroke-linecap:round;stroke-linejoin:round;stroke-miterlimit:10;}
</style>
<g>
	<path id="XMLID_1630_" class="st0 nWGmgLjk_0" d="M75.9,83.5c1-3.4,3.8-8.8,5.7-11.8"></path>
	<path id="XMLID_1635_" class="st0 nWGmgLjk_1" d="M82.3,70.7c0.5-0.7,1.1-1.3,1.7-1.9"></path>
	<path id="XMLID_1640_" class="st0 nWGmgLjk_2" d="M84.8,67.9c7.5-9,10.2-10.8,11.1-11.6"></path>
	<path id="XMLID_1646_" class="st0 nWGmgLjk_3" d="M96.7,55.7c0.6-0.3,1.2-0.7,1.8-1"></path>
	<path id="XMLID_1651_" class="st0 nWGmgLjk_4" d="M84.3,70.4c1.1-1.6,4.6-5.9,5-6.4"></path>
	<path id="XMLID_1656_" class="st0 nWGmgLjk_5" d="M90.1,63.3c1-1,1.9-1.9,2.9-2.9"></path>
	<path id="XMLID_1661_" class="st0 nWGmgLjk_6" d="M93.8,59.4c1.5-1.4,3.1-2.6,4.7-3.8"></path>
	<path id="XMLID_1666_" class="st0 nWGmgLjk_7" d="M82.4,73.7c0.3-0.5,0.6-1,0.9-1.5"></path>
	<path id="XMLID_1671_" class="st0 nWGmgLjk_8" d="M75.3,90.1c0.7-4.5,6.2-15.3,6.2-15.4"></path>
</g>
<g>
	<path id="XMLID_63_" class="st0 nWGmgLjk_9" d="M103.8,47c0.3-0.7,0.4-1.5,0.5-2.3"></path>
	<path id="XMLID_1940_" class="st0 nWGmgLjk_10" d="M104.5,43.5c0.6-1.5,1.9-3,3.4-3h0.1c1.2,0.1,2.1,1.2,2.2,2.3v0.1c0,1.2-0.8,2-1.5,2.8"></path>
	<path id="XMLID_1948_" class="st0 nWGmgLjk_11" d="M108.1,46.5c-0.3,0.4-0.5,0.8-0.7,1.2"></path>
	<path id="XMLID_1954_" class="st0 nWGmgLjk_12" d="M99.5,48.6c-0.8-1.8-3.4-2.7-3.4-6.2l0,0c0-1,0.6-1.7,1.6-1.7c0,0,0,0,0.1,0
		c1.4,0,3.3,1.9,3.9,3.3"></path>
	<path id="XMLID_1960_" class="st0 nWGmgLjk_13" d="M102.2,45.1c0.2,0.4,0.4,0.8,0.6,1.2"></path>
	<path id="XMLID_1966_" class="st0 nWGmgLjk_14" d="M108.8,47.9c0.3-0.2,0.7-0.4,1.1-0.5"></path>
	<path id="XMLID_1971_" class="st0 nWGmgLjk_15" d="M108.8,51.8c1.2,0.7,2.9,1.1,3.5,1.1l0,0c1.7,0,4.1-1.3,4.1-3c0-1.8-2.8-3.1-4.7-3.1
		c-0.2,0-0.4,0-0.7,0"></path>
	<path id="XMLID_1977_" class="st0 nWGmgLjk_16" d="M106.1,55.9c0,2.7,1.8,4.4,3.6,4.4c1.4,0,2.2-1.6,2.2-3.1c0-1.9-1.1-3-2.6-4.1"></path>
	<path id="XMLID_1983_" class="st0 nWGmgLjk_17" d="M100.6,54.8c-1.3,1.1-2,2.7-2,4c0,1.5,1.4,3.2,2.6,3.2c1.9,0,3.6-2.7,3.6-4.9
		c0-0.3,0-0.5-0.1-0.8"></path>
	<path id="XMLID_1989_" class="st0 nWGmgLjk_18" d="M99,49.7c-0.6-0.5-1.3-0.8-2.1-0.8c-1.7,0-4.3,1.2-4.3,3.1l0,0c0,1.4,1.2,2.7,3.1,2.7
		c1.5,0,2.2-0.5,3.3-1.3"></path>
	<path id="XMLID_2080_" class="st0 nWGmgLjk_19" d="M106.2,41.7c-0.4,0.4-0.9,1.6-0.9,2.3"></path>
	<path id="XMLID_2086_" class="st0 nWGmgLjk_20" d="M107.1,41.2L107.1,41.2c-0.5,0.5-1.6,2.7-1.7,2.9c0,0,0,0,0.1,0"></path>
	<path id="XMLID_2092_" class="st0 nWGmgLjk_21" d="M108.1,41.3c0.2-0.1,0.3-0.3,0.4-0.5c-0.6,1.1-1.4,2.1-2.1,3.1"></path>
	<path id="XMLID_2098_" class="st0 nWGmgLjk_22" d="M109,41.3C109,41.3,109.1,41.3,109,41.3c0.1-0.1,0.1-0.1,0.2,0c-0.6,1.3-1.6,2.3-2.4,3.5
		c0,0,0,0,0-0.1c0,0,0,0.1-0.1,0.1c0.1-0.1,0.1-0.2,0.2-0.2"></path>
	<path id="XMLID_2103_" class="st0 nWGmgLjk_23" d="M109.3,42.2L109.3,42.2c0.1,0,0.1,0,0.2,0v0.1c-0.2,0.9-2.1,2.7-2.2,2.8l0,0"></path>
	<path id="XMLID_2109_" class="st0 nWGmgLjk_24" d="M109.6,43c-0.1,1.1-2.2,2.9-2.2,3c0,0,0,0-0.1,0"></path>
	<path id="XMLID_2115_" class="st0 nWGmgLjk_25" d="M105.7,44.4c0,0.4-0.4,0.8-0.4,1.2"></path>
	<path id="XMLID_2121_" class="st0 nWGmgLjk_26" d="M106.4,45.2c-0.2,0.2-0.3,0.6-0.4,0.9"></path>
	<path id="XMLID_2127_" class="st0 nWGmgLjk_27" d="M107.3,45.4L107.3,45.4L107.3,45.4c-0.1,0.3-0.3,0.7-0.5,1"></path>
	<path id="XMLID_2133_" class="st0 nWGmgLjk_28" d="M108.6,59.4c-1.4-1.5-1.4-2-1.7-2.7"></path>
	<path id="XMLID_2139_" class="st0 nWGmgLjk_29" d="M109.4,59.6c-0.8-0.8-1.7-3.1-1.8-3.2"></path>
	<path id="XMLID_2373_" class="st0 nWGmgLjk_30" d="M110.1,59.5c-0.6-1.3-1.3-1.9-1.4-2.5"></path>
	<path id="XMLID_2379_" class="st0 nWGmgLjk_31" d="M110.4,58.9L110.4,58.9c-0.1-1-1.3-3.1-1.5-3.3"></path>
	<path id="XMLID_2384_" class="st0 nWGmgLjk_32" d="M109.3,54.8C109.3,54.7,109.3,54.7,109.3,54.8c2,3.3,1.2,1.9,1.7,4.7"></path>
	<path id="XMLID_2390_" class="st0 nWGmgLjk_33" d="M109.4,54L109.4,54c1.7,1.8,2,3.5,2,3.6"></path>
	<path id="XMLID_2396_" class="st0 nWGmgLjk_34" d="M99,59.1L99,59.1L99,59.1c0-1.2,0.9-3,1.3-3.3"></path>
	<path id="XMLID_2402_" class="st0 nWGmgLjk_35" d="M99.5,60.6L99.5,60.6c0-0.2-0.1-0.4-0.1-0.5c0-1.1,0.4-2.3,1.1-3.1"></path>
	<path id="XMLID_2407_" class="st0 nWGmgLjk_36" d="M100,60.5L100,60.5c0.2-1,0.5-1.9,0.7-2.8"></path>
	<path id="XMLID_2413_" class="st0 nWGmgLjk_37" d="M100.7,61C100.7,61.1,100.7,61.1,100.7,61c0.1-1,0.4-2,0.6-3"></path>
	<path id="XMLID_2419_" class="st0 nWGmgLjk_38" d="M101,61.5L101,61.5C101,61.5,101,61.6,101,61.5c0.5-0.2,1.2-2.5,1.2-3.3"></path>
	<path id="XMLID_2425_" class="st0 nWGmgLjk_39" d="M102.1,60.8L102.1,60.8c0,0.1-0.1,0.3-0.1,0.4c0.6-1.1,0.9-2.3,0.9-3.5"></path>
	<path id="XMLID_2431_" class="st0 nWGmgLjk_40" d="M102.7,60.7L102.7,60.7L102.7,60.7c0.7-1.2,1.3-2.6,1.5-4"></path>
	<path id="XMLID_2437_" class="st0 nWGmgLjk_41" d="M101.9,57.3c0-0.3,0.2-0.5,0.3-0.8"></path>
	<path id="XMLID_2449_" class="st0 nWGmgLjk_42" d="M93.6,53.3c-0.1,0-0.2-0.1-0.3-0.1c0.5,0.9,2.4,1.1,3.4,1.1c0.3,0,0.6-0.1,0.9-0.3"></path>
	<path id="XMLID_2455_" class="st0 nWGmgLjk_43" d="M93.1,52.6L93.1,52.6C93.1,52.5,93.1,52.5,93.1,52.6c0-1.5,2.8-2.8,4.3-2.8
		c0.2,0,0.4,0,0.6,0.1"></path>
	<path id="XMLID_2460_" class="st0 nWGmgLjk_44" d="M93,52.3L93,52.3L93,52.3c1.4-1.1,3.4-1.6,4.4-1.6c0.2,0,0.3,0,0.5,0.1"></path>
	<path id="XMLID_2466_" class="st0 nWGmgLjk_45" d="M93.7,52.4C93.6,52.4,93.6,52.4,93.7,52.4c0.6-0.4,3.3-1,3.4-1"></path>
	<path id="XMLID_2472_" class="st0 nWGmgLjk_46" d="M93.8,52.8L93.8,52.8C93.8,52.9,93.8,52.9,93.8,52.8c0.2,0.1,0.4,0.1,0.6,0.1
		c1,0,2-0.4,2.9-0.7"></path>
	<path id="XMLID_2478_" class="st0 nWGmgLjk_47" d="M94.4,53.5L94.4,53.5C94.4,53.6,94.4,53.6,94.4,53.5c0.3,0.2,0.5,0.2,0.8,0.2
		c0.9,0,1.8-0.4,2.6-0.6"></path>
	<path id="XMLID_2484_" class="st0 nWGmgLjk_48" d="M96.5,53.5C96.5,53.5,96.4,53.5,96.5,53.5"></path>
	<path id="XMLID_2490_" class="st0 nWGmgLjk_49" d="M98.3,52.1L98.3,52.1C98.3,52.2,98.3,52.2,98.3,52.1"></path>
	<path id="XMLID_2496_" class="st0 nWGmgLjk_50" d="M96.5,42.4L96.5,42.4L96.5,42.4c0.5,1.2,1.5,3.8,2.8,4.5"></path>
	<path id="XMLID_2502_" class="st0 nWGmgLjk_51" d="M96.9,41.6L96.9,41.6c0.6,1.8,1.8,3.7,2.4,4.4"></path>
	<path id="XMLID_2508_" class="st0 nWGmgLjk_52" d="M97.2,41.7L97.2,41.7c1,0.6,2.1,3.5,2.8,4.1c0,0,0,0,0,0.1"></path>
	<path id="XMLID_2513_" class="st0 nWGmgLjk_53" d="M97.5,41.8c1.3,0,3.1,3.5,3.2,3.8"></path>
	<path id="XMLID_2519_" class="st0 nWGmgLjk_54" d="M97.7,41.6C97.7,41.6,97.8,41.6,97.7,41.6c1.7,0.4,3,1.8,3.5,3.4"></path>
	<path id="XMLID_2525_" class="st0 nWGmgLjk_55" d="M116,49.8c-1.4-1.6-3.5-2.2-4.2-2.2c-0.1,0-0.2,0-0.4,0"></path>
	<path id="XMLID_2531_" class="st0 nWGmgLjk_56" d="M115.7,49.6c-0.9-0.8-4.2-1-5.3-1"></path>
	<path id="XMLID_2537_" class="st0 nWGmgLjk_57" d="M115.5,50c-0.8-0.4-4,0-4.7-0.7"></path>
	<path id="XMLID_2543_" class="st0 nWGmgLjk_58" d="M115.7,50.5C115.7,50.4,115.6,50.4,115.7,50.5c-0.6,0-1.1,0.1-1.7,0.1
		c-0.9,0-2.6-0.2-3.2-0.7"></path>
	<path id="XMLID_2549_" class="st0 nWGmgLjk_59" d="M115.5,50.5C115.5,50.6,115.5,50.6,115.5,50.5c-0.6,0.4-2.7,0.6-3.4,0.6
		c-0.7,0-1.4-0.1-2.1-0.5"></path>
	<path id="XMLID_2555_" class="st0 nWGmgLjk_60" d="M115.2,51.2C115.2,51.2,115.3,51.2,115.2,51.2c-0.3,0.5-1.6,0.8-2.4,0.8
		c-1.2,0-2.5-0.7-2.8-0.7"></path>
	<path id="XMLID_1995_" class="st0 nWGmgLjk_61" d="M105.1,48.4c-0.4,0.6-0.6,1.3-0.6,2"></path>
	<path id="XMLID_2013_" class="st0 nWGmgLjk_62" d="M106.6,49.7c-0.6,0.3-1,0.6-1.5,1.1"></path>
	<path id="XMLID_2019_" class="st0 nWGmgLjk_63" d="M106.7,52.4c-0.3-0.4-0.8-0.4-1.2-0.7"></path>
	<path id="XMLID_2037_" class="st0 nWGmgLjk_64" d="M104.7,53.2c-0.1-0.1-0.1-0.2-0.1-0.3s0-0.2,0-0.3l0,0c0-0.2,0-0.4,0-0.6c0-0.1,0-0.1,0,0"></path>
	<path id="XMLID_2043_" class="st0 nWGmgLjk_65" d="M102.3,53.1c0.1-0.4,0.4-0.8,0.7-1.1c-0.1,0-0.1,0.1-0.1,0.1"></path>
	<path id="XMLID_2055_" class="st0 nWGmgLjk_66" d="M103.7,51c-0.6-0.5-1.4-0.7-2.1-0.7l0,0l0,0"></path>
	<path id="XMLID_2061_" class="st0 nWGmgLjk_67" d="M104,50.1c-0.3-0.8-1-1.2-1.7-1.8l0,0"></path>
	<path id="XMLID_2001_" class="st0 nWGmgLjk_68" d="M105.7,47.2C105.7,47.1,105.7,47.1,105.7,47.2C105.7,47.1,105.7,47.1,105.7,47.2
		c-0.4-0.1-0.6,0.1-0.6,0.4c0,0.1,0,0.1,0,0.2c0.1,0.1,0.2,0.1,0.4,0.1c0.1,0,0.2,0,0.4-0.1v-0.1c0-0.1,0-0.2-0.1-0.4"></path>
	<path id="XMLID_2007_" class="st0 nWGmgLjk_69" d="M107.8,48.9L107.8,48.9C107.8,48.8,107.8,48.8,107.8,48.9c-0.1-0.1-0.1-0.1-0.2-0.1
		c-0.3,0-0.6,0.4-0.6,0.7c0,0.1,0,0.1,0,0.2c0.1,0,0.2,0.1,0.4,0.1c0.2,0,0.3,0,0.5-0.1c0.1-0.1,0.1-0.3,0.1-0.4
		c0-0.1,0-0.2-0.1-0.4"></path>
	<path id="XMLID_2025_" class="st0 nWGmgLjk_70" d="M107.5,52.5C107.5,52.5,107.5,52.4,107.5,52.5c-0.2-0.1-0.3-0.2-0.4-0.2
		c-0.3,0.2-0.4,0.4-0.4,0.7c0,0.1,0,0.1,0,0.2c0.1,0.1,0.2,0.1,0.3,0.1c0.1,0,0.3-0.1,0.4-0.1c0.1-0.1,0.1-0.3,0.1-0.4
		c0-0.2,0-0.3-0.1-0.6"></path>
	<path id="XMLID_2030_" class="st0 nWGmgLjk_71" d="M104.6,53.8C104.6,53.8,104.6,53.7,104.6,53.8c0-0.1,0-0.2,0-0.2h-0.1
		c-0.1,0.2-0.2,0.4-0.2,0.6c0,0.2,0.1,0.4,0.4,0.5c0.4-0.1,0.6-0.2,0.7-0.6"></path>
	<path id="XMLID_2049_" class="st0 nWGmgLjk_72" d="M102.2,53.3c-0.1-0.1-0.1-0.1-0.2-0.2h-0.1c-0.1,0.1-0.2,0.3-0.2,0.5c0,0.3,0.2,0.4,0.3,0.5
		c0.1,0,0.2,0,0.3-0.1c0.1-0.2,0.3-0.2,0.3-0.5c0-0.2-0.1-0.3-0.1-0.5"></path>
	<path id="XMLID_2067_" class="st0 nWGmgLjk_73" d="M101.9,47.7c-0.1-0.1-0.2-0.1-0.3-0.2c-0.1,0-0.2,0.1-0.2,0.1c-0.1,0.1-0.2,0.3-0.2,0.4
		c0,0.1,0,0.2,0.1,0.4c0.1,0,0.2,0.1,0.3,0.1c0.1,0,0.1,0,0.2,0c0.1-0.1,0.2-0.2,0.3-0.3"></path>
	<path id="XMLID_2074_" class="st0 nWGmgLjk_74" d="M100.4,50.6C100.4,50.6,100.4,50.5,100.4,50.6c-0.1-0.1-0.2-0.2-0.3-0.2
		c-0.1,0.1-0.3,0.3-0.3,0.5l0,0c0,0.3,0.3,0.4,0.5,0.4h0.1c0.1-0.1,0.1-0.3,0.1-0.4"></path>
</g>
<g>
	<path id="XMLID_20_" class="st0 nWGmgLjk_75" d="M52.3,106.2c0-0.4,0-0.7,0-1c0-2.5-0.7-9-0.8-9.8"></path>
	<path id="XMLID_1904_" class="st0 nWGmgLjk_76" d="M50.7,103.6c0-0.6,0-1.2,0-1.8c0-1.5-0.1-3-0.3-4.4"></path>
	<path id="XMLID_1889_" class="st0 nWGmgLjk_77" d="M51.2,94c-0.1-0.7-0.3-1.3-0.5-2"></path>
	<path id="XMLID_1877_" class="st0 nWGmgLjk_78" d="M50.3,96.3c-0.6-2.8,0-4.5-1.7-8.6"></path>
	<path id="XMLID_1895_" class="st0 nWGmgLjk_79" d="M50.6,90.3c-0.3-1.2-0.6-2.4-1.1-3.6"></path>
	<path id="XMLID_1598_" class="st0 nWGmgLjk_80" d="M39,64.6c-0.3-1-0.9-1.9-1.5-2.7"></path>
	<path id="XMLID_1604_" class="st0 nWGmgLjk_81" d="M40.4,64.4c-0.9-1.9-2.3-3.6-3.7-5.2"></path>
	<path id="XMLID_1589_" class="st0 nWGmgLjk_82" d="M36.6,61c-0.3-0.5-0.7-0.9-1.1-1.3"></path>
</g>
<g>
	<path id="XMLID_2801_" class="st0 nWGmgLjk_83" d="M28.3,53.6c-0.2,0-0.4,0-0.6,0c-2.4,0-5.1-2.4-5.1-4.9c0-0.5,0.1-0.6,0.3-1.1
		c0.2-0.1,0.3-0.2,0.5-0.2l0,0c2,0,4.9,2.9,6.3,4.3"></path>
	<path id="XMLID_2806_" class="st0 nWGmgLjk_84" d="M30.4,51.4c0.1,0.1,0.1,0.2,0.2,0.3c-0.5-0.8-2-5.4-2-6.8l0,0c0-1.4,0.3-1.6,0.6-1.9
		c0.4-0.1,0.6-0.2,0.9-0.2c2.1,0,4.2,1.8,4.2,5.6c0,1-0.1,2-0.1,3"></path>
	<path id="XMLID_2811_" class="st0 nWGmgLjk_85" d="M34.9,51.1L34.9,51.1c-0.1-0.3-0.2-0.6-0.2-1c0-2.5,1.1-6,3.4-6.5c1.8,1.1,1.4,2.8,1.6,3.3"></path>
	<path id="XMLID_2816_" class="st0 nWGmgLjk_86" d="M39.6,49.7C39.7,49.7,39.7,49.6,39.6,49.7c-0.3,1.8-1.5,2.4-1.8,2.7"></path>
	<path id="XMLID_2821_" class="st0 nWGmgLjk_87" d="M34.3,56.5L34.3,56.5c0.2,0.8,1.8,2.2,3.8,2.2c1.9,0,4.8-1.4,4.8-3.2c0-1.7-1.7-2.6-3.3-2.6
		c-1.8,0-4.5,1.3-4.6,1.4"></path>
	<path id="XMLID_2826_" class="st0 nWGmgLjk_88" d="M33.7,56.7C33.7,56.7,33.8,56.7,33.7,56.7c1,0.8,1.7,2.3,1.7,3.9c0,2.1-1,4.2-3.1,4.2
		c-1.4,0-2.5-1.1-2.5-3.1c0-1.8,0.8-3.3,1.5-4.8"></path>
	<path id="XMLID_2831_" class="st0 nWGmgLjk_89" d="M29.1,54.1L29.1,54.1L29.1,54.1c-3.8,1-7.9,1.9-7.9,4.1c0,1.5,2.1,2.7,3.7,2.7
		c2.5,0,5.4-2.9,5.6-3.4"></path>
	<path id="XMLID_2881_" class="st0 nWGmgLjk_90" d="M29.4,44L29.4,44L29.4,44c0,0.3,0,0.5,0,0.8c0,3.3,1,4.2,1.5,5.1"></path>
	<path id="XMLID_2886_" class="st0 nWGmgLjk_91" d="M29.9,43.9L29.9,43.9c-0.1,0.1-0.1,0.2-0.1,0.3c0,0.6,0.9,4.1,1.1,4.4"></path>
	<path id="XMLID_2891_" class="st0 nWGmgLjk_92" d="M29.8,43.6L29.8,43.6c0.8,0.5,1.7,4.8,1.7,5"></path>
	<path id="XMLID_2896_" class="st0 nWGmgLjk_93" d="M30.4,43.7L30.4,43.7c0.1-0.1,0.1-0.1,0.1-0.1c1.3,1.5,2.1,4.3,2.2,5.4"></path>
	<path id="XMLID_2901_" class="st0 nWGmgLjk_94" d="M30.9,43.3L30.9,43.3c1.5,1.2,2.1,3,2.1,4.8"></path>
	<path id="XMLID_2906_" class="st0 nWGmgLjk_95" d="M32.2,44.2L32.2,44.2c1.3,0.3,1.6,3.7,1.6,5c0,0.2,0,0.3-0.1,0.5"></path>
	<path id="XMLID_2911_" class="st0 nWGmgLjk_96" d="M23.2,48.4c0-0.1,0-0.1,0-0.2C23.2,48.3,23.2,48.4,23.2,48.4c0,1.2,0.9,3.2,3.4,4.3"></path>
	<path id="XMLID_2916_" class="st0 nWGmgLjk_97" d="M23.6,48.8L23.6,48.8c0.5,1.2,2,2.7,2.7,3"></path>
	<path id="XMLID_2921_" class="st0 nWGmgLjk_98" d="M24,48.5c-0.1-0.1-0.1-0.1-0.2-0.2c0.9,0.9,1.8,1.9,2.7,2.8"></path>
	<path id="XMLID_2926_" class="st0 nWGmgLjk_99" d="M24.3,48.1C24.3,48,24.2,48,24.3,48.1c0.7,0.8,3,2.3,3.6,3.2"></path>
	<path id="XMLID_2931_" class="st0 nWGmgLjk_100" d="M25.4,48.7C25.3,48.7,25.3,48.6,25.4,48.7c1.3,0.8,2.7,1.9,3.6,3.3"></path>
	<path id="XMLID_2936_" class="st0 nWGmgLjk_101" d="M37.2,44.6L37.2,44.6L37.2,44.6c-0.9,1.1-1.5,2.7-1.5,4.2c0,0.3,0,0.7,0.1,1"></path>
	<path id="XMLID_2941_" class="st0 nWGmgLjk_102" d="M38,44.3L38,44.3c-0.4,0.5-1.7,3.5-1.7,4.9"></path>
	<path id="XMLID_2946_" class="st0 nWGmgLjk_103" d="M38.4,44.7L38.4,44.7c-0.2,0.7-0.4,1.5-0.8,2.1"></path>
	<path id="XMLID_2951_" class="st0 nWGmgLjk_104" d="M38.8,45C38.8,45,38.8,44.9,38.8,45C38.9,44.9,38.9,44.9,38.8,45c0,0.7-0.1,1.3-0.3,1.9"></path>
	<path id="XMLID_2956_" class="st0 nWGmgLjk_105" d="M37.5,47.8L37.5,47.8c-0.2,0.2-0.3,0.6-0.5,1"></path>
	<path id="XMLID_2961_" class="st0 nWGmgLjk_106" d="M38.2,48.2c-0.2,0.3-0.3,0.7-0.5,1"></path>
	<path id="XMLID_2966_" class="st0 nWGmgLjk_107" d="M38.9,48.6c0,0.8-1.1,2.4-1.6,3"></path>
	<path id="XMLID_2971_" class="st0 nWGmgLjk_108" d="M39.1,49.5L39.1,49.5c-0.2,0.6-1,2.1-1.7,2.3"></path>
	<path id="XMLID_2976_" class="st0 nWGmgLjk_109" d="M42.3,55L42.3,55c-0.6-1-1.3-1.5-2.7-1.5c-0.8,0-2.3,0.2-3.2,0.6"></path>
	<path id="XMLID_2981_" class="st0 nWGmgLjk_110" d="M41.8,55.5C41.8,55.6,41.8,55.6,41.8,55.5c0,1.3-2.3,2.4-4,2.4c0,0,0,0-0.1,0
		c-0.6,0-1.2-0.1-1.6-0.4"></path>
	<path id="XMLID_2986_" class="st0 nWGmgLjk_111" d="M42.6,55.2c-0.4-0.3-2.1-0.6-2.9-0.6c-0.6,0-2.1,0.2-2.6,0.5"></path>
	<path id="XMLID_2991_" class="st0 nWGmgLjk_112" d="M41.8,55.5C41.8,55.5,41.7,55.5,41.8,55.5c-0.6-0.1-1.1-0.4-1.6-0.4h-0.1
		c-0.3,0-0.6,0.2-0.9,0.3"></path>
	<path id="XMLID_2996_" class="st0 nWGmgLjk_113" d="M41.2,56c-0.6,0.5-3.1,1.1-4,1.1c-0.5,0-1-0.1-1.5-0.3"></path>
	<path id="XMLID_3001_" class="st0 nWGmgLjk_114" d="M41.2,55.6L41.2,55.6c-0.4-0.2-0.9-0.3-1.4-0.3c-1.1,0-1.5,0.3-2.2,0.4"></path>
	<path id="XMLID_3006_" class="st0 nWGmgLjk_115" d="M40.7,55.6L40.7,55.6c-0.7,0.4-1.1,0.3-4.1,0.6"></path>
	<path id="XMLID_3011_" class="st0 nWGmgLjk_116" d="M31.1,63.9C31.2,63.9,31.2,63.9,31.1,63.9c-0.4-0.9-0.6-1.8-0.6-2.7c0-1.3,0.3-1.7,0.4-2.2"></path>
	<path id="XMLID_3016_" class="st0 nWGmgLjk_117" d="M32.2,64.1L32.2,64.1C32.2,64.2,32.2,64.2,32.2,64.1c-0.4-0.5-0.5-1.3-0.5-2.1
		c0-0.6,0.1-1.2,0.1-1.8"></path>
	<path id="XMLID_3021_" class="st0 nWGmgLjk_118" d="M33,63.8L33,63.8L33,63.8c1.4-0.6,1.7-2.5,1.7-3.9c0-0.9-0.2-1.1-0.5-1.9"></path>
	<path id="XMLID_3026_" class="st0 nWGmgLjk_119" d="M33.2,63.7L33.2,63.7c0.5-0.4,0.7-2.3,0.7-2.9c0-0.4,0-0.8-0.2-1.2"></path>
	<path id="XMLID_3031_" class="st0 nWGmgLjk_120" d="M33,63.4c0,0.1,0,0.2,0,0.2c-0.1-1-0.2-2.1-0.2-3.1c0-0.5,0-1.1,0-1.6"></path>
	<path id="XMLID_3036_" class="st0 nWGmgLjk_121" d="M32.5,63.9L32.5,63.9C32.2,63.2,32,60.7,32,60c0-0.1,0-0.2,0-0.2"></path>
	<path id="XMLID_3041_" class="st0 nWGmgLjk_122" d="M22.3,59.3c0.6,0.4,1.1,0.8,2.1,0.8c1.2,0,3.8-1,4.5-2"></path>
	<path id="XMLID_3046_" class="st0 nWGmgLjk_123" d="M22.1,59c0.5,0.1,1,0.2,1.5,0.2c0,0,0,0,0.1,0c1.1,0,2.3-0.3,3.2-0.8"></path>
	<path id="XMLID_3051_" class="st0 nWGmgLjk_124" d="M22.2,58.7c1.2,0,2.2-0.6,3.3-0.9"></path>
	<path id="XMLID_3056_" class="st0 nWGmgLjk_125" d="M22.3,58.3L22.3,58.3c0.5-0.3,2.4-1.3,3-1.4"></path>
	<path id="XMLID_3061_" class="st0 nWGmgLjk_126" d="M21.6,58.5L21.6,58.5c0-1.4,4.7-2.9,5.9-2.9"></path>
	<path id="XMLID_3066_" class="st0 nWGmgLjk_127" d="M21.9,58.4c0.9,0,4.5-1.5,5-1.6"></path>
	<path id="XMLID_2866_" class="st0 nWGmgLjk_128" d="M32.7,53.6c0-0.5-0.2-1.9-0.4-2.1"></path>
	<path id="XMLID_2871_" class="st0 nWGmgLjk_129" d="M31.7,54.5c-0.3-0.2-0.5-0.6-0.9-0.8"></path>
	<path id="XMLID_2876_" class="st0 nWGmgLjk_130" d="M32,55.2c-0.2,0.1-0.5,0.3-0.8,0.3"></path>
	<path id="XMLID_2836_" class="st0 nWGmgLjk_131" d="M30.4,53.3L30.4,53.3L30.4,53.3c-0.1-0.1-0.1-0.1-0.1-0.2l0.1-0.1h0.1c0,0.1,0,0.1,0,0.2
		c0,0.1,0,0.2-0.2,0.4c-0.1,0-0.2,0-0.3,0l-0.1-0.1c0-0.1,0-0.1,0-0.1c0-0.1,0-0.2,0.1-0.3c0.1,0,0.2,0,0.3,0
		C30.3,53.1,30.4,53.1,30.4,53.3L30.4,53.3c0,0,0,0.1,0,0.2c-0.1,0.1-0.1,0.1-0.3,0.1"></path>
	<path id="XMLID_2841_" class="st0 nWGmgLjk_132" d="M32.3,51L32.3,51C32.2,50.9,32.3,50.9,32.3,51C32.3,50.9,32.3,51,32.3,51
		c-0.1,0.1-0.1,0.1-0.2,0.2c-0.1,0-0.1,0-0.2-0.1V51c0-0.1,0-0.2,0.1-0.3c0.1-0.1,0.2-0.1,0.3-0.1c0.1,0,0.1,0.1,0.2,0.1
		c0,0.2-0.1,0.4-0.3,0.5c-0.1,0-0.2,0-0.4,0c0,0,0-0.1-0.1-0.1V51c0.2-0.1,0.4-0.2,0.6-0.2C32.3,50.9,32.3,50.9,32.3,51"></path>
	<path id="XMLID_2846_" class="st0 nWGmgLjk_133" d="M30.7,55.9L30.7,55.9c-0.1-0.1-0.1-0.2-0.1-0.2c0.1,0,0.1,0,0.2,0
		C30.8,55.7,30.8,55.8,30.7,55.9C30.8,55.8,30.7,55.9,30.7,55.9L30.7,55.9c-0.1,0-0.2,0-0.2,0c0-0.1,0-0.1-0.1-0.2l0.1-0.1
		c0.1,0,0.1,0,0.2,0c0.1,0.1,0.1,0.1,0.2,0.2c0,0.2-0.1,0.2-0.2,0.3c-0.1,0-0.2,0-0.3,0V56l0.1-0.1"></path>
	<path id="XMLID_2851_" class="st0 nWGmgLjk_134" d="M32.9,55.9L32.9,55.9c0-0.1-0.1-0.2-0.1-0.3C32.8,55.7,32.8,55.7,32.9,55.9
		c-0.2,0-0.2,0-0.3,0c-0.1,0-0.2,0-0.3,0c0-0.1,0-0.1,0-0.2c0.1-0.1,0.2-0.2,0.3-0.2h0.1c0,0.1,0,0.1,0,0.2c0,0.3-0.2,0.3-0.5,0.3
		l0.1-0.1"></path>
	<path id="XMLID_2856_" class="st0 nWGmgLjk_135" d="M34.4,52.6L34.4,52.6C34.3,52.6,34.3,52.6,34.4,52.6L34.4,52.6c0-0.2,0-0.3,0.1-0.4
		c0,0.1,0,0.1,0,0.2c-0.1,0-0.1,0-0.2,0l-0.1-0.1c0.1-0.1,0.2-0.1,0.3-0.1c0,0.1,0,0.1-0.1,0.2c-0.1,0-0.1,0-0.2,0l-0.1-0.1
		c0,0,0,0,0.1-0.1"></path>
	<path id="XMLID_2861_" class="st0 nWGmgLjk_136" d="M33.9,54.5L33.9,54.5C33.9,54.5,33.9,54.4,33.9,54.5c0-0.2,0-0.3,0-0.4
		c0.1,0,0.1-0.1,0.2-0.1l0.1,0.1c-0.1,0-0.2,0-0.3,0L33.8,54c0-0.1,0.1-0.2,0.1-0.3c0.1,0,0.1,0,0.2-0.1c0,0,0.1,0,0.1,0.1
		s0,0.1,0,0.2c0,0.1,0,0.2-0.1,0.3c-0.1,0-0.1,0-0.2,0c0-0.1-0.1-0.1-0.1-0.2c0.1,0,0.2,0,0.3,0"></path>
</g>
<g>
	<path id="XMLID_1609_" class="st0 nWGmgLjk_137" d="M88.6,50.1c0.3-3.3,4.8-11.2,4.8-15.5c0-0.7-0.1-1.3-0.2-2"></path>
	<path id="XMLID_1615_" class="st0 nWGmgLjk_138" d="M88.2,52.4c0-0.4,0-0.8,0.1-1.2"></path>
	<path id="XMLID_1620_" class="st0 nWGmgLjk_139" d="M93.1,40.4c0.6-1.4,1.3-5.1,1.3-6.7c0-0.4,0-0.9-0.1-1.3"></path>
	<path id="XMLID_1625_" class="st0 nWGmgLjk_140" d="M89.3,54.9c0-0.2,0-0.4,0-0.6c0-4.7,2.8-10.6,3.5-12.7"></path>
</g>
<g>
	<path id="XMLID_2561_" class="st0 nWGmgLjk_141" d="M94.9,30.9C94.8,30.9,94.8,30.9,94.9,30.9c-0.1,0-0.1,0-0.2,0l0,0c0,0.7,1.2,1.9,3.1,1.9
		c2.1,0,3.7-1.4,3.7-2.1c0-0.1,0-0.1,0-0.2c-0.7-0.4-3,0-3.6-1.3"></path>
	<path id="XMLID_2566_" class="st0 nWGmgLjk_142" d="M99,24.8C99,24.9,99,24.9,99,24.8c-0.1,0.1-0.1,0.1-0.1,0.1c0.2-0.5,2.1-1.9,3.9-1.9h0.1
		c1.1,0,1.9,0.2,1.9,1.4c0,2.4-5.6,4.8-7,4.8c-0.2,0-0.4,0-0.6-0.1"></path>
	<path id="XMLID_2572_" class="st0 nWGmgLjk_143" d="M94.1,23.5C94.1,23.6,94.1,23.6,94.1,23.5c-0.1-0.1-0.2-0.3-0.2-0.6c0-0.1,0-0.3,0-0.4l0,0
		l0,0c0-2.4,1.7-3.8,3.5-3.8c1.2,0,1.9,0.6,1.9,2.2V21c0,1.2-0.8,3.3-1.7,3.8"></path>
	<path id="XMLID_2578_" class="st0 nWGmgLjk_144" d="M92.4,21.5L92.4,21.5c0-0.1,0-0.1,0-0.1c-0.5-1.1-1.5-1.9-3.5-1.9c-1.2,0-1.7,0.7-1.7,1.8
		c0,2,1.3,2.9,2.6,3.8"></path>
	<path id="XMLID_2584_" class="st0 nWGmgLjk_145" d="M89.5,25.7c-0.8-1.6-3.4-2-5.2-2c-0.9,0-0.9,0.2-1.1,0.2c-0.1,0.2-0.1,0.3-0.1,0.5
		c0,2.3,3.5,4.6,5.5,4.6c0.9,0,1.2-0.2,1.6-0.3"></path>
	<path id="XMLID_2590_" class="st0 nWGmgLjk_146" d="M90.6,29.2C90.6,29.2,90.6,29.3,90.6,29.2C89.3,29.9,88.2,30,87,30c-0.3,0-0.6,0-1-0.1
		c0,0-0.1,0-0.1,0.1c0,2,2.3,3,4.2,3c1.8,0,3.4-1,3.5-1.6"></path>
	<path id="XMLID_2649_" class="st0 nWGmgLjk_147" d="M96.8,19.3L96.8,19.3c-1.3,0.2-2.4,2.2-2.4,3.3"></path>
	<path id="XMLID_2655_" class="st0 nWGmgLjk_148" d="M97.1,19.2c-0.8,0.7-1.4,1.7-1.6,2.7"></path>
	<path id="XMLID_2661_" class="st0 nWGmgLjk_149" d="M97.8,19c0.1-0.1,0.1-0.1,0.2-0.2c-0.4,0.5-1.6,2.3-1.6,3"></path>
	<path id="XMLID_2667_" class="st0 nWGmgLjk_150" d="M98.1,19.4L98.1,19.4c-0.7,1.9-1,2.1-1.3,2.8"></path>
	<path id="XMLID_2673_" class="st0 nWGmgLjk_151" d="M98.3,19.9C98.4,19.9,98.4,19.9,98.3,19.9c0.1,0,0.1,0,0.1,0.1c-0.2,1.4-1.1,2.5-1.8,3.8"></path>
	<path id="XMLID_2678_" class="st0 nWGmgLjk_152" d="M98.9,20.4L98.9,20.4c0,0.3-0.3,2.4-1.7,4"></path>
	<path id="XMLID_2684_" class="st0 nWGmgLjk_153" d="M87.7,21L87.7,21c0,1.5,1.1,2.8,1.7,3"></path>
	<path id="XMLID_2690_" class="st0 nWGmgLjk_154" d="M88.2,20.1L88.2,20.1c-0.1,0-0.1,0.1-0.1,0.2c0,0.5,0.9,2.7,1.5,2.9"></path>
	<path id="XMLID_2696_" class="st0 nWGmgLjk_155" d="M88.6,20.3C88.6,20.2,88.6,20.2,88.6,20.3c0.3,0.7,0.6,1.4,1.2,2"></path>
	<path id="XMLID_2702_" class="st0 nWGmgLjk_156" d="M88.8,20.2L88.8,20.2C88.9,20.2,88.9,20.1,88.8,20.2c0.5,0,1.9,1.4,2,1.9"></path>
	<path id="XMLID_2708_" class="st0 nWGmgLjk_157" d="M89.5,19.9c0.2,0.2,1.9,0.7,2,1.7"></path>
	<path id="XMLID_2714_" class="st0 nWGmgLjk_158" d="M102.9,23.8C102.9,23.8,103,23.8,102.9,23.8c-1.6,0-2.2,0.6-3,0.9"></path>
	<path id="XMLID_2720_" class="st0 nWGmgLjk_159" d="M104.1,23.9L104.1,23.9c-0.9,0.1-3.3,1.1-3.8,1.4"></path>
	<path id="XMLID_2726_" class="st0 nWGmgLjk_160" d="M103.8,24.1L103.8,24.1c-0.7,0.8-2.7,1.5-3,1.7"></path>
	<path id="XMLID_2732_" class="st0 nWGmgLjk_161" d="M104.4,24.6c-0.2,0.4-3.5,2.7-4.7,2.8"></path>
	<path id="XMLID_2737_" class="st0 nWGmgLjk_162" d="M103.6,25.5L103.6,25.5c-1,1.2-3.6,2.6-5.4,2.7"></path>
	<path id="XMLID_2743_" class="st0 nWGmgLjk_163" d="M100.9,30.5L100.9,30.5c-0.1,0.8-1.8,1.4-2.9,1.4c-0.9,0-1.1-0.2-1.6-0.3"></path>
	<path id="XMLID_2749_" class="st0 nWGmgLjk_164" d="M100.8,30.7c-0.4,0.5-2.4,0.6-2.5,0.6s-0.3,0-0.4-0.1"></path>
	<path id="XMLID_2755_" class="st0 nWGmgLjk_165" d="M100.6,30.7c-0.2,0.2-0.9,0.2-1.2,0.2c-0.8,0-2.1-0.6-2.3-0.7"></path>
	<path id="XMLID_2761_" class="st0 nWGmgLjk_166" d="M86.5,30.5C86.5,30.4,86.5,30.4,86.5,30.5C86.5,30.4,86.5,30.4,86.5,30.5
		C86.5,30.4,86.4,30.4,86.5,30.5c0.4,0.2,0.9,0.3,1.4,0.3l0,0c1,0,1.9-0.3,2.8-0.6"></path>
	<path id="XMLID_2766_" class="st0 nWGmgLjk_167" d="M86.3,30.9c0.4,0.4,1.3,0.5,1.8,0.5s1.6-0.2,2-0.3"></path>
	<path id="XMLID_2771_" class="st0 nWGmgLjk_168" d="M88.2,31.8L88.2,31.8c0.4,0,0.7,0.2,1.2,0.2c0.6,0,2-0.2,2.7-0.7"></path>
	<path id="XMLID_2776_" class="st0 nWGmgLjk_169" d="M83.5,24.1L83.5,24.1c0-0.1-0.1-0.1-0.1-0.1c0,0.3,1.5,4,4.1,4"></path>
	<path id="XMLID_2781_" class="st0 nWGmgLjk_170" d="M84,24.5C84,24.5,84,24.4,84,24.5c0-0.1,0-0.1,0-0.1c0.2-0.1,0.3-0.1,0.5-0.1
		c0.6,0,3,0.5,4.4,1.2"></path>
	<path id="XMLID_2786_" class="st0 nWGmgLjk_171" d="M84.4,24.5C84.4,24.5,84.4,24.4,84.4,24.5c1.3,0.2,2.5,0.9,3.7,1.4"></path>
	<path id="XMLID_2791_" class="st0 nWGmgLjk_172" d="M84.7,24.9L84.7,24.9c0.2,0.6,2,2,2.3,2"></path>
	<path id="XMLID_2796_" class="st0 nWGmgLjk_173" d="M85.2,24.7c-0.1-0.1-0.1-0.1-0.2-0.2c1.1,1,4.1,2.2,4.2,2.2"></path>
	<path id="XMLID_2596_" class="st0 nWGmgLjk_174" d="M93.6,27.1c-1.3-2-1.3-2-1.4-2.1"></path>
	<path id="XMLID_2614_" class="st0 nWGmgLjk_175" d="M94.1,27.8c0-0.3,0-0.5,0-0.8c0-0.7,0.1-1.4,0.5-2l0,0"></path>
	<path id="XMLID_2631_" class="st0 nWGmgLjk_176" d="M95.1,27.6C95,27.6,95,27.6,95.1,27.6c0.4-0.2,1-0.8,1.2-1.3"></path>
	<path id="XMLID_2602_" class="st0 nWGmgLjk_177" d="M91.5,24.2L91.5,24.2c0.1,0,0.1,0.1,0.2,0.1v0.1c0,0.1,0,0.2-0.1,0.3c-0.1,0-0.2,0.1-0.3,0.1
		c-0.1-0.1-0.1-0.2-0.1-0.3c0-0.2,0.1-0.4,0.2-0.6c0.1,0,0.2,0,0.4,0c0.1,0.1,0.3,0.2,0.4,0.4c0,0.1,0,0.2,0,0.3
		c-0.1,0.1-0.1,0.1-0.3,0.2"></path>
	<path id="XMLID_2608_" class="st0 nWGmgLjk_178" d="M91.7,27.1L91.7,27.1c0.1,0,0.1-0.1,0.1-0.1s0,0,0.1,0s0.2,0,0.3,0.1v0.1c0,0.1,0,0.1,0,0.2
		l-0.1,0.1H92c-0.1,0-0.2,0-0.2,0c0-0.1,0-0.2-0.1-0.3c0.1-0.1,0.2-0.1,0.3-0.2"></path>
	<path id="XMLID_2620_" class="st0 nWGmgLjk_179" d="M95.2,24.1L95.2,24.1L95.2,24.1c0.1,0.1,0,0.2-0.1,0.3H95c-0.1,0-0.2,0-0.3-0.1v-0.1
		c0.1-0.2,0.1-0.3,0.3-0.4c0.1,0,0.1,0,0.1,0c0.2,0,0.2,0.1,0.4,0.2c0,0.1,0,0.1,0,0.2s0,0.2-0.1,0.3c-0.1,0-0.2,0-0.2,0
		c-0.1,0-0.2,0-0.3-0.1"></path>
	<path id="XMLID_2625_" class="st0 nWGmgLjk_180" d="M94,28.8L94,28.8L94,28.8c0.1-0.1,0.1-0.1,0.2-0.1c0,0,0.1,0,0.1,0.1s0,0.2-0.1,0.3
		c-0.1,0-0.2,0.1-0.2,0.1h-0.1c-0.1-0.1-0.1-0.2-0.1-0.4l0.1-0.1c0.1,0,0.1,0,0.2,0s0.1,0,0.2,0c0,0,0,0.1,0.1,0.1
		c0,0.1,0,0.1,0,0.2c-0.1,0-0.1,0-0.2,0.1c-0.1,0-0.2,0-0.2,0"></path>
	<path id="XMLID_2637_" class="st0 nWGmgLjk_181" d="M96.9,25.4c-0.2,0.2-0.4,0.3-0.6,0.3c-0.1-0.1-0.1-0.1-0.2-0.2c0.1-0.2,0.2-0.3,0.5-0.4
		l0.1,0.1C96.8,25.3,96.8,25.3,96.9,25.4c-0.2,0.1-0.2,0.1-0.3,0.2c-0.1,0-0.2,0-0.3,0l-0.1-0.1c0-0.1,0-0.1,0-0.2h0.1"></path>
	<path id="XMLID_2643_" class="st0 nWGmgLjk_182" d="M96.7,28.1C96.7,28.1,96.6,28.1,96.7,28.1c-0.1-0.1-0.1-0.1,0-0.2c0.1,0,0.1-0.1,0.2-0.1
		c-0.1,0.1-0.1,0.1-0.2,0.2c-0.1,0-0.1,0-0.2,0v-0.1h0.1V28l-0.1,0.1"></path>
</g>
<style data-made-with="vivus-instant">.nWGmgLjk_0{stroke-dasharray:14 16;stroke-dashoffset:15;animation:nWGmgLjk_draw 2000ms ease 0ms forwards;}.nWGmgLjk_1{stroke-dasharray:3 5;stroke-dashoffset:4;animation:nWGmgLjk_draw 2000ms ease 16ms forwards;}.nWGmgLjk_2{stroke-dasharray:17 19;stroke-dashoffset:18;animation:nWGmgLjk_draw 2000ms ease 32ms forwards;}.nWGmgLjk_3{stroke-dasharray:3 5;stroke-dashoffset:4;animation:nWGmgLjk_draw 2000ms ease 49ms forwards;}.nWGmgLjk_4{stroke-dasharray:9 11;stroke-dashoffset:10;animation:nWGmgLjk_draw 2000ms ease 65ms forwards;}.nWGmgLjk_5{stroke-dasharray:5 7;stroke-dashoffset:6;animation:nWGmgLjk_draw 2000ms ease 82ms forwards;}.nWGmgLjk_6{stroke-dasharray:7 9;stroke-dashoffset:8;animation:nWGmgLjk_draw 2000ms ease 98ms forwards;}.nWGmgLjk_7{stroke-dasharray:2 4;stroke-dashoffset:3;animation:nWGmgLjk_draw 2000ms ease 115ms forwards;}.nWGmgLjk_8{stroke-dasharray:17 19;stroke-dashoffset:18;animation:nWGmgLjk_draw 2000ms ease 131ms forwards;}.nWGmgLjk_9{stroke-dasharray:3 5;stroke-dashoffset:4;animation:nWGmgLjk_draw 2000ms ease 148ms forwards;}.nWGmgLjk_10{stroke-dasharray:12 14;stroke-dashoffset:13;animation:nWGmgLjk_draw 2000ms ease 164ms forwards;}.nWGmgLjk_11{stroke-dasharray:2 4;stroke-dashoffset:3;animation:nWGmgLjk_draw 2000ms ease 181ms forwards;}.nWGmgLjk_12{stroke-dasharray:16 18;stroke-dashoffset:17;animation:nWGmgLjk_draw 2000ms ease 197ms forwards;}.nWGmgLjk_13{stroke-dasharray:2 4;stroke-dashoffset:3;animation:nWGmgLjk_draw 2000ms ease 214ms forwards;}.nWGmgLjk_14{stroke-dasharray:2 4;stroke-dashoffset:3;animation:nWGmgLjk_draw 2000ms ease 230ms forwards;}.nWGmgLjk_15{stroke-dasharray:17 19;stroke-dashoffset:18;animation:nWGmgLjk_draw 2000ms ease 247ms forwards;}.nWGmgLjk_16{stroke-dasharray:16 18;stroke-dashoffset:17;animation:nWGmgLjk_draw 2000ms ease 263ms forwards;}.nWGmgLjk_17{stroke-dasharray:17 19;stroke-dashoffset:18;animation:nWGmgLjk_draw 2000ms ease 280ms forwards;}.nWGmgLjk_18{stroke-dasharray:17 19;stroke-dashoffset:18;animation:nWGmgLjk_draw 2000ms ease 296ms forwards;}.nWGmgLjk_19{stroke-dasharray:3 5;stroke-dashoffset:4;animation:nWGmgLjk_draw 2000ms ease 313ms forwards;}.nWGmgLjk_20{stroke-dasharray:4 6;stroke-dashoffset:5;animation:nWGmgLjk_draw 2000ms ease 329ms forwards;}.nWGmgLjk_21{stroke-dasharray:5 7;stroke-dashoffset:6;animation:nWGmgLjk_draw 2000ms ease 346ms forwards;}.nWGmgLjk_22{stroke-dasharray:6 8;stroke-dashoffset:7;animation:nWGmgLjk_draw 2000ms ease 362ms forwards;}.nWGmgLjk_23{stroke-dasharray:4 6;stroke-dashoffset:5;animation:nWGmgLjk_draw 2000ms ease 379ms forwards;}.nWGmgLjk_24{stroke-dasharray:4 6;stroke-dashoffset:5;animation:nWGmgLjk_draw 2000ms ease 395ms forwards;}.nWGmgLjk_25{stroke-dasharray:2 4;stroke-dashoffset:3;animation:nWGmgLjk_draw 2000ms ease 412ms forwards;}.nWGmgLjk_26{stroke-dasharray:1 3;stroke-dashoffset:2;animation:nWGmgLjk_draw 2000ms ease 428ms forwards;}.nWGmgLjk_27{stroke-dasharray:2 4;stroke-dashoffset:3;animation:nWGmgLjk_draw 2000ms ease 445ms forwards;}.nWGmgLjk_28{stroke-dasharray:4 6;stroke-dashoffset:5;animation:nWGmgLjk_draw 2000ms ease 461ms forwards;}.nWGmgLjk_29{stroke-dasharray:4 6;stroke-dashoffset:5;animation:nWGmgLjk_draw 2000ms ease 478ms forwards;}.nWGmgLjk_30{stroke-dasharray:3 5;stroke-dashoffset:4;animation:nWGmgLjk_draw 2000ms ease 494ms forwards;}.nWGmgLjk_31{stroke-dasharray:4 6;stroke-dashoffset:5;animation:nWGmgLjk_draw 2000ms ease 510ms forwards;}.nWGmgLjk_32{stroke-dasharray:6 8;stroke-dashoffset:7;animation:nWGmgLjk_draw 2000ms ease 527ms forwards;}.nWGmgLjk_33{stroke-dasharray:5 7;stroke-dashoffset:6;animation:nWGmgLjk_draw 2000ms ease 543ms forwards;}.nWGmgLjk_34{stroke-dasharray:4 6;stroke-dashoffset:5;animation:nWGmgLjk_draw 2000ms ease 560ms forwards;}.nWGmgLjk_35{stroke-dasharray:4 6;stroke-dashoffset:5;animation:nWGmgLjk_draw 2000ms ease 576ms forwards;}.nWGmgLjk_36{stroke-dasharray:3 5;stroke-dashoffset:4;animation:nWGmgLjk_draw 2000ms ease 593ms forwards;}.nWGmgLjk_37{stroke-dasharray:4 6;stroke-dashoffset:5;animation:nWGmgLjk_draw 2000ms ease 609ms forwards;}.nWGmgLjk_38{stroke-dasharray:4 6;stroke-dashoffset:5;animation:nWGmgLjk_draw 2000ms ease 626ms forwards;}.nWGmgLjk_39{stroke-dasharray:5 7;stroke-dashoffset:6;animation:nWGmgLjk_draw 2000ms ease 642ms forwards;}.nWGmgLjk_40{stroke-dasharray:5 7;stroke-dashoffset:6;animation:nWGmgLjk_draw 2000ms ease 659ms forwards;}.nWGmgLjk_41{stroke-dasharray:1 3;stroke-dashoffset:2;animation:nWGmgLjk_draw 2000ms ease 675ms forwards;}.nWGmgLjk_42{stroke-dasharray:5 7;stroke-dashoffset:6;animation:nWGmgLjk_draw 2000ms ease 692ms forwards;}.nWGmgLjk_43{stroke-dasharray:7 9;stroke-dashoffset:8;animation:nWGmgLjk_draw 2000ms ease 708ms forwards;}.nWGmgLjk_44{stroke-dasharray:6 8;stroke-dashoffset:7;animation:nWGmgLjk_draw 2000ms ease 725ms forwards;}.nWGmgLjk_45{stroke-dasharray:4 6;stroke-dashoffset:5;animation:nWGmgLjk_draw 2000ms ease 741ms forwards;}.nWGmgLjk_46{stroke-dasharray:4 6;stroke-dashoffset:5;animation:nWGmgLjk_draw 2000ms ease 758ms forwards;}.nWGmgLjk_47{stroke-dasharray:4 6;stroke-dashoffset:5;animation:nWGmgLjk_draw 2000ms ease 774ms forwards;}.nWGmgLjk_48{stroke-dasharray:1 3;stroke-dashoffset:2;animation:nWGmgLjk_draw 2000ms ease 791ms forwards;}.nWGmgLjk_49{stroke-dasharray:1 3;stroke-dashoffset:2;animation:nWGmgLjk_draw 2000ms ease 807ms forwards;}.nWGmgLjk_50{stroke-dasharray:6 8;stroke-dashoffset:7;animation:nWGmgLjk_draw 2000ms ease 824ms forwards;}.nWGmgLjk_51{stroke-dasharray:6 8;stroke-dashoffset:7;animation:nWGmgLjk_draw 2000ms ease 840ms forwards;}.nWGmgLjk_52{stroke-dasharray:6 8;stroke-dashoffset:7;animation:nWGmgLjk_draw 2000ms ease 857ms forwards;}.nWGmgLjk_53{stroke-dasharray:6 8;stroke-dashoffset:7;animation:nWGmgLjk_draw 2000ms ease 873ms forwards;}.nWGmgLjk_54{stroke-dasharray:6 8;stroke-dashoffset:7;animation:nWGmgLjk_draw 2000ms ease 890ms forwards;}.nWGmgLjk_55{stroke-dasharray:6 8;stroke-dashoffset:7;animation:nWGmgLjk_draw 2000ms ease 906ms forwards;}.nWGmgLjk_56{stroke-dasharray:6 8;stroke-dashoffset:7;animation:nWGmgLjk_draw 2000ms ease 923ms forwards;}.nWGmgLjk_57{stroke-dasharray:5 7;stroke-dashoffset:6;animation:nWGmgLjk_draw 2000ms ease 939ms forwards;}.nWGmgLjk_58{stroke-dasharray:6 8;stroke-dashoffset:7;animation:nWGmgLjk_draw 2000ms ease 956ms forwards;}.nWGmgLjk_59{stroke-dasharray:6 8;stroke-dashoffset:7;animation:nWGmgLjk_draw 2000ms ease 972ms forwards;}.nWGmgLjk_60{stroke-dasharray:6 8;stroke-dashoffset:7;animation:nWGmgLjk_draw 2000ms ease 989ms forwards;}.nWGmgLjk_61{stroke-dasharray:3 5;stroke-dashoffset:4;animation:nWGmgLjk_draw 2000ms ease 1005ms forwards;}.nWGmgLjk_62{stroke-dasharray:2 4;stroke-dashoffset:3;animation:nWGmgLjk_draw 2000ms ease 1021ms forwards;}.nWGmgLjk_63{stroke-dasharray:2 4;stroke-dashoffset:3;animation:nWGmgLjk_draw 2000ms ease 1038ms forwards;}.nWGmgLjk_64{stroke-dasharray:2 4;stroke-dashoffset:3;animation:nWGmgLjk_draw 2000ms ease 1054ms forwards;}.nWGmgLjk_65{stroke-dasharray:2 4;stroke-dashoffset:3;animation:nWGmgLjk_draw 2000ms ease 1071ms forwards;}.nWGmgLjk_66{stroke-dasharray:3 5;stroke-dashoffset:4;animation:nWGmgLjk_draw 2000ms ease 1087ms forwards;}.nWGmgLjk_67{stroke-dasharray:3 5;stroke-dashoffset:4;animation:nWGmgLjk_draw 2000ms ease 1104ms forwards;}.nWGmgLjk_68{stroke-dasharray:3 5;stroke-dashoffset:4;animation:nWGmgLjk_draw 2000ms ease 1120ms forwards;}.nWGmgLjk_69{stroke-dasharray:4 6;stroke-dashoffset:5;animation:nWGmgLjk_draw 2000ms ease 1137ms forwards;}.nWGmgLjk_70{stroke-dasharray:4 6;stroke-dashoffset:5;animation:nWGmgLjk_draw 2000ms ease 1153ms forwards;}.nWGmgLjk_71{stroke-dasharray:3 5;stroke-dashoffset:4;animation:nWGmgLjk_draw 2000ms ease 1170ms forwards;}.nWGmgLjk_72{stroke-dasharray:3 5;stroke-dashoffset:4;animation:nWGmgLjk_draw 2000ms ease 1186ms forwards;}.nWGmgLjk_73{stroke-dasharray:3 5;stroke-dashoffset:4;animation:nWGmgLjk_draw 2000ms ease 1203ms forwards;}.nWGmgLjk_74{stroke-dasharray:3 5;stroke-dashoffset:4;animation:nWGmgLjk_draw 2000ms ease 1219ms forwards;}.nWGmgLjk_75{stroke-dasharray:11 13;stroke-dashoffset:12;animation:nWGmgLjk_draw 2000ms ease 1236ms forwards;}.nWGmgLjk_76{stroke-dasharray:7 9;stroke-dashoffset:8;animation:nWGmgLjk_draw 2000ms ease 1252ms forwards;}.nWGmgLjk_77{stroke-dasharray:3 5;stroke-dashoffset:4;animation:nWGmgLjk_draw 2000ms ease 1269ms forwards;}.nWGmgLjk_78{stroke-dasharray:9 11;stroke-dashoffset:10;animation:nWGmgLjk_draw 2000ms ease 1285ms forwards;}.nWGmgLjk_79{stroke-dasharray:4 6;stroke-dashoffset:5;animation:nWGmgLjk_draw 2000ms ease 1302ms forwards;}.nWGmgLjk_80{stroke-dasharray:4 6;stroke-dashoffset:5;animation:nWGmgLjk_draw 2000ms ease 1318ms forwards;}.nWGmgLjk_81{stroke-dasharray:7 9;stroke-dashoffset:8;animation:nWGmgLjk_draw 2000ms ease 1335ms forwards;}.nWGmgLjk_82{stroke-dasharray:2 4;stroke-dashoffset:3;animation:nWGmgLjk_draw 2000ms ease 1351ms forwards;}.nWGmgLjk_83{stroke-dasharray:18 20;stroke-dashoffset:19;animation:nWGmgLjk_draw 2000ms ease 1368ms forwards;}.nWGmgLjk_84{stroke-dasharray:22 24;stroke-dashoffset:23;animation:nWGmgLjk_draw 2000ms ease 1384ms forwards;}.nWGmgLjk_85{stroke-dasharray:13 15;stroke-dashoffset:14;animation:nWGmgLjk_draw 2000ms ease 1401ms forwards;}.nWGmgLjk_86{stroke-dasharray:4 6;stroke-dashoffset:5;animation:nWGmgLjk_draw 2000ms ease 1417ms forwards;}.nWGmgLjk_87{stroke-dasharray:21 23;stroke-dashoffset:22;animation:nWGmgLjk_draw 2000ms ease 1434ms forwards;}.nWGmgLjk_88{stroke-dasharray:20 22;stroke-dashoffset:21;animation:nWGmgLjk_draw 2000ms ease 1450ms forwards;}.nWGmgLjk_89{stroke-dasharray:22 24;stroke-dashoffset:23;animation:nWGmgLjk_draw 2000ms ease 1467ms forwards;}.nWGmgLjk_90{stroke-dasharray:7 9;stroke-dashoffset:8;animation:nWGmgLjk_draw 2000ms ease 1483ms forwards;}.nWGmgLjk_91{stroke-dasharray:5 7;stroke-dashoffset:6;animation:nWGmgLjk_draw 2000ms ease 1499ms forwards;}.nWGmgLjk_92{stroke-dasharray:6 8;stroke-dashoffset:7;animation:nWGmgLjk_draw 2000ms ease 1516ms forwards;}.nWGmgLjk_93{stroke-dasharray:7 9;stroke-dashoffset:8;animation:nWGmgLjk_draw 2000ms ease 1532ms forwards;}.nWGmgLjk_94{stroke-dasharray:6 8;stroke-dashoffset:7;animation:nWGmgLjk_draw 2000ms ease 1549ms forwards;}.nWGmgLjk_95{stroke-dasharray:7 9;stroke-dashoffset:8;animation:nWGmgLjk_draw 2000ms ease 1565ms forwards;}.nWGmgLjk_96{stroke-dasharray:7 9;stroke-dashoffset:8;animation:nWGmgLjk_draw 2000ms ease 1582ms forwards;}.nWGmgLjk_97{stroke-dasharray:5 7;stroke-dashoffset:6;animation:nWGmgLjk_draw 2000ms ease 1598ms forwards;}.nWGmgLjk_98{stroke-dasharray:5 7;stroke-dashoffset:6;animation:nWGmgLjk_draw 2000ms ease 1615ms forwards;}.nWGmgLjk_99{stroke-dasharray:6 8;stroke-dashoffset:7;animation:nWGmgLjk_draw 2000ms ease 1631ms forwards;}.nWGmgLjk_100{stroke-dasharray:6 8;stroke-dashoffset:7;animation:nWGmgLjk_draw 2000ms ease 1648ms forwards;}.nWGmgLjk_101{stroke-dasharray:6 8;stroke-dashoffset:7;animation:nWGmgLjk_draw 2000ms ease 1664ms forwards;}.nWGmgLjk_102{stroke-dasharray:6 8;stroke-dashoffset:7;animation:nWGmgLjk_draw 2000ms ease 1681ms forwards;}.nWGmgLjk_103{stroke-dasharray:3 5;stroke-dashoffset:4;animation:nWGmgLjk_draw 2000ms ease 1697ms forwards;}.nWGmgLjk_104{stroke-dasharray:3 5;stroke-dashoffset:4;animation:nWGmgLjk_draw 2000ms ease 1714ms forwards;}.nWGmgLjk_105{stroke-dasharray:2 4;stroke-dashoffset:3;animation:nWGmgLjk_draw 2000ms ease 1730ms forwards;}.nWGmgLjk_106{stroke-dasharray:2 4;stroke-dashoffset:3;animation:nWGmgLjk_draw 2000ms ease 1747ms forwards;}.nWGmgLjk_107{stroke-dasharray:4 6;stroke-dashoffset:5;animation:nWGmgLjk_draw 2000ms ease 1763ms forwards;}.nWGmgLjk_108{stroke-dasharray:3 5;stroke-dashoffset:4;animation:nWGmgLjk_draw 2000ms ease 1780ms forwards;}.nWGmgLjk_109{stroke-dasharray:7 9;stroke-dashoffset:8;animation:nWGmgLjk_draw 2000ms ease 1796ms forwards;}.nWGmgLjk_110{stroke-dasharray:7 9;stroke-dashoffset:8;animation:nWGmgLjk_draw 2000ms ease 1813ms forwards;}.nWGmgLjk_111{stroke-dasharray:6 8;stroke-dashoffset:7;animation:nWGmgLjk_draw 2000ms ease 1829ms forwards;}.nWGmgLjk_112{stroke-dasharray:3 5;stroke-dashoffset:4;animation:nWGmgLjk_draw 2000ms ease 1846ms forwards;}.nWGmgLjk_113{stroke-dasharray:6 8;stroke-dashoffset:7;animation:nWGmgLjk_draw 2000ms ease 1862ms forwards;}.nWGmgLjk_114{stroke-dasharray:4 6;stroke-dashoffset:5;animation:nWGmgLjk_draw 2000ms ease 1879ms forwards;}.nWGmgLjk_115{stroke-dasharray:5 7;stroke-dashoffset:6;animation:nWGmgLjk_draw 2000ms ease 1895ms forwards;}.nWGmgLjk_116{stroke-dasharray:6 8;stroke-dashoffset:7;animation:nWGmgLjk_draw 2000ms ease 1912ms forwards;}.nWGmgLjk_117{stroke-dasharray:5 7;stroke-dashoffset:6;animation:nWGmgLjk_draw 2000ms ease 1928ms forwards;}.nWGmgLjk_118{stroke-dasharray:7 9;stroke-dashoffset:8;animation:nWGmgLjk_draw 2000ms ease 1945ms forwards;}.nWGmgLjk_119{stroke-dasharray:5 7;stroke-dashoffset:6;animation:nWGmgLjk_draw 2000ms ease 1961ms forwards;}.nWGmgLjk_120{stroke-dasharray:5 7;stroke-dashoffset:6;animation:nWGmgLjk_draw 2000ms ease 1978ms forwards;}.nWGmgLjk_121{stroke-dasharray:5 7;stroke-dashoffset:6;animation:nWGmgLjk_draw 2000ms ease 1994ms forwards;}.nWGmgLjk_122{stroke-dasharray:8 10;stroke-dashoffset:9;animation:nWGmgLjk_draw 2000ms ease 2010ms forwards;}.nWGmgLjk_123{stroke-dasharray:5 7;stroke-dashoffset:6;animation:nWGmgLjk_draw 2000ms ease 2027ms forwards;}.nWGmgLjk_124{stroke-dasharray:4 6;stroke-dashoffset:5;animation:nWGmgLjk_draw 2000ms ease 2043ms forwards;}.nWGmgLjk_125{stroke-dasharray:4 6;stroke-dashoffset:5;animation:nWGmgLjk_draw 2000ms ease 2060ms forwards;}.nWGmgLjk_126{stroke-dasharray:7 9;stroke-dashoffset:8;animation:nWGmgLjk_draw 2000ms ease 2076ms forwards;}.nWGmgLjk_127{stroke-dasharray:6 8;stroke-dashoffset:7;animation:nWGmgLjk_draw 2000ms ease 2093ms forwards;}.nWGmgLjk_128{stroke-dasharray:3 5;stroke-dashoffset:4;animation:nWGmgLjk_draw 2000ms ease 2109ms forwards;}.nWGmgLjk_129{stroke-dasharray:2 4;stroke-dashoffset:3;animation:nWGmgLjk_draw 2000ms ease 2126ms forwards;}.nWGmgLjk_130{stroke-dasharray:1 3;stroke-dashoffset:2;animation:nWGmgLjk_draw 2000ms ease 2142ms forwards;}.nWGmgLjk_131{stroke-dasharray:4 6;stroke-dashoffset:5;animation:nWGmgLjk_draw 2000ms ease 2159ms forwards;}.nWGmgLjk_132{stroke-dasharray:4 6;stroke-dashoffset:5;animation:nWGmgLjk_draw 2000ms ease 2175ms forwards;}.nWGmgLjk_133{stroke-dasharray:3 5;stroke-dashoffset:4;animation:nWGmgLjk_draw 2000ms ease 2192ms forwards;}.nWGmgLjk_134{stroke-dasharray:3 5;stroke-dashoffset:4;animation:nWGmgLjk_draw 2000ms ease 2208ms forwards;}.nWGmgLjk_135{stroke-dasharray:3 5;stroke-dashoffset:4;animation:nWGmgLjk_draw 2000ms ease 2225ms forwards;}.nWGmgLjk_136{stroke-dasharray:4 6;stroke-dashoffset:5;animation:nWGmgLjk_draw 2000ms ease 2241ms forwards;}.nWGmgLjk_137{stroke-dasharray:19 21;stroke-dashoffset:20;animation:nWGmgLjk_draw 2000ms ease 2258ms forwards;}.nWGmgLjk_138{stroke-dasharray:2 4;stroke-dashoffset:3;animation:nWGmgLjk_draw 2000ms ease 2274ms forwards;}.nWGmgLjk_139{stroke-dasharray:9 11;stroke-dashoffset:10;animation:nWGmgLjk_draw 2000ms ease 2291ms forwards;}.nWGmgLjk_140{stroke-dasharray:14 16;stroke-dashoffset:15;animation:nWGmgLjk_draw 2000ms ease 2307ms forwards;}.nWGmgLjk_141{stroke-dasharray:13 15;stroke-dashoffset:14;animation:nWGmgLjk_draw 2000ms ease 2324ms forwards;}.nWGmgLjk_142{stroke-dasharray:18 20;stroke-dashoffset:19;animation:nWGmgLjk_draw 2000ms ease 2340ms forwards;}.nWGmgLjk_143{stroke-dasharray:15 17;stroke-dashoffset:16;animation:nWGmgLjk_draw 2000ms ease 2357ms forwards;}.nWGmgLjk_144{stroke-dasharray:13 15;stroke-dashoffset:14;animation:nWGmgLjk_draw 2000ms ease 2373ms forwards;}.nWGmgLjk_145{stroke-dasharray:17 19;stroke-dashoffset:18;animation:nWGmgLjk_draw 2000ms ease 2390ms forwards;}.nWGmgLjk_146{stroke-dasharray:15 17;stroke-dashoffset:16;animation:nWGmgLjk_draw 2000ms ease 2406ms forwards;}.nWGmgLjk_147{stroke-dasharray:5 7;stroke-dashoffset:6;animation:nWGmgLjk_draw 2000ms ease 2423ms forwards;}.nWGmgLjk_148{stroke-dasharray:4 6;stroke-dashoffset:5;animation:nWGmgLjk_draw 2000ms ease 2439ms forwards;}.nWGmgLjk_149{stroke-dasharray:4 6;stroke-dashoffset:5;animation:nWGmgLjk_draw 2000ms ease 2456ms forwards;}.nWGmgLjk_150{stroke-dasharray:4 6;stroke-dashoffset:5;animation:nWGmgLjk_draw 2000ms ease 2472ms forwards;}.nWGmgLjk_151{stroke-dasharray:5 7;stroke-dashoffset:6;animation:nWGmgLjk_draw 2000ms ease 2489ms forwards;}.nWGmgLjk_152{stroke-dasharray:5 7;stroke-dashoffset:6;animation:nWGmgLjk_draw 2000ms ease 2505ms forwards;}.nWGmgLjk_153{stroke-dasharray:4 6;stroke-dashoffset:5;animation:nWGmgLjk_draw 2000ms ease 2521ms forwards;}.nWGmgLjk_154{stroke-dasharray:4 6;stroke-dashoffset:5;animation:nWGmgLjk_draw 2000ms ease 2538ms forwards;}.nWGmgLjk_155{stroke-dasharray:3 5;stroke-dashoffset:4;animation:nWGmgLjk_draw 2000ms ease 2554ms forwards;}.nWGmgLjk_156{stroke-dasharray:4 6;stroke-dashoffset:5;animation:nWGmgLjk_draw 2000ms ease 2571ms forwards;}.nWGmgLjk_157{stroke-dasharray:3 5;stroke-dashoffset:4;animation:nWGmgLjk_draw 2000ms ease 2587ms forwards;}.nWGmgLjk_158{stroke-dasharray:4 6;stroke-dashoffset:5;animation:nWGmgLjk_draw 2000ms ease 2604ms forwards;}.nWGmgLjk_159{stroke-dasharray:5 7;stroke-dashoffset:6;animation:nWGmgLjk_draw 2000ms ease 2620ms forwards;}.nWGmgLjk_160{stroke-dasharray:4 6;stroke-dashoffset:5;animation:nWGmgLjk_draw 2000ms ease 2637ms forwards;}.nWGmgLjk_161{stroke-dasharray:6 8;stroke-dashoffset:7;animation:nWGmgLjk_draw 2000ms ease 2653ms forwards;}.nWGmgLjk_162{stroke-dasharray:7 9;stroke-dashoffset:8;animation:nWGmgLjk_draw 2000ms ease 2670ms forwards;}.nWGmgLjk_163{stroke-dasharray:6 8;stroke-dashoffset:7;animation:nWGmgLjk_draw 2000ms ease 2686ms forwards;}.nWGmgLjk_164{stroke-dasharray:4 6;stroke-dashoffset:5;animation:nWGmgLjk_draw 2000ms ease 2703ms forwards;}.nWGmgLjk_165{stroke-dasharray:4 6;stroke-dashoffset:5;animation:nWGmgLjk_draw 2000ms ease 2719ms forwards;}.nWGmgLjk_166{stroke-dasharray:5 7;stroke-dashoffset:6;animation:nWGmgLjk_draw 2000ms ease 2736ms forwards;}.nWGmgLjk_167{stroke-dasharray:4 6;stroke-dashoffset:5;animation:nWGmgLjk_draw 2000ms ease 2752ms forwards;}.nWGmgLjk_168{stroke-dasharray:5 7;stroke-dashoffset:6;animation:nWGmgLjk_draw 2000ms ease 2769ms forwards;}.nWGmgLjk_169{stroke-dasharray:7 9;stroke-dashoffset:8;animation:nWGmgLjk_draw 2000ms ease 2785ms forwards;}.nWGmgLjk_170{stroke-dasharray:6 8;stroke-dashoffset:7;animation:nWGmgLjk_draw 2000ms ease 2802ms forwards;}.nWGmgLjk_171{stroke-dasharray:5 7;stroke-dashoffset:6;animation:nWGmgLjk_draw 2000ms ease 2818ms forwards;}.nWGmgLjk_172{stroke-dasharray:4 6;stroke-dashoffset:5;animation:nWGmgLjk_draw 2000ms ease 2835ms forwards;}.nWGmgLjk_173{stroke-dasharray:6 8;stroke-dashoffset:7;animation:nWGmgLjk_draw 2000ms ease 2851ms forwards;}.nWGmgLjk_174{stroke-dasharray:3 5;stroke-dashoffset:4;animation:nWGmgLjk_draw 2000ms ease 2868ms forwards;}.nWGmgLjk_175{stroke-dasharray:3 5;stroke-dashoffset:4;animation:nWGmgLjk_draw 2000ms ease 2884ms forwards;}.nWGmgLjk_176{stroke-dasharray:2 4;stroke-dashoffset:3;animation:nWGmgLjk_draw 2000ms ease 2901ms forwards;}.nWGmgLjk_177{stroke-dasharray:4 6;stroke-dashoffset:5;animation:nWGmgLjk_draw 2000ms ease 2917ms forwards;}.nWGmgLjk_178{stroke-dasharray:3 5;stroke-dashoffset:4;animation:nWGmgLjk_draw 2000ms ease 2934ms forwards;}.nWGmgLjk_179{stroke-dasharray:4 6;stroke-dashoffset:5;animation:nWGmgLjk_draw 2000ms ease 2950ms forwards;}.nWGmgLjk_180{stroke-dasharray:3 5;stroke-dashoffset:4;animation:nWGmgLjk_draw 2000ms ease 2967ms forwards;}.nWGmgLjk_181{stroke-dasharray:4 6;stroke-dashoffset:5;animation:nWGmgLjk_draw 2000ms ease 2983ms forwards;}.nWGmgLjk_182{stroke-dasharray:2 4;stroke-dashoffset:3;animation:nWGmgLjk_draw 2000ms ease 2999ms forwards;}@keyframes nWGmgLjk_draw{100%{stroke-dashoffset:0;}}@keyframes nWGmgLjk_fade{0%{stroke-opacity:1;}99.05660377358491%{stroke-opacity:1;}100%{stroke-opacity:0;}}</style></svg>
