<!--?xml version="1.0" encoding="utf-8"?-->
<!-- Generator: Adobe Illustrator 19.0.0, SVG Export Plug-In . SVG Version: 6.00 Build 0)  -->
<svg version="1.1" id="Layer_1" xmlns="http://www.w3.org/2000/svg" xmlns:xlink="http://www.w3.org/1999/xlink" x="0px" y="0px" viewBox="0 0 186.4 126.1" style="" xml:space="preserve">
<style type="text/css">
	.st0{fill:none;stroke:#C6B667;stroke-linecap:round;stroke-linejoin:round;stroke-miterlimit:10;}
</style>
<g id="XMLID_7_">
	<g id="XMLID_2_">
		<path id="XMLID_230_" class="st0 UKZKUnKr_0" d="M35.1,52.3c-2.3-1.6-6.7-2.6-10.6-2.7c-2.6,0-5.1,0.3-6.7,1.2"></path>
		<path id="XMLID_235_" class="st0 UKZKUnKr_1" d="M32.3,58.6c5-5.1,11.2-8.3,18.3-8.2c3.2,0.1,8.6,0.9,10.6,3.5"></path>
		<path id="XMLID_240_" class="st0 UKZKUnKr_2" d="M31.2,60.7c-0.2-0.1-0.4-0.1-0.5-0.1c-0.6,0-0.9,0.4-0.9,0.7c0,0.3,0.2,0.6,0.6,0.6
			c0.2,0,0.4,0,0.6-0.1"></path>
		<path id="XMLID_245_" class="st0 UKZKUnKr_3" d="M32.9,60.6c0.8-0.8,2.1-1.3,3.3-1.2c0,0,0.1,0,0.1,0"></path>
		<path id="XMLID_250_" class="st0 UKZKUnKr_4" d="M33.1,61.3c0.7-0.2,1.4-0.4,2.1-0.4c0.1,0,0.3,0,0.4,0"></path>
		<path id="XMLID_255_" class="st0 UKZKUnKr_5" d="M32.1,59.7c-0.1,0-0.2,0.1-0.3,0.1"></path>
		<path id="XMLID_260_" class="st0 UKZKUnKr_6" d="M28.7,60c-0.5-0.3-1.1-0.5-1.7-0.5c-0.2,0-0.4,0-0.7,0"></path>
		<path id="XMLID_265_" class="st0 UKZKUnKr_7" d="M27.8,60.9c-1,0-2.1,0.4-3,1"></path>
		<path id="XMLID_270_" class="st0 UKZKUnKr_8" d="M27.9,62.4c-0.5,0.2-1,0.6-1.3,1.1"></path>
		<path id="XMLID_275_" class="st0 UKZKUnKr_9" d="M29,63.6c-0.1,0.3-0.2,0.6-0.3,0.9"></path>
		<path id="XMLID_280_" class="st0 UKZKUnKr_10" d="M34.9,63.1c4.1,0.5,9.2,2.1,11.2,5.7"></path>
	</g>
	<g id="XMLID_3_">
		<path id="XMLID_5_" class="st0 UKZKUnKr_11" d="M32.9,81.9c-3,1.3-5.6,3.7-7.1,6.5"></path>
		<path id="XMLID_14_" class="st0 UKZKUnKr_12" d="M33.7,74.2c-2.3-1.9-5.5-2.8-8.9-2.9c-4.3-0.1-8.7,1.3-11.4,3.7"></path>
		<path id="XMLID_17_" class="st0 UKZKUnKr_13" d="M35.8,79.3c-0.3-0.3-0.6-0.4-0.8-0.4c-0.5,0-0.9,0.4-0.9,0.8c0,0.3,0.2,0.5,0.8,0.5
			c0.1,0,0.1,0,0.2,0"></path>
		<path id="XMLID_40_" class="st0 UKZKUnKr_14" d="M37.9,77.6c0.6-0.5,1.4-0.8,2.2-0.9"></path>
		<path id="XMLID_47_" class="st0 UKZKUnKr_15" d="M37.6,79c0.7-0.1,1.3-0.1,2-0.1c0.6,0,1.2,0.1,1.8,0.3"></path>
		<path id="XMLID_52_" class="st0 UKZKUnKr_16" d="M37.7,80.5c1.1,0.3,2.3,0.6,3.2,1.3"></path>
		<path id="XMLID_210_" class="st0 UKZKUnKr_17" d="M32.1,78.4c-0.7-0.2-1.5-0.3-2.2-0.4"></path>
		<path id="XMLID_225_" class="st0 UKZKUnKr_18" d="M32.2,79.2c-0.2,0-0.3,0-0.5,0c-1.1,0-2.3,0.4-3.3,0.8"></path>
		<path id="XMLID_295_" class="st0 UKZKUnKr_19" d="M35.8,74.7c3.6-2.9,11.6-4.1,16.3-4c11.6,0.2,21.9,10.2,23,12.3"></path>
	</g>
	<g id="XMLID_13_">
		<path id="XMLID_300_" class="st0 UKZKUnKr_20" d="M73.2,85.7c-0.2-0.2-0.5-0.3-0.8-0.3c-0.6,0-1.1,0.3-1.1,1c0.2,0.3,0.3,0.4,1.1,0.5
			c0.4,0,0.8-0.1,1.1-0.2"></path>
		<path id="XMLID_305_" class="st0 UKZKUnKr_21" d="M75.3,86.3c0.9-0.1,1.8-0.3,2.7-0.3c0.4,0,0.9,0.1,1.3,0.2"></path>
		<path id="XMLID_310_" class="st0 UKZKUnKr_22" d="M75.4,87.3c1,0,2.2,0.1,3,0.7"></path>
		<path id="XMLID_315_" class="st0 UKZKUnKr_23" d="M70.5,84.7c-0.8-0.4-1.5-0.8-2.4-0.9"></path>
		<path id="XMLID_320_" class="st0 UKZKUnKr_24" d="M69.4,85.5c-1.3,0-2.9,0.2-4,1"></path>
		<path id="XMLID_325_" class="st0 UKZKUnKr_25" d="M69.4,87c-1.6,0.5-3.1,2.2-3.3,2.8"></path>
		<path id="XMLID_330_" class="st0 UKZKUnKr_26" d="M75.4,84.8c2.4-2.3,7.2-4.4,8.9-4.5"></path>
	</g>
	<g id="XMLID_15_">
		<path id="XMLID_271_" class="st0 UKZKUnKr_27" d="M95.4,96.1c-0.1-0.2-0.3-0.3-0.5-0.3c-0.4,0-0.9,0.3-1,0.6c0.1,0.4,0.6,0.6,1,0.6
			c0.1,0,0.3,0,0.4-0.1"></path>
		<path id="XMLID_282_" class="st0 UKZKUnKr_28" d="M96.2,94.1c0.8-0.5,1.6-0.9,2.4-1.2"></path>
		<path id="XMLID_289_" class="st0 UKZKUnKr_29" d="M97.1,95.5c1.1-0.7,3.9-1.2,4.2-1.2c0.1,0,0.2,0,0.3,0"></path>
		<path id="XMLID_350_" class="st0 UKZKUnKr_30" d="M97.8,96.3c2.4,0.1,2.7,0.4,2.9,0.5"></path>
		<path id="XMLID_355_" class="st0 UKZKUnKr_31" d="M97.7,97.2c0.5,0.2,1,0.4,1.6,0.5"></path>
		<path id="XMLID_360_" class="st0 UKZKUnKr_32" d="M92.2,95.1c-1.1-0.4-2.1-0.6-3.3-0.7"></path>
		<path id="XMLID_365_" class="st0 UKZKUnKr_33" d="M91.5,96.6c-1.2,0-3.5,0.3-4,1"></path>
		<path id="XMLID_370_" class="st0 UKZKUnKr_34" d="M92.2,97.6c-0.5,0.2-2.1,0.8-2.3,1.2"></path>
	</g>
	<path id="XMLID_499_" class="st0 UKZKUnKr_35" d="M113.2,49c-0.5,0.2-1.1,0.5-1.5,0.9"></path>
	<path id="XMLID_504_" class="st0 UKZKUnKr_36" d="M121.8,48.7c-1.1-0.5-2.3-0.7-3.6-0.7c-1.2,0-2.4,0.1-3.5,0.4"></path>
	<path id="XMLID_508_" class="st0 UKZKUnKr_37" d="M144.1,49.4c-1.2-0.5-2.4-0.8-3.7-0.8c-2.2,0-4.5,0.7-6.5,1.7"></path>
	<path id="XMLID_514_" class="st0 UKZKUnKr_38" d="M159.1,49.8c-0.6-0.4-1.5-0.6-2.4-0.6c-1.4,0-2.9,0.4-3.8,1.1"></path>
	<path id="XMLID_515_" class="st0 UKZKUnKr_39" d="M140,56.7c1.6-1.6,6.7-3.4,9.1-3.4c2.4,0,6.2,1,7.9,2.8"></path>
	<path id="XMLID_523_" class="st0 UKZKUnKr_40" d="M158.1,57.3c0.1,0.1,0.2,0.2,0.3,0.3"></path>
	<path id="XMLID_525_" class="st0 UKZKUnKr_41" d="M122.2,53.9c-2,0.6-3.7,1.5-5.4,3.2"></path>
	<path id="XMLID_539_" class="st0 UKZKUnKr_42" d="M131.9,52.9c-0.4-0.1-2.4-0.2-3.2-0.3c-1.4,0-3.7,0.2-4.9,0.8"></path>
	<path id="XMLID_542_" class="st0 UKZKUnKr_43" d="M137.7,55c-0.8-0.7-3.2-1.4-4-1.6"></path>
	<path id="XMLID_549_" class="st0 UKZKUnKr_44" d="M139.3,58.4c-0.2-0.2-0.4-0.3-0.8-0.3c-0.5,0-0.9,0.1-1.1,0.6c0,0.1,0,0.2,0,0.4
		c0.1,0.1,0.2,0.4,1.1,0.4c0.3,0,1-0.1,1.2-0.4"></path>
	<path id="XMLID_554_" class="st0 UKZKUnKr_45" d="M140.9,58.4c0.8-0.2,1.6-0.3,2.3-0.3c0.2,0,0.4,0,0.7,0"></path>
	<path id="XMLID_559_" class="st0 UKZKUnKr_46" d="M141.2,59.4c0.1,0,0.2,0,0.2,0c0.6,0,1.5,0.1,2,0.5"></path>
	<path id="XMLID_564_" class="st0 UKZKUnKr_47" d="M141.4,60.6c0.4,0.2,0.7,0.4,1,0.8"></path>
	<path id="XMLID_569_" class="st0 UKZKUnKr_48" d="M136.4,61.3c-0.7,0.5-1.4,1.1-1.6,2"></path>
	<path id="XMLID_574_" class="st0 UKZKUnKr_49" d="M135.9,59.2c-0.7,0.3-2.1,0.9-2.6,1.5"></path>
	<path id="XMLID_579_" class="st0 UKZKUnKr_50" d="M135.7,58.1c-0.4-0.2-1.3-0.3-1.6-0.3c-0.1,0-0.1,0-0.2,0"></path>
	<g id="XMLID_103_">
		<path id="XMLID_517_" class="st0 UKZKUnKr_51" d="M160.1,57.9c2-1.7,5-3.2,7.8-3.2c0.2,0,0.4,0,0.6,0"></path>
		<path id="XMLID_584_" class="st0 UKZKUnKr_52" d="M160.8,62.8c-0.2-0.1-0.5-0.2-0.8-0.2c-0.6,0-0.9,0.3-0.9,0.7c0,0,0,0.1,0,0.1
			c0.1,0.2,0.2,0.5,0.9,0.5c0.2,0,0.5,0,0.6-0.1"></path>
		<path id="XMLID_589_" class="st0 UKZKUnKr_53" d="M160.4,59.8c-0.2,0.3-0.3,0.6-0.4,0.9"></path>
		<path id="XMLID_594_" class="st0 UKZKUnKr_54" d="M161.3,61.7c0.3,0,0.5-0.1,0.8-0.1c0.5,0,1.6,0.1,2.1,0.3"></path>
		<path id="XMLID_599_" class="st0 UKZKUnKr_55" d="M162.5,62.8c0.6,0.2,1.2,0.5,1.7,0.8"></path>
		<path id="XMLID_604_" class="st0 UKZKUnKr_56" d="M158.4,61.2c-0.6-0.7-1.5-0.9-2.3-1.1"></path>
		<path id="XMLID_609_" class="st0 UKZKUnKr_57" d="M157.8,62.1c-0.5-0.1-1-0.2-1.6-0.2c-0.6,0-1.6,0.1-2.5,0.4"></path>
		<path id="XMLID_614_" class="st0 UKZKUnKr_58" d="M157.3,63.8c-0.2,0-0.3,0-0.5,0c-4.3-0.1-11.1,2.2-13.6,5.5"></path>
		<path id="XMLID_619_" class="st0 UKZKUnKr_59" d="M164.8,64.9c2.3,0.1,7.1,1.3,8.8,4.6"></path>
	</g>
	<path id="XMLID_624_" class="st0 UKZKUnKr_60" d="M135.6,76.9c2.3-1.1,5.4-1.3,7.9-1.3c3.1,0.1,7.5,0.8,9.7,3"></path>
	<g id="XMLID_100_">
		<path id="XMLID_375_" class="st0 UKZKUnKr_61" d="M135.4,96.4c0-0.2-0.2-0.2-0.4-0.2c-0.4,0-0.9,0.3-0.9,0.7c0.1,0.1,0.1,0.1,0.2,0.2
			c0.1,0,0.2,0.1,0.4,0.1c0.4,0,0.9-0.1,0.9-0.5c0-0.1,0-0.1,0-0.2"></path>
		<path id="XMLID_380_" class="st0 UKZKUnKr_62" d="M135.8,94.6c1.7-2.2,8-3.4,11.1-3.3c0.1,0,0.3,0,0.3,0.1"></path>
		<path id="XMLID_385_" class="st0 UKZKUnKr_63" d="M137.3,95.1c0.6-0.4,2.6-0.6,3.3-0.6c0.4,0,0.7,0,1,0.1"></path>
		<path id="XMLID_390_" class="st0 UKZKUnKr_64" d="M137.5,95.9c0.5-0.2,1.1-0.3,1.7-0.2c0.5,0,1.1,0.1,1.6,0.3"></path>
		<path id="XMLID_395_" class="st0 UKZKUnKr_65" d="M137.5,96.6c1.8,0.3,2.8,1,3,1.2"></path>
		<path id="XMLID_400_" class="st0 UKZKUnKr_66" d="M133.2,95.3c-0.6-0.4-1.4-0.8-2.1-1"></path>
		<path id="XMLID_405_" class="st0 UKZKUnKr_67" d="M132.6,96.3c-0.6-0.1-1.3-0.1-1.9-0.2c-0.1,0-0.2,0-0.3,0c0,0,0,0-0.1,0c-0.2,0-0.3,0-0.5,0
			c-0.1,0-0.2,0-0.3,0"></path>
		<path id="XMLID_410_" class="st0 UKZKUnKr_68" d="M132.4,97.5c-1.2,0-2.8,1-3.1,1.4"></path>
		<path id="XMLID_744_" class="st0 UKZKUnKr_69" d="M136.1,93.6c-2.1-2.8-4.8-3.1-5.3-3.3"></path>
	</g>
</g>
<g id="XMLID_1_">
	<g id="XMLID_8_">
		<path id="XMLID_285_" class="st0 UKZKUnKr_70" d="M47.8,68.4c1.1-3.6,6.6-7.5,9.8-8.1"></path>
		<path id="XMLID_290_" class="st0 UKZKUnKr_71" d="M51.6,68.2c0.9-2.3,4.2-5.8,6.2-6.5"></path>
		<path id="XMLID_415_" class="st0 UKZKUnKr_72" d="M76.4,61c2.5,2.6,8.5,10.6,9.2,18.3"></path>
		<path id="XMLID_420_" class="st0 UKZKUnKr_73" d="M80.8,63.1c1.9,2.4,3.2,5.3,4,8.2"></path>
	</g>
	<path id="XMLID_839_" class="st0 UKZKUnKr_74" d="M57.7,70c-0.2-6.1,3.8-26.3,26.4-25.9c18.3,0.3,30.3,16.9,30.3,16.9"></path>
	<g id="XMLID_4_">
		<path id="XMLID_425_" class="st0 UKZKUnKr_75" d="M89.7,64.6C89.7,64.5,89.7,64.5,89.7,64.6c-0.2,1-0.3,2-0.3,3.1c-0.2,9.4,5.3,16.7,11.9,19.6
			"></path>
		<path id="XMLID_430_" class="st0 UKZKUnKr_76" d="M105.1,84.3c-1.2,0.5-3.1,2.2-3.8,4.2"></path>
		<path id="XMLID_435_" class="st0 UKZKUnKr_77" d="M103,87.8c2.4,1,5.9,5.6,6,5.7"></path>
		<path id="XMLID_440_" class="st0 UKZKUnKr_78" d="M107.5,89c0.6,0.3,3.5,3.1,3.4,4.5c0,0.1,0,0.3,0,0.4c0,0-0.1,0.1-0.1,0.1
			c-0.1,0-3.5-3.9-3.6-4"></path>
		<path id="XMLID_445_" class="st0 UKZKUnKr_79" d="M109.2,87.6c0.2,0.1,3.9,3.4,3.8,4.8c0,0,0,0.1,0,0.1c0,0,0,0-0.1,0.1c-1.5,0-3.1-3.4-4.9-4"></path>
		<path id="XMLID_450_" class="st0 UKZKUnKr_80" d="M111.2,87.3c0.8,0.6,2.3,2,2.3,3c0,0,0,0.1,0,0.1c0,0.1,0,0.1-0.1,0.2
			c-0.6-0.1-2.1-1.7-2.9-2.1"></path>
		<path id="XMLID_424_" class="st0 UKZKUnKr_81" d="M98,74.4c3.1,2.4,5,10.6,12,12.6"></path>
		<path id="XMLID_432_" class="st0 UKZKUnKr_82" d="M98.4,74.4c0-0.3,0-0.5,0-0.8c0-1.3,0.8-4.9,1.8-6.9"></path>
		<path id="XMLID_819_" class="st0 UKZKUnKr_83" d="M92.2,81.3c-0.9-0.4-2.6-0.5-3.5-0.6c-0.8,0-2.2,0-2.8,0.5c0,0,0,0.1,0,0.1
			c0.9,1,4.3,0.3,6.6,1.3"></path>
		<path id="XMLID_824_" class="st0 UKZKUnKr_84" d="M91.6,82.8c-0.7-0.2-1.6-0.2-2.7-0.2c-0.7,0-2.8,0.1-3.2,0.5c0,0,0,0,0,0.1
			c0,0.1,0.1,0.1,0.1,0.2c0.3,0.1,0.5,0.2,1.2,0.3c0.7,0,1.1-0.1,2.2-0.1c1.1,0,2.9,0.2,3.8,0.7"></path>
		<path id="XMLID_829_" class="st0 UKZKUnKr_85" d="M90.6,84c-0.9,0-2.7,0.1-3.5,0.5c0,0,0,0,0,0c0.3,0.2,8.6,0.4,12.2,2.2"></path>
		<path id="XMLID_834_" class="st0 UKZKUnKr_86" d="M92.9,80.2c-0.4-0.2-2-0.5-3-0.5c-0.6,0-1.7,0.1-2.1,0.4"></path>
	</g>
	<g id="XMLID_6_">
		<path id="XMLID_439_" class="st0 UKZKUnKr_87" d="M102.3,69.3c-0.2-0.5-0.2-1.1-0.2-1.7c0,0,0,0,0-0.1c0.1-4,6.3-4.8,8.9-4.8
			c0.9,0,2.3,0.2,3,0.7"></path>
		<path id="XMLID_470_" class="st0 UKZKUnKr_88" d="M102.2,79.2c0-0.1-2-4-2-6.6c0-0.7,7.1-8.5,13.8-8.4c0.3,0,1,0,1.3,0.2"></path>
		<path id="XMLID_475_" class="st0 UKZKUnKr_89" d="M113.6,77.2c-0.4-1.1-0.4-2.7-0.4-2.7c0,0,0-0.1,0-0.1c0.2-0.5,1.4-1,1.9-1"></path>
		<path id="XMLID_480_" class="st0 UKZKUnKr_90" d="M109.5,84.1C109.5,84.1,109.5,84.1,109.5,84.1c-0.1-0.5-0.2-1.1-0.2-1.5c0-1.2,1-1,2-1.4"></path>
		<path id="XMLID_478_" class="st0 UKZKUnKr_91" d="M106.4,79.7c0.1,0.3,0.3,0.5,0.6,0.5c1,0,1.7-1.3,2.8-1.3c0.2,0,0.3,0,0.5,0.1"></path>
		<path id="XMLID_485_" class="st0 UKZKUnKr_92" d="M108.6,76.8c-0.1,0-0.1,0-0.2,0"></path>
		<path id="XMLID_492_" class="st0 UKZKUnKr_93" d="M107,78.1c0,0.1,0,0.1-0.1,0.2"></path>
		<path id="XMLID_629_" class="st0 UKZKUnKr_94" d="M104,75.2c0.1-1.2,1.8-2.9,3-3.5"></path>
		<path id="XMLID_634_" class="st0 UKZKUnKr_95" d="M104,75.3c-0.8,0.3-1.4,1.5-1.4,2.2c0,0.1,0,0.3,0.1,0.4"></path>
		<path id="XMLID_639_" class="st0 UKZKUnKr_96" d="M105.3,73.8c-0.7,1,0.4,2.5-1.7,2.8"></path>
		<path id="XMLID_644_" class="st0 UKZKUnKr_97" d="M104.5,73.4c-1.2,0.6-1.7,0.7-1.8,1.5c0,0,0,0,0,0.1c0,0.2,0.1,0.5,0.1,0.7"></path>
		<path id="XMLID_649_" class="st0 UKZKUnKr_98" d="M115.3,62.6c0.2-0.7,1.1-1.4,2.3-1.4c0.5,0,1.4,0.1,1.9,0.4"></path>
		<path id="XMLID_654_" class="st0 UKZKUnKr_99" d="M118.3,63.5c0.9,0.7,8,2.5,9.6,8.6"></path>
		<path id="XMLID_659_" class="st0 UKZKUnKr_100" d="M120.8,68.8c0,0.1,3.1,10.3,6,14"></path>
		<path id="XMLID_664_" class="st0 UKZKUnKr_101" d="M119,67.6c2.1,7.8,5.9,14.1,6.9,15.4"></path>
		<path id="XMLID_669_" class="st0 UKZKUnKr_102" d="M119.3,71.8c0.7,2.5,3.6,11.2,6.2,12.3"></path>
		<path id="XMLID_674_" class="st0 UKZKUnKr_103" d="M119.6,77.7c1.7,2.5,2,4.7,3.8,6"></path>
		<path id="XMLID_679_" class="st0 UKZKUnKr_104" d="M118.7,74.4c0.2,0.6,0.2,1.3,0.2,2c0,1.5-0.3,2.2-1,3.6"></path>
		<path id="XMLID_684_" class="st0 UKZKUnKr_105" d="M111.3,85.6c1.2,0,2.7-0.8,3.5-1.5"></path>
		<path id="XMLID_689_" class="st0 UKZKUnKr_106" d="M117.9,81c2.1,2.2,5,3.3,5.6,3.6"></path>
		<path id="XMLID_694_" class="st0 UKZKUnKr_107" d="M116,82.6c1.4,0.7,3.5,2.4,8.9,3.3"></path>
		<path id="XMLID_699_" class="st0 UKZKUnKr_108" d="M114,86.6c1.9,0.6,6.8,0.8,8.9,0.8c0.3,0,0.6,0,0.9-0.1"></path>
		<path id="XMLID_704_" class="st0 UKZKUnKr_109" d="M124,87.4c0.4,0.6,0.9,1.2,1.5,1.7"></path>
		<path id="XMLID_709_" class="st0 UKZKUnKr_110" d="M112.7,87.7c0.8,0.2,2,0.7,4.6,0.7c0.9,0,5.3-0.1,6-0.2"></path>
		<path id="XMLID_714_" class="st0 UKZKUnKr_111" d="M114.1,89.2c1,0,2.1,0.2,3.1,0.2c2,0,6.4-0.8,6.5-0.8"></path>
		<path id="XMLID_719_" class="st0 UKZKUnKr_112" d="M117.1,90.7c3.3,0.1,6.4-0.8,7.4-1.3"></path>
		<path id="XMLID_724_" class="st0 UKZKUnKr_113" d="M115.4,91.8c0.5-0.2,1-0.4,1.5-0.4c0.1,0,0.1,0,0.2,0"></path>
		<path id="XMLID_729_" class="st0 UKZKUnKr_114" d="M126.2,87.1c0.5,0.7,1,1.4,1.7,2"></path>
		<path id="XMLID_734_" class="st0 UKZKUnKr_115" d="M126.7,85.7c0.6,1.2,2.2,3.8,2.5,4"></path>
		<path id="XMLID_739_" class="st0 UKZKUnKr_116" d="M127.1,85.8c0.3,0.4,2.5,3.7,3.3,4.2"></path>
		<path id="XMLID_749_" class="st0 UKZKUnKr_117" d="M127.3,85.7c1.2,1.2,2.3,2.4,3.6,3.5"></path>
		<path id="XMLID_754_" class="st0 UKZKUnKr_118" d="M127.5,85.4c0.6,0.7,1.3,1.2,2,1.9c1.1,1.1,2.1,2.1,3.3,3"></path>
		<path id="XMLID_759_" class="st0 UKZKUnKr_119" d="M128.1,85.4c2.1,2.1,7.8,5.7,9,7.6"></path>
		<path id="XMLID_764_" class="st0 UKZKUnKr_120" d="M128.2,84.5c3.1,1,5.6,3.8,7.7,6.2"></path>
		<path id="XMLID_769_" class="st0 UKZKUnKr_121" d="M129.1,83.5c2.9,0.2,9.3,9,9.4,9.1"></path>
		<path id="XMLID_774_" class="st0 UKZKUnKr_122" d="M131.8,83.8c0.4,0.4,5.3,3.5,6.4,6.8"></path>
		<path id="XMLID_779_" class="st0 UKZKUnKr_123" d="M129.6,82.5c0.1-0.3,0.6-0.4,0.9-0.4c2.5,0,5.8,2.6,6.2,3.2"></path>
		<path id="XMLID_784_" class="st0 UKZKUnKr_124" d="M129.6,81.7c0-0.6,1-0.8,1.7-0.8c0,0,0.1,0,0.1,0c3,0.1,7.1,2.4,8.2,5.2"></path>
		<path id="XMLID_789_" class="st0 UKZKUnKr_125" d="M129.6,81.1c0,0,0-0.1,0-0.1c0-0.9,1.5-1.2,2.5-1.2c0.8,0,2.1,0.1,2.8,0.6"></path>
		<path id="XMLID_794_" class="st0 UKZKUnKr_126" d="M130.6,79.2c0.5-0.1,1-0.2,1.5-0.1c6.5,0.1,11.2,5.9,11.1,10.8c0,0.4,0,0.8-0.1,1.1"></path>
		<path id="XMLID_799_" class="st0 UKZKUnKr_127" d="M121.9,62.1c3.2,0.6,6.2,3.5,7.1,5.4"></path>
		<path id="XMLID_804_" class="st0 UKZKUnKr_128" d="M116.9,63.2c0.5-0.1,1-0.2,1.6-0.2c5.5,0.1,13,5.5,12.9,12.1c0,1-0.3,3.1-1.1,3.7"></path>
		<path id="XMLID_809_" class="st0 UKZKUnKr_129" d="M116.4,64.1c5.1,1,10.7,6.6,11.9,11"></path>
		<path id="XMLID_814_" class="st0 UKZKUnKr_130" d="M119.6,66.7c4.9,2.1,7.1,7.8,7.1,10.3c0,0.1,0,0.1,0,0.2"></path>
	</g>
</g>
<style data-made-with="vivus-instant">.UKZKUnKr_0{stroke-dasharray:18 20;stroke-dashoffset:19;animation:UKZKUnKr_draw 1000ms ease 0ms forwards;}.UKZKUnKr_1{stroke-dasharray:33 35;stroke-dashoffset:34;animation:UKZKUnKr_draw 1000ms ease 15ms forwards;}.UKZKUnKr_2{stroke-dasharray:4 6;stroke-dashoffset:5;animation:UKZKUnKr_draw 1000ms ease 30ms forwards;}.UKZKUnKr_3{stroke-dasharray:4 6;stroke-dashoffset:5;animation:UKZKUnKr_draw 1000ms ease 46ms forwards;}.UKZKUnKr_4{stroke-dasharray:3 5;stroke-dashoffset:4;animation:UKZKUnKr_draw 1000ms ease 61ms forwards;}.UKZKUnKr_5{stroke-dasharray:1 3;stroke-dashoffset:2;animation:UKZKUnKr_draw 1000ms ease 76ms forwards;}.UKZKUnKr_6{stroke-dasharray:3 5;stroke-dashoffset:4;animation:UKZKUnKr_draw 1000ms ease 92ms forwards;}.UKZKUnKr_7{stroke-dasharray:4 6;stroke-dashoffset:5;animation:UKZKUnKr_draw 1000ms ease 107ms forwards;}.UKZKUnKr_8{stroke-dasharray:2 4;stroke-dashoffset:3;animation:UKZKUnKr_draw 1000ms ease 123ms forwards;}.UKZKUnKr_9{stroke-dasharray:1 3;stroke-dashoffset:2;animation:UKZKUnKr_draw 1000ms ease 138ms forwards;}.UKZKUnKr_10{stroke-dasharray:14 16;stroke-dashoffset:15;animation:UKZKUnKr_draw 1000ms ease 153ms forwards;}.UKZKUnKr_11{stroke-dasharray:10 12;stroke-dashoffset:11;animation:UKZKUnKr_draw 1000ms ease 169ms forwards;}.UKZKUnKr_12{stroke-dasharray:22 24;stroke-dashoffset:23;animation:UKZKUnKr_draw 1000ms ease 184ms forwards;}.UKZKUnKr_13{stroke-dasharray:4 6;stroke-dashoffset:5;animation:UKZKUnKr_draw 1000ms ease 200ms forwards;}.UKZKUnKr_14{stroke-dasharray:3 5;stroke-dashoffset:4;animation:UKZKUnKr_draw 1000ms ease 215ms forwards;}.UKZKUnKr_15{stroke-dasharray:4 6;stroke-dashoffset:5;animation:UKZKUnKr_draw 1000ms ease 230ms forwards;}.UKZKUnKr_16{stroke-dasharray:4 6;stroke-dashoffset:5;animation:UKZKUnKr_draw 1000ms ease 246ms forwards;}.UKZKUnKr_17{stroke-dasharray:3 5;stroke-dashoffset:4;animation:UKZKUnKr_draw 1000ms ease 261ms forwards;}.UKZKUnKr_18{stroke-dasharray:4 6;stroke-dashoffset:5;animation:UKZKUnKr_draw 1000ms ease 276ms forwards;}.UKZKUnKr_19{stroke-dasharray:44 46;stroke-dashoffset:45;animation:UKZKUnKr_draw 1000ms ease 292ms forwards;}.UKZKUnKr_20{stroke-dasharray:5 7;stroke-dashoffset:6;animation:UKZKUnKr_draw 1000ms ease 307ms forwards;}.UKZKUnKr_21{stroke-dasharray:5 7;stroke-dashoffset:6;animation:UKZKUnKr_draw 1000ms ease 323ms forwards;}.UKZKUnKr_22{stroke-dasharray:4 6;stroke-dashoffset:5;animation:UKZKUnKr_draw 1000ms ease 338ms forwards;}.UKZKUnKr_23{stroke-dasharray:3 5;stroke-dashoffset:4;animation:UKZKUnKr_draw 1000ms ease 353ms forwards;}.UKZKUnKr_24{stroke-dasharray:5 7;stroke-dashoffset:6;animation:UKZKUnKr_draw 1000ms ease 369ms forwards;}.UKZKUnKr_25{stroke-dasharray:5 7;stroke-dashoffset:6;animation:UKZKUnKr_draw 1000ms ease 384ms forwards;}.UKZKUnKr_26{stroke-dasharray:11 13;stroke-dashoffset:12;animation:UKZKUnKr_draw 1000ms ease 400ms forwards;}.UKZKUnKr_27{stroke-dasharray:4 6;stroke-dashoffset:5;animation:UKZKUnKr_draw 1000ms ease 415ms forwards;}.UKZKUnKr_28{stroke-dasharray:3 5;stroke-dashoffset:4;animation:UKZKUnKr_draw 1000ms ease 430ms forwards;}.UKZKUnKr_29{stroke-dasharray:5 7;stroke-dashoffset:6;animation:UKZKUnKr_draw 1000ms ease 446ms forwards;}.UKZKUnKr_30{stroke-dasharray:3 5;stroke-dashoffset:4;animation:UKZKUnKr_draw 1000ms ease 461ms forwards;}.UKZKUnKr_31{stroke-dasharray:2 4;stroke-dashoffset:3;animation:UKZKUnKr_draw 1000ms ease 476ms forwards;}.UKZKUnKr_32{stroke-dasharray:4 6;stroke-dashoffset:5;animation:UKZKUnKr_draw 1000ms ease 492ms forwards;}.UKZKUnKr_33{stroke-dasharray:5 7;stroke-dashoffset:6;animation:UKZKUnKr_draw 1000ms ease 507ms forwards;}.UKZKUnKr_34{stroke-dasharray:3 5;stroke-dashoffset:4;animation:UKZKUnKr_draw 1000ms ease 523ms forwards;}.UKZKUnKr_35{stroke-dasharray:2 4;stroke-dashoffset:3;animation:UKZKUnKr_draw 1000ms ease 538ms forwards;}.UKZKUnKr_36{stroke-dasharray:8 10;stroke-dashoffset:9;animation:UKZKUnKr_draw 1000ms ease 553ms forwards;}.UKZKUnKr_37{stroke-dasharray:11 13;stroke-dashoffset:12;animation:UKZKUnKr_draw 1000ms ease 569ms forwards;}.UKZKUnKr_38{stroke-dasharray:7 9;stroke-dashoffset:8;animation:UKZKUnKr_draw 1000ms ease 584ms forwards;}.UKZKUnKr_39{stroke-dasharray:19 21;stroke-dashoffset:20;animation:UKZKUnKr_draw 1000ms ease 600ms forwards;}.UKZKUnKr_40{stroke-dasharray:1 3;stroke-dashoffset:2;animation:UKZKUnKr_draw 1000ms ease 615ms forwards;}.UKZKUnKr_41{stroke-dasharray:7 9;stroke-dashoffset:8;animation:UKZKUnKr_draw 1000ms ease 630ms forwards;}.UKZKUnKr_42{stroke-dasharray:9 11;stroke-dashoffset:10;animation:UKZKUnKr_draw 1000ms ease 646ms forwards;}.UKZKUnKr_43{stroke-dasharray:5 7;stroke-dashoffset:6;animation:UKZKUnKr_draw 1000ms ease 661ms forwards;}.UKZKUnKr_44{stroke-dasharray:6 8;stroke-dashoffset:7;animation:UKZKUnKr_draw 1000ms ease 676ms forwards;}.UKZKUnKr_45{stroke-dasharray:4 6;stroke-dashoffset:5;animation:UKZKUnKr_draw 1000ms ease 692ms forwards;}.UKZKUnKr_46{stroke-dasharray:3 5;stroke-dashoffset:4;animation:UKZKUnKr_draw 1000ms ease 707ms forwards;}.UKZKUnKr_47{stroke-dasharray:2 4;stroke-dashoffset:3;animation:UKZKUnKr_draw 1000ms ease 723ms forwards;}.UKZKUnKr_48{stroke-dasharray:3 5;stroke-dashoffset:4;animation:UKZKUnKr_draw 1000ms ease 738ms forwards;}.UKZKUnKr_49{stroke-dasharray:4 6;stroke-dashoffset:5;animation:UKZKUnKr_draw 1000ms ease 753ms forwards;}.UKZKUnKr_50{stroke-dasharray:2 4;stroke-dashoffset:3;animation:UKZKUnKr_draw 1000ms ease 769ms forwards;}.UKZKUnKr_51{stroke-dasharray:10 12;stroke-dashoffset:11;animation:UKZKUnKr_draw 1000ms ease 784ms forwards;}.UKZKUnKr_52{stroke-dasharray:4 6;stroke-dashoffset:5;animation:UKZKUnKr_draw 1000ms ease 800ms forwards;}.UKZKUnKr_53{stroke-dasharray:1 3;stroke-dashoffset:2;animation:UKZKUnKr_draw 1000ms ease 815ms forwards;}.UKZKUnKr_54{stroke-dasharray:3 5;stroke-dashoffset:4;animation:UKZKUnKr_draw 1000ms ease 830ms forwards;}.UKZKUnKr_55{stroke-dasharray:2 4;stroke-dashoffset:3;animation:UKZKUnKr_draw 1000ms ease 846ms forwards;}.UKZKUnKr_56{stroke-dasharray:3 5;stroke-dashoffset:4;animation:UKZKUnKr_draw 1000ms ease 861ms forwards;}.UKZKUnKr_57{stroke-dasharray:5 7;stroke-dashoffset:6;animation:UKZKUnKr_draw 1000ms ease 876ms forwards;}.UKZKUnKr_58{stroke-dasharray:16 18;stroke-dashoffset:17;animation:UKZKUnKr_draw 1000ms ease 892ms forwards;}.UKZKUnKr_59{stroke-dasharray:11 13;stroke-dashoffset:12;animation:UKZKUnKr_draw 1000ms ease 907ms forwards;}.UKZKUnKr_60{stroke-dasharray:19 21;stroke-dashoffset:20;animation:UKZKUnKr_draw 1000ms ease 923ms forwards;}.UKZKUnKr_61{stroke-dasharray:4 6;stroke-dashoffset:5;animation:UKZKUnKr_draw 1000ms ease 938ms forwards;}.UKZKUnKr_62{stroke-dasharray:13 15;stroke-dashoffset:14;animation:UKZKUnKr_draw 1000ms ease 953ms forwards;}.UKZKUnKr_63{stroke-dasharray:5 7;stroke-dashoffset:6;animation:UKZKUnKr_draw 1000ms ease 969ms forwards;}.UKZKUnKr_64{stroke-dasharray:4 6;stroke-dashoffset:5;animation:UKZKUnKr_draw 1000ms ease 984ms forwards;}.UKZKUnKr_65{stroke-dasharray:4 6;stroke-dashoffset:5;animation:UKZKUnKr_draw 1000ms ease 1000ms forwards;}.UKZKUnKr_66{stroke-dasharray:3 5;stroke-dashoffset:4;animation:UKZKUnKr_draw 1000ms ease 1015ms forwards;}.UKZKUnKr_67{stroke-dasharray:4 6;stroke-dashoffset:5;animation:UKZKUnKr_draw 1000ms ease 1030ms forwards;}.UKZKUnKr_68{stroke-dasharray:4 6;stroke-dashoffset:5;animation:UKZKUnKr_draw 1000ms ease 1046ms forwards;}.UKZKUnKr_69{stroke-dasharray:7 9;stroke-dashoffset:8;animation:UKZKUnKr_draw 1000ms ease 1061ms forwards;}.UKZKUnKr_70{stroke-dasharray:14 16;stroke-dashoffset:15;animation:UKZKUnKr_draw 1000ms ease 1076ms forwards;}.UKZKUnKr_71{stroke-dasharray:10 12;stroke-dashoffset:11;animation:UKZKUnKr_draw 1000ms ease 1092ms forwards;}.UKZKUnKr_72{stroke-dasharray:21 23;stroke-dashoffset:22;animation:UKZKUnKr_draw 1000ms ease 1107ms forwards;}.UKZKUnKr_73{stroke-dasharray:10 12;stroke-dashoffset:11;animation:UKZKUnKr_draw 1000ms ease 1123ms forwards;}.UKZKUnKr_74{stroke-dasharray:78 80;stroke-dashoffset:79;animation:UKZKUnKr_draw 1000ms ease 1138ms forwards;}.UKZKUnKr_75{stroke-dasharray:28 30;stroke-dashoffset:29;animation:UKZKUnKr_draw 1000ms ease 1153ms forwards;}.UKZKUnKr_76{stroke-dasharray:6 8;stroke-dashoffset:7;animation:UKZKUnKr_draw 1000ms ease 1169ms forwards;}.UKZKUnKr_77{stroke-dasharray:9 11;stroke-dashoffset:10;animation:UKZKUnKr_draw 1000ms ease 1184ms forwards;}.UKZKUnKr_78{stroke-dasharray:12 14;stroke-dashoffset:13;animation:UKZKUnKr_draw 1000ms ease 1200ms forwards;}.UKZKUnKr_79{stroke-dasharray:13 15;stroke-dashoffset:14;animation:UKZKUnKr_draw 1000ms ease 1215ms forwards;}.UKZKUnKr_80{stroke-dasharray:8 10;stroke-dashoffset:9;animation:UKZKUnKr_draw 1000ms ease 1230ms forwards;}.UKZKUnKr_81{stroke-dasharray:18 20;stroke-dashoffset:19;animation:UKZKUnKr_draw 1000ms ease 1246ms forwards;}.UKZKUnKr_82{stroke-dasharray:8 10;stroke-dashoffset:9;animation:UKZKUnKr_draw 1000ms ease 1261ms forwards;}.UKZKUnKr_83{stroke-dasharray:14 16;stroke-dashoffset:15;animation:UKZKUnKr_draw 1000ms ease 1276ms forwards;}.UKZKUnKr_84{stroke-dasharray:14 16;stroke-dashoffset:15;animation:UKZKUnKr_draw 1000ms ease 1292ms forwards;}.UKZKUnKr_85{stroke-dasharray:17 19;stroke-dashoffset:18;animation:UKZKUnKr_draw 1000ms ease 1307ms forwards;}.UKZKUnKr_86{stroke-dasharray:6 8;stroke-dashoffset:7;animation:UKZKUnKr_draw 1000ms ease 1323ms forwards;}.UKZKUnKr_87{stroke-dasharray:17 19;stroke-dashoffset:18;animation:UKZKUnKr_draw 1000ms ease 1338ms forwards;}.UKZKUnKr_88{stroke-dasharray:25 27;stroke-dashoffset:26;animation:UKZKUnKr_draw 1000ms ease 1353ms forwards;}.UKZKUnKr_89{stroke-dasharray:6 8;stroke-dashoffset:7;animation:UKZKUnKr_draw 1000ms ease 1369ms forwards;}.UKZKUnKr_90{stroke-dasharray:5 7;stroke-dashoffset:6;animation:UKZKUnKr_draw 1000ms ease 1384ms forwards;}.UKZKUnKr_91{stroke-dasharray:5 7;stroke-dashoffset:6;animation:UKZKUnKr_draw 1000ms ease 1400ms forwards;}.UKZKUnKr_92{stroke-dasharray:1 3;stroke-dashoffset:2;animation:UKZKUnKr_draw 1000ms ease 1415ms forwards;}.UKZKUnKr_93{stroke-dasharray:1 3;stroke-dashoffset:2;animation:UKZKUnKr_draw 1000ms ease 1430ms forwards;}.UKZKUnKr_94{stroke-dasharray:5 7;stroke-dashoffset:6;animation:UKZKUnKr_draw 1000ms ease 1446ms forwards;}.UKZKUnKr_95{stroke-dasharray:4 6;stroke-dashoffset:5;animation:UKZKUnKr_draw 1000ms ease 1461ms forwards;}.UKZKUnKr_96{stroke-dasharray:4 6;stroke-dashoffset:5;animation:UKZKUnKr_draw 1000ms ease 1476ms forwards;}.UKZKUnKr_97{stroke-dasharray:4 6;stroke-dashoffset:5;animation:UKZKUnKr_draw 1000ms ease 1492ms forwards;}.UKZKUnKr_98{stroke-dasharray:5 7;stroke-dashoffset:6;animation:UKZKUnKr_draw 1000ms ease 1507ms forwards;}.UKZKUnKr_99{stroke-dasharray:14 16;stroke-dashoffset:15;animation:UKZKUnKr_draw 1000ms ease 1523ms forwards;}.UKZKUnKr_100{stroke-dasharray:16 18;stroke-dashoffset:17;animation:UKZKUnKr_draw 1000ms ease 1538ms forwards;}.UKZKUnKr_101{stroke-dasharray:17 19;stroke-dashoffset:18;animation:UKZKUnKr_draw 1000ms ease 1553ms forwards;}.UKZKUnKr_102{stroke-dasharray:15 17;stroke-dashoffset:16;animation:UKZKUnKr_draw 1000ms ease 1569ms forwards;}.UKZKUnKr_103{stroke-dasharray:8 10;stroke-dashoffset:9;animation:UKZKUnKr_draw 1000ms ease 1584ms forwards;}.UKZKUnKr_104{stroke-dasharray:6 8;stroke-dashoffset:7;animation:UKZKUnKr_draw 1000ms ease 1600ms forwards;}.UKZKUnKr_105{stroke-dasharray:4 6;stroke-dashoffset:5;animation:UKZKUnKr_draw 1000ms ease 1615ms forwards;}.UKZKUnKr_106{stroke-dasharray:7 9;stroke-dashoffset:8;animation:UKZKUnKr_draw 1000ms ease 1630ms forwards;}.UKZKUnKr_107{stroke-dasharray:10 12;stroke-dashoffset:11;animation:UKZKUnKr_draw 1000ms ease 1646ms forwards;}.UKZKUnKr_108{stroke-dasharray:10 12;stroke-dashoffset:11;animation:UKZKUnKr_draw 1000ms ease 1661ms forwards;}.UKZKUnKr_109{stroke-dasharray:3 5;stroke-dashoffset:4;animation:UKZKUnKr_draw 1000ms ease 1676ms forwards;}.UKZKUnKr_110{stroke-dasharray:11 13;stroke-dashoffset:12;animation:UKZKUnKr_draw 1000ms ease 1692ms forwards;}.UKZKUnKr_111{stroke-dasharray:10 12;stroke-dashoffset:11;animation:UKZKUnKr_draw 1000ms ease 1707ms forwards;}.UKZKUnKr_112{stroke-dasharray:8 10;stroke-dashoffset:9;animation:UKZKUnKr_draw 1000ms ease 1723ms forwards;}.UKZKUnKr_113{stroke-dasharray:2 4;stroke-dashoffset:3;animation:UKZKUnKr_draw 1000ms ease 1738ms forwards;}.UKZKUnKr_114{stroke-dasharray:3 5;stroke-dashoffset:4;animation:UKZKUnKr_draw 1000ms ease 1753ms forwards;}.UKZKUnKr_115{stroke-dasharray:5 7;stroke-dashoffset:6;animation:UKZKUnKr_draw 1000ms ease 1769ms forwards;}.UKZKUnKr_116{stroke-dasharray:6 8;stroke-dashoffset:7;animation:UKZKUnKr_draw 1000ms ease 1784ms forwards;}.UKZKUnKr_117{stroke-dasharray:6 8;stroke-dashoffset:7;animation:UKZKUnKr_draw 1000ms ease 1800ms forwards;}.UKZKUnKr_118{stroke-dasharray:8 10;stroke-dashoffset:9;animation:UKZKUnKr_draw 1000ms ease 1815ms forwards;}.UKZKUnKr_119{stroke-dasharray:12 14;stroke-dashoffset:13;animation:UKZKUnKr_draw 1000ms ease 1830ms forwards;}.UKZKUnKr_120{stroke-dasharray:11 13;stroke-dashoffset:12;animation:UKZKUnKr_draw 1000ms ease 1846ms forwards;}.UKZKUnKr_121{stroke-dasharray:14 16;stroke-dashoffset:15;animation:UKZKUnKr_draw 1000ms ease 1861ms forwards;}.UKZKUnKr_122{stroke-dasharray:10 12;stroke-dashoffset:11;animation:UKZKUnKr_draw 1000ms ease 1876ms forwards;}.UKZKUnKr_123{stroke-dasharray:9 11;stroke-dashoffset:10;animation:UKZKUnKr_draw 1000ms ease 1892ms forwards;}.UKZKUnKr_124{stroke-dasharray:13 15;stroke-dashoffset:14;animation:UKZKUnKr_draw 1000ms ease 1907ms forwards;}.UKZKUnKr_125{stroke-dasharray:7 9;stroke-dashoffset:8;animation:UKZKUnKr_draw 1000ms ease 1923ms forwards;}.UKZKUnKr_126{stroke-dasharray:20 22;stroke-dashoffset:21;animation:UKZKUnKr_draw 1000ms ease 1938ms forwards;}.UKZKUnKr_127{stroke-dasharray:10 12;stroke-dashoffset:11;animation:UKZKUnKr_draw 1000ms ease 1953ms forwards;}.UKZKUnKr_128{stroke-dasharray:25 27;stroke-dashoffset:26;animation:UKZKUnKr_draw 1000ms ease 1969ms forwards;}.UKZKUnKr_129{stroke-dasharray:17 19;stroke-dashoffset:18;animation:UKZKUnKr_draw 1000ms ease 1984ms forwards;}.UKZKUnKr_130{stroke-dasharray:14 16;stroke-dashoffset:15;animation:UKZKUnKr_draw 1000ms ease 2000ms forwards;}@keyframes UKZKUnKr_draw{100%{stroke-dashoffset:0;}}@keyframes UKZKUnKr_fade{0%{stroke-opacity:1;}94.44444444444444%{stroke-opacity:1;}100%{stroke-opacity:0;}}</style></svg>
