<!--?xml version="1.0" encoding="utf-8"?-->
<!-- Generator: Adobe Illustrator 19.0.0, SVG Export Plug-In . SVG Version: 6.00 Build 0)  -->
<svg version="1.1" id="Layer_1" xmlns="http://www.w3.org/2000/svg" xmlns:xlink="http://www.w3.org/1999/xlink" x="0px" y="0px" viewBox="0 0 133.5 131.2" style="" xml:space="preserve">
<style type="text/css">
	.st0{fill:none;stroke:#C6B667;stroke-linecap:round;stroke-linejoin:round;stroke-miterlimit:10;}
</style>
<g id="XMLID_1_">
	<path id="XMLID_521_" class="st0 wgoWyXiY_0" d="M74.9,30.7c-3.6,0-7.9,2.3-7.9,5.8s2.5,6.2,8.1,6.2c5.6,0,8.5-2.6,8.5-5.9
		S79.6,30.7,74.9,30.7"></path>
	<path id="XMLID_528_" class="st0 wgoWyXiY_1" d="M70,41.5c-0.4,0.2-0.6,0.6-0.6,1.1c0,1.7,3.1,2.8,5.2,2.8c2.5,0,6.3-1.1,6.3-3
		c0-0.2-0.1-0.4-0.2-0.6"></path>
	<path id="XMLID_561_" class="st0 wgoWyXiY_2" d="M70.1,44.2c-0.5,0.2-0.8,0.6-0.8,1c0,1.9,3.5,2.4,5.4,2.4c2,0,5.5-0.8,5.5-2.6
		c0-0.2,0-0.3-0.1-0.5"></path>
	<path id="XMLID_602_" class="st0 wgoWyXiY_3" d="M69.5,46.4c-0.1,0.2-0.2,0.5-0.2,0.7c0,0,0,0,0,0.1c0.1,2,3.5,2.6,5.6,2.6
		c2.4,0,5.9-0.5,5.9-2.8c0-0.3-0.1-0.6-0.4-0.9"></path>
</g>
<g id="XMLID_4_">
	<path id="XMLID_661_" class="st0 wgoWyXiY_4" d="M76,56.7c2.2-0.8,7.8-3.5,7.8-5.9c0-0.8-0.8-1.4-1.5-1.5"></path>
	<path id="XMLID_686_" class="st0 wgoWyXiY_5" d="M74.2,61.2c4.8-1.2,12-5,12-9.4c0-1.8-1.4-2.7-3.1-2.7c-0.4,0-0.7,0-1,0.1"></path>
</g>
<g id="XMLID_2_">
	<path id="XMLID_697_" class="st0 wgoWyXiY_6" d="M71.3,56.6c-0.2-0.4-0.6-0.5-1-0.5c-1,0-2.1,0.8-2.1,1.9c0,0.9,0.8,1.8,2,1.8
		c1.1,0,2-0.9,2-1.9c0-0.5-0.2-1-0.7-1.3"></path>
	<path id="XMLID_3_" class="st0 wgoWyXiY_7" d="M58.9,56.8c0,0,2.5-4.7,7.1-5.4"></path>
	<path id="XMLID_772_" class="st0 wgoWyXiY_8" d="M66,51.4c0.1,0,0.1,0,0.2,0c0,0,9,1.1,9,7c0,2.2-1.8,3.9-4.5,3.9c-6,0-6.1-7.8-11.8-5.4"></path>
</g>
<g id="XMLID_5_">
	<path id="XMLID_611_" class="st0 wgoWyXiY_9" d="M69.5,48.5c-0.6,1.1-1.4,2.1-2.4,2.8"></path>
	<path id="XMLID_636_" class="st0 wgoWyXiY_10" d="M80.6,48.4c0.4,0.9,1,1.6,1.9,2.1"></path>
	<path id="XMLID_722_" class="st0 wgoWyXiY_11" d="M59.7,57.2c-1.4,0.9-2.5,2-3.3,3.4"></path>
	<path id="XMLID_1505_" class="st0 wgoWyXiY_12" d="M87.3,53c2.9,2.4,4.6,5.1,4.8,5.5"></path>
	<path id="XMLID_1511_" class="st0 wgoWyXiY_13" d="M93.4,61.7c0.9,1.9,1.6,3.4,1.6,7.3c0,3.1-0.8,4.3-1,5.2"></path>
	<path id="XMLID_1515_" class="st0 wgoWyXiY_14" d="M51.2,81.3c2.3,2.5,2.7,7.6,5.4,8.6"></path>
</g>
<style data-made-with="vivus-instant">.wgoWyXiY_0{stroke-dasharray:46 48;stroke-dashoffset:47;animation:wgoWyXiY_draw 1000ms ease 0ms forwards;}.wgoWyXiY_1{stroke-dasharray:16 18;stroke-dashoffset:17;animation:wgoWyXiY_draw 1000ms ease 142ms forwards;}.wgoWyXiY_2{stroke-dasharray:15 17;stroke-dashoffset:16;animation:wgoWyXiY_draw 1000ms ease 285ms forwards;}.wgoWyXiY_3{stroke-dasharray:16 18;stroke-dashoffset:17;animation:wgoWyXiY_draw 1000ms ease 428ms forwards;}.wgoWyXiY_4{stroke-dasharray:13 15;stroke-dashoffset:14;animation:wgoWyXiY_draw 1000ms ease 571ms forwards;}.wgoWyXiY_5{stroke-dasharray:22 24;stroke-dashoffset:23;animation:wgoWyXiY_draw 1000ms ease 714ms forwards;}.wgoWyXiY_6{stroke-dasharray:12 14;stroke-dashoffset:13;animation:wgoWyXiY_draw 1000ms ease 857ms forwards;}.wgoWyXiY_7{stroke-dasharray:10 12;stroke-dashoffset:11;animation:wgoWyXiY_draw 1000ms ease 1000ms forwards;}.wgoWyXiY_8{stroke-dasharray:34 36;stroke-dashoffset:35;animation:wgoWyXiY_draw 1000ms ease 1142ms forwards;}.wgoWyXiY_9{stroke-dasharray:4 6;stroke-dashoffset:5;animation:wgoWyXiY_draw 1000ms ease 1285ms forwards;}.wgoWyXiY_10{stroke-dasharray:3 5;stroke-dashoffset:4;animation:wgoWyXiY_draw 1000ms ease 1428ms forwards;}.wgoWyXiY_11{stroke-dasharray:5 7;stroke-dashoffset:6;animation:wgoWyXiY_draw 1000ms ease 1571ms forwards;}.wgoWyXiY_12{stroke-dasharray:8 10;stroke-dashoffset:9;animation:wgoWyXiY_draw 1000ms ease 1714ms forwards;}.wgoWyXiY_13{stroke-dasharray:13 15;stroke-dashoffset:14;animation:wgoWyXiY_draw 1000ms ease 1857ms forwards;}.wgoWyXiY_14{stroke-dasharray:11 13;stroke-dashoffset:12;animation:wgoWyXiY_draw 1000ms ease 2000ms forwards;}@keyframes wgoWyXiY_draw{100%{stroke-dashoffset:0;}}@keyframes wgoWyXiY_fade{0%{stroke-opacity:1;}99.05660377358491%{stroke-opacity:1;}100%{stroke-opacity:0;}}</style></svg>
