<!--?xml version="1.0" encoding="utf-8"?-->
<!-- Generator: Adobe Illustrator 19.0.0, SVG Export Plug-In . SVG Version: 6.00 Build 0)  -->
<svg version="1.1" id="Layer_1" xmlns="http://www.w3.org/2000/svg" xmlns:xlink="http://www.w3.org/1999/xlink" x="0px" y="0px" viewBox="0 0 186.4 126.1" style="" xml:space="preserve">
<style type="text/css">
	.st0{fill:none;stroke:#C6B667;stroke-linecap:round;stroke-linejoin:round;stroke-miterlimit:10;}
</style>
<g id="XMLID_7_">
	<g id="XMLID_2_">
		<path id="XMLID_230_" class="st0 GizTswin_0" d="M35.1,52.3c-2.3-1.6-6.7-2.6-10.6-2.7c-2.6,0-5.1,0.3-6.7,1.2"></path>
		<path id="XMLID_235_" class="st0 GizTswin_1" d="M32.3,58.6c5-5.1,11.2-8.3,18.3-8.2c3.2,0.1,8.6,0.9,10.6,3.5"></path>
		<path id="XMLID_240_" class="st0 GizTswin_2" d="M31.2,60.7c-0.2-0.1-0.4-0.1-0.5-0.1c-0.6,0-0.9,0.4-0.9,0.7c0,0.3,0.2,0.6,0.6,0.6
			c0.2,0,0.4,0,0.6-0.1"></path>
		<path id="XMLID_245_" class="st0 GizTswin_3" d="M32.9,60.6c0.8-0.8,2.1-1.3,3.3-1.2c0,0,0.1,0,0.1,0"></path>
		<path id="XMLID_250_" class="st0 GizTswin_4" d="M33.1,61.3c0.7-0.2,1.4-0.4,2.1-0.4c0.1,0,0.3,0,0.4,0"></path>
		<path id="XMLID_255_" class="st0 GizTswin_5" d="M32.1,59.7c-0.1,0-0.2,0.1-0.3,0.1"></path>
		<path id="XMLID_260_" class="st0 GizTswin_6" d="M28.7,60c-0.5-0.3-1.1-0.5-1.7-0.5c-0.2,0-0.4,0-0.7,0"></path>
		<path id="XMLID_265_" class="st0 GizTswin_7" d="M27.8,60.9c-1,0-2.1,0.4-3,1"></path>
		<path id="XMLID_270_" class="st0 GizTswin_8" d="M27.9,62.4c-0.5,0.2-1,0.6-1.3,1.1"></path>
		<path id="XMLID_275_" class="st0 GizTswin_9" d="M29,63.6c-0.1,0.3-0.2,0.6-0.3,0.9"></path>
		<path id="XMLID_280_" class="st0 GizTswin_10" d="M34.9,63.1c4.1,0.5,9.2,2.1,11.2,5.7"></path>
	</g>
	<g id="XMLID_3_">
		<path id="XMLID_5_" class="st0 GizTswin_11" d="M32.9,81.9c-3,1.3-5.6,3.7-7.1,6.5"></path>
		<path id="XMLID_14_" class="st0 GizTswin_12" d="M33.7,74.2c-2.3-1.9-5.5-2.8-8.9-2.9c-4.3-0.1-8.7,1.3-11.4,3.7"></path>
		<path id="XMLID_17_" class="st0 GizTswin_13" d="M35.8,79.3c-0.3-0.3-0.6-0.4-0.8-0.4c-0.5,0-0.9,0.4-0.9,0.8c0,0.3,0.2,0.5,0.8,0.5
			c0.1,0,0.1,0,0.2,0"></path>
		<path id="XMLID_40_" class="st0 GizTswin_14" d="M37.9,77.6c0.6-0.5,1.4-0.8,2.2-0.9"></path>
		<path id="XMLID_47_" class="st0 GizTswin_15" d="M37.6,79c0.7-0.1,1.3-0.1,2-0.1c0.6,0,1.2,0.1,1.8,0.3"></path>
		<path id="XMLID_52_" class="st0 GizTswin_16" d="M37.7,80.5c1.1,0.3,2.3,0.6,3.2,1.3"></path>
		<path id="XMLID_210_" class="st0 GizTswin_17" d="M32.1,78.4c-0.7-0.2-1.5-0.3-2.2-0.4"></path>
		<path id="XMLID_225_" class="st0 GizTswin_18" d="M32.2,79.2c-0.2,0-0.3,0-0.5,0c-1.1,0-2.3,0.4-3.3,0.8"></path>
		<path id="XMLID_295_" class="st0 GizTswin_19" d="M35.8,74.7c3.6-2.9,11.6-4.1,16.3-4c11.6,0.2,21.9,10.2,23,12.3"></path>
	</g>
	<g id="XMLID_13_">
		<path id="XMLID_300_" class="st0 GizTswin_20" d="M73.2,85.7c-0.2-0.2-0.5-0.3-0.8-0.3c-0.6,0-1.1,0.3-1.1,1c0.2,0.3,0.3,0.4,1.1,0.5
			c0.4,0,0.8-0.1,1.1-0.2"></path>
		<path id="XMLID_305_" class="st0 GizTswin_21" d="M75.3,86.3c0.9-0.1,1.8-0.3,2.7-0.3c0.4,0,0.9,0.1,1.3,0.2"></path>
		<path id="XMLID_310_" class="st0 GizTswin_22" d="M75.4,87.3c1,0,2.2,0.1,3,0.7"></path>
		<path id="XMLID_315_" class="st0 GizTswin_23" d="M70.5,84.7c-0.8-0.4-1.5-0.8-2.4-0.9"></path>
		<path id="XMLID_320_" class="st0 GizTswin_24" d="M69.4,85.5c-1.3,0-2.9,0.2-4,1"></path>
		<path id="XMLID_325_" class="st0 GizTswin_25" d="M69.4,87c-1.6,0.5-3.1,2.2-3.3,2.8"></path>
		<path id="XMLID_330_" class="st0 GizTswin_26" d="M75.4,84.8c2.4-2.3,7.2-4.4,8.9-4.5"></path>
	</g>
	<g id="XMLID_15_">
		<path id="XMLID_271_" class="st0 GizTswin_27" d="M95.4,96.1c-0.1-0.2-0.3-0.3-0.5-0.3c-0.4,0-0.9,0.3-1,0.6c0.1,0.4,0.6,0.6,1,0.6
			c0.1,0,0.3,0,0.4-0.1"></path>
		<path id="XMLID_282_" class="st0 GizTswin_28" d="M96.2,94.1c0.8-0.5,1.6-0.9,2.4-1.2"></path>
		<path id="XMLID_289_" class="st0 GizTswin_29" d="M97.1,95.5c1.1-0.7,3.9-1.2,4.2-1.2c0.1,0,0.2,0,0.3,0"></path>
		<path id="XMLID_350_" class="st0 GizTswin_30" d="M97.8,96.3c2.4,0.1,2.7,0.4,2.9,0.5"></path>
		<path id="XMLID_355_" class="st0 GizTswin_31" d="M97.7,97.2c0.5,0.2,1,0.4,1.6,0.5"></path>
		<path id="XMLID_360_" class="st0 GizTswin_32" d="M92.2,95.1c-1.1-0.4-2.1-0.6-3.3-0.7"></path>
		<path id="XMLID_365_" class="st0 GizTswin_33" d="M91.5,96.6c-1.2,0-3.5,0.3-4,1"></path>
		<path id="XMLID_370_" class="st0 GizTswin_34" d="M92.2,97.6c-0.5,0.2-2.1,0.8-2.3,1.2"></path>
	</g>
	<path id="XMLID_499_" class="st0 GizTswin_35" d="M113.2,49c-0.5,0.2-1.1,0.5-1.5,0.9"></path>
	<path id="XMLID_504_" class="st0 GizTswin_36" d="M121.8,48.7c-1.1-0.5-2.3-0.7-3.6-0.7c-1.2,0-2.4,0.1-3.5,0.4"></path>
	<path id="XMLID_508_" class="st0 GizTswin_37" d="M144.1,49.4c-1.2-0.5-2.4-0.8-3.7-0.8c-2.2,0-4.5,0.7-6.5,1.7"></path>
	<path id="XMLID_514_" class="st0 GizTswin_38" d="M159.1,49.8c-0.6-0.4-1.5-0.6-2.4-0.6c-1.4,0-2.9,0.4-3.8,1.1"></path>
	<path id="XMLID_515_" class="st0 GizTswin_39" d="M140,56.7c1.6-1.6,6.7-3.4,9.1-3.4c2.4,0,6.2,1,7.9,2.8"></path>
	<path id="XMLID_523_" class="st0 GizTswin_40" d="M158.1,57.3c0.1,0.1,0.2,0.2,0.3,0.3"></path>
	<path id="XMLID_525_" class="st0 GizTswin_41" d="M122.2,53.9c-2,0.6-3.7,1.5-5.4,3.2"></path>
	<path id="XMLID_539_" class="st0 GizTswin_42" d="M131.9,52.9c-0.4-0.1-2.4-0.2-3.2-0.3c-1.4,0-3.7,0.2-4.9,0.8"></path>
	<path id="XMLID_542_" class="st0 GizTswin_43" d="M137.7,55c-0.8-0.7-3.2-1.4-4-1.6"></path>
	<path id="XMLID_549_" class="st0 GizTswin_44" d="M139.3,58.4c-0.2-0.2-0.4-0.3-0.8-0.3c-0.5,0-0.9,0.1-1.1,0.6c0,0.1,0,0.2,0,0.4
		c0.1,0.1,0.2,0.4,1.1,0.4c0.3,0,1-0.1,1.2-0.4"></path>
	<path id="XMLID_554_" class="st0 GizTswin_45" d="M140.9,58.4c0.8-0.2,1.6-0.3,2.3-0.3c0.2,0,0.4,0,0.7,0"></path>
	<path id="XMLID_559_" class="st0 GizTswin_46" d="M141.2,59.4c0.1,0,0.2,0,0.2,0c0.6,0,1.5,0.1,2,0.5"></path>
	<path id="XMLID_564_" class="st0 GizTswin_47" d="M141.4,60.6c0.4,0.2,0.7,0.4,1,0.8"></path>
	<path id="XMLID_569_" class="st0 GizTswin_48" d="M136.4,61.3c-0.7,0.5-1.4,1.1-1.6,2"></path>
	<path id="XMLID_574_" class="st0 GizTswin_49" d="M135.9,59.2c-0.7,0.3-2.1,0.9-2.6,1.5"></path>
	<path id="XMLID_579_" class="st0 GizTswin_50" d="M135.7,58.1c-0.4-0.2-1.3-0.3-1.6-0.3c-0.1,0-0.1,0-0.2,0"></path>
	<g id="XMLID_103_">
		<path id="XMLID_517_" class="st0 GizTswin_51" d="M160.1,57.9c2-1.7,5-3.2,7.8-3.2c0.2,0,0.4,0,0.6,0"></path>
		<path id="XMLID_584_" class="st0 GizTswin_52" d="M160.8,62.8c-0.2-0.1-0.5-0.2-0.8-0.2c-0.6,0-0.9,0.3-0.9,0.7c0,0,0,0.1,0,0.1
			c0.1,0.2,0.2,0.5,0.9,0.5c0.2,0,0.5,0,0.6-0.1"></path>
		<path id="XMLID_589_" class="st0 GizTswin_53" d="M160.4,59.8c-0.2,0.3-0.3,0.6-0.4,0.9"></path>
		<path id="XMLID_594_" class="st0 GizTswin_54" d="M161.3,61.7c0.3,0,0.5-0.1,0.8-0.1c0.5,0,1.6,0.1,2.1,0.3"></path>
		<path id="XMLID_599_" class="st0 GizTswin_55" d="M162.5,62.8c0.6,0.2,1.2,0.5,1.7,0.8"></path>
		<path id="XMLID_604_" class="st0 GizTswin_56" d="M158.4,61.2c-0.6-0.7-1.5-0.9-2.3-1.1"></path>
		<path id="XMLID_609_" class="st0 GizTswin_57" d="M157.8,62.1c-0.5-0.1-1-0.2-1.6-0.2c-0.6,0-1.6,0.1-2.5,0.4"></path>
		<path id="XMLID_614_" class="st0 GizTswin_58" d="M157.3,63.8c-0.2,0-0.3,0-0.5,0c-4.3-0.1-11.1,2.2-13.6,5.5"></path>
		<path id="XMLID_619_" class="st0 GizTswin_59" d="M164.8,64.9c2.3,0.1,7.1,1.3,8.8,4.6"></path>
	</g>
	<path id="XMLID_624_" class="st0 GizTswin_60" d="M135.6,76.9c2.3-1.1,5.4-1.3,7.9-1.3c3.1,0.1,7.5,0.8,9.7,3"></path>
	<g id="XMLID_100_">
		<path id="XMLID_375_" class="st0 GizTswin_61" d="M135.4,96.4c0-0.2-0.2-0.2-0.4-0.2c-0.4,0-0.9,0.3-0.9,0.7c0.1,0.1,0.1,0.1,0.2,0.2
			c0.1,0,0.2,0.1,0.4,0.1c0.4,0,0.9-0.1,0.9-0.5c0-0.1,0-0.1,0-0.2"></path>
		<path id="XMLID_380_" class="st0 GizTswin_62" d="M135.8,94.6c1.7-2.2,8-3.4,11.1-3.3c0.1,0,0.3,0,0.3,0.1"></path>
		<path id="XMLID_385_" class="st0 GizTswin_63" d="M137.3,95.1c0.6-0.4,2.6-0.6,3.3-0.6c0.4,0,0.7,0,1,0.1"></path>
		<path id="XMLID_390_" class="st0 GizTswin_64" d="M137.5,95.9c0.5-0.2,1.1-0.3,1.7-0.2c0.5,0,1.1,0.1,1.6,0.3"></path>
		<path id="XMLID_395_" class="st0 GizTswin_65" d="M137.5,96.6c1.8,0.3,2.8,1,3,1.2"></path>
		<path id="XMLID_400_" class="st0 GizTswin_66" d="M133.2,95.3c-0.6-0.4-1.4-0.8-2.1-1"></path>
		<path id="XMLID_405_" class="st0 GizTswin_67" d="M132.6,96.3c-0.6-0.1-1.3-0.1-1.9-0.2c-0.1,0-0.2,0-0.3,0c0,0,0,0-0.1,0c-0.2,0-0.3,0-0.5,0
			c-0.1,0-0.2,0-0.3,0"></path>
		<path id="XMLID_410_" class="st0 GizTswin_68" d="M132.4,97.5c-1.2,0-2.8,1-3.1,1.4"></path>
		<path id="XMLID_744_" class="st0 GizTswin_69" d="M136.1,93.6c-2.1-2.8-4.8-3.1-5.3-3.3"></path>
	</g>
</g>
<g id="XMLID_1_">
	<g id="XMLID_8_">
		<path id="XMLID_285_" class="st0 GizTswin_70" d="M47.8,68.4c1.1-3.6,6.6-7.5,9.8-8.1"></path>
		<path id="XMLID_290_" class="st0 GizTswin_71" d="M51.6,68.2c0.9-2.3,4.2-5.8,6.2-6.5"></path>
		<path id="XMLID_415_" class="st0 GizTswin_72" d="M76.4,61c2.5,2.6,8.5,10.6,9.2,18.3"></path>
		<path id="XMLID_420_" class="st0 GizTswin_73" d="M80.8,63.1c1.9,2.4,3.2,5.3,4,8.2"></path>
	</g>
	<path id="XMLID_839_" class="st0 GizTswin_74" d="M57.7,70c-0.2-6.1,3.8-26.3,26.4-25.9c18.3,0.3,30.3,16.9,30.3,16.9"></path>
	<g id="XMLID_4_">
		<path id="XMLID_425_" class="st0 GizTswin_75" d="M89.7,64.6C89.7,64.5,89.7,64.5,89.7,64.6c-0.2,1-0.3,2-0.3,3.1c-0.2,9.4,5.3,16.7,11.9,19.6
			"></path>
		<path id="XMLID_430_" class="st0 GizTswin_76" d="M105.1,84.3c-1.2,0.5-3.1,2.2-3.8,4.2"></path>
		<path id="XMLID_435_" class="st0 GizTswin_77" d="M103,87.8c2.4,1,5.9,5.6,6,5.7"></path>
		<path id="XMLID_440_" class="st0 GizTswin_78" d="M107.5,89c0.6,0.3,3.5,3.1,3.4,4.5c0,0.1,0,0.3,0,0.4c0,0-0.1,0.1-0.1,0.1
			c-0.1,0-3.5-3.9-3.6-4"></path>
		<path id="XMLID_445_" class="st0 GizTswin_79" d="M109.2,87.6c0.2,0.1,3.9,3.4,3.8,4.8c0,0,0,0.1,0,0.1c0,0,0,0-0.1,0.1c-1.5,0-3.1-3.4-4.9-4"></path>
		<path id="XMLID_450_" class="st0 GizTswin_80" d="M111.2,87.3c0.8,0.6,2.3,2,2.3,3c0,0,0,0.1,0,0.1c0,0.1,0,0.1-0.1,0.2
			c-0.6-0.1-2.1-1.7-2.9-2.1"></path>
		<path id="XMLID_424_" class="st0 GizTswin_81" d="M98,74.4c3.1,2.4,5,10.6,12,12.6"></path>
		<path id="XMLID_432_" class="st0 GizTswin_82" d="M98.4,74.4c0-0.3,0-0.5,0-0.8c0-1.3,0.8-4.9,1.8-6.9"></path>
		<path id="XMLID_819_" class="st0 GizTswin_83" d="M92.2,81.3c-0.9-0.4-2.6-0.5-3.5-0.6c-0.8,0-2.2,0-2.8,0.5c0,0,0,0.1,0,0.1
			c0.9,1,4.3,0.3,6.6,1.3"></path>
		<path id="XMLID_824_" class="st0 GizTswin_84" d="M91.6,82.8c-0.7-0.2-1.6-0.2-2.7-0.2c-0.7,0-2.8,0.1-3.2,0.5c0,0,0,0,0,0.1
			c0,0.1,0.1,0.1,0.1,0.2c0.3,0.1,0.5,0.2,1.2,0.3c0.7,0,1.1-0.1,2.2-0.1c1.1,0,2.9,0.2,3.8,0.7"></path>
		<path id="XMLID_829_" class="st0 GizTswin_85" d="M90.6,84c-0.9,0-2.7,0.1-3.5,0.5c0,0,0,0,0,0c0.3,0.2,8.6,0.4,12.2,2.2"></path>
		<path id="XMLID_834_" class="st0 GizTswin_86" d="M92.9,80.2c-0.4-0.2-2-0.5-3-0.5c-0.6,0-1.7,0.1-2.1,0.4"></path>
	</g>
	<g id="XMLID_6_">
		<path id="XMLID_439_" class="st0 GizTswin_87" d="M102.3,69.3c-0.2-0.5-0.2-1.1-0.2-1.7c0,0,0,0,0-0.1c0.1-4,6.3-4.8,8.9-4.8
			c0.9,0,2.3,0.2,3,0.7"></path>
		<path id="XMLID_470_" class="st0 GizTswin_88" d="M102.2,79.2c0-0.1-2-4-2-6.6c0-0.7,7.1-8.5,13.8-8.4c0.3,0,1,0,1.3,0.2"></path>
		<path id="XMLID_475_" class="st0 GizTswin_89" d="M113.6,77.2c-0.4-1.1-0.4-2.7-0.4-2.7c0,0,0-0.1,0-0.1c0.2-0.5,1.4-1,1.9-1"></path>
		<path id="XMLID_480_" class="st0 GizTswin_90" d="M109.5,84.1C109.5,84.1,109.5,84.1,109.5,84.1c-0.1-0.5-0.2-1.1-0.2-1.5c0-1.2,1-1,2-1.4"></path>
		<path id="XMLID_478_" class="st0 GizTswin_91" d="M106.4,79.7c0.1,0.3,0.3,0.5,0.6,0.5c1,0,1.7-1.3,2.8-1.3c0.2,0,0.3,0,0.5,0.1"></path>
		<path id="XMLID_485_" class="st0 GizTswin_92" d="M108.6,76.8c-0.1,0-0.1,0-0.2,0"></path>
		<path id="XMLID_492_" class="st0 GizTswin_93" d="M107,78.1c0,0.1,0,0.1-0.1,0.2"></path>
		<path id="XMLID_629_" class="st0 GizTswin_94" d="M104,75.2c0.1-1.2,1.8-2.9,3-3.5"></path>
		<path id="XMLID_634_" class="st0 GizTswin_95" d="M104,75.3c-0.8,0.3-1.4,1.5-1.4,2.2c0,0.1,0,0.3,0.1,0.4"></path>
		<path id="XMLID_639_" class="st0 GizTswin_96" d="M105.3,73.8c-0.7,1,0.4,2.5-1.7,2.8"></path>
		<path id="XMLID_644_" class="st0 GizTswin_97" d="M104.5,73.4c-1.2,0.6-1.7,0.7-1.8,1.5c0,0,0,0,0,0.1c0,0.2,0.1,0.5,0.1,0.7"></path>
		<path id="XMLID_649_" class="st0 GizTswin_98" d="M115.3,62.6c0.2-0.7,1.1-1.4,2.3-1.4c0.5,0,1.4,0.1,1.9,0.4"></path>
		<path id="XMLID_654_" class="st0 GizTswin_99" d="M118.3,63.5c0.9,0.7,8,2.5,9.6,8.6"></path>
		<path id="XMLID_659_" class="st0 GizTswin_100" d="M120.8,68.8c0,0.1,3.1,10.3,6,14"></path>
		<path id="XMLID_664_" class="st0 GizTswin_101" d="M119,67.6c2.1,7.8,5.9,14.1,6.9,15.4"></path>
		<path id="XMLID_669_" class="st0 GizTswin_102" d="M119.3,71.8c0.7,2.5,3.6,11.2,6.2,12.3"></path>
		<path id="XMLID_674_" class="st0 GizTswin_103" d="M119.6,77.7c1.7,2.5,2,4.7,3.8,6"></path>
		<path id="XMLID_679_" class="st0 GizTswin_104" d="M118.7,74.4c0.2,0.6,0.2,1.3,0.2,2c0,1.5-0.3,2.2-1,3.6"></path>
		<path id="XMLID_684_" class="st0 GizTswin_105" d="M111.3,85.6c1.2,0,2.7-0.8,3.5-1.5"></path>
		<path id="XMLID_689_" class="st0 GizTswin_106" d="M117.9,81c2.1,2.2,5,3.3,5.6,3.6"></path>
		<path id="XMLID_694_" class="st0 GizTswin_107" d="M116,82.6c1.4,0.7,3.5,2.4,8.9,3.3"></path>
		<path id="XMLID_699_" class="st0 GizTswin_108" d="M114,86.6c1.9,0.6,6.8,0.8,8.9,0.8c0.3,0,0.6,0,0.9-0.1"></path>
		<path id="XMLID_704_" class="st0 GizTswin_109" d="M124,87.4c0.4,0.6,0.9,1.2,1.5,1.7"></path>
		<path id="XMLID_709_" class="st0 GizTswin_110" d="M112.7,87.7c0.8,0.2,2,0.7,4.6,0.7c0.9,0,5.3-0.1,6-0.2"></path>
		<path id="XMLID_714_" class="st0 GizTswin_111" d="M114.1,89.2c1,0,2.1,0.2,3.1,0.2c2,0,6.4-0.8,6.5-0.8"></path>
		<path id="XMLID_719_" class="st0 GizTswin_112" d="M117.1,90.7c3.3,0.1,6.4-0.8,7.4-1.3"></path>
		<path id="XMLID_724_" class="st0 GizTswin_113" d="M115.4,91.8c0.5-0.2,1-0.4,1.5-0.4c0.1,0,0.1,0,0.2,0"></path>
		<path id="XMLID_729_" class="st0 GizTswin_114" d="M126.2,87.1c0.5,0.7,1,1.4,1.7,2"></path>
		<path id="XMLID_734_" class="st0 GizTswin_115" d="M126.7,85.7c0.6,1.2,2.2,3.8,2.5,4"></path>
		<path id="XMLID_739_" class="st0 GizTswin_116" d="M127.1,85.8c0.3,0.4,2.5,3.7,3.3,4.2"></path>
		<path id="XMLID_749_" class="st0 GizTswin_117" d="M127.3,85.7c1.2,1.2,2.3,2.4,3.6,3.5"></path>
		<path id="XMLID_754_" class="st0 GizTswin_118" d="M127.5,85.4c0.6,0.7,1.3,1.2,2,1.9c1.1,1.1,2.1,2.1,3.3,3"></path>
		<path id="XMLID_759_" class="st0 GizTswin_119" d="M128.1,85.4c2.1,2.1,7.8,5.7,9,7.6"></path>
		<path id="XMLID_764_" class="st0 GizTswin_120" d="M128.2,84.5c3.1,1,5.6,3.8,7.7,6.2"></path>
		<path id="XMLID_769_" class="st0 GizTswin_121" d="M129.1,83.5c2.9,0.2,9.3,9,9.4,9.1"></path>
		<path id="XMLID_774_" class="st0 GizTswin_122" d="M131.8,83.8c0.4,0.4,5.3,3.5,6.4,6.8"></path>
		<path id="XMLID_779_" class="st0 GizTswin_123" d="M129.6,82.5c0.1-0.3,0.6-0.4,0.9-0.4c2.5,0,5.8,2.6,6.2,3.2"></path>
		<path id="XMLID_784_" class="st0 GizTswin_124" d="M129.6,81.7c0-0.6,1-0.8,1.7-0.8c0,0,0.1,0,0.1,0c3,0.1,7.1,2.4,8.2,5.2"></path>
		<path id="XMLID_789_" class="st0 GizTswin_125" d="M129.6,81.1c0,0,0-0.1,0-0.1c0-0.9,1.5-1.2,2.5-1.2c0.8,0,2.1,0.1,2.8,0.6"></path>
		<path id="XMLID_794_" class="st0 GizTswin_126" d="M130.6,79.2c0.5-0.1,1-0.2,1.5-0.1c6.5,0.1,11.2,5.9,11.1,10.8c0,0.4,0,0.8-0.1,1.1"></path>
		<path id="XMLID_799_" class="st0 GizTswin_127" d="M121.9,62.1c3.2,0.6,6.2,3.5,7.1,5.4"></path>
		<path id="XMLID_804_" class="st0 GizTswin_128" d="M116.9,63.2c0.5-0.1,1-0.2,1.6-0.2c5.5,0.1,13,5.5,12.9,12.1c0,1-0.3,3.1-1.1,3.7"></path>
		<path id="XMLID_809_" class="st0 GizTswin_129" d="M116.4,64.1c5.1,1,10.7,6.6,11.9,11"></path>
		<path id="XMLID_814_" class="st0 GizTswin_130" d="M119.6,66.7c4.9,2.1,7.1,7.8,7.1,10.3c0,0.1,0,0.1,0,0.2"></path>
	</g>
</g>
<style data-made-with="vivus-instant">.GizTswin_0{stroke-dasharray:18 20;stroke-dashoffset:19;animation:GizTswin_draw 1500ms ease 0ms forwards;}.GizTswin_1{stroke-dasharray:33 35;stroke-dashoffset:34;animation:GizTswin_draw 1500ms ease 19ms forwards;}.GizTswin_2{stroke-dasharray:4 6;stroke-dashoffset:5;animation:GizTswin_draw 1500ms ease 38ms forwards;}.GizTswin_3{stroke-dasharray:4 6;stroke-dashoffset:5;animation:GizTswin_draw 1500ms ease 57ms forwards;}.GizTswin_4{stroke-dasharray:3 5;stroke-dashoffset:4;animation:GizTswin_draw 1500ms ease 76ms forwards;}.GizTswin_5{stroke-dasharray:1 3;stroke-dashoffset:2;animation:GizTswin_draw 1500ms ease 96ms forwards;}.GizTswin_6{stroke-dasharray:3 5;stroke-dashoffset:4;animation:GizTswin_draw 1500ms ease 115ms forwards;}.GizTswin_7{stroke-dasharray:4 6;stroke-dashoffset:5;animation:GizTswin_draw 1500ms ease 134ms forwards;}.GizTswin_8{stroke-dasharray:2 4;stroke-dashoffset:3;animation:GizTswin_draw 1500ms ease 153ms forwards;}.GizTswin_9{stroke-dasharray:1 3;stroke-dashoffset:2;animation:GizTswin_draw 1500ms ease 173ms forwards;}.GizTswin_10{stroke-dasharray:14 16;stroke-dashoffset:15;animation:GizTswin_draw 1500ms ease 192ms forwards;}.GizTswin_11{stroke-dasharray:10 12;stroke-dashoffset:11;animation:GizTswin_draw 1500ms ease 211ms forwards;}.GizTswin_12{stroke-dasharray:22 24;stroke-dashoffset:23;animation:GizTswin_draw 1500ms ease 230ms forwards;}.GizTswin_13{stroke-dasharray:4 6;stroke-dashoffset:5;animation:GizTswin_draw 1500ms ease 250ms forwards;}.GizTswin_14{stroke-dasharray:3 5;stroke-dashoffset:4;animation:GizTswin_draw 1500ms ease 269ms forwards;}.GizTswin_15{stroke-dasharray:4 6;stroke-dashoffset:5;animation:GizTswin_draw 1500ms ease 288ms forwards;}.GizTswin_16{stroke-dasharray:4 6;stroke-dashoffset:5;animation:GizTswin_draw 1500ms ease 307ms forwards;}.GizTswin_17{stroke-dasharray:3 5;stroke-dashoffset:4;animation:GizTswin_draw 1500ms ease 326ms forwards;}.GizTswin_18{stroke-dasharray:4 6;stroke-dashoffset:5;animation:GizTswin_draw 1500ms ease 346ms forwards;}.GizTswin_19{stroke-dasharray:44 46;stroke-dashoffset:45;animation:GizTswin_draw 1500ms ease 365ms forwards;}.GizTswin_20{stroke-dasharray:5 7;stroke-dashoffset:6;animation:GizTswin_draw 1500ms ease 384ms forwards;}.GizTswin_21{stroke-dasharray:5 7;stroke-dashoffset:6;animation:GizTswin_draw 1500ms ease 403ms forwards;}.GizTswin_22{stroke-dasharray:4 6;stroke-dashoffset:5;animation:GizTswin_draw 1500ms ease 423ms forwards;}.GizTswin_23{stroke-dasharray:3 5;stroke-dashoffset:4;animation:GizTswin_draw 1500ms ease 442ms forwards;}.GizTswin_24{stroke-dasharray:5 7;stroke-dashoffset:6;animation:GizTswin_draw 1500ms ease 461ms forwards;}.GizTswin_25{stroke-dasharray:5 7;stroke-dashoffset:6;animation:GizTswin_draw 1500ms ease 480ms forwards;}.GizTswin_26{stroke-dasharray:11 13;stroke-dashoffset:12;animation:GizTswin_draw 1500ms ease 500ms forwards;}.GizTswin_27{stroke-dasharray:4 6;stroke-dashoffset:5;animation:GizTswin_draw 1500ms ease 519ms forwards;}.GizTswin_28{stroke-dasharray:3 5;stroke-dashoffset:4;animation:GizTswin_draw 1500ms ease 538ms forwards;}.GizTswin_29{stroke-dasharray:5 7;stroke-dashoffset:6;animation:GizTswin_draw 1500ms ease 557ms forwards;}.GizTswin_30{stroke-dasharray:3 5;stroke-dashoffset:4;animation:GizTswin_draw 1500ms ease 576ms forwards;}.GizTswin_31{stroke-dasharray:2 4;stroke-dashoffset:3;animation:GizTswin_draw 1500ms ease 596ms forwards;}.GizTswin_32{stroke-dasharray:4 6;stroke-dashoffset:5;animation:GizTswin_draw 1500ms ease 615ms forwards;}.GizTswin_33{stroke-dasharray:5 7;stroke-dashoffset:6;animation:GizTswin_draw 1500ms ease 634ms forwards;}.GizTswin_34{stroke-dasharray:3 5;stroke-dashoffset:4;animation:GizTswin_draw 1500ms ease 653ms forwards;}.GizTswin_35{stroke-dasharray:2 4;stroke-dashoffset:3;animation:GizTswin_draw 1500ms ease 673ms forwards;}.GizTswin_36{stroke-dasharray:8 10;stroke-dashoffset:9;animation:GizTswin_draw 1500ms ease 692ms forwards;}.GizTswin_37{stroke-dasharray:11 13;stroke-dashoffset:12;animation:GizTswin_draw 1500ms ease 711ms forwards;}.GizTswin_38{stroke-dasharray:7 9;stroke-dashoffset:8;animation:GizTswin_draw 1500ms ease 730ms forwards;}.GizTswin_39{stroke-dasharray:19 21;stroke-dashoffset:20;animation:GizTswin_draw 1500ms ease 750ms forwards;}.GizTswin_40{stroke-dasharray:1 3;stroke-dashoffset:2;animation:GizTswin_draw 1500ms ease 769ms forwards;}.GizTswin_41{stroke-dasharray:7 9;stroke-dashoffset:8;animation:GizTswin_draw 1500ms ease 788ms forwards;}.GizTswin_42{stroke-dasharray:9 11;stroke-dashoffset:10;animation:GizTswin_draw 1500ms ease 807ms forwards;}.GizTswin_43{stroke-dasharray:5 7;stroke-dashoffset:6;animation:GizTswin_draw 1500ms ease 826ms forwards;}.GizTswin_44{stroke-dasharray:6 8;stroke-dashoffset:7;animation:GizTswin_draw 1500ms ease 846ms forwards;}.GizTswin_45{stroke-dasharray:4 6;stroke-dashoffset:5;animation:GizTswin_draw 1500ms ease 865ms forwards;}.GizTswin_46{stroke-dasharray:3 5;stroke-dashoffset:4;animation:GizTswin_draw 1500ms ease 884ms forwards;}.GizTswin_47{stroke-dasharray:2 4;stroke-dashoffset:3;animation:GizTswin_draw 1500ms ease 903ms forwards;}.GizTswin_48{stroke-dasharray:3 5;stroke-dashoffset:4;animation:GizTswin_draw 1500ms ease 923ms forwards;}.GizTswin_49{stroke-dasharray:4 6;stroke-dashoffset:5;animation:GizTswin_draw 1500ms ease 942ms forwards;}.GizTswin_50{stroke-dasharray:2 4;stroke-dashoffset:3;animation:GizTswin_draw 1500ms ease 961ms forwards;}.GizTswin_51{stroke-dasharray:10 12;stroke-dashoffset:11;animation:GizTswin_draw 1500ms ease 980ms forwards;}.GizTswin_52{stroke-dasharray:4 6;stroke-dashoffset:5;animation:GizTswin_draw 1500ms ease 1000ms forwards;}.GizTswin_53{stroke-dasharray:1 3;stroke-dashoffset:2;animation:GizTswin_draw 1500ms ease 1019ms forwards;}.GizTswin_54{stroke-dasharray:3 5;stroke-dashoffset:4;animation:GizTswin_draw 1500ms ease 1038ms forwards;}.GizTswin_55{stroke-dasharray:2 4;stroke-dashoffset:3;animation:GizTswin_draw 1500ms ease 1057ms forwards;}.GizTswin_56{stroke-dasharray:3 5;stroke-dashoffset:4;animation:GizTswin_draw 1500ms ease 1076ms forwards;}.GizTswin_57{stroke-dasharray:5 7;stroke-dashoffset:6;animation:GizTswin_draw 1500ms ease 1096ms forwards;}.GizTswin_58{stroke-dasharray:16 18;stroke-dashoffset:17;animation:GizTswin_draw 1500ms ease 1115ms forwards;}.GizTswin_59{stroke-dasharray:11 13;stroke-dashoffset:12;animation:GizTswin_draw 1500ms ease 1134ms forwards;}.GizTswin_60{stroke-dasharray:19 21;stroke-dashoffset:20;animation:GizTswin_draw 1500ms ease 1153ms forwards;}.GizTswin_61{stroke-dasharray:4 6;stroke-dashoffset:5;animation:GizTswin_draw 1500ms ease 1173ms forwards;}.GizTswin_62{stroke-dasharray:13 15;stroke-dashoffset:14;animation:GizTswin_draw 1500ms ease 1192ms forwards;}.GizTswin_63{stroke-dasharray:5 7;stroke-dashoffset:6;animation:GizTswin_draw 1500ms ease 1211ms forwards;}.GizTswin_64{stroke-dasharray:4 6;stroke-dashoffset:5;animation:GizTswin_draw 1500ms ease 1230ms forwards;}.GizTswin_65{stroke-dasharray:4 6;stroke-dashoffset:5;animation:GizTswin_draw 1500ms ease 1250ms forwards;}.GizTswin_66{stroke-dasharray:3 5;stroke-dashoffset:4;animation:GizTswin_draw 1500ms ease 1269ms forwards;}.GizTswin_67{stroke-dasharray:4 6;stroke-dashoffset:5;animation:GizTswin_draw 1500ms ease 1288ms forwards;}.GizTswin_68{stroke-dasharray:4 6;stroke-dashoffset:5;animation:GizTswin_draw 1500ms ease 1307ms forwards;}.GizTswin_69{stroke-dasharray:7 9;stroke-dashoffset:8;animation:GizTswin_draw 1500ms ease 1326ms forwards;}.GizTswin_70{stroke-dasharray:14 16;stroke-dashoffset:15;animation:GizTswin_draw 1500ms ease 1346ms forwards;}.GizTswin_71{stroke-dasharray:10 12;stroke-dashoffset:11;animation:GizTswin_draw 1500ms ease 1365ms forwards;}.GizTswin_72{stroke-dasharray:21 23;stroke-dashoffset:22;animation:GizTswin_draw 1500ms ease 1384ms forwards;}.GizTswin_73{stroke-dasharray:10 12;stroke-dashoffset:11;animation:GizTswin_draw 1500ms ease 1403ms forwards;}.GizTswin_74{stroke-dasharray:78 80;stroke-dashoffset:79;animation:GizTswin_draw 1500ms ease 1423ms forwards;}.GizTswin_75{stroke-dasharray:28 30;stroke-dashoffset:29;animation:GizTswin_draw 1500ms ease 1442ms forwards;}.GizTswin_76{stroke-dasharray:6 8;stroke-dashoffset:7;animation:GizTswin_draw 1500ms ease 1461ms forwards;}.GizTswin_77{stroke-dasharray:9 11;stroke-dashoffset:10;animation:GizTswin_draw 1500ms ease 1480ms forwards;}.GizTswin_78{stroke-dasharray:12 14;stroke-dashoffset:13;animation:GizTswin_draw 1500ms ease 1500ms forwards;}.GizTswin_79{stroke-dasharray:13 15;stroke-dashoffset:14;animation:GizTswin_draw 1500ms ease 1519ms forwards;}.GizTswin_80{stroke-dasharray:8 10;stroke-dashoffset:9;animation:GizTswin_draw 1500ms ease 1538ms forwards;}.GizTswin_81{stroke-dasharray:18 20;stroke-dashoffset:19;animation:GizTswin_draw 1500ms ease 1557ms forwards;}.GizTswin_82{stroke-dasharray:8 10;stroke-dashoffset:9;animation:GizTswin_draw 1500ms ease 1576ms forwards;}.GizTswin_83{stroke-dasharray:14 16;stroke-dashoffset:15;animation:GizTswin_draw 1500ms ease 1596ms forwards;}.GizTswin_84{stroke-dasharray:14 16;stroke-dashoffset:15;animation:GizTswin_draw 1500ms ease 1615ms forwards;}.GizTswin_85{stroke-dasharray:17 19;stroke-dashoffset:18;animation:GizTswin_draw 1500ms ease 1634ms forwards;}.GizTswin_86{stroke-dasharray:6 8;stroke-dashoffset:7;animation:GizTswin_draw 1500ms ease 1653ms forwards;}.GizTswin_87{stroke-dasharray:17 19;stroke-dashoffset:18;animation:GizTswin_draw 1500ms ease 1673ms forwards;}.GizTswin_88{stroke-dasharray:25 27;stroke-dashoffset:26;animation:GizTswin_draw 1500ms ease 1692ms forwards;}.GizTswin_89{stroke-dasharray:6 8;stroke-dashoffset:7;animation:GizTswin_draw 1500ms ease 1711ms forwards;}.GizTswin_90{stroke-dasharray:5 7;stroke-dashoffset:6;animation:GizTswin_draw 1500ms ease 1730ms forwards;}.GizTswin_91{stroke-dasharray:5 7;stroke-dashoffset:6;animation:GizTswin_draw 1500ms ease 1750ms forwards;}.GizTswin_92{stroke-dasharray:1 3;stroke-dashoffset:2;animation:GizTswin_draw 1500ms ease 1769ms forwards;}.GizTswin_93{stroke-dasharray:1 3;stroke-dashoffset:2;animation:GizTswin_draw 1500ms ease 1788ms forwards;}.GizTswin_94{stroke-dasharray:5 7;stroke-dashoffset:6;animation:GizTswin_draw 1500ms ease 1807ms forwards;}.GizTswin_95{stroke-dasharray:4 6;stroke-dashoffset:5;animation:GizTswin_draw 1500ms ease 1826ms forwards;}.GizTswin_96{stroke-dasharray:4 6;stroke-dashoffset:5;animation:GizTswin_draw 1500ms ease 1846ms forwards;}.GizTswin_97{stroke-dasharray:4 6;stroke-dashoffset:5;animation:GizTswin_draw 1500ms ease 1865ms forwards;}.GizTswin_98{stroke-dasharray:5 7;stroke-dashoffset:6;animation:GizTswin_draw 1500ms ease 1884ms forwards;}.GizTswin_99{stroke-dasharray:14 16;stroke-dashoffset:15;animation:GizTswin_draw 1500ms ease 1903ms forwards;}.GizTswin_100{stroke-dasharray:16 18;stroke-dashoffset:17;animation:GizTswin_draw 1500ms ease 1923ms forwards;}.GizTswin_101{stroke-dasharray:17 19;stroke-dashoffset:18;animation:GizTswin_draw 1500ms ease 1942ms forwards;}.GizTswin_102{stroke-dasharray:15 17;stroke-dashoffset:16;animation:GizTswin_draw 1500ms ease 1961ms forwards;}.GizTswin_103{stroke-dasharray:8 10;stroke-dashoffset:9;animation:GizTswin_draw 1500ms ease 1980ms forwards;}.GizTswin_104{stroke-dasharray:6 8;stroke-dashoffset:7;animation:GizTswin_draw 1500ms ease 2000ms forwards;}.GizTswin_105{stroke-dasharray:4 6;stroke-dashoffset:5;animation:GizTswin_draw 1500ms ease 2019ms forwards;}.GizTswin_106{stroke-dasharray:7 9;stroke-dashoffset:8;animation:GizTswin_draw 1500ms ease 2038ms forwards;}.GizTswin_107{stroke-dasharray:10 12;stroke-dashoffset:11;animation:GizTswin_draw 1500ms ease 2057ms forwards;}.GizTswin_108{stroke-dasharray:10 12;stroke-dashoffset:11;animation:GizTswin_draw 1500ms ease 2076ms forwards;}.GizTswin_109{stroke-dasharray:3 5;stroke-dashoffset:4;animation:GizTswin_draw 1500ms ease 2096ms forwards;}.GizTswin_110{stroke-dasharray:11 13;stroke-dashoffset:12;animation:GizTswin_draw 1500ms ease 2115ms forwards;}.GizTswin_111{stroke-dasharray:10 12;stroke-dashoffset:11;animation:GizTswin_draw 1500ms ease 2134ms forwards;}.GizTswin_112{stroke-dasharray:8 10;stroke-dashoffset:9;animation:GizTswin_draw 1500ms ease 2153ms forwards;}.GizTswin_113{stroke-dasharray:2 4;stroke-dashoffset:3;animation:GizTswin_draw 1500ms ease 2173ms forwards;}.GizTswin_114{stroke-dasharray:3 5;stroke-dashoffset:4;animation:GizTswin_draw 1500ms ease 2192ms forwards;}.GizTswin_115{stroke-dasharray:5 7;stroke-dashoffset:6;animation:GizTswin_draw 1500ms ease 2211ms forwards;}.GizTswin_116{stroke-dasharray:6 8;stroke-dashoffset:7;animation:GizTswin_draw 1500ms ease 2230ms forwards;}.GizTswin_117{stroke-dasharray:6 8;stroke-dashoffset:7;animation:GizTswin_draw 1500ms ease 2250ms forwards;}.GizTswin_118{stroke-dasharray:8 10;stroke-dashoffset:9;animation:GizTswin_draw 1500ms ease 2269ms forwards;}.GizTswin_119{stroke-dasharray:12 14;stroke-dashoffset:13;animation:GizTswin_draw 1500ms ease 2288ms forwards;}.GizTswin_120{stroke-dasharray:11 13;stroke-dashoffset:12;animation:GizTswin_draw 1500ms ease 2307ms forwards;}.GizTswin_121{stroke-dasharray:14 16;stroke-dashoffset:15;animation:GizTswin_draw 1500ms ease 2326ms forwards;}.GizTswin_122{stroke-dasharray:10 12;stroke-dashoffset:11;animation:GizTswin_draw 1500ms ease 2346ms forwards;}.GizTswin_123{stroke-dasharray:9 11;stroke-dashoffset:10;animation:GizTswin_draw 1500ms ease 2365ms forwards;}.GizTswin_124{stroke-dasharray:13 15;stroke-dashoffset:14;animation:GizTswin_draw 1500ms ease 2384ms forwards;}.GizTswin_125{stroke-dasharray:7 9;stroke-dashoffset:8;animation:GizTswin_draw 1500ms ease 2403ms forwards;}.GizTswin_126{stroke-dasharray:20 22;stroke-dashoffset:21;animation:GizTswin_draw 1500ms ease 2423ms forwards;}.GizTswin_127{stroke-dasharray:10 12;stroke-dashoffset:11;animation:GizTswin_draw 1500ms ease 2442ms forwards;}.GizTswin_128{stroke-dasharray:25 27;stroke-dashoffset:26;animation:GizTswin_draw 1500ms ease 2461ms forwards;}.GizTswin_129{stroke-dasharray:17 19;stroke-dashoffset:18;animation:GizTswin_draw 1500ms ease 2480ms forwards;}.GizTswin_130{stroke-dasharray:14 16;stroke-dashoffset:15;animation:GizTswin_draw 1500ms ease 2500ms forwards;}@keyframes GizTswin_draw{100%{stroke-dashoffset:0;}}@keyframes GizTswin_fade{0%{stroke-opacity:1;}97.82608695652173%{stroke-opacity:1;}100%{stroke-opacity:0;}}</style></svg>
