<!--?xml version="1.0" encoding="utf-8"?-->
<!-- Generator: Adobe Illustrator 19.0.0, SVG Export Plug-In . SVG Version: 6.00 Build 0)  -->
<svg version="1.1" id="Layer_1" xmlns="http://www.w3.org/2000/svg" xmlns:xlink="http://www.w3.org/1999/xlink" x="0px" y="0px" viewBox="-402 195 155 171"  xml:space="preserve">
<style type="text/css">
	.st0{fill:none;stroke:#BFB262;stroke-linecap:round;stroke-linejoin:round;stroke-miterlimit:10;}
</style>
<g id="XMLID_17_">
	<path id="XMLID_7_" class="st0 xxuxgPEX_0" d="M-319.4,353.4c0,0,12.6-1.5,12.6-11.6c0-8.8-10.1-12.4-10.1-18.6s5.1-6.7,5.1-11"></path>
	<path id="XMLID_23_" class="st0 xxuxgPEX_1" d="M-322.4,350.8c4.8-10.1-5.2-12.9-5.2-18.9c0-9.9,15.8-15.3,15.8-19.7"></path>
	<path id="XMLID_40_" class="st0 xxuxgPEX_2" d="M-318.7,347.2c2.9-10.2-9.6-12-5.3-19.7"></path>
	<path id="XMLID_44_" class="st0 xxuxgPEX_3" d="M-312.5,338.8c-1-5.9-8.4-10.2-6-16.7"></path>
	<path id="XMLID_6_" class="st0 xxuxgPEX_4" d="M-332.8,348.1c1.4-6.5-5.6-7.5-5.6-14c0-5.8,5.7-9.6,5.7-15.7c0-9-6.1-11.5-6.1-21.4
		c0-7.1,4.1-11.5,4.1-11.5"></path>
	<path id="XMLID_24_" class="st0 xxuxgPEX_5" d="M-323.3,323.1c6.8-12.4-10.4-19.9-12.7-26.5c-1.8-5.2,1.3-11.1,1.3-11.1"></path>
	<path id="XMLID_39_" class="st0 xxuxgPEX_6" d="M-330.8,341.5c-5.3-11.8,7.4-16.7,7.4-24.7"></path>
	<path id="XMLID_42_" class="st0 xxuxgPEX_7" d="M-331.6,325.1c7.4-10.4-3.9-18.5-5.1-23.6"></path>
	<path id="XMLID_4_" class="st0 xxuxgPEX_8" d="M-356.4,296.5c0,0,2.2-2.3,2.2-5.8c0-7.4-11-8.8-9.9-17"></path>
	<path id="XMLID_21_" class="st0 xxuxgPEX_9" d="M-355.6,343.3c0,0-11.5-4.1-11.5-16.1s6.3-13.4,6.3-23.8c0-8.1-7-17.4-3.3-29.7"></path>
	<path id="XMLID_5_" class="st0 xxuxgPEX_10" d="M-335,314.4c0,0-7.4-2.1-5.9-13.4c1.5-11.4-0.7-16.6-0.7-16.6"></path>
	<path class="st0 xxuxgPEX_11" d="M-343.5,297.5c2.7-5.6,1.9-13.1,1.9-13.1"></path>
	<path class="st0 xxuxgPEX_12" d="M-343.5,297.5c2-6.9-6.4-29.8-1.8-37.7"></path>
	<path class="st0 xxuxgPEX_13" d="M-348.6,272.9c0,0-0.4-10.5,3.3-13.1"></path>
	<path id="XMLID_1_" class="st0 xxuxgPEX_14" d="M-348.6,272.9c-5.3-11.1-0.4-16.7-0.4-25c0-6.4-4.6-9.7-4.6-16.3c0-2.6,1.5-6.9,1.5-10.6
		c0-5.4-3.6-8.4-3-13.4"></path>
	<path class="st0 xxuxgPEX_15" d="M-356.2,252.6c-0.1-2.7,1.1-4.4,1.1-9c0-5-2.1-7.3-2.1-11.1c0-5.8,2.5-7.3,2.5-14.7c0-4.3-1.8-6.3-0.4-10.2"></path>
	<path id="XMLID_3_" class="st0 xxuxgPEX_16" d="M-356.2,252.6c0,0-1.8-2.8-1.3-5.8"></path>
	<path class="st0 xxuxgPEX_17" d="M-358.5,266.6c2.5-5.2-2.8-12.7,1-19.8"></path>
	<path id="XMLID_2_" class="st0 xxuxgPEX_18" d="M-358.5,266.6c1-8.8-5.2-10-2.8-22.5"></path>
	<path id="XMLID_22_" class="st0 xxuxgPEX_19" d="M-360.2,282c5.5-7.1-8.2-17.6-1.1-37.9"></path>
	<path id="XMLID_34_" class="st0 xxuxgPEX_20" d="M-340.4,349.5c0,0-4.7-4.1-4.7-10.7c0-8.5,7.9-10,7.9-16.6c0-7.4-12.5-8.9-12.5-18.9
		c0-5.3,2.8-10.1,2.8-20.2"></path>
	<path id="XMLID_35_" class="st0 xxuxgPEX_21" d="M-360.9,335.4c-6.3-8.3-1.9-18.3-1.9-18.3"></path>
	<path id="XMLID_36_" class="st0 xxuxgPEX_22" d="M-351.4,346.1c0-11.2-10-13.1-10-23.2c0-8.1,8.6-20.1-0.7-34.4"></path>
	<path id="XMLID_37_" class="st0 xxuxgPEX_23" d="M-353.1,280.8c1.1-7.5-2.5-12.8-2.5-19.1c0-8,3.8-9.7,1.9-19.1"></path>
	<path id="XMLID_38_" class="st0 xxuxgPEX_24" d="M-350.1,338.8c-0.9-7.2-10.7-13.3-6.9-23.7"></path>
	<path id="XMLID_41_" class="st0 xxuxgPEX_25" d="M-348.4,332.8c-0.6-7.1,6.7-10.1,0.3-19.5"></path>
	<path id="XMLID_45_" class="st0 xxuxgPEX_26" d="M-354.2,308.4c-3.6-11,8.8-18.9,2.8-36.4"></path>
</g>
<g id="XMLID_26_">
	<g>
		<path id="XMLID_55_" class="st0 xxuxgPEX_27" d="M-286,327.9c0,0,0.2-3.7,0-5.9"></path>
		<path id="XMLID_56_" class="st0 xxuxgPEX_28" d="M-281.6,326.9c0,0-0.1-4.5,0-6.9"></path>
		<path id="XMLID_57_" class="st0 xxuxgPEX_29" d="M-289.5,327.8c0,0,0-3.7-0.1-5.8"></path>
		<path id="XMLID_58_" class="st0 xxuxgPEX_30" d="M-296,327.9c0,0,0.3-4.2,0-6.9"></path>
		<path id="XMLID_60_" class="st0 xxuxgPEX_31" d="M-298.9,326.6c0.1-1.7,0.5-3.7,0.3-5.5"></path>
		<path id="XMLID_62_" class="st0 xxuxgPEX_32" d="M-310.3,326.9c0.1-1.9,0.2-3.1,0-4.9"></path>
		<path id="XMLID_63_" class="st0 xxuxgPEX_33" d="M-305.3,327.3c0.2-2.2,0.2-4,0-5.8"></path>
		<path id="XMLID_69_" class="st0 xxuxgPEX_34" d="M-302.8,326.6c-0.2-2.1-0.2-3.8-0.3-5.8"></path>
		<path id="XMLID_71_" class="st0 xxuxgPEX_35" d="M-282.8,325.8c0,0-0.2-2.5,0-3.8l-1.9,0.6c0.2,1.4,0.1,3.9,0.1,3.9"></path>
		<path id="XMLID_72_" class="st0 xxuxgPEX_36" d="M-291.8,327.3c0,0-0.1-3.5,0-5.4c0,0-1.6,0.1-2.4-0.1c0.2,1.9,0,5.5,0,5.5"></path>
		<path id="XMLID_74_" class="st0 xxuxgPEX_37" d="M-306.7,327.3c0,0-0.1-2,0-3.8c0,0-1.2,0.5-1.8,0.5c0,1.2,0,3.3,0,3.8"></path>
	</g>
	<g>
		<path id="XMLID_53_" class="st0 xxuxgPEX_38" d="M-304.8,321.3l0.9-3.7c-1.9,0.6-3.4,0.9-5.1,0.7c-0.4,1.2-1.1,2.5-2,3.8
			C-308.5,321.5-307.1,321.3-304.8,321.3"></path>
		<path id="XMLID_54_" class="st0 xxuxgPEX_39" d="M-280.5,320.9c-1.6-1.4-2.6-2.4-3.3-3.9"></path>
		<path id="XMLID_10_" class="st0 xxuxgPEX_40" d="M-290.5,321.9l4.4-0.1c1.1-1.8,1.6-3,2.2-4.9c-1.6,1-2.7,1.2-4.2,1.5
			c-0.6,1.5-2.3,3.6-2.3,3.6"></path>
		<path id="XMLID_104_" class="st0 xxuxgPEX_41" d="M-290.4,322c-1.1-1.9-2.5-5.9-2.5-5.9"></path>
		<path id="XMLID_59_" class="st0 xxuxgPEX_42" d="M-292.9,316c-0.3,0.2-3.9,1.3-5.4,0.9l-1.3,4.1l4-0.2C-294.5,319.5-292.9,316.1-292.9,316"></path>
		<path id="XMLID_61_" class="st0 xxuxgPEX_43" d="M-298.6,318c-2.2,0.4-3.7,0.5-5.5,0.4"></path>
		<path id="XMLID_64_" class="st0 xxuxgPEX_44" d="M-299.4,320.3c-2.1-0.1-3.4,0.2-5.4,0.7"></path>
	</g>
	<path id="XMLID_67_" class="st0 xxuxgPEX_45" d="M-286.8,318L-286.8,315"></path>
	<path id="XMLID_68_" class="st0 xxuxgPEX_46" d="M-283.8,317L-283.8,315"></path>
	<path id="XMLID_75_" class="st0 xxuxgPEX_47" d="M-285.3,317.5L-285.3,316.3"></path>
	<path id="XMLID_9_" class="st0 xxuxgPEX_48" d="M-287.3,314.6c0.5,0.7,3.5,0.7,3.8,0"></path>
	<path id="XMLID_103_" class="st0 xxuxgPEX_49" d="M-283.5,314.6c-1.3-4.8-1.9-19.8-1.9-25.6"></path>
	<path id="XMLID_65_" class="st0 xxuxgPEX_50" d="M-287.3,314.6c0.9-4.4,1.9-19.8,1.9-25.6"></path>
</g>
<g>
	<path class="st0 xxuxgPEX_51" d="M-317.9,245.2c-1-0.1-1.9-0.1-2.9,0.2c-4,1.1-6.3,5.2-5.2,9.2c1.1,4,5.2,6.3,9.2,5.2c2.4-0.7,4.2-2.4,5-4.5"></path>
	<path id="XMLID_8_" class="st0 xxuxgPEX_52" d="M-317.9,245.2c-2-0.9-4.3-1.1-6.6-0.4c-5.3,1.5-8.4,7-7,12.3c1.5,5.3,7,8.4,12.3,7
		c4.4-1.1,7.2-4.8,7.4-8.8"></path>
	<path class="st0 xxuxgPEX_53" d="M-319.7,244.9c-0.6-0.1-1.3-0.2-1.9-0.2c-0.9,0-1.8,0.1-2.7,0.4c-5.1,1.4-8.2,6.8-6.8,11.9
		c1.2,4.2,5,7.1,9.4,7.1l0,0c0.8,0,1.7-0.1,2.5-0.3c3.5-0.9,6.1-3.5,6.9-6.8"></path>
	<path class="st0 xxuxgPEX_54" d="M-319.8,244.9c-0.4,0-0.7,0.1-1.1,0.2c-2,0.6-3.7,1.8-4.7,3.7c-1,1.8-1.3,3.9-0.7,5.9c0.9,3.4,4,5.7,7.5,5.7
		c0.7,0,1.4-0.1,2.1-0.3c1.8-0.5,3.4-1.6,4.4-3.1"></path>
	<path class="st0 xxuxgPEX_55" d="M-321.4,245c0,0-0.1,0-0.2,0c-0.8,0-1.7,0.1-2.6,0.4c-5,1.4-7.9,6.6-6.6,11.6c1.1,4.1,4.9,6.9,9.1,6.9
		c0.8,0,1.6-0.1,2.4-0.3c2.8-0.8,5.1-2.7,6.2-5.2"></path>
	<path class="st0 xxuxgPEX_56" d="M-321.5,245c-1.9,0.6-3.4,1.9-4.4,3.6c-1.1,1.9-1.3,4.1-0.7,6.1c1,3.5,4.1,5.9,7.8,5.9c0.7,0,1.5-0.1,2.2-0.3
		c1.3-0.4,2.5-1.1,3.5-2"></path>
	<path class="st0 xxuxgPEX_57" d="M-323.1,245.3c-0.4,0.1-0.8,0.2-1.2,0.3c-4.8,1.4-7.7,6.4-6.4,11.2c1.2,4,4.8,6.7,8.9,6.7
		c0.8,0,1.6-0.1,2.4-0.3c2.2-0.6,4.1-1.9,5.3-3.7"></path>
	<path class="st0 xxuxgPEX_58" d="M-323.1,245.4c-1.3,0.7-2.3,1.8-3,3.1c-1.1,1.9-1.4,4.2-0.8,6.4c1,3.6,4.3,6.1,8,6.1c0.8,0,1.5-0.1,2.3-0.3
		c0.9-0.3,1.7-0.6,2.5-1.1"></path>
	<path class="st0 xxuxgPEX_59" d="M-324.6,246c-4.4,1.4-7,6.2-5.8,10.7c1.1,3.8,4.6,6.5,8.6,6.5c0.8,0,1.5-0.1,2.3-0.3c1.6-0.4,3.1-1.2,4.2-2.4"></path>
	<path class="st0 xxuxgPEX_60" d="M-324.5,246.1c-0.7,0.6-1.4,1.4-1.8,2.3c-1.1,2-1.4,4.4-0.8,6.6c1,3.7,4.5,6.4,8.3,6.4c0.8,0,1.6-0.1,2.3-0.3
		c0.4-0.1,0.8-0.3,1.2-0.4"></path>
	<path class="st0 xxuxgPEX_61" d="M-325.8,246.9c-3.5,1.8-5.3,5.9-4.3,9.8c1.1,3.6,4.5,6.2,8.3,6.2c0.7,0,1.5-0.1,2.2-0.3c1.1-0.2,2-0.7,2.9-1.3
		"></path>
	<path class="st0 xxuxgPEX_62" d="M-325.8,246.9c-0.3,0.4-0.6,0.8-0.9,1.3c-1.2,2.1-1.5,4.5-0.8,6.8c1.1,3.9,4.6,6.6,8.6,6.6
		c0.7,0,1.5-0.1,2.2-0.3"></path>
	<path class="st0 xxuxgPEX_63" d="M-326.8,248.2c0-0.1,0-0.1,0-0.1c-2.5,2-3.7,5.4-2.9,8.6c1,3.5,4.3,6,8,6c0.7,0,1.4-0.1,2.1-0.3
		c0.5-0.1,0.9-0.3,1.4-0.5"></path>
	<path class="st0 xxuxgPEX_64" d="M-326.9,248c-1.2,2.1-1.5,4.7-0.9,7.1c1.1,4,4.8,6.8,8.9,6.8c0.2,0,0.4,0,0.6,0"></path>
	<path class="st0 xxuxgPEX_65" d="M-327.8,249.3c-1.7,1.9-2.4,4.7-1.7,7.2c1,3.4,4.1,5.8,7.7,5.8c0.7,0,1.3-0.1,1.9-0.2"></path>
	<path class="st0 xxuxgPEX_66" d="M-327.8,249.3c-0.7,1.9-0.8,3.9-0.2,5.9c1,3.8,4.3,6.5,8.1,7"></path>
	<path class="st0 xxuxgPEX_67" d="M-328.5,250.9c-0.9,1.7-1.2,3.7-0.7,5.5c0.9,3.3,4,5.6,7.4,5.6"></path>
	<path class="st0 xxuxgPEX_68" d="M-328.5,250.9c-0.2,1.4-0.2,2.9,0.2,4.3c0.9,3.2,3.4,5.8,6.6,6.8c0,0,0,0-0.1,0"></path>
	<path class="st0 xxuxgPEX_69" d="M-329,253.1c-0.2,1.1-0.2,2.2,0.1,3.3c0.7,2.5,2.7,4.4,5.1,5.1"></path>
	<path class="st0 xxuxgPEX_70" d="M-329,253c0,0.8,0.2,1.5,0.4,2.3c0.7,2.6,2.5,4.8,4.8,6.1"></path>
	<path class="st0 xxuxgPEX_71" d="M-328.6,256.2v0.1c0.4,1.2,1,2.2,1.9,3.1"></path>
	<path class="st0 xxuxgPEX_72" d="M-328.6,256.2c0.4,1.2,1.1,2.3,1.9,3.2"></path>
</g>
<g id="XMLID_81_">
	<path id="XMLID_283_" class="st0 xxuxgPEX_73" d="M-328.9,264.3c1,0.8,2.3,1.5,3.6,1.9c0.5,0.2,1,0.3,1.5,0.4"></path>
	<path id="XMLID_280_" class="st0 xxuxgPEX_74" d="M-318.7,266.6c4.1-1,7.6-4.1,9-8.4c1.1-3.5,0.6-7.2-1.1-10.1"></path>
	<path id="XMLID_277_" class="st0 xxuxgPEX_75" d="M-317.3,242.6c-0.1,0-0.3-0.1-0.4-0.1c-6.6-2.1-13.6,1.5-15.7,8.1c-0.4,1-0.5,2.1-0.6,3.2"></path>
	<path id="XMLID_271_" class="st0 xxuxgPEX_76" d="M-335.7,249.9L-335.7,249.9c-2.2,7.1,1.2,14.8,7.8,17.9"></path>
	<path id="XMLID_268_" class="st0 xxuxgPEX_77" d="M-319.8,269.1c5.6-0.6,10.6-4.5,12.4-10.2c0.7-2.1,0.8-4.2,0.6-6.2"></path>
	<path id="XMLID_265_" class="st0 xxuxgPEX_78" d="M-310.2,244.8c-1.7-2.1-4-3.7-6.8-4.6c-5.1-1.6-10.3-0.4-14.1,2.8"></path>
	<path id="XMLID_262_" class="st0 xxuxgPEX_79" d="M-338.1,247.5c-0.3,0.5-0.4,1-0.6,1.5c-1.2,3.7-1.1,7.5,0,11"></path>
	<path id="XMLID_259_" class="st0 xxuxgPEX_80" d="M-335.6,265.8c2.1,2.6,5,4.7,8.5,5.8c4.3,1.4,8.8,1,12.6-0.6"></path>
	<path id="XMLID_256_" class="st0 xxuxgPEX_81" d="M-307.4,265.6c1.3-1.7,2.4-3.6,3.1-5.8c1.7-5.4,0.7-11.1-2.2-15.5"></path>
	<path id="XMLID_253_" class="st0 xxuxgPEX_82" d="M-313.6,238.1c-0.8-0.4-1.6-0.7-2.4-1c-6.5-2-13.4-0.2-18,4.2"></path>
	<path id="XMLID_250_" class="st0 xxuxgPEX_83" d="M-342.3,245.7c-0.3,0.6-0.5,1.2-0.7,1.8c-0.8,2.5-1.2,5-1.1,7.5"></path>
	<path id="XMLID_247_" class="st0 xxuxgPEX_84" d="M-342.9,261.7c2.3,6.6,7.4,11.9,14.5,14.2c0.5,0.2,0.9,0.3,1.4,0.4"></path>
	<path id="XMLID_244_" class="st0 xxuxgPEX_85" d="M-317.2,276.5c7.1-1.4,13.4-6.2,16.4-13.2"></path>
	<path id="XMLID_241_" class="st0 xxuxgPEX_86" d="M-299,252.8c-0.5-6.9-4.2-13.3-10-17.2"></path>
	<path id="XMLID_238_" class="st0 xxuxgPEX_87" d="M-319.4,232c-7.2-0.7-14.2,2.1-18.9,7.4"></path>
	<path id="XMLID_232_" class="st0 xxuxgPEX_88" d="M-344,272.5c3.1,3.8,7.3,6.9,12.2,8.8"></path>
	<path id="XMLID_229_" class="st0 xxuxgPEX_89" d="M-321.5,283.2c7.3,0,14.3-2.8,19.6-7.7"></path>
	<path id="XMLID_226_" class="st0 xxuxgPEX_90" d="M-295.5,266.5c0.5-1.1,0.9-2.2,1.3-3.4c1.8-5.5,1.8-11.1,0.4-16.3"></path>
	<path id="XMLID_223_" class="st0 xxuxgPEX_91" d="M-299.2,236.2c-3.5-4.2-8.1-7.4-13.6-9.2c-1-0.3-2-0.6-3-0.8"></path>
	<path id="XMLID_220_" class="st0 xxuxgPEX_92" d="M-328,226.3c-8.3,1.9-15.5,7.5-19.4,15.4"></path>
	<path id="XMLID_211_" class="st0 xxuxgPEX_93" d="M-333.2,289.6c0.1,0,0.3,0.1,0.4,0.1c1.5,0.5,2.9,0.8,4.4,1.1"></path>
	<path id="XMLID_208_" class="st0 xxuxgPEX_94" d="M-315.7,291c6.3-1,12.2-3.6,17.1-7.5"></path>
	<path id="XMLID_205_" class="st0 xxuxgPEX_95" d="M-289.8,273.7c1.5-2.4,2.7-5.1,3.6-7.9c1-3.2,1.6-6.4,1.7-9.5"></path>
	<path id="XMLID_202_" class="st0 xxuxgPEX_96" d="M-286.4,242.6c-1.9-5.7-5.1-10.8-9.5-15"></path>
	<path id="XMLID_86_" class="st0 xxuxgPEX_97" d="M-307.7,220c-0.9-0.3-1.7-0.6-2.6-0.9c-5-1.6-10.1-2.1-15-1.6"></path>
	<path id="XMLID_82_" class="st0 xxuxgPEX_98" d="M-338.7,221.6c-4.6,2.4-8.8,5.8-12.1,10.1"></path>
</g>
<g id="XMLID_46_">
	<path id="XMLID_47_" class="st0 xxuxgPEX_99" d="M-388.1,317.5c12.4,0,17.5-9.4,26.1-7.5"></path>
	<path id="XMLID_52_" class="st0 xxuxgPEX_100" d="M-377.8,318.5c9,1.1,13-2.1,13-2.1"></path>
	<path id="XMLID_48_" class="st0 xxuxgPEX_101" d="M-326.8,307c6.7-0.2,15.4-8.2,24.6-1.6"></path>
	<path id="XMLID_49_" class="st0 xxuxgPEX_102" d="M-324.8,309.6c6.4-2,12.4-3.8,18.3,2.6"></path>
	<path id="XMLID_28_" class="st0 xxuxgPEX_103" d="M-310.6,305.5c10.1,1.5,17.7-2.8,24.7-5.4"></path>
	<path id="XMLID_73_" class="st0 xxuxgPEX_104" d="M-285.1,300c5.7-2,11.1-2.7,17.4,1.9"></path>
	<path id="XMLID_27_" class="st0 xxuxgPEX_105" d="M-300.3,308.5c5.4,0,9.9-0.9,14-2.1"></path>
	<path id="XMLID_50_" class="st0 xxuxgPEX_106" d="M-284.8,305.8c7.3-2.2,13.9-4.9,23.9-4"></path>
</g>
<style data-made-with="vivus-instant">.xxuxgPEX_0{stroke-dasharray:53 55;stroke-dashoffset:54;animation:xxuxgPEX_draw 2000ms ease 0ms forwards;}.xxuxgPEX_1{stroke-dasharray:48 50;stroke-dashoffset:49;animation:xxuxgPEX_draw 2000ms ease 37ms forwards;}.xxuxgPEX_2{stroke-dasharray:22 24;stroke-dashoffset:23;animation:xxuxgPEX_draw 2000ms ease 75ms forwards;}.xxuxgPEX_3{stroke-dasharray:19 21;stroke-dashoffset:20;animation:xxuxgPEX_draw 2000ms ease 113ms forwards;}.xxuxgPEX_4{stroke-dasharray:68 70;stroke-dashoffset:69;animation:xxuxgPEX_draw 2000ms ease 150ms forwards;}.xxuxgPEX_5{stroke-dasharray:44 46;stroke-dashoffset:45;animation:xxuxgPEX_draw 2000ms ease 188ms forwards;}.xxuxgPEX_6{stroke-dasharray:28 30;stroke-dashoffset:29;animation:xxuxgPEX_draw 2000ms ease 226ms forwards;}.xxuxgPEX_7{stroke-dasharray:27 29;stroke-dashoffset:28;animation:xxuxgPEX_draw 2000ms ease 264ms forwards;}.xxuxgPEX_8{stroke-dasharray:27 29;stroke-dashoffset:28;animation:xxuxgPEX_draw 2000ms ease 301ms forwards;}.xxuxgPEX_9{stroke-dasharray:77 79;stroke-dashoffset:78;animation:xxuxgPEX_draw 2000ms ease 339ms forwards;}.xxuxgPEX_10{stroke-dasharray:33 35;stroke-dashoffset:34;animation:xxuxgPEX_draw 2000ms ease 377ms forwards;}.xxuxgPEX_11{stroke-dasharray:14 16;stroke-dashoffset:15;animation:xxuxgPEX_draw 2000ms ease 415ms forwards;}.xxuxgPEX_12{stroke-dasharray:39 41;stroke-dashoffset:40;animation:xxuxgPEX_draw 2000ms ease 452ms forwards;}.xxuxgPEX_13{stroke-dasharray:14 16;stroke-dashoffset:15;animation:xxuxgPEX_draw 2000ms ease 490ms forwards;}.xxuxgPEX_14{stroke-dasharray:68 70;stroke-dashoffset:69;animation:xxuxgPEX_draw 2000ms ease 528ms forwards;}.xxuxgPEX_15{stroke-dasharray:46 48;stroke-dashoffset:47;animation:xxuxgPEX_draw 2000ms ease 566ms forwards;}.xxuxgPEX_16{stroke-dasharray:7 9;stroke-dashoffset:8;animation:xxuxgPEX_draw 2000ms ease 603ms forwards;}.xxuxgPEX_17{stroke-dasharray:21 23;stroke-dashoffset:22;animation:xxuxgPEX_draw 2000ms ease 641ms forwards;}.xxuxgPEX_18{stroke-dasharray:24 26;stroke-dashoffset:25;animation:xxuxgPEX_draw 2000ms ease 679ms forwards;}.xxuxgPEX_19{stroke-dasharray:40 42;stroke-dashoffset:41;animation:xxuxgPEX_draw 2000ms ease 716ms forwards;}.xxuxgPEX_20{stroke-dasharray:75 77;stroke-dashoffset:76;animation:xxuxgPEX_draw 2000ms ease 754ms forwards;}.xxuxgPEX_21{stroke-dasharray:20 22;stroke-dashoffset:21;animation:xxuxgPEX_draw 2000ms ease 792ms forwards;}.xxuxgPEX_22{stroke-dasharray:62 64;stroke-dashoffset:63;animation:xxuxgPEX_draw 2000ms ease 830ms forwards;}.xxuxgPEX_23{stroke-dasharray:39 41;stroke-dashoffset:40;animation:xxuxgPEX_draw 2000ms ease 867ms forwards;}.xxuxgPEX_24{stroke-dasharray:26 28;stroke-dashoffset:27;animation:xxuxgPEX_draw 2000ms ease 905ms forwards;}.xxuxgPEX_25{stroke-dasharray:21 23;stroke-dashoffset:22;animation:xxuxgPEX_draw 2000ms ease 943ms forwards;}.xxuxgPEX_26{stroke-dasharray:38 40;stroke-dashoffset:39;animation:xxuxgPEX_draw 2000ms ease 981ms forwards;}.xxuxgPEX_27{stroke-dasharray:6 8;stroke-dashoffset:7;animation:xxuxgPEX_draw 2000ms ease 1018ms forwards;}.xxuxgPEX_28{stroke-dasharray:7 9;stroke-dashoffset:8;animation:xxuxgPEX_draw 2000ms ease 1056ms forwards;}.xxuxgPEX_29{stroke-dasharray:6 8;stroke-dashoffset:7;animation:xxuxgPEX_draw 2000ms ease 1094ms forwards;}.xxuxgPEX_30{stroke-dasharray:7 9;stroke-dashoffset:8;animation:xxuxgPEX_draw 2000ms ease 1132ms forwards;}.xxuxgPEX_31{stroke-dasharray:6 8;stroke-dashoffset:7;animation:xxuxgPEX_draw 2000ms ease 1169ms forwards;}.xxuxgPEX_32{stroke-dasharray:5 7;stroke-dashoffset:6;animation:xxuxgPEX_draw 2000ms ease 1207ms forwards;}.xxuxgPEX_33{stroke-dasharray:6 8;stroke-dashoffset:7;animation:xxuxgPEX_draw 2000ms ease 1245ms forwards;}.xxuxgPEX_34{stroke-dasharray:6 8;stroke-dashoffset:7;animation:xxuxgPEX_draw 2000ms ease 1283ms forwards;}.xxuxgPEX_35{stroke-dasharray:10 12;stroke-dashoffset:11;animation:xxuxgPEX_draw 2000ms ease 1320ms forwards;}.xxuxgPEX_36{stroke-dasharray:14 16;stroke-dashoffset:15;animation:xxuxgPEX_draw 2000ms ease 1358ms forwards;}.xxuxgPEX_37{stroke-dasharray:10 12;stroke-dashoffset:11;animation:xxuxgPEX_draw 2000ms ease 1396ms forwards;}.xxuxgPEX_38{stroke-dasharray:20 22;stroke-dashoffset:21;animation:xxuxgPEX_draw 2000ms ease 1433ms forwards;}.xxuxgPEX_39{stroke-dasharray:6 8;stroke-dashoffset:7;animation:xxuxgPEX_draw 2000ms ease 1471ms forwards;}.xxuxgPEX_40{stroke-dasharray:19 21;stroke-dashoffset:20;animation:xxuxgPEX_draw 2000ms ease 1509ms forwards;}.xxuxgPEX_41{stroke-dasharray:7 9;stroke-dashoffset:8;animation:xxuxgPEX_draw 2000ms ease 1547ms forwards;}.xxuxgPEX_42{stroke-dasharray:20 22;stroke-dashoffset:21;animation:xxuxgPEX_draw 2000ms ease 1584ms forwards;}.xxuxgPEX_43{stroke-dasharray:6 8;stroke-dashoffset:7;animation:xxuxgPEX_draw 2000ms ease 1622ms forwards;}.xxuxgPEX_44{stroke-dasharray:6 8;stroke-dashoffset:7;animation:xxuxgPEX_draw 2000ms ease 1660ms forwards;}.xxuxgPEX_45{stroke-dasharray:3 5;stroke-dashoffset:4;animation:xxuxgPEX_draw 2000ms ease 1698ms forwards;}.xxuxgPEX_46{stroke-dasharray:2 4;stroke-dashoffset:3;animation:xxuxgPEX_draw 2000ms ease 1735ms forwards;}.xxuxgPEX_47{stroke-dasharray:2 4;stroke-dashoffset:3;animation:xxuxgPEX_draw 2000ms ease 1773ms forwards;}.xxuxgPEX_48{stroke-dasharray:5 7;stroke-dashoffset:6;animation:xxuxgPEX_draw 2000ms ease 1811ms forwards;}.xxuxgPEX_49{stroke-dasharray:26 28;stroke-dashoffset:27;animation:xxuxgPEX_draw 2000ms ease 1849ms forwards;}.xxuxgPEX_50{stroke-dasharray:26 28;stroke-dashoffset:27;animation:xxuxgPEX_draw 2000ms ease 1886ms forwards;}.xxuxgPEX_51{stroke-dasharray:34 36;stroke-dashoffset:35;animation:xxuxgPEX_draw 2000ms ease 1924ms forwards;}.xxuxgPEX_52{stroke-dasharray:51 53;stroke-dashoffset:52;animation:xxuxgPEX_draw 2000ms ease 1962ms forwards;}.xxuxgPEX_53{stroke-dasharray:46 48;stroke-dashoffset:47;animation:xxuxgPEX_draw 2000ms ease 2000ms forwards;}.xxuxgPEX_54{stroke-dasharray:32 34;stroke-dashoffset:33;animation:xxuxgPEX_draw 2000ms ease 2037ms forwards;}.xxuxgPEX_55{stroke-dasharray:41 43;stroke-dashoffset:42;animation:xxuxgPEX_draw 2000ms ease 2075ms forwards;}.xxuxgPEX_56{stroke-dasharray:29 31;stroke-dashoffset:30;animation:xxuxgPEX_draw 2000ms ease 2113ms forwards;}.xxuxgPEX_57{stroke-dasharray:37 39;stroke-dashoffset:38;animation:xxuxgPEX_draw 2000ms ease 2150ms forwards;}.xxuxgPEX_58{stroke-dasharray:27 29;stroke-dashoffset:28;animation:xxuxgPEX_draw 2000ms ease 2188ms forwards;}.xxuxgPEX_59{stroke-dasharray:33 35;stroke-dashoffset:34;animation:xxuxgPEX_draw 2000ms ease 2226ms forwards;}.xxuxgPEX_60{stroke-dasharray:25 27;stroke-dashoffset:26;animation:xxuxgPEX_draw 2000ms ease 2264ms forwards;}.xxuxgPEX_61{stroke-dasharray:29 31;stroke-dashoffset:30;animation:xxuxgPEX_draw 2000ms ease 2301ms forwards;}.xxuxgPEX_62{stroke-dasharray:23 25;stroke-dashoffset:24;animation:xxuxgPEX_draw 2000ms ease 2339ms forwards;}.xxuxgPEX_63{stroke-dasharray:25 27;stroke-dashoffset:26;animation:xxuxgPEX_draw 2000ms ease 2377ms forwards;}.xxuxgPEX_64{stroke-dasharray:20 22;stroke-dashoffset:21;animation:xxuxgPEX_draw 2000ms ease 2415ms forwards;}.xxuxgPEX_65{stroke-dasharray:20 22;stroke-dashoffset:21;animation:xxuxgPEX_draw 2000ms ease 2452ms forwards;}.xxuxgPEX_66{stroke-dasharray:18 20;stroke-dashoffset:19;animation:xxuxgPEX_draw 2000ms ease 2490ms forwards;}.xxuxgPEX_67{stroke-dasharray:16 18;stroke-dashoffset:17;animation:xxuxgPEX_draw 2000ms ease 2528ms forwards;}.xxuxgPEX_68{stroke-dasharray:15 17;stroke-dashoffset:16;animation:xxuxgPEX_draw 2000ms ease 2566ms forwards;}.xxuxgPEX_69{stroke-dasharray:11 13;stroke-dashoffset:12;animation:xxuxgPEX_draw 2000ms ease 2603ms forwards;}.xxuxgPEX_70{stroke-dasharray:11 13;stroke-dashoffset:12;animation:xxuxgPEX_draw 2000ms ease 2641ms forwards;}.xxuxgPEX_71{stroke-dasharray:4 6;stroke-dashoffset:5;animation:xxuxgPEX_draw 2000ms ease 2679ms forwards;}.xxuxgPEX_72{stroke-dasharray:4 6;stroke-dashoffset:5;animation:xxuxgPEX_draw 2000ms ease 2716ms forwards;}.xxuxgPEX_73{stroke-dasharray:6 8;stroke-dashoffset:7;animation:xxuxgPEX_draw 2000ms ease 2754ms forwards;}.xxuxgPEX_74{stroke-dasharray:24 26;stroke-dashoffset:25;animation:xxuxgPEX_draw 2000ms ease 2792ms forwards;}.xxuxgPEX_75{stroke-dasharray:24 26;stroke-dashoffset:25;animation:xxuxgPEX_draw 2000ms ease 2830ms forwards;}.xxuxgPEX_76{stroke-dasharray:22 24;stroke-dashoffset:23;animation:xxuxgPEX_draw 2000ms ease 2867ms forwards;}.xxuxgPEX_77{stroke-dasharray:24 26;stroke-dashoffset:25;animation:xxuxgPEX_draw 2000ms ease 2905ms forwards;}.xxuxgPEX_78{stroke-dasharray:24 26;stroke-dashoffset:25;animation:xxuxgPEX_draw 2000ms ease 2943ms forwards;}.xxuxgPEX_79{stroke-dasharray:13 15;stroke-dashoffset:14;animation:xxuxgPEX_draw 2000ms ease 2981ms forwards;}.xxuxgPEX_80{stroke-dasharray:24 26;stroke-dashoffset:25;animation:xxuxgPEX_draw 2000ms ease 3018ms forwards;}.xxuxgPEX_81{stroke-dasharray:23 25;stroke-dashoffset:24;animation:xxuxgPEX_draw 2000ms ease 3056ms forwards;}.xxuxgPEX_82{stroke-dasharray:22 24;stroke-dashoffset:23;animation:xxuxgPEX_draw 2000ms ease 3094ms forwards;}.xxuxgPEX_83{stroke-dasharray:10 12;stroke-dashoffset:11;animation:xxuxgPEX_draw 2000ms ease 3132ms forwards;}.xxuxgPEX_84{stroke-dasharray:23 25;stroke-dashoffset:24;animation:xxuxgPEX_draw 2000ms ease 3169ms forwards;}.xxuxgPEX_85{stroke-dasharray:22 24;stroke-dashoffset:23;animation:xxuxgPEX_draw 2000ms ease 3207ms forwards;}.xxuxgPEX_86{stroke-dasharray:21 23;stroke-dashoffset:22;animation:xxuxgPEX_draw 2000ms ease 3245ms forwards;}.xxuxgPEX_87{stroke-dasharray:22 24;stroke-dashoffset:23;animation:xxuxgPEX_draw 2000ms ease 3283ms forwards;}.xxuxgPEX_88{stroke-dasharray:16 18;stroke-dashoffset:17;animation:xxuxgPEX_draw 2000ms ease 3320ms forwards;}.xxuxgPEX_89{stroke-dasharray:22 24;stroke-dashoffset:23;animation:xxuxgPEX_draw 2000ms ease 3358ms forwards;}.xxuxgPEX_90{stroke-dasharray:21 23;stroke-dashoffset:22;animation:xxuxgPEX_draw 2000ms ease 3396ms forwards;}.xxuxgPEX_91{stroke-dasharray:20 22;stroke-dashoffset:21;animation:xxuxgPEX_draw 2000ms ease 3433ms forwards;}.xxuxgPEX_92{stroke-dasharray:26 28;stroke-dashoffset:27;animation:xxuxgPEX_draw 2000ms ease 3471ms forwards;}.xxuxgPEX_93{stroke-dasharray:5 7;stroke-dashoffset:6;animation:xxuxgPEX_draw 2000ms ease 3509ms forwards;}.xxuxgPEX_94{stroke-dasharray:19 21;stroke-dashoffset:20;animation:xxuxgPEX_draw 2000ms ease 3547ms forwards;}.xxuxgPEX_95{stroke-dasharray:19 21;stroke-dashoffset:20;animation:xxuxgPEX_draw 2000ms ease 3584ms forwards;}.xxuxgPEX_96{stroke-dasharray:18 20;stroke-dashoffset:19;animation:xxuxgPEX_draw 2000ms ease 3622ms forwards;}.xxuxgPEX_97{stroke-dasharray:18 20;stroke-dashoffset:19;animation:xxuxgPEX_draw 2000ms ease 3660ms forwards;}.xxuxgPEX_98{stroke-dasharray:16 18;stroke-dashoffset:17;animation:xxuxgPEX_draw 2000ms ease 3698ms forwards;}.xxuxgPEX_99{stroke-dasharray:28 30;stroke-dashoffset:29;animation:xxuxgPEX_draw 2000ms ease 3735ms forwards;}.xxuxgPEX_100{stroke-dasharray:14 16;stroke-dashoffset:15;animation:xxuxgPEX_draw 2000ms ease 3773ms forwards;}.xxuxgPEX_101{stroke-dasharray:26 28;stroke-dashoffset:27;animation:xxuxgPEX_draw 2000ms ease 3811ms forwards;}.xxuxgPEX_102{stroke-dasharray:20 22;stroke-dashoffset:21;animation:xxuxgPEX_draw 2000ms ease 3849ms forwards;}.xxuxgPEX_103{stroke-dasharray:26 28;stroke-dashoffset:27;animation:xxuxgPEX_draw 2000ms ease 3886ms forwards;}.xxuxgPEX_104{stroke-dasharray:19 21;stroke-dashoffset:20;animation:xxuxgPEX_draw 2000ms ease 3924ms forwards;}.xxuxgPEX_105{stroke-dasharray:15 17;stroke-dashoffset:16;animation:xxuxgPEX_draw 2000ms ease 3962ms forwards;}.xxuxgPEX_106{stroke-dasharray:25 27;stroke-dashoffset:26;animation:xxuxgPEX_draw 2000ms ease 4000ms forwards;}@keyframes xxuxgPEX_draw{100%{stroke-dashoffset:0;}}@keyframes xxuxgPEX_fade{0%{stroke-opacity:1;}96.07843137254902%{stroke-opacity:1;}100%{stroke-opacity:0;}}</style></svg>
