<!--?xml version="1.0" encoding="utf-8"?-->
<!-- Generator: Adobe Illustrator 19.0.0, SVG Export Plug-In . SVG Version: 6.00 Build 0)  -->
<svg version="1.1" id="Layer_1" xmlns="http://www.w3.org/2000/svg" xmlns:xlink="http://www.w3.org/1999/xlink" x="0px" y="0px" viewBox="-402 195 155 171" style="" xml:space="preserve">
<style type="text/css">
	.st0{fill:none;stroke:#BFB262;stroke-linecap:round;stroke-linejoin:round;stroke-miterlimit:10;}
</style>
<g id="XMLID_17_">
	<path id="XMLID_21_" class="st0 dEATGGgr_0" d="M-355.6,343.3c0,0-11.5-4.1-11.5-16.1s6.3-13.4,6.3-23.8c0-8.1-7-17.4-3.3-29.7
		c-1.1,8.2,9.9,9.6,9.9,17c0,3.5-2.2,5.8-2.2,5.8"></path>
	<path id="XMLID_22_" class="st0 dEATGGgr_1" d="M-360.2,282c5.5-7.1-8.2-17.6-1.1-37.9c-2.4,12.5,3.8,13.7,2.8,22.5c2.5-5.2-2.8-12.7,1-19.8
		c-0.5,3,1.3,5.8,1.3,5.8c-0.1-2.7,1.1-4.4,1.1-9c0-5-2.1-7.3-2.1-11.1c0-5.8,2.5-7.3,2.5-14.7c0-4.3-1.8-6.3-0.4-10.2
		c-0.6,5,3,8,3,13.4c0,3.7-1.5,8-1.5,10.6c0,6.6,4.6,9.9,4.6,16.3c0,8.3-4.9,13.9,0.4,25c0,0-0.4-10.5,3.3-13.1
		c-4.6,7.9,3.8,30.8,1.8,37.7c2.7-5.6,1.9-13.1,1.9-13.1s2.2,5.2,0.7,16.6c-1.5,11.3,5.9,13.4,5.9,13.4"></path>
	<path id="XMLID_23_" class="st0 dEATGGgr_2" d="M-322.4,350.8c4.8-10.1-5.2-12.9-5.2-18.9c0-9.9,15.8-15.3,15.8-19.7c0,4.3-5.1,4.8-5.1,11
		s10.1,9.8,10.1,18.6c0,10.1-12.6,11.6-12.6,11.6"></path>
	<path id="XMLID_24_" class="st0 dEATGGgr_3" d="M-323.3,323.1c6.8-12.4-10.4-19.9-12.7-26.5c-1.8-5.2,1.3-11.1,1.3-11.1s-4.1,4.4-4.1,11.5
		c0,9.9,6.1,12.4,6.1,21.4c0,6.1-5.7,9.9-5.7,15.7c0,6.5,7,7.5,5.6,14"></path>
	<path id="XMLID_34_" class="st0 dEATGGgr_4" d="M-346.9,283.1c0,10.1-2.8,14.9-2.8,20.2c0,10,12.5,11.5,12.5,18.9c0,6.6-7.9,8.1-7.9,16.6
		c0,6.6,4.7,10.7,4.7,10.7"></path>
	<path id="XMLID_35_" class="st0 dEATGGgr_5" d="M-362.8,317.1c0,0-4.4,10,1.9,18.3"></path>
	<path id="XMLID_36_" class="st0 dEATGGgr_6" d="M-351.4,346.1c0-11.2-10-13.1-10-23.2c0-8.1,8.6-20.1-0.7-34.4"></path>
	<path id="XMLID_37_" class="st0 dEATGGgr_7" d="M-353.7,242.6c1.9,9.4-1.9,11.1-1.9,19.1c0,6.3,3.6,11.6,2.5,19.1"></path>
	<path id="XMLID_38_" class="st0 dEATGGgr_8" d="M-357,315.1c-3.8,10.4,6,16.5,6.9,23.7"></path>
	<path id="XMLID_39_" class="st0 dEATGGgr_9" d="M-330.8,341.5c-5.3-11.8,7.4-16.7,7.4-24.7"></path>
	<path id="XMLID_40_" class="st0 dEATGGgr_10" d="M-324,327.5c-4.3,7.7,8.2,9.5,5.3,19.7"></path>
	<path id="XMLID_41_" class="st0 dEATGGgr_11" d="M-348.4,332.8c-0.6-7.1,6.7-10.1,0.3-19.5"></path>
	<path id="XMLID_42_" class="st0 dEATGGgr_12" d="M-336.7,301.5c1.2,5.1,12.5,13.2,5.1,23.6"></path>
	<path id="XMLID_44_" class="st0 dEATGGgr_13" d="M-318.5,322.1c-2.4,6.5,5,10.8,6,16.7"></path>
	<path id="XMLID_45_" class="st0 dEATGGgr_14" d="M-351.4,272c6,17.5-6.4,25.4-2.8,36.4"></path>
</g>
<g id="XMLID_26_">
	<path id="XMLID_53_" class="st0 dEATGGgr_15" d="M-303.9,317.6c-1.9,0.6-3.4,0.9-5.1,0.7c-0.4,1.2-1.1,2.5-2,3.8c2.5-0.6,3.9-0.8,6.2-0.8
		L-303.9,317.6z"></path>
	<path id="XMLID_54_" class="st0 dEATGGgr_16" d="M-283.8,317c0.7,1.5,1.7,2.5,3.3,3.9"></path>
	<path id="XMLID_55_" class="st0 dEATGGgr_17" d="M-286,322c0.2,2.2,0,5.9,0,5.9"></path>
	<path id="XMLID_56_" class="st0 dEATGGgr_18" d="M-281.6,320c-0.1,2.4,0,6.9,0,6.9"></path>
	<path id="XMLID_57_" class="st0 dEATGGgr_19" d="M-289.6,322c0.1,2.1,0.1,5.8,0.1,5.8"></path>
	<path id="XMLID_58_" class="st0 dEATGGgr_20" d="M-296,321c0.3,2.7,0,6.9,0,6.9"></path>
	<path id="XMLID_59_" class="st0 dEATGGgr_21" d="M-292.9,316.1c-0.3,0.2-3.9,1.2-5.4,0.8l-1.3,4.1l4-0.2C-294.5,319.5-292.9,316.1-292.9,316.1
		s1.4,4,2.5,5.9c0,0,1.7-2.1,2.3-3.6c1.5-0.3,2.6-0.5,4.2-1.5c-0.6,1.9-1.1,3.1-2.2,4.9l-4.4,0.1"></path>
	<path id="XMLID_60_" class="st0 dEATGGgr_22" d="M-298.6,321.1c0.2,1.8-0.2,3.8-0.3,5.5"></path>
	<path id="XMLID_61_" class="st0 dEATGGgr_23" d="M-298.6,318c-2.2,0.4-3.7,0.5-5.5,0.4"></path>
	<path id="XMLID_62_" class="st0 dEATGGgr_24" d="M-310.3,322c0.2,1.8,0.1,3,0,4.9"></path>
	<path id="XMLID_63_" class="st0 dEATGGgr_25" d="M-305.3,321.5c0.2,1.8,0.2,3.6,0,5.8"></path>
	<path id="XMLID_64_" class="st0 dEATGGgr_26" d="M-304.8,321c2-0.5,3.3-0.8,5.4-0.7"></path>
	<path id="XMLID_65_" class="st0 dEATGGgr_27" d="M-283.5,314.6c-1.3-4.8-1.9-19.8-1.9-25.6c0,5.8-1,21.2-1.9,25.6
		C-286.8,315.3-283.8,315.3-283.5,314.6z"></path>
	<path id="XMLID_67_" class="st0 dEATGGgr_28" d="M-286.8,315L-286.8,318"></path>
	<path id="XMLID_68_" class="st0 dEATGGgr_29" d="M-283.8,315L-283.8,317"></path>
	<path id="XMLID_69_" class="st0 dEATGGgr_30" d="M-303.1,320.8c0.1,2,0.1,3.7,0.3,5.8"></path>
	<path id="XMLID_71_" class="st0 dEATGGgr_31" d="M-282.8,325.8c0,0-0.2-2.5,0-3.8l-1.9,0.6c0.2,1.4,0.1,3.9,0.1,3.9"></path>
	<path id="XMLID_72_" class="st0 dEATGGgr_32" d="M-291.8,327.3c0,0-0.1-3.5,0-5.4c0,0-1.6,0.1-2.4-0.1c0.2,1.9,0,5.5,0,5.5"></path>
	<path id="XMLID_74_" class="st0 dEATGGgr_33" d="M-308.5,327.8c0-0.5,0-2.6,0-3.8c0.6,0,1.8-0.5,1.8-0.5c-0.1,1.8,0,3.8,0,3.8"></path>
	<path id="XMLID_75_" class="st0 dEATGGgr_34" d="M-285.3,316.3L-285.3,317.5"></path>
</g>
<g>
	<path class="st0 cUVkmLWs_0" d="M-326.8,259.1c-0.6-0.7-1.1-1.5-1.4-2.3C-327.8,257.6-327.4,258.5-326.8,259.1z"></path>
	<path class="st0 cUVkmLWs_1" d="M-322.3,262c-3.1-0.3-5.8-2.4-6.6-5.5c-0.5-1.7-0.3-3.4,0.3-5c-0.2,1.3-0.1,2.6,0.3,3.8
		C-327.4,258.3-325.1,260.8-322.3,262z"></path>
	<path class="st0 cUVkmLWs_2" d="M-321.6,262.5c-3.6,0-6.7-2.4-7.7-5.9c-0.6-2.1-0.3-4.2,0.7-6.1c0.4-0.7,0.8-1.3,1.4-1.8
		c-0.9,2-1.1,4.3-0.5,6.4c1.1,3.9,4.5,6.7,8.5,6.9c-0.1,0-0.2,0-0.2,0.1C-320.3,262.3-320.9,262.5-321.6,262.5L-321.6,262.5z"></path>
	<path class="st0 cUVkmLWs_3" d="M-321.6,263c-3.8,0-7.2-2.6-8.2-6.2c-0.6-2.2-0.3-4.5,0.8-6.5c0.8-1.5,2.1-2.7,3.6-3.4c-0.4,0.4-0.7,0.9-1,1.4
		c-1.2,2.1-1.5,4.5-0.8,6.8c1.1,3.9,4.6,6.6,8.6,6.6c0.6,0,1.2-0.1,1.8-0.2c-0.8,0.6-1.7,1-2.6,1.2
		C-320.1,262.8-320.9,263-321.6,263L-321.6,263z"></path>
	<path class="st0 cUVkmLWs_4" d="M-321.6,263.5c-4,0-7.6-2.7-8.7-6.6c-0.6-2.3-0.3-4.7,0.8-6.8c1.2-2.1,3.1-3.6,5.4-4.2
		c0.2-0.1,0.5-0.1,0.7-0.2c-1.1,0.7-2,1.7-2.7,2.9c-1.1,2-1.4,4.2-0.8,6.4c1,3.7,4.4,6.2,8.2,6.2c0.8,0,1.5-0.1,2.3-0.3
		c0.6-0.2,1.2-0.4,1.7-0.7c-1.2,1.4-2.8,2.5-4.6,3C-320,263.3-320.8,263.5-321.6,263.5L-321.6,263.5z"></path>
	<path class="st0 cUVkmLWs_5" d="M-321.6,264c-4.3,0-8-2.9-9.1-7c-0.7-2.4-0.4-5,0.9-7.2s3.3-3.8,5.7-4.5c0.8-0.2,1.7-0.3,2.5-0.3
		c0.3,0,0.6,0,0.8,0c-2,0.6-3.7,1.9-4.8,3.7c-1,1.9-1.3,4-0.7,6c1,3.4,4.1,5.8,7.7,5.8c0.7,0,1.4-0.1,2.1-0.3
		c1.4-0.4,2.6-1.1,3.6-2.2c-1.1,2.6-3.4,4.7-6.2,5.5C-319.9,263.8-320.8,264-321.6,264L-321.6,264z"></path>
	<path id="XMLID_32_" class="st0 cUVkmLWs_6" d="M-311.8,255.3c-0.8,2.1-2.6,3.8-5,4.5c-4,1.1-8.1-1.2-9.2-5.2c-1.1-4,1.2-8.1,5.2-9.2
		c1-0.3,1.9-0.3,2.9-0.2c-2-0.9-4.3-1.1-6.6-0.4c-5.3,1.5-8.4,7-7,12.3c1.5,5.3,7,8.4,12.3,7C-314.8,263-312,259.3-311.8,255.3z"></path>
</g>
<g>
	<g id="XMLID_81_">
		<path id="XMLID_286_" class="st0 dIGVjryH_0" d="M-330.1,263.5c-0.6-0.5-1.1-1.1-1.5-1.7"></path>
		<path id="XMLID_283_" class="st0 dIGVjryH_1" d="M-323.8,266.6c-0.5-0.1-1-0.2-1.5-0.4c-1.3-0.4-2.6-1.1-3.6-1.9"></path>
		<path id="XMLID_280_" class="st0 dIGVjryH_2" d="M-310.8,248.1c1.7,2.9,2.2,6.6,1.1,10.1c-1.4,4.3-4.9,7.4-9,8.4"></path>
		<path id="XMLID_277_" class="st0 dIGVjryH_3" d="M-334,253.8c0.1-1.1,0.2-2.2,0.6-3.2c2.1-6.6,9.1-10.2,15.7-8.1c0.1,0,0.3,0.1,0.4,0.1"></path>
		<path id="XMLID_274_" class="st0 dIGVjryH_4" d="M-331.6,261.8c-0.6-0.8-1-1.6-1.4-2.5"></path>
		<path id="XMLID_271_" class="st0 dIGVjryH_5" d="M-327.9,267.8c-6.6-3.1-10-10.8-7.8-17.9l0,0"></path>
		<path id="XMLID_268_" class="st0 dIGVjryH_6" d="M-306.8,252.7c0.2,2,0.1,4.1-0.6,6.2c-1.8,5.7-6.8,9.6-12.4,10.2"></path>
		<path id="XMLID_265_" class="st0 dIGVjryH_7" d="M-331.1,243c3.8-3.2,9-4.4,14.1-2.8c2.8,0.9,5.1,2.5,6.8,4.6"></path>
		<path id="XMLID_262_" class="st0 dIGVjryH_8" d="M-338.7,260c-1.1-3.5-1.2-7.3,0-11c0.2-0.5,0.3-1,0.6-1.5"></path>
		<path id="XMLID_259_" class="st0 dIGVjryH_9" d="M-314.5,271c-3.8,1.6-8.3,2-12.6,0.6c-3.5-1.1-6.4-3.2-8.5-5.8"></path>
		<path id="XMLID_256_" class="st0 dIGVjryH_10" d="M-306.5,244.3c2.9,4.4,3.9,10.1,2.2,15.5c-0.7,2.2-1.8,4.1-3.1,5.8"></path>
		<path id="XMLID_253_" class="st0 dIGVjryH_11" d="M-334,241.3c4.6-4.4,11.5-6.2,18-4.2c0.8,0.3,1.6,0.6,2.4,1"></path>
		<path id="XMLID_250_" class="st0 dIGVjryH_12" d="M-344.1,255c-0.1-2.5,0.3-5,1.1-7.5c0.2-0.6,0.4-1.2,0.7-1.8"></path>
		<path id="XMLID_247_" class="st0 dIGVjryH_13" d="M-327,276.3c-0.5-0.1-0.9-0.2-1.4-0.4c-7.1-2.3-12.2-7.6-14.5-14.2"></path>
		<path id="XMLID_244_" class="st0 dIGVjryH_14" d="M-300.8,263.3c-3,7-9.3,11.8-16.4,13.2"></path>
		<path id="XMLID_241_" class="st0 dIGVjryH_15" d="M-309,235.6c5.8,3.9,9.5,10.3,10,17.2"></path>
		<path id="XMLID_238_" class="st0 dIGVjryH_16" d="M-338.3,239.4c4.7-5.3,11.7-8.1,18.9-7.4"></path>
		<path id="XMLID_232_" class="st0 dIGVjryH_17" d="M-331.8,281.3c-4.9-1.9-9.1-5-12.2-8.8"></path>
		<path id="XMLID_229_" class="st0 dIGVjryH_18" d="M-301.9,275.5c-5.3,4.9-12.3,7.7-19.6,7.7"></path>
		<path id="XMLID_226_" class="st0 dIGVjryH_19" d="M-293.8,246.8c1.4,5.2,1.4,10.8-0.4,16.3c-0.4,1.2-0.8,2.3-1.3,3.4"></path>
		<path id="XMLID_223_" class="st0 dIGVjryH_20" d="M-315.8,226.2c1,0.2,2,0.5,3,0.8c5.5,1.8,10.1,5,13.6,9.2"></path>
		<path id="XMLID_220_" class="st0 dIGVjryH_21" d="M-347.4,241.7c3.9-7.9,11.1-13.5,19.4-15.4"></path>
		<path id="XMLID_211_" class="st0 dIGVjryH_22" d="M-328.4,290.8c-1.5-0.3-2.9-0.6-4.4-1.1c-0.1,0-0.3-0.1-0.4-0.1"></path>
		<path id="XMLID_208_" class="st0 dIGVjryH_23" d="M-298.6,283.5c-4.9,3.9-10.8,6.5-17.1,7.5"></path>
		<path id="XMLID_205_" class="st0 dIGVjryH_24" d="M-284.5,256.3c-0.1,3.1-0.7,6.3-1.7,9.5c-0.9,2.8-2.1,5.5-3.6,7.9"></path>
		<path id="XMLID_202_" class="st0 dIGVjryH_25" d="M-295.9,227.6c4.4,4.2,7.6,9.3,9.5,15"></path>
		<path id="XMLID_86_" class="st0 dIGVjryH_26" d="M-325.3,217.5c4.9-0.5,10,0,15,1.6c0.9,0.3,1.7,0.6,2.6,0.9"></path>
		<path id="XMLID_82_" class="st0 dIGVjryH_27" d="M-350.8,231.7c3.3-4.3,7.5-7.7,12.1-10.1"></path>
	</g>
</g>
<g id="XMLID_46_">
	<path id="XMLID_47_" class="st0 FDwZqbgv_0" d="M-388.1,317.5c12.4,0,17.5-9.4,26.1-7.5"></path>
	<path id="XMLID_48_" class="st0 FDwZqbgv_1" d="M-326.8,307c6.7-0.2,15.4-8.2,24.6-1.6"></path>
	<path id="XMLID_28_" class="st0 FDwZqbgv_2" d="M-310.6,305.5c10.1,1.5,17.7-2.8,24.7-5.4"></path>
	<path id="XMLID_73_" class="st0 FDwZqbgv_3" d="M-285.1,300c5.7-2,11.1-2.7,17.4,1.9"></path>
	<path id="XMLID_49_" class="st0 FDwZqbgv_4" d="M-324.8,309.6c6.4-2,12.4-3.8,18.3,2.6"></path>
	<path id="XMLID_27_" class="st0 FDwZqbgv_5" d="M-300.3,308.5c5.4,0,9.9-0.9,14-2.1"></path>
	<path id="XMLID_50_" class="st0 FDwZqbgv_6" d="M-284.8,305.8c7.3-2.2,13.9-4.9,23.9-4"></path>
	<path id="XMLID_52_" class="st0 FDwZqbgv_7" d="M-377.8,318.5c9,1.1,13-2.1,13-2.1"></path>
</g>
<style data-made-with="vivus-instant">.dEATGGgr_0{stroke-dasharray:104 106;stroke-dashoffset:105;animation:dEATGGgr_draw_0 14100ms ease-in-out 0ms infinite,dEATGGgr_fade 14100ms linear 0ms infinite;}.dEATGGgr_1{stroke-dasharray:300 302;stroke-dashoffset:301;animation:dEATGGgr_draw_1 14100ms ease-in-out 0ms infinite,dEATGGgr_fade 14100ms linear 0ms infinite;}.dEATGGgr_2{stroke-dasharray:100 102;stroke-dashoffset:101;animation:dEATGGgr_draw_2 14100ms ease-in-out 0ms infinite,dEATGGgr_fade 14100ms linear 0ms infinite;}.dEATGGgr_3{stroke-dasharray:111 113;stroke-dashoffset:112;animation:dEATGGgr_draw_3 14100ms ease-in-out 0ms infinite,dEATGGgr_fade 14100ms linear 0ms infinite;}.dEATGGgr_4{stroke-dasharray:75 77;stroke-dashoffset:76;animation:dEATGGgr_draw_4 14100ms ease-in-out 0ms infinite,dEATGGgr_fade 14100ms linear 0ms infinite;}.dEATGGgr_5{stroke-dasharray:20 22;stroke-dashoffset:21;animation:dEATGGgr_draw_5 14100ms ease-in-out 0ms infinite,dEATGGgr_fade 14100ms linear 0ms infinite;}.dEATGGgr_6{stroke-dasharray:62 64;stroke-dashoffset:63;animation:dEATGGgr_draw_6 14100ms ease-in-out 0ms infinite,dEATGGgr_fade 14100ms linear 0ms infinite;}.dEATGGgr_7{stroke-dasharray:39 41;stroke-dashoffset:40;animation:dEATGGgr_draw_7 14100ms ease-in-out 0ms infinite,dEATGGgr_fade 14100ms linear 0ms infinite;}.dEATGGgr_8{stroke-dasharray:26 28;stroke-dashoffset:27;animation:dEATGGgr_draw_8 14100ms ease-in-out 0ms infinite,dEATGGgr_fade 14100ms linear 0ms infinite;}.dEATGGgr_9{stroke-dasharray:28 30;stroke-dashoffset:29;animation:dEATGGgr_draw_9 14100ms ease-in-out 0ms infinite,dEATGGgr_fade 14100ms linear 0ms infinite;}.dEATGGgr_10{stroke-dasharray:22 24;stroke-dashoffset:23;animation:dEATGGgr_draw_10 14100ms ease-in-out 0ms infinite,dEATGGgr_fade 14100ms linear 0ms infinite;}.dEATGGgr_11{stroke-dasharray:21 23;stroke-dashoffset:22;animation:dEATGGgr_draw_11 14100ms ease-in-out 0ms infinite,dEATGGgr_fade 14100ms linear 0ms infinite;}.dEATGGgr_12{stroke-dasharray:27 29;stroke-dashoffset:28;animation:dEATGGgr_draw_12 14100ms ease-in-out 0ms infinite,dEATGGgr_fade 14100ms linear 0ms infinite;}.dEATGGgr_13{stroke-dasharray:19 21;stroke-dashoffset:20;animation:dEATGGgr_draw_13 14100ms ease-in-out 0ms infinite,dEATGGgr_fade 14100ms linear 0ms infinite;}.dEATGGgr_14{stroke-dasharray:38 40;stroke-dashoffset:39;animation:dEATGGgr_draw_14 14100ms ease-in-out 0ms infinite,dEATGGgr_fade 14100ms linear 0ms infinite;}.dEATGGgr_15{stroke-dasharray:20 22;stroke-dashoffset:21;animation:dEATGGgr_draw_15 14100ms ease-in-out 0ms infinite,dEATGGgr_fade 14100ms linear 0ms infinite;}.dEATGGgr_16{stroke-dasharray:6 8;stroke-dashoffset:7;animation:dEATGGgr_draw_16 14100ms ease-in-out 0ms infinite,dEATGGgr_fade 14100ms linear 0ms infinite;}.dEATGGgr_17{stroke-dasharray:6 8;stroke-dashoffset:7;animation:dEATGGgr_draw_17 14100ms ease-in-out 0ms infinite,dEATGGgr_fade 14100ms linear 0ms infinite;}.dEATGGgr_18{stroke-dasharray:7 9;stroke-dashoffset:8;animation:dEATGGgr_draw_18 14100ms ease-in-out 0ms infinite,dEATGGgr_fade 14100ms linear 0ms infinite;}.dEATGGgr_19{stroke-dasharray:6 8;stroke-dashoffset:7;animation:dEATGGgr_draw_19 14100ms ease-in-out 0ms infinite,dEATGGgr_fade 14100ms linear 0ms infinite;}.dEATGGgr_20{stroke-dasharray:7 9;stroke-dashoffset:8;animation:dEATGGgr_draw_20 14100ms ease-in-out 0ms infinite,dEATGGgr_fade 14100ms linear 0ms infinite;}.dEATGGgr_21{stroke-dasharray:45 47;stroke-dashoffset:46;animation:dEATGGgr_draw_21 14100ms ease-in-out 0ms infinite,dEATGGgr_fade 14100ms linear 0ms infinite;}.dEATGGgr_22{stroke-dasharray:6 8;stroke-dashoffset:7;animation:dEATGGgr_draw_22 14100ms ease-in-out 0ms infinite,dEATGGgr_fade 14100ms linear 0ms infinite;}.dEATGGgr_23{stroke-dasharray:6 8;stroke-dashoffset:7;animation:dEATGGgr_draw_23 14100ms ease-in-out 0ms infinite,dEATGGgr_fade 14100ms linear 0ms infinite;}.dEATGGgr_24{stroke-dasharray:5 7;stroke-dashoffset:6;animation:dEATGGgr_draw_24 14100ms ease-in-out 0ms infinite,dEATGGgr_fade 14100ms linear 0ms infinite;}.dEATGGgr_25{stroke-dasharray:6 8;stroke-dashoffset:7;animation:dEATGGgr_draw_25 14100ms ease-in-out 0ms infinite,dEATGGgr_fade 14100ms linear 0ms infinite;}.dEATGGgr_26{stroke-dasharray:6 8;stroke-dashoffset:7;animation:dEATGGgr_draw_26 14100ms ease-in-out 0ms infinite,dEATGGgr_fade 14100ms linear 0ms infinite;}.dEATGGgr_27{stroke-dasharray:56 58;stroke-dashoffset:57;animation:dEATGGgr_draw_27 14100ms ease-in-out 0ms infinite,dEATGGgr_fade 14100ms linear 0ms infinite;}.dEATGGgr_28{stroke-dasharray:3 5;stroke-dashoffset:4;animation:dEATGGgr_draw_28 14100ms ease-in-out 0ms infinite,dEATGGgr_fade 14100ms linear 0ms infinite;}.dEATGGgr_29{stroke-dasharray:2 4;stroke-dashoffset:3;animation:dEATGGgr_draw_29 14100ms ease-in-out 0ms infinite,dEATGGgr_fade 14100ms linear 0ms infinite;}.dEATGGgr_30{stroke-dasharray:6 8;stroke-dashoffset:7;animation:dEATGGgr_draw_30 14100ms ease-in-out 0ms infinite,dEATGGgr_fade 14100ms linear 0ms infinite;}.dEATGGgr_31{stroke-dasharray:10 12;stroke-dashoffset:11;animation:dEATGGgr_draw_31 14100ms ease-in-out 0ms infinite,dEATGGgr_fade 14100ms linear 0ms infinite;}.dEATGGgr_32{stroke-dasharray:14 16;stroke-dashoffset:15;animation:dEATGGgr_draw_32 14100ms ease-in-out 0ms infinite,dEATGGgr_fade 14100ms linear 0ms infinite;}.dEATGGgr_33{stroke-dasharray:10 12;stroke-dashoffset:11;animation:dEATGGgr_draw_33 14100ms ease-in-out 0ms infinite,dEATGGgr_fade 14100ms linear 0ms infinite;}.dEATGGgr_34{stroke-dasharray:2 4;stroke-dashoffset:3;animation:dEATGGgr_draw_34 14100ms ease-in-out 0ms infinite,dEATGGgr_fade 14100ms linear 0ms infinite;}@keyframes dEATGGgr_draw{100%{stroke-dashoffset:0;}}@keyframes dEATGGgr_fade{0%{stroke-opacity:1;}99.29078014184397%{stroke-opacity:1;}100%{stroke-opacity:0;}}@keyframes dEATGGgr_draw_0{0%{stroke-dashoffset: 105}14.184397163120568%{ stroke-dashoffset: 0;}100%{ stroke-dashoffset: 0;}}@keyframes dEATGGgr_draw_1{0.2085940759282436%{stroke-dashoffset: 301}14.392991239048811%{ stroke-dashoffset: 0;}100%{ stroke-dashoffset: 0;}}@keyframes dEATGGgr_draw_2{0.4171881518564872%{stroke-dashoffset: 101}14.601585314977056%{ stroke-dashoffset: 0;}100%{ stroke-dashoffset: 0;}}@keyframes dEATGGgr_draw_3{0.6257822277847309%{stroke-dashoffset: 112}14.810179390905297%{ stroke-dashoffset: 0;}100%{ stroke-dashoffset: 0;}}@keyframes dEATGGgr_draw_4{0.8343763037129744%{stroke-dashoffset: 76}15.01877346683354%{ stroke-dashoffset: 0;}100%{ stroke-dashoffset: 0;}}@keyframes dEATGGgr_draw_5{1.0429703796412182%{stroke-dashoffset: 21}15.227367542761785%{ stroke-dashoffset: 0;}100%{ stroke-dashoffset: 0;}}@keyframes dEATGGgr_draw_6{1.2515644555694618%{stroke-dashoffset: 63}15.43596161869003%{ stroke-dashoffset: 0;}100%{ stroke-dashoffset: 0;}}@keyframes dEATGGgr_draw_7{1.4601585314977052%{stroke-dashoffset: 40}15.644555694618273%{ stroke-dashoffset: 0;}100%{ stroke-dashoffset: 0;}}@keyframes dEATGGgr_draw_8{1.6687526074259489%{stroke-dashoffset: 27}15.853149770546517%{ stroke-dashoffset: 0;}100%{ stroke-dashoffset: 0;}}@keyframes dEATGGgr_draw_9{1.8773466833541925%{stroke-dashoffset: 29}16.06174384647476%{ stroke-dashoffset: 0;}100%{ stroke-dashoffset: 0;}}@keyframes dEATGGgr_draw_10{2.0859407592824364%{stroke-dashoffset: 23}16.270337922403%{ stroke-dashoffset: 0;}100%{ stroke-dashoffset: 0;}}@keyframes dEATGGgr_draw_11{2.29453483521068%{stroke-dashoffset: 22}16.478931998331248%{ stroke-dashoffset: 0;}100%{ stroke-dashoffset: 0;}}@keyframes dEATGGgr_draw_12{2.5031289111389237%{stroke-dashoffset: 28}16.68752607425949%{ stroke-dashoffset: 0;}100%{ stroke-dashoffset: 0;}}@keyframes dEATGGgr_draw_13{2.711722987067167%{stroke-dashoffset: 20}16.896120150187734%{ stroke-dashoffset: 0;}100%{ stroke-dashoffset: 0;}}@keyframes dEATGGgr_draw_14{2.9203170629954105%{stroke-dashoffset: 39}17.10471422611598%{ stroke-dashoffset: 0;}100%{ stroke-dashoffset: 0;}}@keyframes dEATGGgr_draw_15{3.128911138923654%{stroke-dashoffset: 21}17.31330830204422%{ stroke-dashoffset: 0;}100%{ stroke-dashoffset: 0;}}@keyframes dEATGGgr_draw_16{3.3375052148518978%{stroke-dashoffset: 7}17.521902377972467%{ stroke-dashoffset: 0;}100%{ stroke-dashoffset: 0;}}@keyframes dEATGGgr_draw_17{3.546099290780142%{stroke-dashoffset: 7}17.73049645390071%{ stroke-dashoffset: 0;}100%{ stroke-dashoffset: 0;}}@keyframes dEATGGgr_draw_18{3.754693366708385%{stroke-dashoffset: 8}17.939090529828952%{ stroke-dashoffset: 0;}100%{ stroke-dashoffset: 0;}}@keyframes dEATGGgr_draw_19{3.963287442636629%{stroke-dashoffset: 7}18.1476846057572%{ stroke-dashoffset: 0;}100%{ stroke-dashoffset: 0;}}@keyframes dEATGGgr_draw_20{4.171881518564873%{stroke-dashoffset: 8}18.35627868168544%{ stroke-dashoffset: 0;}100%{ stroke-dashoffset: 0;}}@keyframes dEATGGgr_draw_21{4.380475594493117%{stroke-dashoffset: 46}18.56487275761368%{ stroke-dashoffset: 0;}100%{ stroke-dashoffset: 0;}}@keyframes dEATGGgr_draw_22{4.58906967042136%{stroke-dashoffset: 7}18.773466833541928%{ stroke-dashoffset: 0;}100%{ stroke-dashoffset: 0;}}@keyframes dEATGGgr_draw_23{4.797663746349603%{stroke-dashoffset: 7}18.98206090947017%{ stroke-dashoffset: 0;}100%{ stroke-dashoffset: 0;}}@keyframes dEATGGgr_draw_24{5.006257822277847%{stroke-dashoffset: 6}19.190654985398414%{ stroke-dashoffset: 0;}100%{ stroke-dashoffset: 0;}}@keyframes dEATGGgr_draw_25{5.214851898206091%{stroke-dashoffset: 7}19.399249061326657%{ stroke-dashoffset: 0;}100%{ stroke-dashoffset: 0;}}@keyframes dEATGGgr_draw_26{5.423445974134334%{stroke-dashoffset: 7}19.607843137254903%{ stroke-dashoffset: 0;}100%{ stroke-dashoffset: 0;}}@keyframes dEATGGgr_draw_27{5.632040050062578%{stroke-dashoffset: 57}19.816437213183143%{ stroke-dashoffset: 0;}100%{ stroke-dashoffset: 0;}}@keyframes dEATGGgr_draw_28{5.840634125990821%{stroke-dashoffset: 4}20.02503128911139%{ stroke-dashoffset: 0;}100%{ stroke-dashoffset: 0;}}@keyframes dEATGGgr_draw_29{6.049228201919065%{stroke-dashoffset: 3}20.233625365039636%{ stroke-dashoffset: 0;}100%{ stroke-dashoffset: 0;}}@keyframes dEATGGgr_draw_30{6.257822277847308%{stroke-dashoffset: 7}20.442219440967875%{ stroke-dashoffset: 0;}100%{ stroke-dashoffset: 0;}}@keyframes dEATGGgr_draw_31{6.4664163537755535%{stroke-dashoffset: 11}20.65081351689612%{ stroke-dashoffset: 0;}100%{ stroke-dashoffset: 0;}}@keyframes dEATGGgr_draw_32{6.6750104297037955%{stroke-dashoffset: 15}20.859407592824365%{ stroke-dashoffset: 0;}100%{ stroke-dashoffset: 0;}}@keyframes dEATGGgr_draw_33{6.883604505632039%{stroke-dashoffset: 11}21.068001668752608%{ stroke-dashoffset: 0;}100%{ stroke-dashoffset: 0;}}@keyframes dEATGGgr_draw_34{7.092198581560284%{stroke-dashoffset: 3}21.27659574468085%{ stroke-dashoffset: 0;}100%{ stroke-dashoffset: 0;}}</style>
<style data-made-with="vivus-instant">.cUVkmLWs_0{stroke-dasharray:6 8;stroke-dashoffset:7;animation:cUVkmLWs_draw_0 14100ms ease-in-out 0ms infinite,cUVkmLWs_fade 14100ms linear 0ms infinite;}.cUVkmLWs_1{stroke-dasharray:28 30;stroke-dashoffset:29;animation:cUVkmLWs_draw_1 14100ms ease-in-out 0ms infinite,cUVkmLWs_fade 14100ms linear 0ms infinite;}.cUVkmLWs_2{stroke-dasharray:40 42;stroke-dashoffset:41;animation:cUVkmLWs_draw_2 14100ms ease-in-out 0ms infinite,cUVkmLWs_fade 14100ms linear 0ms infinite;}.cUVkmLWs_3{stroke-dasharray:51 53;stroke-dashoffset:52;animation:cUVkmLWs_draw_3 14100ms ease-in-out 0ms infinite,cUVkmLWs_fade 14100ms linear 0ms infinite;}.cUVkmLWs_4{stroke-dasharray:61 63;stroke-dashoffset:62;animation:cUVkmLWs_draw_4 14100ms ease-in-out 0ms infinite,cUVkmLWs_fade 14100ms linear 0ms infinite;}.cUVkmLWs_5{stroke-dasharray:71 73;stroke-dashoffset:72;animation:cUVkmLWs_draw_5 14100ms ease-in-out 0ms infinite,cUVkmLWs_fade 14100ms linear 0ms infinite;}.cUVkmLWs_6{stroke-dasharray:84 86;stroke-dashoffset:85;animation:cUVkmLWs_draw_6 14100ms ease-in-out 0ms infinite,cUVkmLWs_fade 14100ms linear 0ms infinite;}@keyframes cUVkmLWs_draw{100%{stroke-dashoffset:0;}}@keyframes cUVkmLWs_fade{0%{stroke-opacity:1;}99.29078014184397%{stroke-opacity:1;}100%{stroke-opacity:0;}}@keyframes cUVkmLWs_draw_0{21.27659574468085%{stroke-dashoffset: 7}21.704573245292245%{ stroke-dashoffset: 0;}100%{ stroke-dashoffset: 0;}}@keyframes cUVkmLWs_draw_1{21.704573245292245%{stroke-dashoffset: 29}23.47762289068232%{ stroke-dashoffset: 0;}100%{ stroke-dashoffset: 0;}}@keyframes cUVkmLWs_draw_2{23.47762289068232%{stroke-dashoffset: 41}25.984348251406214%{ stroke-dashoffset: 0;}100%{ stroke-dashoffset: 0;}}@keyframes cUVkmLWs_draw_3{25.984348251406214%{stroke-dashoffset: 52}29.163609684519436%{ stroke-dashoffset: 0;}100%{ stroke-dashoffset: 0;}}@keyframes cUVkmLWs_draw_4{29.163609684519436%{stroke-dashoffset: 62}32.95426754707752%{ stroke-dashoffset: 0;}100%{ stroke-dashoffset: 0;}}@keyframes cUVkmLWs_draw_5{32.95426754707753%{stroke-dashoffset: 72}37.356321839080465%{ stroke-dashoffset: 0;}100%{ stroke-dashoffset: 0;}}@keyframes cUVkmLWs_draw_6{37.356321839080465%{stroke-dashoffset: 85}42.5531914893617%{ stroke-dashoffset: 0;}100%{ stroke-dashoffset: 0;}}</style>
<style data-made-with="vivus-instant">.dIGVjryH_0{stroke-dasharray:3 5;stroke-dashoffset:4;animation:dIGVjryH_draw_0 14100ms ease-in-out 0ms infinite,dIGVjryH_fade 14100ms linear 0ms infinite;}.dIGVjryH_1{stroke-dasharray:6 8;stroke-dashoffset:7;animation:dIGVjryH_draw_1 14100ms ease-in-out 0ms infinite,dIGVjryH_fade 14100ms linear 0ms infinite;}.dIGVjryH_2{stroke-dasharray:24 26;stroke-dashoffset:25;animation:dIGVjryH_draw_2 14100ms ease-in-out 0ms infinite,dIGVjryH_fade 14100ms linear 0ms infinite;}.dIGVjryH_3{stroke-dasharray:24 26;stroke-dashoffset:25;animation:dIGVjryH_draw_3 14100ms ease-in-out 0ms infinite,dIGVjryH_fade 14100ms linear 0ms infinite;}.dIGVjryH_4{stroke-dasharray:3 5;stroke-dashoffset:4;animation:dIGVjryH_draw_4 14100ms ease-in-out 0ms infinite,dIGVjryH_fade 14100ms linear 0ms infinite;}.dIGVjryH_5{stroke-dasharray:22 24;stroke-dashoffset:23;animation:dIGVjryH_draw_5 14100ms ease-in-out 0ms infinite,dIGVjryH_fade 14100ms linear 0ms infinite;}.dIGVjryH_6{stroke-dasharray:24 26;stroke-dashoffset:25;animation:dIGVjryH_draw_6 14100ms ease-in-out 0ms infinite,dIGVjryH_fade 14100ms linear 0ms infinite;}.dIGVjryH_7{stroke-dasharray:24 26;stroke-dashoffset:25;animation:dIGVjryH_draw_7 14100ms ease-in-out 0ms infinite,dIGVjryH_fade 14100ms linear 0ms infinite;}.dIGVjryH_8{stroke-dasharray:13 15;stroke-dashoffset:14;animation:dIGVjryH_draw_8 14100ms ease-in-out 0ms infinite,dIGVjryH_fade 14100ms linear 0ms infinite;}.dIGVjryH_9{stroke-dasharray:24 26;stroke-dashoffset:25;animation:dIGVjryH_draw_9 14100ms ease-in-out 0ms infinite,dIGVjryH_fade 14100ms linear 0ms infinite;}.dIGVjryH_10{stroke-dasharray:23 25;stroke-dashoffset:24;animation:dIGVjryH_draw_10 14100ms ease-in-out 0ms infinite,dIGVjryH_fade 14100ms linear 0ms infinite;}.dIGVjryH_11{stroke-dasharray:22 24;stroke-dashoffset:23;animation:dIGVjryH_draw_11 14100ms ease-in-out 0ms infinite,dIGVjryH_fade 14100ms linear 0ms infinite;}.dIGVjryH_12{stroke-dasharray:10 12;stroke-dashoffset:11;animation:dIGVjryH_draw_12 14100ms ease-in-out 0ms infinite,dIGVjryH_fade 14100ms linear 0ms infinite;}.dIGVjryH_13{stroke-dasharray:23 25;stroke-dashoffset:24;animation:dIGVjryH_draw_13 14100ms ease-in-out 0ms infinite,dIGVjryH_fade 14100ms linear 0ms infinite;}.dIGVjryH_14{stroke-dasharray:22 24;stroke-dashoffset:23;animation:dIGVjryH_draw_14 14100ms ease-in-out 0ms infinite,dIGVjryH_fade 14100ms linear 0ms infinite;}.dIGVjryH_15{stroke-dasharray:21 23;stroke-dashoffset:22;animation:dIGVjryH_draw_15 14100ms ease-in-out 0ms infinite,dIGVjryH_fade 14100ms linear 0ms infinite;}.dIGVjryH_16{stroke-dasharray:22 24;stroke-dashoffset:23;animation:dIGVjryH_draw_16 14100ms ease-in-out 0ms infinite,dIGVjryH_fade 14100ms linear 0ms infinite;}.dIGVjryH_17{stroke-dasharray:16 18;stroke-dashoffset:17;animation:dIGVjryH_draw_17 14100ms ease-in-out 0ms infinite,dIGVjryH_fade 14100ms linear 0ms infinite;}.dIGVjryH_18{stroke-dasharray:22 24;stroke-dashoffset:23;animation:dIGVjryH_draw_18 14100ms ease-in-out 0ms infinite,dIGVjryH_fade 14100ms linear 0ms infinite;}.dIGVjryH_19{stroke-dasharray:21 23;stroke-dashoffset:22;animation:dIGVjryH_draw_19 14100ms ease-in-out 0ms infinite,dIGVjryH_fade 14100ms linear 0ms infinite;}.dIGVjryH_20{stroke-dasharray:20 22;stroke-dashoffset:21;animation:dIGVjryH_draw_20 14100ms ease-in-out 0ms infinite,dIGVjryH_fade 14100ms linear 0ms infinite;}.dIGVjryH_21{stroke-dasharray:26 28;stroke-dashoffset:27;animation:dIGVjryH_draw_21 14100ms ease-in-out 0ms infinite,dIGVjryH_fade 14100ms linear 0ms infinite;}.dIGVjryH_22{stroke-dasharray:5 7;stroke-dashoffset:6;animation:dIGVjryH_draw_22 14100ms ease-in-out 0ms infinite,dIGVjryH_fade 14100ms linear 0ms infinite;}.dIGVjryH_23{stroke-dasharray:19 21;stroke-dashoffset:20;animation:dIGVjryH_draw_23 14100ms ease-in-out 0ms infinite,dIGVjryH_fade 14100ms linear 0ms infinite;}.dIGVjryH_24{stroke-dasharray:19 21;stroke-dashoffset:20;animation:dIGVjryH_draw_24 14100ms ease-in-out 0ms infinite,dIGVjryH_fade 14100ms linear 0ms infinite;}.dIGVjryH_25{stroke-dasharray:18 20;stroke-dashoffset:19;animation:dIGVjryH_draw_25 14100ms ease-in-out 0ms infinite,dIGVjryH_fade 14100ms linear 0ms infinite;}.dIGVjryH_26{stroke-dasharray:18 20;stroke-dashoffset:19;animation:dIGVjryH_draw_26 14100ms ease-in-out 0ms infinite,dIGVjryH_fade 14100ms linear 0ms infinite;}.dIGVjryH_27{stroke-dasharray:16 18;stroke-dashoffset:17;animation:dIGVjryH_draw_27 14100ms ease-in-out 0ms infinite,dIGVjryH_fade 14100ms linear 0ms infinite;}@keyframes dIGVjryH_draw{100%{stroke-dashoffset:0;}}@keyframes dIGVjryH_fade{0%{stroke-opacity:1;}99.29078014184397%{stroke-opacity:1;}100%{stroke-opacity:0;}}@keyframes dIGVjryH_draw_0{42.5531914893617%{stroke-dashoffset: 4}49.645390070921984%{ stroke-dashoffset: 0;}100%{ stroke-dashoffset: 0;}}@keyframes dIGVjryH_draw_1{43.07853953244024%{stroke-dashoffset: 7}50.17073811400052%{ stroke-dashoffset: 0;}100%{ stroke-dashoffset: 0;}}@keyframes dIGVjryH_draw_2{43.603887575518776%{stroke-dashoffset: 25}50.696086157079066%{ stroke-dashoffset: 0;}100%{ stroke-dashoffset: 0;}}@keyframes dIGVjryH_draw_3{44.12923561859732%{stroke-dashoffset: 25}51.22143420015761%{ stroke-dashoffset: 0;}100%{ stroke-dashoffset: 0;}}@keyframes dIGVjryH_draw_4{44.654583661675865%{stroke-dashoffset: 4}51.74678224323615%{ stroke-dashoffset: 0;}100%{ stroke-dashoffset: 0;}}@keyframes dIGVjryH_draw_5{45.1799317047544%{stroke-dashoffset: 23}52.27213028631469%{ stroke-dashoffset: 0;}100%{ stroke-dashoffset: 0;}}@keyframes dIGVjryH_draw_6{45.70527974783294%{stroke-dashoffset: 25}52.79747832939322%{ stroke-dashoffset: 0;}100%{ stroke-dashoffset: 0;}}@keyframes dIGVjryH_draw_7{46.23062779091148%{stroke-dashoffset: 25}53.322826372471766%{ stroke-dashoffset: 0;}100%{ stroke-dashoffset: 0;}}@keyframes dIGVjryH_draw_8{46.75597583399002%{stroke-dashoffset: 14}53.84817441555031%{ stroke-dashoffset: 0;}100%{ stroke-dashoffset: 0;}}@keyframes dIGVjryH_draw_9{47.28132387706856%{stroke-dashoffset: 25}54.37352245862884%{ stroke-dashoffset: 0;}100%{ stroke-dashoffset: 0;}}@keyframes dIGVjryH_draw_10{47.806671920147096%{stroke-dashoffset: 24}54.898870501707385%{ stroke-dashoffset: 0;}100%{ stroke-dashoffset: 0;}}@keyframes dIGVjryH_draw_11{48.33201996322563%{stroke-dashoffset: 23}55.424218544785916%{ stroke-dashoffset: 0;}100%{ stroke-dashoffset: 0;}}@keyframes dIGVjryH_draw_12{48.85736800630418%{stroke-dashoffset: 11}55.94956658786446%{ stroke-dashoffset: 0;}100%{ stroke-dashoffset: 0;}}@keyframes dIGVjryH_draw_13{49.38271604938272%{stroke-dashoffset: 24}56.474914630943005%{ stroke-dashoffset: 0;}100%{ stroke-dashoffset: 0;}}@keyframes dIGVjryH_draw_14{49.90806409246125%{stroke-dashoffset: 23}57.00026267402154%{ stroke-dashoffset: 0;}100%{ stroke-dashoffset: 0;}}@keyframes dIGVjryH_draw_15{50.433412135539804%{stroke-dashoffset: 22}57.525610717100086%{ stroke-dashoffset: 0;}100%{ stroke-dashoffset: 0;}}@keyframes dIGVjryH_draw_16{50.958760178618334%{stroke-dashoffset: 23}58.05095876017862%{ stroke-dashoffset: 0;}100%{ stroke-dashoffset: 0;}}@keyframes dIGVjryH_draw_17{51.48410822169688%{stroke-dashoffset: 17}58.57630680325716%{ stroke-dashoffset: 0;}100%{ stroke-dashoffset: 0;}}@keyframes dIGVjryH_draw_18{52.00945626477542%{stroke-dashoffset: 23}59.101654846335705%{ stroke-dashoffset: 0;}100%{ stroke-dashoffset: 0;}}@keyframes dIGVjryH_draw_19{52.53480430785395%{stroke-dashoffset: 22}59.627002889414236%{ stroke-dashoffset: 0;}100%{ stroke-dashoffset: 0;}}@keyframes dIGVjryH_draw_20{53.0601523509325%{stroke-dashoffset: 21}60.15235093249278%{ stroke-dashoffset: 0;}100%{ stroke-dashoffset: 0;}}@keyframes dIGVjryH_draw_21{53.585500394011035%{stroke-dashoffset: 27}60.67769897557132%{ stroke-dashoffset: 0;}100%{ stroke-dashoffset: 0;}}@keyframes dIGVjryH_draw_22{54.11084843708957%{stroke-dashoffset: 6}61.20304701864986%{ stroke-dashoffset: 0;}100%{ stroke-dashoffset: 0;}}@keyframes dIGVjryH_draw_23{54.63619648016811%{stroke-dashoffset: 20}61.728395061728406%{ stroke-dashoffset: 0;}100%{ stroke-dashoffset: 0;}}@keyframes dIGVjryH_draw_24{55.161544523246654%{stroke-dashoffset: 20}62.25374310480694%{ stroke-dashoffset: 0;}100%{ stroke-dashoffset: 0;}}@keyframes dIGVjryH_draw_25{55.6868925663252%{stroke-dashoffset: 19}62.77909114788548%{ stroke-dashoffset: 0;}100%{ stroke-dashoffset: 0;}}@keyframes dIGVjryH_draw_26{56.21224060940373%{stroke-dashoffset: 19}63.304439190964025%{ stroke-dashoffset: 0;}100%{ stroke-dashoffset: 0;}}@keyframes dIGVjryH_draw_27{56.73758865248227%{stroke-dashoffset: 17}63.829787234042556%{ stroke-dashoffset: 0;}100%{ stroke-dashoffset: 0;}}</style>
<style data-made-with="vivus-instant">.FDwZqbgv_0{stroke-dasharray:28 30;stroke-dashoffset:29;animation:FDwZqbgv_draw_0 14100ms ease-in-out 0ms infinite,FDwZqbgv_fade 14100ms linear 0ms infinite;}.FDwZqbgv_1{stroke-dasharray:26 28;stroke-dashoffset:27;animation:FDwZqbgv_draw_1 14100ms ease-in-out 0ms infinite,FDwZqbgv_fade 14100ms linear 0ms infinite;}.FDwZqbgv_2{stroke-dasharray:26 28;stroke-dashoffset:27;animation:FDwZqbgv_draw_2 14100ms ease-in-out 0ms infinite,FDwZqbgv_fade 14100ms linear 0ms infinite;}.FDwZqbgv_3{stroke-dasharray:19 21;stroke-dashoffset:20;animation:FDwZqbgv_draw_3 14100ms ease-in-out 0ms infinite,FDwZqbgv_fade 14100ms linear 0ms infinite;}.FDwZqbgv_4{stroke-dasharray:20 22;stroke-dashoffset:21;animation:FDwZqbgv_draw_4 14100ms ease-in-out 0ms infinite,FDwZqbgv_fade 14100ms linear 0ms infinite;}.FDwZqbgv_5{stroke-dasharray:15 17;stroke-dashoffset:16;animation:FDwZqbgv_draw_5 14100ms ease-in-out 0ms infinite,FDwZqbgv_fade 14100ms linear 0ms infinite;}.FDwZqbgv_6{stroke-dasharray:25 27;stroke-dashoffset:26;animation:FDwZqbgv_draw_6 14100ms ease-in-out 0ms infinite,FDwZqbgv_fade 14100ms linear 0ms infinite;}.FDwZqbgv_7{stroke-dasharray:14 16;stroke-dashoffset:15;animation:FDwZqbgv_draw_7 14100ms ease-in-out 0ms infinite,FDwZqbgv_fade 14100ms linear 0ms infinite;}@keyframes FDwZqbgv_draw{100%{stroke-dashoffset:0;}}@keyframes FDwZqbgv_fade{0%{stroke-opacity:1;}99.29078014184397%{stroke-opacity:1;}100%{stroke-opacity:0;}}@keyframes FDwZqbgv_draw_0{63.829787234042556%{stroke-dashoffset: 29}74.46808510638297%{ stroke-dashoffset: 0;}100%{ stroke-dashoffset: 0;}}@keyframes FDwZqbgv_draw_1{63.829787234042556%{stroke-dashoffset: 27}74.46808510638297%{ stroke-dashoffset: 0;}100%{ stroke-dashoffset: 0;}}@keyframes FDwZqbgv_draw_2{63.829787234042556%{stroke-dashoffset: 27}74.46808510638297%{ stroke-dashoffset: 0;}100%{ stroke-dashoffset: 0;}}@keyframes FDwZqbgv_draw_3{63.829787234042556%{stroke-dashoffset: 20}74.46808510638297%{ stroke-dashoffset: 0;}100%{ stroke-dashoffset: 0;}}@keyframes FDwZqbgv_draw_4{63.829787234042556%{stroke-dashoffset: 21}74.46808510638297%{ stroke-dashoffset: 0;}100%{ stroke-dashoffset: 0;}}@keyframes FDwZqbgv_draw_5{63.829787234042556%{stroke-dashoffset: 16}74.46808510638297%{ stroke-dashoffset: 0;}100%{ stroke-dashoffset: 0;}}@keyframes FDwZqbgv_draw_6{63.829787234042556%{stroke-dashoffset: 26}74.46808510638297%{ stroke-dashoffset: 0;}100%{ stroke-dashoffset: 0;}}@keyframes FDwZqbgv_draw_7{63.829787234042556%{stroke-dashoffset: 15}74.46808510638297%{ stroke-dashoffset: 0;}100%{ stroke-dashoffset: 0;}}</style></svg>
