<!--?xml version="1.0" encoding="utf-8"?-->
<!-- Generator: Adobe Illustrator 19.0.0, SVG Export Plug-In . SVG Version: 6.00 Build 0)  -->
<svg version="1.1" id="Layer_1" xmlns="http://www.w3.org/2000/svg" xmlns:xlink="http://www.w3.org/1999/xlink" x="0px" y="0px" viewBox="-327 189.5 155 171" style="" xml:space="preserve">
<style type="text/css">
	.st0{fill:none;stroke:#BFB262;stroke-linecap:round;stroke-linejoin:round;stroke-miterlimit:10;}
</style>
<g id="XMLID_17_">
	<path id="XMLID_21_" class="st0 BsFFSyVt_0" d="M-278.7,336.9c0,0-11.5-4.1-11.5-16.1s6.3-13.4,6.3-23.8c0-8.1-7-17.4-3.3-29.7
		c-1.1,8.2,9.9,9.6,9.9,17c0,3.5-2.2,5.8-2.2,5.8"></path>
	<path id="XMLID_22_" class="st0 BsFFSyVt_1" d="M-283.3,275.6c5.5-7.1-8.2-17.6-1.1-37.9c-2.4,12.5,3.8,13.7,2.8,22.5c2.5-5.2-2.8-12.7,1-19.8
		c-0.5,3,1.3,5.8,1.3,5.8c-0.1-2.7,1.1-4.4,1.1-9c0-5-2.1-7.3-2.1-11.1c0-5.8,2.5-7.3,2.5-14.7c0-4.3-1.8-6.3-0.4-10.2
		c-0.6,5,3,8,3,13.4c0,3.7-1.5,8-1.5,10.6c0,6.6,4.6,9.9,4.6,16.3c0,8.3-4.9,13.9,0.4,25c0,0-0.4-10.5,3.3-13.1
		c-4.6,7.9,3.8,30.8,1.8,37.7c2.7-5.6,1.9-13.1,1.9-13.1s2.2,5.2,0.7,16.6c-1.5,11.3,5.9,13.4,5.9,13.4"></path>
	<path id="XMLID_23_" class="st0 BsFFSyVt_2" d="M-245.5,344.5c4.8-10.1-5.2-12.9-5.2-18.9c0-9.9,15.8-15.3,15.8-19.7c0,4.3-5.1,4.8-5.1,11
		c0,6.2,10.1,9.8,10.1,18.6c0,10.1-12.6,11.6-12.6,11.6"></path>
	<path id="XMLID_24_" class="st0 BsFFSyVt_3" d="M-246.4,316.8c6.8-12.4-10.4-19.9-12.7-26.5c-1.8-5.2,1.3-11.1,1.3-11.1s-4.1,4.4-4.1,11.5
		c0,9.9,6.1,12.4,6.1,21.4c0,6.1-5.7,9.9-5.7,15.7c0,6.5,7,7.5,5.6,14"></path>
	<path id="XMLID_34_" class="st0 BsFFSyVt_4" d="M-270,276.8c0,10.1-2.8,14.9-2.8,20.2c0,10,12.5,11.5,12.5,18.9c0,6.6-7.9,8.1-7.9,16.6
		c0,6.6,4.7,10.7,4.7,10.7"></path>
	<path id="XMLID_35_" class="st0 BsFFSyVt_5" d="M-285.9,310.8c0,0-4.4,10,1.9,18.3"></path>
	<path id="XMLID_36_" class="st0 BsFFSyVt_6" d="M-274.5,339.8c0-11.2-10-13.1-10-23.2c0-8.1,8.6-20.1-0.7-34.4"></path>
	<path id="XMLID_37_" class="st0 BsFFSyVt_7" d="M-276.8,236.3c1.9,9.4-1.9,11.1-1.9,19.1c0,6.3,3.6,11.6,2.5,19.1"></path>
	<path id="XMLID_38_" class="st0 BsFFSyVt_8" d="M-280.1,308.8c-3.8,10.4,6,16.5,6.9,23.7"></path>
	<path id="XMLID_39_" class="st0 BsFFSyVt_9" d="M-253.8,335.1c-5.3-11.8,7.4-16.7,7.4-24.7"></path>
	<path id="XMLID_40_" class="st0 BsFFSyVt_10" d="M-247.1,321.1c-4.3,7.7,8.2,9.5,5.3,19.7"></path>
	<path id="XMLID_41_" class="st0 BsFFSyVt_11" d="M-271.5,326.5c-0.6-7.1,6.7-10.1,0.3-19.5"></path>
	<path id="XMLID_42_" class="st0 BsFFSyVt_12" d="M-259.8,295.1c1.2,5.1,12.5,13.2,5.1,23.6"></path>
	<path id="XMLID_44_" class="st0 BsFFSyVt_13" d="M-241.6,315.8c-2.4,6.5,5,10.8,6,16.7"></path>
	<path id="XMLID_45_" class="st0 BsFFSyVt_14" d="M-274.5,265.7c6,17.5-6.4,25.4-2.8,36.4"></path>
</g>
<g id="XMLID_26_">
	<path id="XMLID_53_" class="st0 BsFFSyVt_15" d="M-227,311.3c-1.9,0.6-3.4,0.9-5.1,0.7c-0.4,1.2-1.1,2.5-2,3.8c2.5-0.6,3.9-0.8,6.2-0.8
		L-227,311.3z"></path>
	<path id="XMLID_54_" class="st0 BsFFSyVt_16" d="M-206.9,310.7c0.7,1.5,1.7,2.5,3.3,3.9"></path>
	<path id="XMLID_55_" class="st0 BsFFSyVt_17" d="M-209.1,315.6c0.2,2.2,0,5.9,0,5.9"></path>
	<path id="XMLID_56_" class="st0 BsFFSyVt_18" d="M-204.7,313.6c-0.1,2.4,0,6.9,0,6.9"></path>
	<path id="XMLID_57_" class="st0 BsFFSyVt_19" d="M-212.7,315.7c0.1,2.1,0.1,5.8,0.1,5.8"></path>
	<path id="XMLID_58_" class="st0 BsFFSyVt_20" d="M-219.1,314.6c0.3,2.7,0,6.9,0,6.9"></path>
	<path id="XMLID_59_" class="st0 BsFFSyVt_21" d="M-216,309.8c-0.3,0.2-3.9,1.2-5.4,0.8l-1.3,4.1l4-0.2C-217.6,313.1-216,309.8-216,309.8
		s1.4,4,2.5,5.9c0,0,1.7-2.1,2.3-3.6c1.5-0.3,2.6-0.5,4.2-1.5c-0.6,1.9-1.1,3.1-2.2,4.9l-4.4,0.1"></path>
	<path id="XMLID_60_" class="st0 BsFFSyVt_22" d="M-221.7,314.8c0.2,1.8-0.2,3.8-0.3,5.5"></path>
	<path id="XMLID_61_" class="st0 BsFFSyVt_23" d="M-221.7,311.6c-2.2,0.4-3.7,0.5-5.5,0.4"></path>
	<path id="XMLID_62_" class="st0 BsFFSyVt_24" d="M-233.3,315.7c0.2,1.8,0.1,3,0,4.9"></path>
	<path id="XMLID_63_" class="st0 BsFFSyVt_25" d="M-228.3,315.1c0.2,1.8,0.2,3.6,0,5.8"></path>
	<path id="XMLID_64_" class="st0 BsFFSyVt_26" d="M-227.8,314.6c2-0.5,3.3-0.8,5.4-0.7"></path>
	<path id="XMLID_65_" class="st0 BsFFSyVt_27" d="M-206.6,308.3c-1.3-4.8-1.9-19.8-1.9-25.6c0,5.8-1,21.2-1.9,25.6
		C-209.9,308.9-206.9,309-206.6,308.3z"></path>
	<path id="XMLID_67_" class="st0 BsFFSyVt_28" d="M-209.9,308.6L-209.9,311.7"></path>
	<path id="XMLID_68_" class="st0 BsFFSyVt_29" d="M-206.9,308.6L-206.9,310.7"></path>
	<path id="XMLID_69_" class="st0 BsFFSyVt_30" d="M-226.2,314.4c0.1,2,0.1,3.7,0.3,5.8"></path>
	<path id="XMLID_71_" class="st0 BsFFSyVt_31" d="M-205.9,319.4c0,0-0.2-2.5,0-3.8l-1.9,0.6c0.2,1.4,0.1,3.9,0.1,3.9"></path>
	<path id="XMLID_72_" class="st0 BsFFSyVt_32" d="M-214.8,320.9c0,0-0.1-3.5,0-5.4c0,0-1.6,0.1-2.4-0.1c0.2,1.9,0,5.5,0,5.5"></path>
	<path id="XMLID_74_" class="st0 BsFFSyVt_33" d="M-231.6,321.4c0-0.5,0-2.6,0-3.8c0.6,0,1.8-0.5,1.8-0.5c-0.1,1.8,0,3.8,0,3.8"></path>
	<path id="XMLID_75_" class="st0 BsFFSyVt_34" d="M-208.4,309.9L-208.4,311.2"></path>
</g>
<g>
	<path class="st0 BsFFSyVt_35" d="M-249.9,252.8c-0.6-0.7-1.1-1.5-1.4-2.3C-250.9,251.3-250.5,252.1-249.9,252.8z"></path>
	<path class="st0 BsFFSyVt_36" d="M-245.3,255.6c-3.1-0.3-5.8-2.4-6.6-5.5c-0.5-1.7-0.3-3.4,0.3-5c-0.2,1.3-0.1,2.6,0.3,3.8
		C-250.5,252-248.2,254.5-245.3,255.6z"></path>
	<path class="st0 BsFFSyVt_37" d="M-244.7,256.1c-3.6,0-6.7-2.4-7.7-5.9c-0.6-2.1-0.3-4.2,0.7-6.1c0.4-0.7,0.8-1.3,1.4-1.8
		c-0.9,2-1.1,4.3-0.5,6.4c1.1,3.9,4.5,6.7,8.5,6.9c-0.1,0-0.2,0-0.2,0.1C-243.3,256-244,256.1-244.7,256.1L-244.7,256.1z"></path>
	<path class="st0 BsFFSyVt_38" d="M-244.7,256.6c-3.8,0-7.2-2.6-8.2-6.2c-0.6-2.2-0.3-4.5,0.8-6.5c0.8-1.5,2.1-2.7,3.6-3.4
		c-0.4,0.4-0.7,0.9-1,1.4c-1.2,2.1-1.5,4.5-0.8,6.8c1.1,3.9,4.6,6.6,8.6,6.6c0.6,0,1.2-0.1,1.8-0.2c-0.8,0.6-1.7,1-2.6,1.2
		C-243.2,256.5-244,256.6-244.7,256.6L-244.7,256.6z"></path>
	<path class="st0 BsFFSyVt_39" d="M-244.7,257.1c-4,0-7.6-2.7-8.7-6.6c-0.6-2.3-0.3-4.7,0.8-6.8c1.2-2.1,3.1-3.6,5.4-4.2
		c0.2-0.1,0.5-0.1,0.7-0.2c-1.1,0.7-2,1.7-2.7,2.9c-1.1,2-1.4,4.2-0.8,6.4c1,3.7,4.4,6.2,8.2,6.2c0.8,0,1.5-0.1,2.3-0.3
		c0.6-0.2,1.2-0.4,1.7-0.7c-1.2,1.4-2.8,2.5-4.6,3C-243.1,257-243.9,257.1-244.7,257.1L-244.7,257.1z"></path>
	<path class="st0 BsFFSyVt_40" d="M-244.7,257.6c-4.3,0-8-2.9-9.1-7c-0.7-2.4-0.4-5,0.9-7.2c1.3-2.2,3.3-3.8,5.7-4.5c0.8-0.2,1.7-0.3,2.5-0.3
		c0.3,0,0.6,0,0.8,0c-2,0.6-3.7,1.9-4.8,3.7c-1,1.9-1.3,4-0.7,6c1,3.4,4.1,5.8,7.7,5.8c0.7,0,1.4-0.1,2.1-0.3
		c1.4-0.4,2.6-1.1,3.6-2.2c-1.1,2.6-3.4,4.7-6.2,5.5C-243,257.5-243.9,257.6-244.7,257.6L-244.7,257.6z"></path>
	<path id="XMLID_32_" class="st0 BsFFSyVt_41" d="M-234.8,249c-0.8,2.1-2.6,3.8-5,4.5c-4,1.1-8.1-1.2-9.2-5.2c-1.1-4,1.2-8.1,5.2-9.2
		c1-0.3,1.9-0.3,2.9-0.2c-2-0.9-4.3-1.1-6.6-0.4c-5.3,1.5-8.4,7-7,12.3c1.5,5.3,7,8.4,12.3,7C-237.9,256.6-235.1,253-234.8,249z"></path>
</g>
<g id="XMLID_81_">
	<path id="XMLID_286_" class="st0 BsFFSyVt_42" d="M-253.2,257.1c-0.6-0.5-1.1-1.1-1.5-1.7"></path>
	<path id="XMLID_283_" class="st0 BsFFSyVt_43" d="M-246.9,260.3c-0.5-0.1-1-0.2-1.5-0.4c-1.3-0.4-2.6-1.1-3.6-1.9"></path>
	<path id="XMLID_280_" class="st0 BsFFSyVt_44" d="M-233.9,241.8c1.7,2.9,2.2,6.6,1.1,10.1c-1.4,4.3-4.9,7.4-9,8.4"></path>
	<path id="XMLID_277_" class="st0 BsFFSyVt_45" d="M-257.1,247.5c0.1-1.1,0.2-2.2,0.6-3.2c2.1-6.6,9.1-10.2,15.7-8.1c0.1,0,0.3,0.1,0.4,0.1"></path>
	<path id="XMLID_274_" class="st0 BsFFSyVt_46" d="M-254.7,255.4c-0.6-0.8-1-1.6-1.4-2.5"></path>
	<path id="XMLID_271_" class="st0 BsFFSyVt_47" d="M-251,261.5c-6.6-3.1-10-10.8-7.8-17.9c0,0,0,0,0,0"></path>
	<path id="XMLID_268_" class="st0 BsFFSyVt_48" d="M-229.9,246.4c0.2,2,0.1,4.1-0.6,6.2c-1.8,5.7-6.8,9.6-12.4,10.2"></path>
	<path id="XMLID_265_" class="st0 BsFFSyVt_49" d="M-254.2,236.7c3.8-3.2,9-4.4,14.1-2.8c2.8,0.9,5.1,2.5,6.8,4.6"></path>
	<path id="XMLID_262_" class="st0 BsFFSyVt_50" d="M-261.8,253.6c-1.1-3.5-1.2-7.3,0-11c0.2-0.5,0.3-1,0.6-1.5"></path>
	<path id="XMLID_259_" class="st0 BsFFSyVt_51" d="M-237.6,264.7c-3.8,1.6-8.3,2-12.6,0.6c-3.5-1.1-6.4-3.2-8.5-5.8"></path>
	<path id="XMLID_256_" class="st0 BsFFSyVt_52" d="M-229.6,238c2.9,4.4,3.9,10.1,2.2,15.5c-0.7,2.2-1.8,4.1-3.1,5.8"></path>
	<path id="XMLID_253_" class="st0 BsFFSyVt_53" d="M-257.1,235c4.6-4.4,11.5-6.2,18-4.2c0.8,0.3,1.6,0.6,2.4,1"></path>
	<path id="XMLID_250_" class="st0 BsFFSyVt_54" d="M-267.2,248.7c-0.1-2.5,0.3-5,1.1-7.5c0.2-0.6,0.4-1.2,0.7-1.8"></path>
	<path id="XMLID_247_" class="st0 BsFFSyVt_55" d="M-250.1,269.9c-0.5-0.1-0.9-0.2-1.4-0.4c-7.1-2.3-12.2-7.6-14.5-14.2"></path>
	<path id="XMLID_244_" class="st0 BsFFSyVt_56" d="M-223.9,257c-3,7-9.3,11.8-16.4,13.2"></path>
	<path id="XMLID_241_" class="st0 BsFFSyVt_57" d="M-232.1,229.3c5.8,3.9,9.5,10.3,10,17.2"></path>
	<path id="XMLID_238_" class="st0 BsFFSyVt_58" d="M-261.4,233.1c4.7-5.3,11.7-8.1,18.9-7.4"></path>
	<path id="XMLID_232_" class="st0 BsFFSyVt_59" d="M-254.9,275c-4.9-1.9-9.1-5-12.2-8.8"></path>
	<path id="XMLID_229_" class="st0 BsFFSyVt_60" d="M-225,269.2c-5.3,4.9-12.3,7.7-19.6,7.7"></path>
	<path id="XMLID_226_" class="st0 BsFFSyVt_61" d="M-216.8,240.5c1.4,5.2,1.4,10.8-0.4,16.3c-0.4,1.2-0.8,2.3-1.3,3.4"></path>
	<path id="XMLID_223_" class="st0 BsFFSyVt_62" d="M-238.9,219.9c1,0.2,2,0.5,3,0.8c5.5,1.8,10.1,5,13.6,9.2"></path>
	<path id="XMLID_220_" class="st0 BsFFSyVt_63" d="M-270.5,235.4c3.9-7.9,11.1-13.5,19.4-15.4"></path>
	<path id="XMLID_211_" class="st0 BsFFSyVt_64" d="M-251.5,284.5c-1.5-0.3-2.9-0.6-4.4-1.1c-0.1,0-0.3-0.1-0.4-0.1"></path>
	<path id="XMLID_208_" class="st0 BsFFSyVt_65" d="M-221.7,277.2c-4.9,3.9-10.8,6.5-17.1,7.5"></path>
	<path id="XMLID_205_" class="st0 BsFFSyVt_66" d="M-207.6,249.9c-0.1,3.1-0.7,6.3-1.7,9.5c-0.9,2.8-2.1,5.5-3.6,7.9"></path>
	<path id="XMLID_202_" class="st0 BsFFSyVt_67" d="M-219,221.3c4.4,4.2,7.6,9.3,9.5,15"></path>
	<path id="XMLID_86_" class="st0 BsFFSyVt_68" d="M-248.4,211.2c4.9-0.5,10,0,15,1.6c0.9,0.3,1.7,0.6,2.6,0.9"></path>
	<path id="XMLID_82_" class="st0 BsFFSyVt_69" d="M-273.9,225.4c3.3-4.3,7.5-7.7,12.1-10.1"></path>
</g>
<g id="XMLID_46_">
	<path id="XMLID_47_" class="st0 BsFFSyVt_70" d="M-311.2,311.2c12.4,0,17.5-9.4,26.1-7.5"></path>
	<path id="XMLID_48_" class="st0 BsFFSyVt_71" d="M-249.9,300.7c6.7-0.2,15.4-8.2,24.6-1.6"></path>
	<path id="XMLID_28_" class="st0 BsFFSyVt_72" d="M-233.7,299.2c10.1,1.5,17.7-2.8,24.7-5.4"></path>
	<path id="XMLID_73_" class="st0 BsFFSyVt_73" d="M-208.2,293.6c5.7-2,11.1-2.7,17.4,1.9"></path>
	<path id="XMLID_49_" class="st0 BsFFSyVt_74" d="M-247.8,303.3c6.4-2,12.4-3.8,18.3,2.6"></path>
	<path id="XMLID_27_" class="st0 BsFFSyVt_75" d="M-223.4,302.1c5.4,0,9.9-0.9,14-2.1"></path>
	<path id="XMLID_50_" class="st0 BsFFSyVt_76" d="M-207.8,299.5c7.3-2.2,13.9-4.9,23.9-4"></path>
	<path id="XMLID_52_" class="st0 BsFFSyVt_77" d="M-300.9,312.1c9,1.1,13-2.1,13-2.1"></path>
</g>
<style data-made-with="vivus-instant">.BsFFSyVt_0{stroke-dasharray:104 106;stroke-dashoffset:105;animation:BsFFSyVt_draw_0 5600ms ease-in-out 0ms infinite,BsFFSyVt_fade 5600ms linear 0ms infinite;}.BsFFSyVt_1{stroke-dasharray:300 302;stroke-dashoffset:301;animation:BsFFSyVt_draw_1 5600ms ease-in-out 0ms infinite,BsFFSyVt_fade 5600ms linear 0ms infinite;}.BsFFSyVt_2{stroke-dasharray:100 102;stroke-dashoffset:101;animation:BsFFSyVt_draw_2 5600ms ease-in-out 0ms infinite,BsFFSyVt_fade 5600ms linear 0ms infinite;}.BsFFSyVt_3{stroke-dasharray:111 113;stroke-dashoffset:112;animation:BsFFSyVt_draw_3 5600ms ease-in-out 0ms infinite,BsFFSyVt_fade 5600ms linear 0ms infinite;}.BsFFSyVt_4{stroke-dasharray:75 77;stroke-dashoffset:76;animation:BsFFSyVt_draw_4 5600ms ease-in-out 0ms infinite,BsFFSyVt_fade 5600ms linear 0ms infinite;}.BsFFSyVt_5{stroke-dasharray:20 22;stroke-dashoffset:21;animation:BsFFSyVt_draw_5 5600ms ease-in-out 0ms infinite,BsFFSyVt_fade 5600ms linear 0ms infinite;}.BsFFSyVt_6{stroke-dasharray:62 64;stroke-dashoffset:63;animation:BsFFSyVt_draw_6 5600ms ease-in-out 0ms infinite,BsFFSyVt_fade 5600ms linear 0ms infinite;}.BsFFSyVt_7{stroke-dasharray:39 41;stroke-dashoffset:40;animation:BsFFSyVt_draw_7 5600ms ease-in-out 0ms infinite,BsFFSyVt_fade 5600ms linear 0ms infinite;}.BsFFSyVt_8{stroke-dasharray:26 28;stroke-dashoffset:27;animation:BsFFSyVt_draw_8 5600ms ease-in-out 0ms infinite,BsFFSyVt_fade 5600ms linear 0ms infinite;}.BsFFSyVt_9{stroke-dasharray:28 30;stroke-dashoffset:29;animation:BsFFSyVt_draw_9 5600ms ease-in-out 0ms infinite,BsFFSyVt_fade 5600ms linear 0ms infinite;}.BsFFSyVt_10{stroke-dasharray:22 24;stroke-dashoffset:23;animation:BsFFSyVt_draw_10 5600ms ease-in-out 0ms infinite,BsFFSyVt_fade 5600ms linear 0ms infinite;}.BsFFSyVt_11{stroke-dasharray:21 23;stroke-dashoffset:22;animation:BsFFSyVt_draw_11 5600ms ease-in-out 0ms infinite,BsFFSyVt_fade 5600ms linear 0ms infinite;}.BsFFSyVt_12{stroke-dasharray:27 29;stroke-dashoffset:28;animation:BsFFSyVt_draw_12 5600ms ease-in-out 0ms infinite,BsFFSyVt_fade 5600ms linear 0ms infinite;}.BsFFSyVt_13{stroke-dasharray:19 21;stroke-dashoffset:20;animation:BsFFSyVt_draw_13 5600ms ease-in-out 0ms infinite,BsFFSyVt_fade 5600ms linear 0ms infinite;}.BsFFSyVt_14{stroke-dasharray:38 40;stroke-dashoffset:39;animation:BsFFSyVt_draw_14 5600ms ease-in-out 0ms infinite,BsFFSyVt_fade 5600ms linear 0ms infinite;}.BsFFSyVt_15{stroke-dasharray:20 22;stroke-dashoffset:21;animation:BsFFSyVt_draw_15 5600ms ease-in-out 0ms infinite,BsFFSyVt_fade 5600ms linear 0ms infinite;}.BsFFSyVt_16{stroke-dasharray:6 8;stroke-dashoffset:7;animation:BsFFSyVt_draw_16 5600ms ease-in-out 0ms infinite,BsFFSyVt_fade 5600ms linear 0ms infinite;}.BsFFSyVt_17{stroke-dasharray:6 8;stroke-dashoffset:7;animation:BsFFSyVt_draw_17 5600ms ease-in-out 0ms infinite,BsFFSyVt_fade 5600ms linear 0ms infinite;}.BsFFSyVt_18{stroke-dasharray:7 9;stroke-dashoffset:8;animation:BsFFSyVt_draw_18 5600ms ease-in-out 0ms infinite,BsFFSyVt_fade 5600ms linear 0ms infinite;}.BsFFSyVt_19{stroke-dasharray:6 8;stroke-dashoffset:7;animation:BsFFSyVt_draw_19 5600ms ease-in-out 0ms infinite,BsFFSyVt_fade 5600ms linear 0ms infinite;}.BsFFSyVt_20{stroke-dasharray:7 9;stroke-dashoffset:8;animation:BsFFSyVt_draw_20 5600ms ease-in-out 0ms infinite,BsFFSyVt_fade 5600ms linear 0ms infinite;}.BsFFSyVt_21{stroke-dasharray:45 47;stroke-dashoffset:46;animation:BsFFSyVt_draw_21 5600ms ease-in-out 0ms infinite,BsFFSyVt_fade 5600ms linear 0ms infinite;}.BsFFSyVt_22{stroke-dasharray:6 8;stroke-dashoffset:7;animation:BsFFSyVt_draw_22 5600ms ease-in-out 0ms infinite,BsFFSyVt_fade 5600ms linear 0ms infinite;}.BsFFSyVt_23{stroke-dasharray:6 8;stroke-dashoffset:7;animation:BsFFSyVt_draw_23 5600ms ease-in-out 0ms infinite,BsFFSyVt_fade 5600ms linear 0ms infinite;}.BsFFSyVt_24{stroke-dasharray:5 7;stroke-dashoffset:6;animation:BsFFSyVt_draw_24 5600ms ease-in-out 0ms infinite,BsFFSyVt_fade 5600ms linear 0ms infinite;}.BsFFSyVt_25{stroke-dasharray:6 8;stroke-dashoffset:7;animation:BsFFSyVt_draw_25 5600ms ease-in-out 0ms infinite,BsFFSyVt_fade 5600ms linear 0ms infinite;}.BsFFSyVt_26{stroke-dasharray:6 8;stroke-dashoffset:7;animation:BsFFSyVt_draw_26 5600ms ease-in-out 0ms infinite,BsFFSyVt_fade 5600ms linear 0ms infinite;}.BsFFSyVt_27{stroke-dasharray:56 58;stroke-dashoffset:57;animation:BsFFSyVt_draw_27 5600ms ease-in-out 0ms infinite,BsFFSyVt_fade 5600ms linear 0ms infinite;}.BsFFSyVt_28{stroke-dasharray:4 6;stroke-dashoffset:5;animation:BsFFSyVt_draw_28 5600ms ease-in-out 0ms infinite,BsFFSyVt_fade 5600ms linear 0ms infinite;}.BsFFSyVt_29{stroke-dasharray:3 5;stroke-dashoffset:4;animation:BsFFSyVt_draw_29 5600ms ease-in-out 0ms infinite,BsFFSyVt_fade 5600ms linear 0ms infinite;}.BsFFSyVt_30{stroke-dasharray:6 8;stroke-dashoffset:7;animation:BsFFSyVt_draw_30 5600ms ease-in-out 0ms infinite,BsFFSyVt_fade 5600ms linear 0ms infinite;}.BsFFSyVt_31{stroke-dasharray:10 12;stroke-dashoffset:11;animation:BsFFSyVt_draw_31 5600ms ease-in-out 0ms infinite,BsFFSyVt_fade 5600ms linear 0ms infinite;}.BsFFSyVt_32{stroke-dasharray:14 16;stroke-dashoffset:15;animation:BsFFSyVt_draw_32 5600ms ease-in-out 0ms infinite,BsFFSyVt_fade 5600ms linear 0ms infinite;}.BsFFSyVt_33{stroke-dasharray:10 12;stroke-dashoffset:11;animation:BsFFSyVt_draw_33 5600ms ease-in-out 0ms infinite,BsFFSyVt_fade 5600ms linear 0ms infinite;}.BsFFSyVt_34{stroke-dasharray:2 4;stroke-dashoffset:3;animation:BsFFSyVt_draw_34 5600ms ease-in-out 0ms infinite,BsFFSyVt_fade 5600ms linear 0ms infinite;}.BsFFSyVt_35{stroke-dasharray:6 8;stroke-dashoffset:7;animation:BsFFSyVt_draw_35 5600ms ease-in-out 0ms infinite,BsFFSyVt_fade 5600ms linear 0ms infinite;}.BsFFSyVt_36{stroke-dasharray:28 30;stroke-dashoffset:29;animation:BsFFSyVt_draw_36 5600ms ease-in-out 0ms infinite,BsFFSyVt_fade 5600ms linear 0ms infinite;}.BsFFSyVt_37{stroke-dasharray:40 42;stroke-dashoffset:41;animation:BsFFSyVt_draw_37 5600ms ease-in-out 0ms infinite,BsFFSyVt_fade 5600ms linear 0ms infinite;}.BsFFSyVt_38{stroke-dasharray:51 53;stroke-dashoffset:52;animation:BsFFSyVt_draw_38 5600ms ease-in-out 0ms infinite,BsFFSyVt_fade 5600ms linear 0ms infinite;}.BsFFSyVt_39{stroke-dasharray:61 63;stroke-dashoffset:62;animation:BsFFSyVt_draw_39 5600ms ease-in-out 0ms infinite,BsFFSyVt_fade 5600ms linear 0ms infinite;}.BsFFSyVt_40{stroke-dasharray:71 73;stroke-dashoffset:72;animation:BsFFSyVt_draw_40 5600ms ease-in-out 0ms infinite,BsFFSyVt_fade 5600ms linear 0ms infinite;}.BsFFSyVt_41{stroke-dasharray:84 86;stroke-dashoffset:85;animation:BsFFSyVt_draw_41 5600ms ease-in-out 0ms infinite,BsFFSyVt_fade 5600ms linear 0ms infinite;}.BsFFSyVt_42{stroke-dasharray:3 5;stroke-dashoffset:4;animation:BsFFSyVt_draw_42 5600ms ease-in-out 0ms infinite,BsFFSyVt_fade 5600ms linear 0ms infinite;}.BsFFSyVt_43{stroke-dasharray:6 8;stroke-dashoffset:7;animation:BsFFSyVt_draw_43 5600ms ease-in-out 0ms infinite,BsFFSyVt_fade 5600ms linear 0ms infinite;}.BsFFSyVt_44{stroke-dasharray:24 26;stroke-dashoffset:25;animation:BsFFSyVt_draw_44 5600ms ease-in-out 0ms infinite,BsFFSyVt_fade 5600ms linear 0ms infinite;}.BsFFSyVt_45{stroke-dasharray:24 26;stroke-dashoffset:25;animation:BsFFSyVt_draw_45 5600ms ease-in-out 0ms infinite,BsFFSyVt_fade 5600ms linear 0ms infinite;}.BsFFSyVt_46{stroke-dasharray:3 5;stroke-dashoffset:4;animation:BsFFSyVt_draw_46 5600ms ease-in-out 0ms infinite,BsFFSyVt_fade 5600ms linear 0ms infinite;}.BsFFSyVt_47{stroke-dasharray:22 24;stroke-dashoffset:23;animation:BsFFSyVt_draw_47 5600ms ease-in-out 0ms infinite,BsFFSyVt_fade 5600ms linear 0ms infinite;}.BsFFSyVt_48{stroke-dasharray:24 26;stroke-dashoffset:25;animation:BsFFSyVt_draw_48 5600ms ease-in-out 0ms infinite,BsFFSyVt_fade 5600ms linear 0ms infinite;}.BsFFSyVt_49{stroke-dasharray:24 26;stroke-dashoffset:25;animation:BsFFSyVt_draw_49 5600ms ease-in-out 0ms infinite,BsFFSyVt_fade 5600ms linear 0ms infinite;}.BsFFSyVt_50{stroke-dasharray:13 15;stroke-dashoffset:14;animation:BsFFSyVt_draw_50 5600ms ease-in-out 0ms infinite,BsFFSyVt_fade 5600ms linear 0ms infinite;}.BsFFSyVt_51{stroke-dasharray:24 26;stroke-dashoffset:25;animation:BsFFSyVt_draw_51 5600ms ease-in-out 0ms infinite,BsFFSyVt_fade 5600ms linear 0ms infinite;}.BsFFSyVt_52{stroke-dasharray:23 25;stroke-dashoffset:24;animation:BsFFSyVt_draw_52 5600ms ease-in-out 0ms infinite,BsFFSyVt_fade 5600ms linear 0ms infinite;}.BsFFSyVt_53{stroke-dasharray:22 24;stroke-dashoffset:23;animation:BsFFSyVt_draw_53 5600ms ease-in-out 0ms infinite,BsFFSyVt_fade 5600ms linear 0ms infinite;}.BsFFSyVt_54{stroke-dasharray:10 12;stroke-dashoffset:11;animation:BsFFSyVt_draw_54 5600ms ease-in-out 0ms infinite,BsFFSyVt_fade 5600ms linear 0ms infinite;}.BsFFSyVt_55{stroke-dasharray:23 25;stroke-dashoffset:24;animation:BsFFSyVt_draw_55 5600ms ease-in-out 0ms infinite,BsFFSyVt_fade 5600ms linear 0ms infinite;}.BsFFSyVt_56{stroke-dasharray:22 24;stroke-dashoffset:23;animation:BsFFSyVt_draw_56 5600ms ease-in-out 0ms infinite,BsFFSyVt_fade 5600ms linear 0ms infinite;}.BsFFSyVt_57{stroke-dasharray:21 23;stroke-dashoffset:22;animation:BsFFSyVt_draw_57 5600ms ease-in-out 0ms infinite,BsFFSyVt_fade 5600ms linear 0ms infinite;}.BsFFSyVt_58{stroke-dasharray:22 24;stroke-dashoffset:23;animation:BsFFSyVt_draw_58 5600ms ease-in-out 0ms infinite,BsFFSyVt_fade 5600ms linear 0ms infinite;}.BsFFSyVt_59{stroke-dasharray:16 18;stroke-dashoffset:17;animation:BsFFSyVt_draw_59 5600ms ease-in-out 0ms infinite,BsFFSyVt_fade 5600ms linear 0ms infinite;}.BsFFSyVt_60{stroke-dasharray:22 24;stroke-dashoffset:23;animation:BsFFSyVt_draw_60 5600ms ease-in-out 0ms infinite,BsFFSyVt_fade 5600ms linear 0ms infinite;}.BsFFSyVt_61{stroke-dasharray:21 23;stroke-dashoffset:22;animation:BsFFSyVt_draw_61 5600ms ease-in-out 0ms infinite,BsFFSyVt_fade 5600ms linear 0ms infinite;}.BsFFSyVt_62{stroke-dasharray:20 22;stroke-dashoffset:21;animation:BsFFSyVt_draw_62 5600ms ease-in-out 0ms infinite,BsFFSyVt_fade 5600ms linear 0ms infinite;}.BsFFSyVt_63{stroke-dasharray:26 28;stroke-dashoffset:27;animation:BsFFSyVt_draw_63 5600ms ease-in-out 0ms infinite,BsFFSyVt_fade 5600ms linear 0ms infinite;}.BsFFSyVt_64{stroke-dasharray:5 7;stroke-dashoffset:6;animation:BsFFSyVt_draw_64 5600ms ease-in-out 0ms infinite,BsFFSyVt_fade 5600ms linear 0ms infinite;}.BsFFSyVt_65{stroke-dasharray:19 21;stroke-dashoffset:20;animation:BsFFSyVt_draw_65 5600ms ease-in-out 0ms infinite,BsFFSyVt_fade 5600ms linear 0ms infinite;}.BsFFSyVt_66{stroke-dasharray:19 21;stroke-dashoffset:20;animation:BsFFSyVt_draw_66 5600ms ease-in-out 0ms infinite,BsFFSyVt_fade 5600ms linear 0ms infinite;}.BsFFSyVt_67{stroke-dasharray:18 20;stroke-dashoffset:19;animation:BsFFSyVt_draw_67 5600ms ease-in-out 0ms infinite,BsFFSyVt_fade 5600ms linear 0ms infinite;}.BsFFSyVt_68{stroke-dasharray:18 20;stroke-dashoffset:19;animation:BsFFSyVt_draw_68 5600ms ease-in-out 0ms infinite,BsFFSyVt_fade 5600ms linear 0ms infinite;}.BsFFSyVt_69{stroke-dasharray:16 18;stroke-dashoffset:17;animation:BsFFSyVt_draw_69 5600ms ease-in-out 0ms infinite,BsFFSyVt_fade 5600ms linear 0ms infinite;}.BsFFSyVt_70{stroke-dasharray:28 30;stroke-dashoffset:29;animation:BsFFSyVt_draw_70 5600ms ease-in-out 0ms infinite,BsFFSyVt_fade 5600ms linear 0ms infinite;}.BsFFSyVt_71{stroke-dasharray:26 28;stroke-dashoffset:27;animation:BsFFSyVt_draw_71 5600ms ease-in-out 0ms infinite,BsFFSyVt_fade 5600ms linear 0ms infinite;}.BsFFSyVt_72{stroke-dasharray:26 28;stroke-dashoffset:27;animation:BsFFSyVt_draw_72 5600ms ease-in-out 0ms infinite,BsFFSyVt_fade 5600ms linear 0ms infinite;}.BsFFSyVt_73{stroke-dasharray:19 21;stroke-dashoffset:20;animation:BsFFSyVt_draw_73 5600ms ease-in-out 0ms infinite,BsFFSyVt_fade 5600ms linear 0ms infinite;}.BsFFSyVt_74{stroke-dasharray:20 22;stroke-dashoffset:21;animation:BsFFSyVt_draw_74 5600ms ease-in-out 0ms infinite,BsFFSyVt_fade 5600ms linear 0ms infinite;}.BsFFSyVt_75{stroke-dasharray:15 17;stroke-dashoffset:16;animation:BsFFSyVt_draw_75 5600ms ease-in-out 0ms infinite,BsFFSyVt_fade 5600ms linear 0ms infinite;}.BsFFSyVt_76{stroke-dasharray:25 27;stroke-dashoffset:26;animation:BsFFSyVt_draw_76 5600ms ease-in-out 0ms infinite,BsFFSyVt_fade 5600ms linear 0ms infinite;}.BsFFSyVt_77{stroke-dasharray:14 16;stroke-dashoffset:15;animation:BsFFSyVt_draw_77 5600ms ease-in-out 0ms infinite,BsFFSyVt_fade 5600ms linear 0ms infinite;}@keyframes BsFFSyVt_draw{100%{stroke-dashoffset:0;}}@keyframes BsFFSyVt_fade{0%{stroke-opacity:1;}98.21428571428571%{stroke-opacity:1;}100%{stroke-opacity:0;}}@keyframes BsFFSyVt_draw_0{0%{stroke-dashoffset: 105}89.28571428571429%{ stroke-dashoffset: 0;}100%{ stroke-dashoffset: 0;}}@keyframes BsFFSyVt_draw_1{0%{stroke-dashoffset: 301}89.28571428571429%{ stroke-dashoffset: 0;}100%{ stroke-dashoffset: 0;}}@keyframes BsFFSyVt_draw_2{0%{stroke-dashoffset: 101}89.28571428571429%{ stroke-dashoffset: 0;}100%{ stroke-dashoffset: 0;}}@keyframes BsFFSyVt_draw_3{0%{stroke-dashoffset: 112}89.28571428571429%{ stroke-dashoffset: 0;}100%{ stroke-dashoffset: 0;}}@keyframes BsFFSyVt_draw_4{0%{stroke-dashoffset: 76}89.28571428571429%{ stroke-dashoffset: 0;}100%{ stroke-dashoffset: 0;}}@keyframes BsFFSyVt_draw_5{0%{stroke-dashoffset: 21}89.28571428571429%{ stroke-dashoffset: 0;}100%{ stroke-dashoffset: 0;}}@keyframes BsFFSyVt_draw_6{0%{stroke-dashoffset: 63}89.28571428571429%{ stroke-dashoffset: 0;}100%{ stroke-dashoffset: 0;}}@keyframes BsFFSyVt_draw_7{0%{stroke-dashoffset: 40}89.28571428571429%{ stroke-dashoffset: 0;}100%{ stroke-dashoffset: 0;}}@keyframes BsFFSyVt_draw_8{0%{stroke-dashoffset: 27}89.28571428571429%{ stroke-dashoffset: 0;}100%{ stroke-dashoffset: 0;}}@keyframes BsFFSyVt_draw_9{0%{stroke-dashoffset: 29}89.28571428571429%{ stroke-dashoffset: 0;}100%{ stroke-dashoffset: 0;}}@keyframes BsFFSyVt_draw_10{0%{stroke-dashoffset: 23}89.28571428571429%{ stroke-dashoffset: 0;}100%{ stroke-dashoffset: 0;}}@keyframes BsFFSyVt_draw_11{0%{stroke-dashoffset: 22}89.28571428571429%{ stroke-dashoffset: 0;}100%{ stroke-dashoffset: 0;}}@keyframes BsFFSyVt_draw_12{0%{stroke-dashoffset: 28}89.28571428571429%{ stroke-dashoffset: 0;}100%{ stroke-dashoffset: 0;}}@keyframes BsFFSyVt_draw_13{0%{stroke-dashoffset: 20}89.28571428571429%{ stroke-dashoffset: 0;}100%{ stroke-dashoffset: 0;}}@keyframes BsFFSyVt_draw_14{0%{stroke-dashoffset: 39}89.28571428571429%{ stroke-dashoffset: 0;}100%{ stroke-dashoffset: 0;}}@keyframes BsFFSyVt_draw_15{0%{stroke-dashoffset: 21}89.28571428571429%{ stroke-dashoffset: 0;}100%{ stroke-dashoffset: 0;}}@keyframes BsFFSyVt_draw_16{0%{stroke-dashoffset: 7}89.28571428571429%{ stroke-dashoffset: 0;}100%{ stroke-dashoffset: 0;}}@keyframes BsFFSyVt_draw_17{0%{stroke-dashoffset: 7}89.28571428571429%{ stroke-dashoffset: 0;}100%{ stroke-dashoffset: 0;}}@keyframes BsFFSyVt_draw_18{0%{stroke-dashoffset: 8}89.28571428571429%{ stroke-dashoffset: 0;}100%{ stroke-dashoffset: 0;}}@keyframes BsFFSyVt_draw_19{0%{stroke-dashoffset: 7}89.28571428571429%{ stroke-dashoffset: 0;}100%{ stroke-dashoffset: 0;}}@keyframes BsFFSyVt_draw_20{0%{stroke-dashoffset: 8}89.28571428571429%{ stroke-dashoffset: 0;}100%{ stroke-dashoffset: 0;}}@keyframes BsFFSyVt_draw_21{0%{stroke-dashoffset: 46}89.28571428571429%{ stroke-dashoffset: 0;}100%{ stroke-dashoffset: 0;}}@keyframes BsFFSyVt_draw_22{0%{stroke-dashoffset: 7}89.28571428571429%{ stroke-dashoffset: 0;}100%{ stroke-dashoffset: 0;}}@keyframes BsFFSyVt_draw_23{0%{stroke-dashoffset: 7}89.28571428571429%{ stroke-dashoffset: 0;}100%{ stroke-dashoffset: 0;}}@keyframes BsFFSyVt_draw_24{0%{stroke-dashoffset: 6}89.28571428571429%{ stroke-dashoffset: 0;}100%{ stroke-dashoffset: 0;}}@keyframes BsFFSyVt_draw_25{0%{stroke-dashoffset: 7}89.28571428571429%{ stroke-dashoffset: 0;}100%{ stroke-dashoffset: 0;}}@keyframes BsFFSyVt_draw_26{0%{stroke-dashoffset: 7}89.28571428571429%{ stroke-dashoffset: 0;}100%{ stroke-dashoffset: 0;}}@keyframes BsFFSyVt_draw_27{0%{stroke-dashoffset: 57}89.28571428571429%{ stroke-dashoffset: 0;}100%{ stroke-dashoffset: 0;}}@keyframes BsFFSyVt_draw_28{0%{stroke-dashoffset: 5}89.28571428571429%{ stroke-dashoffset: 0;}100%{ stroke-dashoffset: 0;}}@keyframes BsFFSyVt_draw_29{0%{stroke-dashoffset: 4}89.28571428571429%{ stroke-dashoffset: 0;}100%{ stroke-dashoffset: 0;}}@keyframes BsFFSyVt_draw_30{0%{stroke-dashoffset: 7}89.28571428571429%{ stroke-dashoffset: 0;}100%{ stroke-dashoffset: 0;}}@keyframes BsFFSyVt_draw_31{0%{stroke-dashoffset: 11}89.28571428571429%{ stroke-dashoffset: 0;}100%{ stroke-dashoffset: 0;}}@keyframes BsFFSyVt_draw_32{0%{stroke-dashoffset: 15}89.28571428571429%{ stroke-dashoffset: 0;}100%{ stroke-dashoffset: 0;}}@keyframes BsFFSyVt_draw_33{0%{stroke-dashoffset: 11}89.28571428571429%{ stroke-dashoffset: 0;}100%{ stroke-dashoffset: 0;}}@keyframes BsFFSyVt_draw_34{0%{stroke-dashoffset: 3}89.28571428571429%{ stroke-dashoffset: 0;}100%{ stroke-dashoffset: 0;}}@keyframes BsFFSyVt_draw_35{0%{stroke-dashoffset: 7}89.28571428571429%{ stroke-dashoffset: 0;}100%{ stroke-dashoffset: 0;}}@keyframes BsFFSyVt_draw_36{0%{stroke-dashoffset: 29}89.28571428571429%{ stroke-dashoffset: 0;}100%{ stroke-dashoffset: 0;}}@keyframes BsFFSyVt_draw_37{0%{stroke-dashoffset: 41}89.28571428571429%{ stroke-dashoffset: 0;}100%{ stroke-dashoffset: 0;}}@keyframes BsFFSyVt_draw_38{0%{stroke-dashoffset: 52}89.28571428571429%{ stroke-dashoffset: 0;}100%{ stroke-dashoffset: 0;}}@keyframes BsFFSyVt_draw_39{0%{stroke-dashoffset: 62}89.28571428571429%{ stroke-dashoffset: 0;}100%{ stroke-dashoffset: 0;}}@keyframes BsFFSyVt_draw_40{0%{stroke-dashoffset: 72}89.28571428571429%{ stroke-dashoffset: 0;}100%{ stroke-dashoffset: 0;}}@keyframes BsFFSyVt_draw_41{0%{stroke-dashoffset: 85}89.28571428571429%{ stroke-dashoffset: 0;}100%{ stroke-dashoffset: 0;}}@keyframes BsFFSyVt_draw_42{0%{stroke-dashoffset: 4}89.28571428571429%{ stroke-dashoffset: 0;}100%{ stroke-dashoffset: 0;}}@keyframes BsFFSyVt_draw_43{0%{stroke-dashoffset: 7}89.28571428571429%{ stroke-dashoffset: 0;}100%{ stroke-dashoffset: 0;}}@keyframes BsFFSyVt_draw_44{0%{stroke-dashoffset: 25}89.28571428571429%{ stroke-dashoffset: 0;}100%{ stroke-dashoffset: 0;}}@keyframes BsFFSyVt_draw_45{0%{stroke-dashoffset: 25}89.28571428571429%{ stroke-dashoffset: 0;}100%{ stroke-dashoffset: 0;}}@keyframes BsFFSyVt_draw_46{0%{stroke-dashoffset: 4}89.28571428571429%{ stroke-dashoffset: 0;}100%{ stroke-dashoffset: 0;}}@keyframes BsFFSyVt_draw_47{0%{stroke-dashoffset: 23}89.28571428571429%{ stroke-dashoffset: 0;}100%{ stroke-dashoffset: 0;}}@keyframes BsFFSyVt_draw_48{0%{stroke-dashoffset: 25}89.28571428571429%{ stroke-dashoffset: 0;}100%{ stroke-dashoffset: 0;}}@keyframes BsFFSyVt_draw_49{0%{stroke-dashoffset: 25}89.28571428571429%{ stroke-dashoffset: 0;}100%{ stroke-dashoffset: 0;}}@keyframes BsFFSyVt_draw_50{0%{stroke-dashoffset: 14}89.28571428571429%{ stroke-dashoffset: 0;}100%{ stroke-dashoffset: 0;}}@keyframes BsFFSyVt_draw_51{0%{stroke-dashoffset: 25}89.28571428571429%{ stroke-dashoffset: 0;}100%{ stroke-dashoffset: 0;}}@keyframes BsFFSyVt_draw_52{0%{stroke-dashoffset: 24}89.28571428571429%{ stroke-dashoffset: 0;}100%{ stroke-dashoffset: 0;}}@keyframes BsFFSyVt_draw_53{0%{stroke-dashoffset: 23}89.28571428571429%{ stroke-dashoffset: 0;}100%{ stroke-dashoffset: 0;}}@keyframes BsFFSyVt_draw_54{0%{stroke-dashoffset: 11}89.28571428571429%{ stroke-dashoffset: 0;}100%{ stroke-dashoffset: 0;}}@keyframes BsFFSyVt_draw_55{0%{stroke-dashoffset: 24}89.28571428571429%{ stroke-dashoffset: 0;}100%{ stroke-dashoffset: 0;}}@keyframes BsFFSyVt_draw_56{0%{stroke-dashoffset: 23}89.28571428571429%{ stroke-dashoffset: 0;}100%{ stroke-dashoffset: 0;}}@keyframes BsFFSyVt_draw_57{0%{stroke-dashoffset: 22}89.28571428571429%{ stroke-dashoffset: 0;}100%{ stroke-dashoffset: 0;}}@keyframes BsFFSyVt_draw_58{0%{stroke-dashoffset: 23}89.28571428571429%{ stroke-dashoffset: 0;}100%{ stroke-dashoffset: 0;}}@keyframes BsFFSyVt_draw_59{0%{stroke-dashoffset: 17}89.28571428571429%{ stroke-dashoffset: 0;}100%{ stroke-dashoffset: 0;}}@keyframes BsFFSyVt_draw_60{0%{stroke-dashoffset: 23}89.28571428571429%{ stroke-dashoffset: 0;}100%{ stroke-dashoffset: 0;}}@keyframes BsFFSyVt_draw_61{0%{stroke-dashoffset: 22}89.28571428571429%{ stroke-dashoffset: 0;}100%{ stroke-dashoffset: 0;}}@keyframes BsFFSyVt_draw_62{0%{stroke-dashoffset: 21}89.28571428571429%{ stroke-dashoffset: 0;}100%{ stroke-dashoffset: 0;}}@keyframes BsFFSyVt_draw_63{0%{stroke-dashoffset: 27}89.28571428571429%{ stroke-dashoffset: 0;}100%{ stroke-dashoffset: 0;}}@keyframes BsFFSyVt_draw_64{0%{stroke-dashoffset: 6}89.28571428571429%{ stroke-dashoffset: 0;}100%{ stroke-dashoffset: 0;}}@keyframes BsFFSyVt_draw_65{0%{stroke-dashoffset: 20}89.28571428571429%{ stroke-dashoffset: 0;}100%{ stroke-dashoffset: 0;}}@keyframes BsFFSyVt_draw_66{0%{stroke-dashoffset: 20}89.28571428571429%{ stroke-dashoffset: 0;}100%{ stroke-dashoffset: 0;}}@keyframes BsFFSyVt_draw_67{0%{stroke-dashoffset: 19}89.28571428571429%{ stroke-dashoffset: 0;}100%{ stroke-dashoffset: 0;}}@keyframes BsFFSyVt_draw_68{0%{stroke-dashoffset: 19}89.28571428571429%{ stroke-dashoffset: 0;}100%{ stroke-dashoffset: 0;}}@keyframes BsFFSyVt_draw_69{0%{stroke-dashoffset: 17}89.28571428571429%{ stroke-dashoffset: 0;}100%{ stroke-dashoffset: 0;}}@keyframes BsFFSyVt_draw_70{0%{stroke-dashoffset: 29}89.28571428571429%{ stroke-dashoffset: 0;}100%{ stroke-dashoffset: 0;}}@keyframes BsFFSyVt_draw_71{0%{stroke-dashoffset: 27}89.28571428571429%{ stroke-dashoffset: 0;}100%{ stroke-dashoffset: 0;}}@keyframes BsFFSyVt_draw_72{0%{stroke-dashoffset: 27}89.28571428571429%{ stroke-dashoffset: 0;}100%{ stroke-dashoffset: 0;}}@keyframes BsFFSyVt_draw_73{0%{stroke-dashoffset: 20}89.28571428571429%{ stroke-dashoffset: 0;}100%{ stroke-dashoffset: 0;}}@keyframes BsFFSyVt_draw_74{0%{stroke-dashoffset: 21}89.28571428571429%{ stroke-dashoffset: 0;}100%{ stroke-dashoffset: 0;}}@keyframes BsFFSyVt_draw_75{0%{stroke-dashoffset: 16}89.28571428571429%{ stroke-dashoffset: 0;}100%{ stroke-dashoffset: 0;}}@keyframes BsFFSyVt_draw_76{0%{stroke-dashoffset: 26}89.28571428571429%{ stroke-dashoffset: 0;}100%{ stroke-dashoffset: 0;}}@keyframes BsFFSyVt_draw_77{0%{stroke-dashoffset: 15}89.28571428571429%{ stroke-dashoffset: 0;}100%{ stroke-dashoffset: 0;}}</style></svg>
